<svg width="20" height="21" viewBox="0 0 20 21" fill="none" xmlns="http://www.w3.org/2000/svg">
<path d="M10.0101 1.00014C10.2406 1.00484 10.3414 1.11776 10.3462 1.38594C10.3511 2.34573 10.4279 3.30083 10.6392 4.2371C10.9609 5.65327 11.5468 6.94711 12.5841 8.01042C13.5781 9.02667 14.8027 9.6289 16.1954 9.88767C16.9781 10.0335 17.7801 10.0759 18.5773 10.1464C18.875 10.1747 18.9951 10.2452 18.9999 10.4805C19.0047 10.7251 18.8846 10.8381 18.5773 10.8381C17.3671 10.8428 16.181 10.9933 15.0476 11.4215C13.0211 12.1837 11.7005 13.6139 10.9705 15.5994C10.4999 16.8838 10.3607 18.2247 10.3462 19.5797C10.3462 19.7632 10.327 19.9279 10.1061 19.9844C9.84202 20.0502 9.68354 19.9044 9.65953 19.6174C9.5875 18.7517 9.55868 17.8766 9.40981 17.0203C9.12648 15.4112 8.45897 13.9668 7.23921 12.8094C6.26916 11.8872 5.08781 11.3368 3.772 11.0968C2.98924 10.9557 2.18727 10.918 1.3901 10.8428C1.13078 10.8192 1.01552 10.7345 1.00112 10.5228C0.98671 10.2829 1.11157 10.17 1.38529 10.1511C2.02879 10.1041 2.6819 10.09 3.32059 9.99117C4.91013 9.74652 6.32198 9.12077 7.45051 7.96337C8.47818 6.90947 9.05445 5.63445 9.36659 4.22769C9.57789 3.29142 9.64512 2.33632 9.65953 1.37653C9.66914 1.11305 9.77959 0.995431 10.0101 1.00014ZM4.21861 10.4852C7.38328 11.3462 9.24174 13.4022 10.0101 16.4839C10.3847 15.0395 10.9849 13.7316 12.0126 12.6353C13.0403 11.5391 14.3465 10.8992 15.7968 10.4899C14.3225 10.0947 13.0403 9.40777 11.9982 8.31624C10.9609 7.23411 10.3799 5.92145 10.0053 4.49587C9.22733 7.57286 7.41209 9.65713 4.21861 10.4852Z" fill="#E29400" stroke="#E29400" stroke-width="2" stroke-miterlimit="10"/>
</svg>
