<svg width="56" height="56" viewBox="0 0 56 56" fill="none" xmlns="http://www.w3.org/2000/svg">
<rect width="56" height="56" rx="15" fill="#215EF8"/>
<path d="M45.5608 27.9308C45.4483 28.0399 45.3293 28.1391 45.2267 28.2582C43.3582 30.4079 41.3011 32.3526 38.9992 34.0326C38.8901 34.112 38.781 34.1881 38.5825 34.3237C40.9505 29.9945 40.9571 25.748 38.5825 21.4089C38.771 21.5379 38.8868 21.6107 38.9959 21.6901C41.2978 23.3734 43.3582 25.3148 45.2234 27.4645C45.326 27.5802 45.445 27.6827 45.5575 27.7919V27.9308H45.5608Z" fill="white"/>
<path d="M27.9663 38.1798C22.2481 38.1699 17.6411 33.5497 17.6543 27.8414C17.6709 22.1199 22.2977 17.5162 28.0026 17.5394C33.7175 17.5625 38.2947 22.1563 38.2947 27.8613C38.2947 33.5761 33.6745 38.1897 27.9663 38.1798ZM33.8664 29.5281V23.542H27.8637V25.576H30.2846C29.4413 26.4127 28.6343 27.2163 27.7943 28.0498C27.2916 27.5371 26.7657 26.9981 26.2763 26.502C24.8211 27.9572 23.3824 29.3925 21.9868 30.7882C22.4333 31.2346 22.9062 31.7076 23.4387 32.24C24.3548 31.3074 25.294 30.3483 26.2994 29.3231C26.8352 29.8654 27.3643 30.3979 27.9299 30.9701C29.2032 29.6935 30.493 28.4003 31.8291 27.0576V29.5215H33.8631L33.8664 29.5281Z" fill="white"/>
<path d="M17.2908 21.4817C14.9956 25.7381 14.9956 29.9747 17.304 34.2046C16.4706 33.9996 11.8736 29.7828 10.4019 27.8514C12.4325 25.4471 14.7046 23.2974 17.2941 21.4817H17.2908Z" fill="white"/>
<path d="M23.0386 14.9134C21.7455 15.6576 20.5086 16.3752 19.2353 17.1094C18.8649 16.653 18.4415 16.1338 18.0083 15.6013C19.3213 14.5364 20.7467 13.7129 22.3408 13.1011C22.5855 13.7328 22.8236 14.3545 23.0386 14.9134Z" fill="white"/>
<path d="M23.0386 40.8058C22.8269 41.3548 22.5921 41.9699 22.3441 42.6148C20.7566 42.0162 19.3312 41.1861 18.0083 40.1178C18.4382 39.5854 18.8616 39.0662 19.2353 38.6064C20.5086 39.3407 21.7455 40.0583 23.0386 40.8024V40.8058Z" fill="white"/>
<path d="M33.6086 42.6247C33.3572 41.9666 33.1224 41.3514 32.9141 40.809C34.194 40.0715 35.4408 39.3505 36.7174 38.613C37.0845 39.0661 37.5012 39.5787 37.9411 40.1178C36.6347 41.1894 35.2027 42.0063 33.6086 42.6247Z" fill="white"/>
<path d="M33.6086 13.0979C35.2027 13.7097 36.6182 14.5299 37.9411 15.6015C37.5178 16.1273 37.0977 16.6432 36.648 17.1989C35.5003 16.2861 34.2601 15.5552 32.8711 15.0227C33.1191 14.3712 33.3573 13.7461 33.6086 13.0979Z" fill="white"/>
<path d="M25.4761 43.4582C25.5852 42.7703 25.6877 42.1287 25.7836 41.5234H30.169C30.2616 42.1088 30.3675 42.757 30.4799 43.4516C28.8098 43.7327 27.1694 43.7227 25.4761 43.4582Z" fill="white"/>
<path d="M25.7836 14.1958C25.6877 13.5939 25.5852 12.9523 25.4761 12.2677C27.1462 11.9833 28.7833 11.9998 30.4733 12.2578C30.3675 12.9324 30.2649 13.5807 30.169 14.1958H25.7803H25.7836Z" fill="white"/>
<path d="M13.3784 21.8288C13.9704 20.3769 14.7476 19.1003 15.7166 17.8899C16.183 18.2669 16.6393 18.6373 17.1024 19.0144C15.8688 19.947 14.6484 20.8664 13.3784 21.8288Z" fill="white"/>
<path d="M13.3784 33.8904C14.6484 34.8495 15.8655 35.7689 17.1057 36.7048C16.6559 37.0686 16.1995 37.439 15.7232 37.8293C14.7542 36.6321 13.9803 35.3489 13.3817 33.8937L13.3784 33.8904Z" fill="white"/>
<path d="M42.5745 33.8903C41.9759 35.3488 41.1987 36.6253 40.2363 37.8259C39.7634 37.4455 39.3037 37.0718 38.8506 36.7014C40.0809 35.7721 41.2979 34.8527 42.5745 33.887V33.8903Z" fill="white"/>
<path d="M42.5779 21.829C41.3047 20.8666 40.0843 19.9472 38.854 19.0179C39.3071 18.6508 39.7668 18.2804 40.2397 17.8967C41.2054 19.0873 41.976 20.3705 42.5812 21.8323L42.5779 21.829Z" fill="white"/>
</svg>
