<svg width="54" height="54" viewBox="0 0 54 54" fill="none" xmlns="http://www.w3.org/2000/svg">
<rect width="54" height="54" rx="15" fill="#1855EE"/>
<g clip-path="url(#clip0_1_317)">
<path d="M44 22.6191C43.7281 23.1949 43.2483 23.3655 42.6486 23.3308C42.2647 23.3095 41.8755 23.3308 41.489 23.3255C40.8493 23.3122 40.4121 22.899 40.4121 22.3179C40.4121 21.7368 40.8519 21.3236 41.4917 21.3103C41.8782 21.3023 42.2647 21.3263 42.6512 21.305C43.2537 21.273 43.7308 21.4436 44 22.022V22.6191Z" fill="white"/>
<path d="M38.5541 10C38.6421 10.0453 38.7301 10.088 38.8154 10.1386C39.3565 10.4638 39.5031 11.1462 39.0899 11.618C38.6901 12.0739 38.2529 12.503 37.8024 12.9082C37.4239 13.2467 36.8268 13.1881 36.4776 12.8336C36.1204 12.471 36.0645 11.8793 36.419 11.5114C36.9281 10.9836 37.4852 10.5011 38.0237 10C38.1996 10 38.3782 10 38.5541 10Z" fill="white"/>
<path d="M15.9069 10C16.64 10.3812 17.1438 11.0183 17.6609 11.6287C17.9674 11.9886 17.8502 12.519 17.493 12.8549C17.1331 13.1934 16.592 13.2521 16.2268 12.9269C15.7576 12.511 15.3045 12.0685 14.8913 11.5967C14.4915 11.1356 14.6727 10.4158 15.2112 10.1253C15.2912 10.0826 15.3658 10.04 15.4431 10C15.5977 10 15.7523 10 15.9069 10Z" fill="white"/>
<path d="M15.9308 21.3128C16.4906 15.3792 21.214 11.0155 27.5156 11.2688C33.2653 11.5007 37.541 15.6671 38.0688 21.3342H37.6822C35.635 21.3342 33.5879 21.3448 31.5407 21.3262C31.0635 21.3235 30.693 21.4621 30.3625 21.8113C29.784 22.4217 29.1736 23.0002 28.5845 23.6026C28.4485 23.7412 28.3419 23.7625 28.1553 23.6879C26.4626 23.0188 24.5194 23.9545 24.0023 25.6765C23.4798 27.4224 24.5594 29.2697 26.348 29.6376C27.5236 29.8801 28.5498 29.5523 29.3335 28.63C30.1252 27.6997 30.3385 26.6388 29.9173 25.4712C29.8853 25.3779 29.8427 25.29 29.7973 25.1753C30.3944 24.5809 30.9862 23.9865 31.5886 23.4C31.6499 23.3387 31.7646 23.3014 31.8525 23.3014C33.8891 23.2961 35.9256 23.3014 37.9621 23.3014C37.9941 23.3014 38.0234 23.3201 38.1247 23.3494C37.9915 24.0025 37.8955 24.6662 37.7169 25.3113C37.1571 27.3185 36.1095 29.0351 34.5688 30.4426C33.4199 31.4902 32.6842 32.7697 32.3883 34.2971C32.3457 34.5103 32.2737 34.5636 32.0711 34.5636C28.6858 34.5583 25.2978 34.5583 21.9124 34.5636C21.7285 34.5636 21.6485 34.521 21.6112 34.3157C21.3233 32.7883 20.5903 31.5088 19.4441 30.4559C17.4075 28.582 16.2613 26.2522 15.9228 23.5146C15.9174 23.4613 15.9228 23.4054 15.9228 23.2987C16.0587 23.2987 16.184 23.2987 16.312 23.2987C18.3911 23.2987 20.473 23.2934 22.5522 23.3041C22.9707 23.3041 23.2959 23.1761 23.5838 22.8776C24.1755 22.2645 24.7913 21.6727 25.3857 21.0623C25.535 20.9077 25.6496 20.8703 25.8655 20.953C27.0757 21.4088 28.182 21.1769 29.1256 20.3159C30.0799 19.4416 30.3598 18.33 29.9679 17.1092C29.5761 15.891 28.7098 15.1526 27.4276 14.9713C25.0579 14.6328 23.2053 17.0052 24.1036 19.215C24.1782 19.4016 24.1622 19.5029 24.0209 19.6388C23.5038 20.14 23.0053 20.6571 22.4882 21.1582C22.3949 21.2489 22.2456 21.3288 22.123 21.3315C20.1078 21.3422 18.0953 21.3395 16.0801 21.3368C16.0374 21.3368 15.9948 21.3262 15.9308 21.3155V21.3128Z" fill="white"/>
<path d="M25.9886 42.8775C22.9231 42.1498 21.4197 39.5535 21.7662 36.5547H32.2234C32.6339 39.5375 31.0479 42.0379 28.265 42.7896C28.0971 42.8349 28.0011 42.8669 27.9851 43.0748C27.9425 43.6532 27.5399 44.0078 26.9802 43.9998C26.4284 43.9918 26.0499 43.6186 26.0019 43.0375C25.9965 42.9842 25.9912 42.9282 25.9859 42.8775H25.9886Z" fill="white"/>
<path d="M11.7914 21.2861C12.1326 21.3075 12.4792 21.2995 12.8124 21.3581C13.3002 21.4407 13.5854 21.8273 13.5827 22.3284C13.5801 22.8215 13.2815 23.2374 12.7937 23.2774C12.146 23.3307 11.4902 23.336 10.8451 23.2907C10.344 23.256 10.0081 22.8215 10.0001 22.3391C9.99215 21.8406 10.3174 21.4167 10.8318 21.3421C11.1437 21.2968 11.4689 21.3341 11.7888 21.3341V21.2861H11.7914Z" fill="white"/>
<path d="M37.3279 31.4983C37.4479 31.5622 37.7065 31.6449 37.8931 31.8101C38.2902 32.1593 38.6581 32.5459 39.0233 32.9297C39.4178 33.3455 39.4125 33.9453 39.0339 34.3318C38.6394 34.7343 38.037 34.7423 37.6105 34.3318C37.2186 33.9586 36.8348 33.5748 36.4643 33.1803C36.1764 32.8737 36.0884 32.5059 36.275 32.1114C36.4536 31.7328 36.7602 31.5223 37.3306 31.4956L37.3279 31.4983Z" fill="white"/>
<path d="M16.7918 31.4531C17.221 31.5144 17.5116 31.7117 17.7008 32.0529C17.8981 32.4074 17.8847 32.7806 17.6208 33.0738C17.1943 33.551 16.7439 34.0121 16.264 34.4333C15.8775 34.7718 15.2938 34.6839 14.9472 34.308C14.6194 33.9481 14.5847 33.3697 14.9179 33.0045C15.3204 32.5647 15.7442 32.1409 16.1867 31.7437C16.3467 31.5997 16.5892 31.5464 16.7918 31.4531Z" fill="white"/>
<path d="M28.1344 18.0368C28.1397 18.6739 27.6466 19.183 27.0202 19.1883C26.3724 19.1937 25.8819 18.7192 25.8713 18.0768C25.8606 17.413 26.3404 16.9146 26.9962 16.9092C27.6252 16.9039 28.129 17.4024 28.1344 18.0368Z" fill="white"/>
<path d="M25.8683 26.5482C25.879 25.9351 26.3828 25.442 26.9986 25.4473C27.6623 25.4526 28.1368 25.9404 28.1288 26.6069C28.1208 27.2653 27.617 27.7451 26.9559 27.7264C26.3348 27.7078 25.8577 27.1906 25.8683 26.5482Z" fill="white"/>
</g>
<defs>
<clipPath id="clip0_1_317">
<rect width="34" height="34" fill="white" transform="translate(10 10)"/>
</clipPath>
</defs>
</svg>
