<svg width="54" height="54" viewBox="0 0 54 54" fill="none" xmlns="http://www.w3.org/2000/svg">
<rect width="54" height="54" rx="15" fill="#1855EE"/>
<g clip-path="url(#clip0_1_359)">
<path d="M30.7014 40.4576C30.442 40.3028 30.1957 40.206 30.0076 40.0447C28.3414 38.5734 25.7611 39.3736 25.2619 41.5288C25.21 41.7611 25.21 42.0063 25.1711 42.2451C25.0998 42.7161 24.8145 42.9872 24.3348 43.0001C23.4725 43.013 22.6037 43.0194 21.735 43.0001C21.2098 42.9936 20.8921 42.6516 20.8662 42.1225C20.7754 40.3092 19.3815 39.1219 17.5727 39.3284C16.9957 39.3929 16.5029 39.6575 16.0685 40.0382C15.5239 40.5157 15.135 40.5093 14.6228 40.0059C14.0911 39.4768 13.5595 38.9541 13.0279 38.425C12.5416 37.941 12.5351 37.5151 12.9825 37.0118C13.7929 36.1084 13.9744 35.0759 13.5141 33.9725C13.0538 32.8626 12.185 32.2818 10.9662 32.2238C10.3632 32.198 10.0261 31.8753 10.0131 31.2687C10.0002 30.4621 10.0002 29.662 10.0131 28.8554C10.0261 28.2488 10.3503 27.9326 10.9662 27.9003C12.185 27.8423 13.0538 27.2551 13.5141 26.1516C13.9809 25.0353 13.7864 23.9964 12.963 23.0865C12.5481 22.6348 12.5611 22.1831 12.989 21.7508C13.5141 21.2216 14.0458 20.6925 14.5774 20.1633C15.1414 19.6019 15.4915 19.589 16.0945 20.1053C17.6959 21.4797 20.166 20.7764 20.7495 18.7695C20.8208 18.5179 20.8467 18.2533 20.8662 17.9887C20.9051 17.466 21.2228 17.124 21.7479 17.1176C22.6037 17.1047 23.4595 17.1047 24.3088 17.1176C24.821 17.124 25.1063 17.4015 25.1841 17.9113C25.2294 18.2275 25.2424 18.5566 25.3397 18.8599C25.9556 20.7828 28.4063 21.4539 29.9363 20.1311C30.5717 19.5826 30.9153 19.589 31.5053 20.1763C32.0045 20.6731 32.5037 21.17 32.9964 21.6604C33.5281 22.196 33.541 22.5767 33.0353 23.1446C31.6544 24.7126 32.3416 27.1712 34.332 27.7713C34.5849 27.8487 34.8507 27.8681 35.1165 27.8874C35.7259 27.9391 36.0371 28.2553 36.0371 28.8618C36.0371 29.6684 36.0371 30.4686 36.0371 31.2752C36.0371 31.8366 35.7129 32.2044 35.1489 32.2044C33.742 32.2044 32.4843 33.282 32.3287 34.8049C32.2509 35.5986 32.4843 36.302 33.0029 36.9086C33.5735 37.5797 33.5605 37.8958 32.9316 38.5218C32.4194 39.0316 31.9137 39.5542 31.3821 40.0511C31.2071 40.2124 30.9672 40.3028 30.7143 40.4512L30.7014 40.4576ZM23.0381 23.8415C19.6214 23.8221 16.8012 26.6098 16.7817 30.0233C16.7623 33.4305 19.576 36.2504 23.0186 36.2697C26.4418 36.2826 29.2491 33.5079 29.2621 30.0814C29.2815 26.642 26.5067 23.8608 23.0446 23.8415H23.0381Z" fill="white"/>
<path d="M41.2301 23.5317C41.2301 24.0285 41.2301 24.4738 41.2301 24.9255C41.2301 26.1515 41.2301 27.384 41.2301 28.6101C41.2301 29.0295 41.1394 29.1198 40.7245 29.1198C40.0307 29.1198 39.337 29.1198 38.6498 29.1198C38.183 29.1198 38.1052 29.0424 38.0987 28.5843C38.0987 27.0485 38.0987 25.5062 38.0987 23.9705V23.5317C37.7227 23.5317 37.3596 23.5381 36.9966 23.5317C36.7502 23.5317 36.4584 23.6155 36.3223 23.3252C36.1926 23.0477 36.4195 22.8799 36.5622 22.6928C37.4698 21.4861 38.371 20.2859 39.2787 19.0856C39.5704 18.6985 39.7649 18.6985 40.0567 19.0792C40.9967 20.3246 41.9433 21.57 42.8769 22.8283C42.9742 22.9638 43.0455 23.209 42.9936 23.3445C42.9482 23.4542 42.6954 23.5187 42.5268 23.5317C42.1119 23.5575 41.6969 23.5381 41.2366 23.5381L41.2301 23.5317Z" fill="white"/>
<path d="M33.878 14.7236C33.3982 14.7236 32.9638 14.7365 32.5294 14.7172C32.3868 14.7107 32.1729 14.6398 32.1275 14.543C32.0756 14.4204 32.121 14.201 32.2053 14.0848C33.1518 12.8007 34.1179 11.523 35.0839 10.2518C35.3367 9.91625 35.5571 9.9227 35.823 10.2712C36.776 11.5295 37.7226 12.7813 38.6626 14.0461C38.7599 14.1751 38.8312 14.4139 38.7729 14.5236C38.7145 14.6398 38.4811 14.7107 38.3125 14.7172C37.8976 14.743 37.4827 14.7236 37.0159 14.7236V15.1495C37.0159 16.6789 37.0159 18.2017 37.0159 19.7311C37.0159 20.2473 36.9316 20.3312 36.4129 20.3312C35.7581 20.3312 35.0968 20.3312 34.442 20.3312C33.9623 20.3312 33.8715 20.2408 33.8715 19.7698C33.8715 18.234 33.8715 16.6918 33.8715 15.156C33.8715 15.0334 33.8715 14.9043 33.8715 14.7236H33.878Z" fill="white"/>
<path d="M24.1789 32.8818H23.5176C23.5176 33.3077 23.5176 33.7143 23.5176 34.1272C23.5176 34.2628 23.5176 34.4047 23.4787 34.5338C23.4074 34.7725 23.2194 34.8822 22.973 34.8564C22.6877 34.8242 22.5386 34.6435 22.5321 34.3725C22.5192 34.0046 22.5321 33.6368 22.5321 33.269C22.5321 33.1464 22.5321 33.0238 22.5321 32.8818H21.8903C21.8903 33.2432 21.8903 33.6046 21.8903 33.9659C21.8903 34.1014 21.9032 34.2434 21.8838 34.3789C21.8449 34.6435 21.6958 34.8306 21.4105 34.8371C21.1058 34.8435 20.9308 34.6693 20.9113 34.3789C20.8854 34.024 20.8983 33.6691 20.8983 33.3142C20.8983 33.1787 20.8983 33.0432 20.8983 32.9206C20.4575 32.8259 20.2068 32.5764 20.1463 32.172C19.673 32.172 19.1932 32.1849 18.707 32.172C18.292 32.1591 18.0457 31.7719 18.2661 31.4622C18.3634 31.3267 18.5773 31.2235 18.7524 31.2105C19.2127 31.1783 19.673 31.1976 20.1592 31.1976V30.5524C19.7184 30.5524 19.2581 30.5524 18.8042 30.5524C18.5254 30.5524 18.2985 30.4556 18.2402 30.1523C18.1689 29.8167 18.3893 29.5715 18.7783 29.5586C19.2256 29.5457 19.6795 29.5586 20.1528 29.5586V28.9133C19.7054 28.9133 19.2581 28.9133 18.8107 28.9133C18.4347 28.9133 18.2207 28.7456 18.2142 28.4423C18.2013 28.1261 18.4152 27.9454 18.8172 27.9454C19.2516 27.9454 19.6924 27.9454 20.1203 27.9454C20.1787 27.726 20.1787 27.4937 20.2954 27.3582C20.4056 27.2356 20.639 27.2227 20.8919 27.1323C20.8919 26.8678 20.8919 26.5451 20.8919 26.216C20.8919 26.0547 20.8854 25.8934 20.8983 25.7321C20.9243 25.4417 21.0799 25.261 21.3846 25.2545C21.6634 25.2481 21.8708 25.4481 21.8838 25.7579C21.8968 26.2289 21.8838 26.6935 21.8838 27.184H22.5256C22.5256 26.7258 22.5192 26.2741 22.5256 25.8159C22.5321 25.4675 22.7526 25.2416 23.0508 25.2675C23.375 25.2997 23.5046 25.5127 23.5111 25.8095C23.5111 26.2547 23.5111 26.7 23.5111 27.1775H24.1724C24.1724 26.7258 24.1724 26.2806 24.1724 25.8353C24.1724 25.4546 24.341 25.261 24.6586 25.261C24.9698 25.261 25.1384 25.4546 25.1449 25.8353C25.1449 26.2806 25.1449 26.7258 25.1449 27.1711C25.8775 27.2678 25.7997 27.2356 25.897 27.9389C26.2211 27.9389 26.5453 27.9389 26.8759 27.9389C27.0056 27.9389 27.1288 27.9389 27.2585 27.9389C27.641 27.9518 27.8419 28.1196 27.8484 28.4229C27.8484 28.7326 27.628 28.9133 27.2325 28.9133C26.7917 28.9133 26.3573 28.9133 25.8905 28.9133V29.5586C26.2341 29.5586 26.5842 29.5586 26.9343 29.5586C27.0834 29.5586 27.239 29.5457 27.3816 29.5651C27.6669 29.6038 27.8549 29.7522 27.8484 30.0619C27.8484 30.3717 27.6475 30.5265 27.3687 30.5459C26.9797 30.5717 26.5842 30.5524 26.1952 30.5524C26.1044 30.5524 26.0137 30.5588 25.8905 30.5653V31.1976C26.3573 31.1976 26.837 31.1976 27.3168 31.1976C27.615 31.1976 27.8355 31.3654 27.8225 31.6493C27.816 31.8236 27.6345 32.0107 27.4854 32.1398C27.4141 32.2043 27.239 32.172 27.1158 32.172C26.7139 32.172 26.3119 32.172 25.9229 32.172C25.8105 32.6108 25.5533 32.8496 25.1514 32.8883C25.1514 33.3594 25.1514 33.8369 25.1514 34.3079C25.1514 34.6564 24.9698 34.85 24.6651 34.8435C24.3734 34.8435 24.1919 34.6564 24.1854 34.3337C24.1789 33.8627 24.1854 33.3916 24.1854 32.8818H24.1789Z" fill="white"/>
</g>
<defs>
<clipPath id="clip0_1_359">
<rect width="33" height="33" fill="white" transform="translate(10 10)"/>
</clipPath>
</defs>
</svg>
