<svg width="54" height="54" viewBox="0 0 54 54" fill="none" xmlns="http://www.w3.org/2000/svg">
<rect width="54" height="54" rx="15" fill="#F5B037"/>
<g clip-path="url(#clip0_1_347)">
<path d="M31.3861 44.0001C30.5115 43.4684 29.6368 42.9196 28.745 42.4223C28.462 42.2679 28.0933 42.2079 27.7589 42.1993C26.0182 42.1822 24.286 42.1908 22.5453 42.1908C22.4252 42.1908 22.3052 42.1908 22.168 42.1908V36.7971C22.4338 37.0114 22.6653 37.1915 22.8968 37.3887C23.3256 37.7575 23.7887 38.0319 24.3803 38.0404C25.6494 38.049 26.5327 37.0457 26.3526 35.7766C26.344 35.6909 26.3354 35.6051 26.3183 35.5022C26.9271 35.5022 27.5274 35.4937 28.119 35.5022C28.7536 35.5194 29.2767 35.2964 29.7226 34.842C31.6177 32.9469 33.5213 31.0689 35.425 29.1824C35.6393 28.9766 35.8537 28.7966 36.171 28.8223C36.454 28.848 36.6769 28.9938 36.797 29.2596C36.9342 29.5597 36.8741 29.8427 36.6683 30.0914C36.1624 30.7088 35.6651 31.3262 35.1591 31.9436C34.9705 32.1665 34.8333 32.3895 34.9705 32.6896C35.1163 33.0069 35.3735 33.0498 35.6822 33.0498C37.8431 33.0498 39.9955 33.0498 42.1564 33.0498C42.3279 33.0498 42.5079 33.0583 42.6794 33.1012C43.1425 33.2127 43.4512 33.6414 43.4083 34.0788C43.3569 34.5418 42.971 34.8934 42.4736 34.8934C41.3932 34.8934 40.3042 34.8934 39.2237 34.8934C38.795 34.8934 38.512 35.1935 38.572 35.588C38.6149 35.8967 38.8721 36.0939 39.2409 36.0939C40.4671 36.0939 41.6933 36.0939 42.9281 36.0939C43.091 36.0939 43.2625 36.1111 43.4169 36.1625C43.8113 36.2997 44.0514 36.6942 44.0171 37.0972C43.9828 37.4831 43.6999 37.8089 43.2883 37.8947C43.1511 37.9204 43.0053 37.929 42.8595 37.929C41.6676 37.929 40.4671 37.929 39.2752 37.929C38.8293 37.929 38.5806 38.1348 38.572 38.4949C38.5634 38.8722 38.8207 39.1209 39.2666 39.1209C40.1069 39.1209 40.9473 39.1209 41.7876 39.1209C42.3965 39.1209 42.8081 39.481 42.8166 40.0041C42.8166 40.51 42.3879 40.9302 41.8048 40.9302C40.5786 40.9388 39.3523 40.9302 38.1175 40.9302C37.6802 40.9302 37.4315 41.0846 37.3715 41.3847C37.2772 41.7963 37.5344 42.1136 37.9889 42.1222C38.795 42.1393 39.601 42.1222 40.4156 42.1222C40.5271 42.1222 40.6386 42.1222 40.7501 42.1222C41.1874 42.1736 41.4875 42.448 41.5818 42.8596C41.659 43.2369 41.4789 43.6142 41.1016 43.8286C41.033 43.8629 40.973 43.9058 40.9044 43.9486H31.4119L31.3861 44.0001Z" fill="white"/>
<path d="M10.0001 16.7142C10.2573 16.2083 10.6689 16.0454 11.2177 16.054C12.3925 16.0797 13.5673 16.054 14.7335 16.054C15.1965 16.054 15.4452 15.8396 15.4452 15.4623C15.4452 15.0936 15.1794 14.862 14.7249 14.862C13.8931 14.862 13.0613 14.8363 12.2381 14.862C11.5693 14.8792 11.2263 14.4161 11.2006 13.9702C11.1748 13.4557 11.6293 13.0441 12.2296 13.0356C13.4129 13.0356 14.5963 13.0356 15.7796 13.0356C16.3799 13.0356 16.6543 12.8383 16.6543 12.4182C16.6543 12.0066 16.3885 11.8265 15.7968 11.8265C15.025 11.8265 14.2447 11.8265 13.4729 11.8265C12.8298 11.8265 12.3925 11.432 12.4096 10.8918C12.4354 10.3773 12.8813 10 13.4901 10C16.4228 10 19.3554 10 22.2881 10C22.4767 10 22.6825 10.06 22.8455 10.1544C23.5829 10.5745 24.3118 11.0204 25.0407 11.4578C25.418 11.6893 25.821 11.8008 26.2669 11.8008C27.9905 11.7922 29.7226 11.8008 31.4462 11.8008C31.5663 11.8008 31.6863 11.8008 31.8321 11.8008V17.1859C31.4805 16.9029 31.1632 16.6285 30.8374 16.3798C30.2114 15.8996 29.5254 15.8139 28.8051 16.1054C28.102 16.397 27.7075 16.9458 27.6303 17.7004C27.6046 17.9491 27.656 18.2063 27.6732 18.4893C27.1072 18.4893 26.5156 18.5064 25.9325 18.4893C25.2636 18.4721 24.7148 18.7037 24.2432 19.1753C22.3567 21.0618 20.4702 22.9397 18.5579 24.8091C18.3779 24.9892 18.0949 25.1178 17.8462 25.1521C17.5632 25.195 17.3231 24.9977 17.2031 24.7148C17.0745 24.4232 17.1259 24.1488 17.3231 23.9087C17.8205 23.2999 18.3178 22.691 18.8152 22.0822C19.0124 21.8421 19.1925 21.6106 19.0381 21.2762C18.8752 20.9246 18.5751 20.9246 18.2492 20.9246C16.1141 20.9246 13.9789 20.9246 11.8437 20.9246C11.6808 20.9246 11.5093 20.9246 11.3549 20.8817C10.8747 20.7702 10.5489 20.3329 10.6003 19.8956C10.6603 19.424 11.0376 19.0895 11.5436 19.0895C12.624 19.0895 13.713 19.0895 14.7935 19.0895C15.1451 19.0895 15.3938 18.8837 15.4366 18.5922C15.4795 18.2921 15.308 18.0091 15.0165 17.9233C14.9136 17.889 14.8021 17.8976 14.6906 17.8976C13.5501 17.8976 12.4096 17.8719 11.2692 17.8976C10.6946 17.9148 10.2573 17.7433 9.98291 17.2288V16.6971L10.0001 16.7142Z" fill="white"/>
<path d="M10 31.3861C10.5231 30.5286 11.0633 29.6797 11.5435 28.7965C11.715 28.4792 11.7922 28.0847 11.7922 27.7246C11.8179 26.001 11.8008 24.2774 11.8008 22.5453C11.8008 22.4252 11.8008 22.3052 11.8008 22.168H17.1945C16.8943 22.5367 16.6113 22.8711 16.3455 23.2141C15.4794 24.3203 15.9596 25.9067 17.2888 26.2926C17.6575 26.3955 18.0691 26.3612 18.4893 26.3955C18.4893 26.9357 18.4893 27.5359 18.4893 28.1448C18.4807 28.7622 18.6951 29.2767 19.1324 29.7226C21.0361 31.6262 22.9226 33.5385 24.8177 35.4421C25.032 35.6565 25.2035 35.8794 25.1607 36.1967C25.0835 36.8141 24.4146 37.0714 23.9001 36.6769C23.2398 36.1538 22.5967 35.6136 21.945 35.082C21.6106 34.8161 21.2161 34.8504 21.0275 35.1849C20.9503 35.3306 20.9332 35.5193 20.9332 35.6908C20.9332 37.8517 20.9332 40.004 20.9332 42.1649C20.9332 42.3279 20.9332 42.4994 20.8903 42.6537C20.7788 43.1339 20.3501 43.4598 19.9042 43.4083C19.4497 43.3569 19.0981 42.9624 19.0981 42.4651C19.0981 41.3846 19.0981 40.2956 19.0981 39.2151C19.0981 38.8207 18.8494 38.5634 18.4979 38.5634C18.1463 38.5634 17.9062 38.8207 17.8976 39.2151C17.8976 39.2923 17.8976 39.3695 17.8976 39.4467C17.8976 40.5271 17.8719 41.6161 17.9062 42.6966C17.9233 43.2797 17.769 43.7256 17.2373 44.0171H16.7057C16.1997 43.7599 16.0282 43.3483 16.0454 42.7995C16.0711 42.1135 16.0454 41.4275 16.0454 40.7415C16.0454 40.2098 16.0454 39.6782 16.0454 39.1465C16.0454 38.8207 15.8224 38.5977 15.5137 38.572C15.205 38.5463 14.9564 38.7178 14.8792 39.0351C14.8535 39.1551 14.8449 39.2752 14.8449 39.3952C14.8449 40.2356 14.8449 41.0759 14.8449 41.9163C14.8449 42.3965 14.5019 42.7566 14.0303 42.8166C13.653 42.8595 13.2071 42.5765 13.087 42.1735C13.0356 42.0106 13.027 41.8219 13.027 41.6504C13.027 40.5014 13.027 39.3523 13.027 38.1947C13.027 38.0661 13.027 37.9289 12.9927 37.8003C12.9241 37.5087 12.684 37.3372 12.3753 37.3629C12.0752 37.3886 11.8865 37.5516 11.8436 37.8603C11.8265 37.9803 11.8265 38.1004 11.8265 38.2204C11.8265 39.0093 11.8265 39.7897 11.8265 40.5786C11.8265 41.1788 11.4406 41.599 10.9175 41.599C10.4459 41.599 10.1887 41.2817 10 40.9044C10 37.7402 10 34.576 10 31.4119L10 31.3861Z" fill="white"/>
<path d="M42.1995 31.849H36.8058C36.9944 31.6089 37.1573 31.3945 37.3288 31.1887C37.6375 30.8114 37.9548 30.4427 38.032 29.9367C38.2549 28.4618 37.0802 27.4071 35.5281 27.7244C35.5195 27.6386 35.5024 27.5615 35.5024 27.4757C35.5024 26.944 35.4938 26.4124 35.5024 25.8807C35.5195 25.2462 35.2966 24.7317 34.8421 24.2772C32.947 22.3821 31.0691 20.4785 29.1826 18.5748C28.9768 18.3604 28.7881 18.1461 28.8224 17.8288C28.8567 17.5458 29.0025 17.3229 29.2683 17.2114C29.5684 17.0913 29.8514 17.1342 30.1087 17.34C30.7261 17.8459 31.3435 18.3433 31.9609 18.8578C32.1838 19.0464 32.4154 19.1836 32.7155 19.0379C33.007 18.9007 33.0671 18.6434 33.0671 18.3519C33.0671 16.1738 33.0671 13.9958 33.0671 11.8091C33.0671 11.6462 33.0756 11.4747 33.1185 11.3203C33.23 10.8659 33.6759 10.5572 34.1046 10.6086C34.5591 10.6686 34.9021 11.0459 34.9021 11.5261C34.9021 12.5809 34.9021 13.627 34.9021 14.6818C34.9021 15.1877 35.1165 15.4621 35.5109 15.4535C35.8968 15.4535 36.1026 15.1791 36.1026 14.6646C36.1026 13.4384 36.1026 12.2121 36.1026 10.9773C36.1026 10.5143 36.3856 10.1541 36.7972 10.0341C37.1488 9.93119 37.5689 10.0684 37.749 10.3942C37.8605 10.6 37.9291 10.8487 37.9291 11.0802C37.9462 12.3236 37.9291 13.5584 37.9377 14.8018C37.9377 15.1963 38.152 15.4364 38.4951 15.4535C38.8466 15.4707 39.1039 15.2306 39.1382 14.8447C39.1382 14.7589 39.1382 14.6646 39.1382 14.5789C39.1382 13.7728 39.1382 12.9667 39.1382 12.1521C39.1382 11.8005 39.2754 11.5261 39.5755 11.3461C40.1243 11.0116 40.8446 11.3632 40.9389 12.0063C40.9647 12.1607 40.9647 12.315 40.9647 12.4694C40.9647 13.5756 40.9647 14.6818 40.9647 15.7879C40.9647 15.8994 40.9647 16.0109 40.9732 16.1224C41.0247 16.4825 41.2648 16.6797 41.5992 16.6626C41.9251 16.6454 42.1394 16.4311 42.148 16.0795C42.1566 15.2477 42.148 14.4159 42.148 13.5927C42.148 13.4641 42.148 13.3269 42.1737 13.1983C42.2595 12.7266 42.6711 12.4008 43.117 12.4351C43.5629 12.4694 43.9402 12.8553 43.9745 13.3097C43.9745 13.3955 43.9745 13.4898 43.9745 13.5756C43.9745 16.4654 43.9745 19.3551 43.9745 22.2364C43.9745 22.4679 43.8973 22.7166 43.7858 22.9138C43.3828 23.6341 42.9455 24.3458 42.5167 25.049C42.2852 25.4263 42.1737 25.8293 42.1737 26.2752C42.1823 27.9988 42.1737 29.7309 42.1737 31.4545C42.1737 31.5746 42.1737 31.6946 42.1737 31.849H42.1995Z" fill="white"/>
</g>
<defs>
<clipPath id="clip0_1_347">
<rect width="34" height="34" fill="white" transform="translate(10 10)"/>
</clipPath>
</defs>
</svg>
