<svg width="54" height="54" viewBox="0 0 54 54" fill="none" xmlns="http://www.w3.org/2000/svg">
<rect width="54" height="54" rx="15" fill="#F5B037"/>
<g clip-path="url(#clip0_1_295)">
<path d="M31.4767 28.1762H24.0297C24.0297 28.0358 24.0227 27.8976 24.0297 27.7595C24.0763 26.8747 23.706 26.2427 22.9562 25.7698C20.9396 24.494 19.6192 22.6846 19.0161 20.3624C17.6818 15.236 20.9908 10.0557 26.1674 9.14038C31.1787 8.25554 35.9501 11.6451 36.6487 16.7294C37.1749 20.552 35.7382 23.5905 32.5526 25.7581C31.9844 26.1443 31.5303 26.5727 31.4791 27.2961C31.4581 27.5723 31.4767 27.8508 31.4767 28.1762ZM21.2563 18.0988C21.2656 21.7201 24.1461 24.6134 27.7439 24.6134C31.3649 24.6134 34.2455 21.6897 34.2338 18.0239C34.2245 14.4354 31.3021 11.5351 27.7043 11.5421C24.1275 11.5491 21.247 14.4799 21.2563 18.0965V18.0988Z" fill="white"/>
<path d="M17.6771 42.7081C17.4396 41.8116 17.2137 40.9595 16.9855 40.1074C16.578 38.5765 16.1775 37.0409 15.7583 35.5123C15.7024 35.311 15.7374 35.201 15.8957 35.084C16.3824 34.7258 16.8505 34.3419 17.3418 33.9931C18.1103 33.4477 18.9346 33.2792 19.8707 33.5484C22.0201 34.1663 24.1834 34.7328 26.3397 35.3251C27.5716 35.6621 28.2306 36.6383 28.0117 37.7806C27.8393 38.6795 27.0313 39.2085 26.1511 38.9768C25.0007 38.6748 23.8527 38.3518 22.7047 38.0381C22.6348 38.0194 22.565 38.0007 22.4951 37.9866C22.1132 37.907 21.8454 38.0545 21.7639 38.3846C21.6824 38.7146 21.8477 38.9908 22.2133 39.0938C23.394 39.4216 24.5792 39.7352 25.7599 40.0676C26.2978 40.2198 26.8241 40.2268 27.3573 40.0536C28.4215 39.7071 29.162 38.7216 29.162 37.5934C29.162 37.3522 29.2365 37.2305 29.4415 37.1111C31.2299 36.0835 33.0066 35.0371 34.7927 34.0048C35.7707 33.4383 36.8955 33.7216 37.4264 34.6556C37.9503 35.5802 37.636 36.6874 36.6696 37.2516C33.4211 39.1477 30.1633 41.0321 26.9149 42.9305C26.0044 43.4619 25.0589 43.5274 24.0576 43.2863C22.7839 42.9773 21.5031 42.6941 20.227 42.3968C19.3631 42.1978 18.5294 42.2844 17.6748 42.7034L17.6771 42.7081Z" fill="white"/>
<path d="M16.8902 44.2112C16.7854 44.3095 16.6736 44.4874 16.52 44.5389C15.996 44.7121 15.4581 44.8502 14.9225 44.979C14.5732 45.0632 14.4242 44.8409 14.3427 44.5366C14.0353 43.3661 13.7209 42.2004 13.4112 41.03C12.9618 39.3352 12.5123 37.6404 12.0652 35.9456C11.9232 35.4096 11.9931 35.2808 12.5147 35.1357C12.9431 35.0163 13.3716 34.9016 13.8024 34.7892C14.2239 34.6792 14.3706 34.7588 14.4847 35.1848C15.1833 37.8019 15.8796 40.419 16.5782 43.0384C16.6736 43.4012 16.7714 43.7617 16.8925 44.2135L16.8902 44.2112Z" fill="white"/>
<path d="M24.0508 29.3607H31.4256C31.5932 30.2362 31.0414 30.9291 30.1798 30.9315C28.6009 30.9361 27.0244 30.9315 25.4456 30.9315C24.4583 30.9315 23.9692 30.3954 24.0508 29.3584V29.3607Z" fill="white"/>
<path d="M30.1635 32.1182C30.1262 32.8157 29.5464 33.5227 28.8035 33.6093C28.1073 33.6912 27.3877 33.6912 26.6914 33.6093C25.9556 33.525 25.4107 32.8672 25.3105 32.1182H30.1635Z" fill="white"/>
<path d="M37.4616 23.0825C37.6805 23.1668 37.8086 23.1996 37.9203 23.2628C38.5467 23.6209 39.1708 23.9814 39.7926 24.3513C40.1628 24.5713 40.2676 24.892 40.0906 25.1987C39.9137 25.503 39.576 25.5732 39.2104 25.3649C38.5724 25.002 37.9413 24.6275 37.3079 24.2576C37.0494 24.1078 36.8981 23.8644 37.0122 23.5928C37.096 23.3892 37.3149 23.2417 37.4639 23.0825H37.4616Z" fill="white"/>
<path d="M18.0079 23.0708C18.1616 23.2323 18.4038 23.3728 18.448 23.56C18.4923 23.7496 18.4038 24.0867 18.2594 24.1827C17.5794 24.6345 16.8645 25.0348 16.1497 25.4304C15.8679 25.5849 15.5395 25.4678 15.4022 25.201C15.2578 24.9201 15.2787 24.6251 15.5465 24.4589C16.2614 24.0142 16.9973 23.6069 17.7285 23.1878C17.7867 23.1527 17.8659 23.1527 17.9357 23.1363C17.9613 23.1153 17.987 23.0942 18.0102 23.0731L18.0079 23.0708Z" fill="white"/>
<path d="M18.5111 12.2047C18.5111 12.7243 18.0733 13.038 17.6937 12.8367C16.9625 12.4481 16.2453 12.0244 15.5444 11.582C15.2789 11.4158 15.2556 11.1162 15.4023 10.8376C15.5397 10.5731 15.8727 10.4584 16.1475 10.6106C16.8508 11.0015 17.5493 11.4041 18.234 11.8278C18.3783 11.9167 18.4529 12.1204 18.5111 12.2023V12.2047Z" fill="white"/>
<path d="M37.4683 12.9466C37.3286 12.8108 37.1213 12.6797 37.0212 12.4901C36.8978 12.256 36.9886 11.9915 37.2145 11.8534C37.9224 11.4227 38.6396 11.0037 39.3662 10.6034C39.6433 10.4512 39.953 10.587 40.0974 10.8632C40.2464 11.1511 40.1695 11.4555 39.8622 11.6451C39.3801 11.9424 38.8865 12.2162 38.3998 12.5018C38.2344 12.5978 38.0691 12.7008 37.8991 12.7897C37.7943 12.8436 37.6779 12.8717 37.4683 12.9489V12.9466Z" fill="white"/>
<path d="M15.244 18.6138C14.8714 18.6138 14.4988 18.6208 14.1239 18.6138C13.7444 18.6044 13.4766 18.3539 13.4766 18.0239C13.4766 17.6868 13.7304 17.4504 14.1239 17.4457C14.8691 17.4387 15.6166 17.4387 16.3618 17.4457C16.7343 17.4504 16.9812 17.6821 16.9928 18.0075C17.0045 18.3329 16.732 18.5951 16.3594 18.6161C16.3361 18.6161 16.3105 18.6161 16.2872 18.6161C15.9379 18.6161 15.5886 18.6161 15.2394 18.6161L15.244 18.6138Z" fill="white"/>
<path d="M40.2629 17.4411C40.6355 17.4411 41.0081 17.4341 41.3807 17.4411C41.7556 17.4505 41.9931 17.6775 42.0001 18.0076C42.0071 18.3494 41.7556 18.6045 41.3714 18.6092C40.6262 18.6186 39.881 18.6186 39.1359 18.6092C38.747 18.6045 38.5001 18.3611 38.5025 18.017C38.5025 17.6682 38.7423 17.4505 39.1452 17.4411C39.5177 17.4341 39.8903 17.4411 40.2629 17.4411Z" fill="white"/>
<path d="M31.9193 21.4066C31.3907 20.4726 30.6502 19.768 29.6884 19.3116C30.8621 17.6659 30.8295 16.1608 29.6116 15.0699C28.5334 14.1032 26.894 14.1242 25.8229 15.1074C24.9194 15.9361 24.3651 17.694 25.7996 19.3069C24.8402 19.768 24.095 20.4633 23.5687 21.3973C22.0202 19.5995 21.8665 16.3878 23.9413 14.2904C25.9998 12.2071 29.3321 12.1532 31.4349 14.1804C33.6192 16.2872 33.4818 19.5457 31.9193 21.4066Z" fill="white"/>
<path d="M24.4512 22.2843C24.8447 21.0296 26.2815 20.0348 27.7369 20.0535C29.1876 20.0722 30.2542 20.7604 30.9504 22.0338C31.0273 22.1743 31.0832 22.289 30.9062 22.4341C29.2156 23.8293 26.1278 23.7918 24.4884 22.3428C24.4721 22.3288 24.4628 22.303 24.4512 22.282V22.2843Z" fill="white"/>
<path d="M26.0605 17.1883C26.0651 16.266 26.8406 15.4912 27.7511 15.5006C28.6639 15.5076 29.4347 16.2941 29.4254 17.2094C29.416 18.1317 28.6406 18.9042 27.7301 18.8972C26.8149 18.8901 26.0535 18.1106 26.0581 17.1883H26.0605Z" fill="white"/>
</g>
<defs>
<clipPath id="clip0_1_295">
<rect width="30" height="36" fill="white" transform="translate(12 9)"/>
</clipPath>
</defs>
</svg>
