<svg width="19" height="19" viewBox="0 0 19 19" fill="none" xmlns="http://www.w3.org/2000/svg">
<path d="M0 2.25019C0 1.53806 0.624625 0.960938 1.39531 0.960938H17.6047C18.3754 0.960938 19 1.53806 19 2.25019V17.6717C19 18.3838 18.3754 18.9609 17.6047 18.9609H1.39531C0.624625 18.9609 0 18.3838 0 17.6717V2.25019ZM5.86981 16.0292V7.90106H3.01863V16.0292H5.86981ZM4.44481 6.79069C5.43875 6.79069 6.05744 6.16744 6.05744 5.38669C6.03962 4.58906 5.43994 3.98269 4.46381 3.98269C3.48769 3.98269 2.85 4.59019 2.85 5.38669C2.85 6.16744 3.46869 6.79069 4.42581 6.79069H4.44481ZM10.2731 16.0292V11.4898C10.2731 11.2468 10.2921 11.0038 10.3681 10.8306C10.5735 10.3457 11.0426 9.84281 11.8311 9.84281C12.863 9.84281 13.2751 10.5876 13.2751 11.6811V16.0292H16.1262V11.3672C16.1262 8.86969 14.7203 7.70869 12.844 7.70869C11.3311 7.70869 10.6531 8.49619 10.2731 9.05081V9.07894H10.2541C10.2604 9.06955 10.2667 9.06017 10.2731 9.05081V7.90106H7.42306C7.45869 8.66381 7.42306 16.0292 7.42306 16.0292H10.2731Z" fill="white"/>
</svg>
