<svg width="25" height="18" viewBox="0 0 25 18" fill="none" xmlns="http://www.w3.org/2000/svg">
<path d="M10.745 3.96997C12.3728 4.1612 14.9366 5.35111 16.5355 5.9613C19.1574 6.97468 21.792 7.95394 24.4394 8.89894C21.7158 10.1252 18.8306 11.0923 16.0475 12.1883L9.95557 14.6482C12.0678 12.7522 14.3774 11.0325 16.42 9.06667C14.6564 7.29571 12.2998 5.92166 10.745 3.96997Z" fill="#E29400"/>
<path d="M0 0C1.21026 0.372487 2.45385 1.05052 3.60885 1.58287C5.02504 2.23584 6.61631 2.82988 7.94443 3.64179C8.72209 4.11705 9.43582 4.77934 10.1375 5.3592C11.6194 6.594 13.0893 7.84311 14.5471 9.10652C12.4689 10.7689 10.3774 12.7197 8.08789 14.0729C7.36444 14.5008 6.57077 14.8353 5.80755 15.1868C3.88618 16.0738 1.95773 16.9456 0.0224444 17.8018C2.05682 14.8057 4.34844 11.9266 6.48546 8.99574C5.76253 7.69558 4.74101 6.48795 3.85652 5.29069L0 0Z" fill="#E29400"/>
</svg>
