<svg width="56" height="56" viewBox="0 0 56 56" fill="none" xmlns="http://www.w3.org/2000/svg">
<rect width="56" height="56" rx="15" fill="#E29400"/>
<path d="M36.0993 22.9732C36.6787 22.8933 37.2182 22.8191 37.7605 22.742C38.2943 22.6678 38.8281 22.605 39.359 22.5165C39.5588 22.4823 39.6587 22.5365 39.7557 22.7163C40.9603 25.0112 41.534 27.446 41.4113 30.0377C41.1144 36.4258 36.693 41.7863 30.5162 43.262C22.681 45.1344 14.8144 40.068 13.2673 32.1557C11.8687 25.0112 16.0788 17.9638 23.0891 15.8345C26.8169 14.7013 30.4391 15.0866 33.9072 16.8792C34.107 16.9819 34.164 17.0932 34.1298 17.3216C33.9814 18.2864 33.8586 19.2568 33.7245 20.2245C33.7102 20.3215 33.6902 20.4157 33.6674 20.5384C30.853 18.5975 27.8017 17.9838 24.5106 18.803C21.9816 19.431 19.9237 20.8296 18.3909 22.939C15.174 27.3661 15.6221 33.2774 19.4384 37.1537C23.1719 40.9442 29.1889 41.4894 33.519 38.4039C35.9994 36.637 37.5322 34.2422 38.0346 31.2337C38.5341 28.2395 37.8547 25.4936 36.1022 22.9761L36.0993 22.9732Z" fill="white"/>
<path d="M32.9938 22.3256C32.2289 23.0877 31.4753 23.8412 30.6989 24.6148C29.1519 23.5358 27.4278 23.2133 25.5811 23.7299C24.1824 24.1209 23.0806 24.9487 22.2757 26.1561C20.6658 28.5709 21.054 31.7906 23.1805 33.7744C25.3127 35.761 28.5496 35.9009 30.8673 34.1112C33.205 32.3072 34.0271 28.7336 32.0547 25.9592C32.814 25.1942 33.5733 24.4349 34.3268 23.6757C36.9557 26.687 37.3667 32.0389 33.8872 35.7211C30.3964 39.4146 24.6077 39.5887 20.9684 36.1378C17.2663 32.6269 17.0551 26.8697 20.4718 23.2133C24.0368 19.3998 29.6228 19.4655 32.9938 22.3256Z" fill="white"/>
<path d="M29.4458 25.9673C28.4896 26.9206 27.5533 27.8569 26.6285 28.7788C27.0424 29.1899 27.4506 29.5952 27.8673 30.0119C28.775 29.0899 29.7084 28.1394 30.6475 27.1832C31.5694 28.402 31.7749 30.8026 30.068 32.4295C28.4867 33.9366 26.0091 33.9509 24.3993 32.4552C22.798 30.9681 22.6353 28.4934 24.0254 26.7979C25.3412 25.1966 27.8074 24.7998 29.4429 25.9701L29.4458 25.9673Z" fill="white"/>
<path d="M39.9788 13C40.2785 13.8078 40.5725 14.567 40.8408 15.3377C40.9236 15.5775 41.0463 15.7116 41.2889 15.7944C42.0682 16.0656 42.836 16.3624 43.6438 16.6621C43.5696 16.7478 43.5182 16.8163 43.4582 16.8762C42.2537 18.0836 41.0492 19.291 39.8389 20.4898C39.7362 20.5926 39.5735 20.6725 39.4307 20.6925C38.1691 20.878 36.9046 21.0464 35.643 21.2206C35.5745 21.2291 35.5089 21.232 35.4004 21.2405C35.4717 20.7125 35.5374 20.2015 35.6059 19.6935C35.7172 18.8629 35.8285 18.0351 35.9513 17.2073C35.9713 17.0789 36.0312 16.9333 36.1197 16.8448C37.3471 15.6032 38.583 14.3729 39.8161 13.137C39.856 13.097 39.9046 13.0628 39.9788 13Z" fill="white"/>
</svg>
