<svg width="54" height="54" viewBox="0 0 54 54" fill="none" xmlns="http://www.w3.org/2000/svg">
<rect width="54" height="54" rx="15" fill="#1855EE"/>
<g clip-path="url(#clip0_1_283)">
<path d="M35.099 41.0349C33.5863 40.7509 32.4558 41.3681 31.5219 42.5042C31.2052 42.8865 30.8284 43.2142 30.4734 43.5638C28.491 45.481 25.4928 45.4755 23.5213 43.5474C22.9425 42.9794 22.369 42.4058 21.8011 41.8269C21.2768 41.2916 20.6542 41.0349 19.906 41.0349C19.0323 41.0349 18.1476 41.0786 17.2792 40.9748C14.8053 40.6908 12.9977 38.6262 12.9649 36.13C12.954 35.4254 12.9649 34.7154 12.9649 34.0108C12.9649 33.3335 12.7301 32.76 12.255 32.2793C11.6815 31.7058 11.1081 31.1323 10.5347 30.5588C8.49221 28.4996 8.49221 25.4901 10.5238 23.4363C11.059 22.8956 11.5887 22.3549 12.1348 21.8305C12.7028 21.2843 12.9649 20.6289 12.9704 19.8314C12.9758 18.8155 12.9267 17.7723 13.1178 16.7891C13.5438 14.577 15.5153 13.0149 17.7707 12.9602C18.4916 12.9439 19.207 12.9493 19.9279 12.9602C20.6488 12.9712 21.255 12.7145 21.7628 12.212C22.3363 11.6384 22.9042 11.0595 23.4831 10.4914C25.4928 8.50872 28.5128 8.50326 30.5226 10.4805C31.1014 11.0485 31.6749 11.6221 32.2428 12.201C32.7453 12.709 33.3514 12.9602 34.0723 12.9657C34.9625 12.9657 35.8581 12.922 36.7374 13.0258C39.2003 13.3153 41.0025 15.3526 41.0462 17.8323C41.0571 18.5096 41.0626 19.1924 41.0462 19.8751C41.0244 20.6562 41.3084 21.2952 41.8654 21.836C42.4224 22.3713 42.9631 22.9229 43.5037 23.4691C45.5025 25.4955 45.508 28.5051 43.5147 30.5369C42.9576 31.105 42.3897 31.6676 41.8217 32.2302C41.2974 32.7436 41.0462 33.3553 41.0462 34.0927C41.0462 34.983 41.0844 35.8788 40.9861 36.7581C40.7131 39.1723 38.6761 40.9912 36.2459 41.0513C35.869 41.0622 35.4868 41.0513 35.1099 41.0513L35.099 41.0349ZM25.329 28.5761C24.5153 27.7568 23.7398 26.9812 22.9588 26.2056C22.3909 25.643 21.6209 25.6266 21.113 26.151C20.616 26.6644 20.6378 27.4236 21.1894 27.9698C22.2489 29.0349 23.3138 30.1 24.3787 31.1596C24.974 31.7495 25.6894 31.7495 26.2792 31.1596C28.4637 28.9803 30.6482 26.8009 32.8162 24.6107C32.9855 24.4414 33.1221 24.212 33.1931 23.988C33.3569 23.4363 33.1111 22.8792 32.636 22.6061C32.1118 22.3003 31.5219 22.3767 31.0577 22.8355C29.6488 24.2338 28.2452 25.643 26.8417 27.0467C26.3448 27.5438 25.8478 28.0463 25.3235 28.5706L25.329 28.5761Z" fill="white"/>
</g>
<defs>
<clipPath id="clip0_1_283">
<rect width="36" height="36" fill="white" transform="translate(9 9)"/>
</clipPath>
</defs>
</svg>
