<svg width="54" height="54" viewBox="0 0 54 54" fill="none" xmlns="http://www.w3.org/2000/svg">
<rect width="54" height="54" rx="15" fill="#F5B037"/>
<g clip-path="url(#clip0_1_371)">
<path d="M8 31.9061C8.13354 31.512 8.40061 31.3673 8.80646 31.3753C9.80144 31.3941 10.7964 31.3753 11.794 31.386C12.3046 31.3941 12.6031 31.874 12.3308 32.26C12.2313 32.4021 12.0113 32.5335 11.8438 32.5389C10.7676 32.563 9.68885 32.5496 8.6127 32.5523C8.26969 32.5523 8.13354 32.3083 8.00262 32.0482V31.9035L8 31.9061Z" fill="white"/>
<path d="M28.4599 35.9895C31.251 30.5015 27.745 24.6651 22.7728 23.8635C22.8173 23.4157 22.8592 22.9653 22.9089 22.464C22.7806 22.464 22.6575 22.464 22.5345 22.464C21.4793 22.464 20.4241 22.464 19.3689 22.464C18.9342 22.464 18.675 22.2442 18.6724 21.8822C18.6698 21.5176 18.9211 21.2951 19.3584 21.2951C20.4503 21.2897 21.5395 21.2951 22.6314 21.2951C22.757 21.2951 22.8853 21.2951 23.0372 21.2951C23.1262 20.4533 23.21 19.649 23.3017 18.7857C23.1472 18.7857 23.0215 18.7857 22.8984 18.7857C21.8537 18.7857 20.8116 18.7857 19.7669 18.7857C19.3296 18.7857 19.0678 18.5712 19.0547 18.212C19.0416 17.8393 19.3086 17.598 19.7616 17.5954C20.8404 17.59 21.9192 17.5954 22.9979 17.5954C23.1262 17.5954 23.2519 17.5954 23.409 17.5954C23.4561 17.2522 23.485 16.9332 23.5452 16.6195C23.7128 15.7589 24.3831 15.1155 25.2393 15.0404C25.7865 14.9921 26.339 15.0109 26.8915 15.0109C28.075 15.0082 29.2611 15.0109 30.4446 15.0109H30.8531C30.7745 15.783 30.7012 16.5069 30.6253 17.2334C30.4472 18.9251 30.2692 20.6195 30.0911 22.3112C30.0335 22.8474 29.9523 23.3836 29.9366 23.9224C29.9314 24.1342 30.0126 24.4452 30.1566 24.5364C30.3215 24.6409 30.6436 24.6302 30.8295 24.5337C31.5286 24.1718 32.2041 23.7616 32.8823 23.3568C33.0577 23.2522 33.186 23.2549 33.3588 23.3728C33.9218 23.7616 34.4978 24.1316 35.0712 24.5042C35.5949 24.842 36.0139 24.6222 36.0793 23.9922C36.3281 21.5846 36.5847 19.1745 36.8386 16.7669C36.8989 16.1959 36.9539 15.6249 37.0115 15.0511C37.09 15.035 37.145 15.0163 37.2026 15.0163C38.9491 15.0163 40.6981 14.9948 42.4446 15.027C43.4029 15.0431 44.0496 15.7535 43.9973 16.6543C43.9711 17.1208 43.9083 17.5846 43.8611 18.0511C43.6569 19.9948 43.4527 21.9385 43.2484 23.8795C43.0468 25.775 42.8426 27.6704 42.6436 29.5659C42.4917 31.0082 42.3241 32.4506 42.2011 33.8956C42.0859 35.2334 41.3134 36.0002 40.0069 36.0002C36.3019 36.0002 32.5943 36.0002 28.8893 36.0002C28.7636 36.0002 28.6379 36.0002 28.4599 36.0002V35.9895Z" fill="white"/>
<path d="M21.4427 39C17.6251 38.9786 14.5668 35.8124 14.6009 31.9223C14.6349 28.0322 17.7167 24.9062 21.495 24.9303C25.2864 24.9518 28.3526 28.1367 28.3316 32.0295C28.3107 35.8713 25.1974 39.0215 21.4453 39H21.4427ZM26.3731 31.9678C26.3731 29.1796 24.1789 26.9303 21.461 26.9303C18.7484 26.9303 16.5385 29.1877 16.5358 31.9652C16.5358 34.7346 18.7536 37.0134 21.4558 37.0107C24.1658 37.0107 26.3731 34.7453 26.3731 31.9678Z" fill="white"/>
<path d="M31.1436 23.0403C31.4316 20.311 31.7091 17.6703 31.9867 15.0269H35.8828C35.6 17.7159 35.3199 20.3754 35.0318 23.0966C34.516 22.7588 34.0499 22.4692 33.5996 22.1529C33.3037 21.9437 33.0393 21.925 32.7251 22.1207C32.2276 22.4317 31.7144 22.7105 31.1436 23.0403Z" fill="white"/>
<path d="M12.2418 37.5229C11.7259 37.5229 11.2101 37.5256 10.6943 37.5229C10.3015 37.5203 10.0607 37.3085 10.0449 36.9707C10.0266 36.6141 10.2623 36.3567 10.6655 36.3514C11.7076 36.338 12.7497 36.3406 13.7945 36.3514C14.2003 36.3567 14.4412 36.6061 14.4281 36.9599C14.415 37.3111 14.1663 37.5229 13.7526 37.5256C13.2498 37.5283 12.7445 37.5256 12.2418 37.5256V37.5229Z" fill="white"/>
<path d="M12.2573 27.5897C11.731 27.5897 11.2021 27.595 10.6758 27.5897C10.2805 27.5843 10.05 27.3725 10.0422 27.024C10.0343 26.6621 10.2726 26.4315 10.6811 26.4288C11.7232 26.4235 12.7653 26.4235 13.8074 26.4288C14.1871 26.4288 14.428 26.6674 14.4253 27.0106C14.4253 27.3511 14.1818 27.5816 13.8022 27.587C13.2863 27.595 12.7705 27.587 12.2573 27.587V27.5897Z" fill="white"/>
<path d="M22.0371 31.3805C22.7335 31.3805 23.375 31.3805 24.0192 31.3805C24.1841 31.3805 24.3491 31.3751 24.5114 31.3966C24.8151 31.4341 25.0299 31.6861 25.022 31.981C25.0141 32.2732 24.7863 32.544 24.4905 32.5467C23.4719 32.5574 22.4534 32.5574 21.4348 32.5467C21.1128 32.544 20.8928 32.3054 20.8902 31.9622C20.8797 30.9542 20.8824 29.9488 20.8902 28.9408C20.8902 28.5896 21.1416 28.3322 21.4505 28.3215C21.7595 28.3134 22.0213 28.552 22.0318 28.9167C22.0501 29.5762 22.0397 30.2357 22.0423 30.8952C22.0423 31.0373 22.0423 31.1794 22.0423 31.3805H22.0371Z" fill="white"/>
</g>
<defs>
<clipPath id="clip0_1_371">
<rect width="36" height="24" fill="white" transform="translate(8 15)"/>
</clipPath>
</defs>
</svg>
