<svg width="104" height="52" viewBox="0 0 104 52" fill="none" xmlns="http://www.w3.org/2000/svg">
<path d="M87.9649 7.88839C82.8305 7.88839 77.6908 7.88839 72.5564 7.87802C72.1983 7.87802 71.9508 7.98693 71.698 8.23588C68.9913 10.912 66.2793 13.583 63.5673 16.2487C63.4356 16.3784 63.2408 16.4614 63.1354 16.6066C63.0406 16.7362 63.0143 16.9178 62.988 17.0785C62.9564 17.2445 62.9933 17.426 62.9459 17.5868C62.651 18.593 61.603 19.1946 60.5709 18.9612C59.5493 18.7278 58.8647 17.7528 59.0227 16.7518C59.1964 15.6575 60.1127 14.9418 61.2449 15.0611C61.5556 15.0974 61.7189 14.9885 61.9084 14.8018C66.8111 9.97848 71.7138 5.1552 76.606 0.321552C76.8377 0.0933537 77.0694 0 77.3959 0C86.0796 0.0103726 94.7633 0.00518631 103.447 0.00518631C103.809 0.00518631 103.989 0.176335 103.989 0.518632C103.989 2.82654 103.984 5.12927 104 7.43718C104 7.79504 103.905 7.88839 103.542 7.88839C98.3495 7.87802 93.1625 7.87802 87.9701 7.87802L87.9649 7.88839ZM59.5229 16.9904C59.5071 17.8254 60.1601 18.5048 60.9922 18.5152C61.8031 18.5307 62.4982 17.8772 62.5193 17.0837C62.5404 16.2332 61.8663 15.533 61.0238 15.5278C60.218 15.5278 59.5335 16.1917 59.5177 16.9904H59.5229Z" fill="#101B5A"/>
<path d="M87.1455 8.75391H95.1183C95.1236 8.88875 95.1394 9.02878 95.1394 9.174C95.1394 15.5687 95.1288 21.9583 95.1394 28.353C95.1394 28.6279 95.034 28.799 94.8497 28.9805C91.1372 32.6317 87.4299 36.2829 83.7173 39.9341C83.5224 40.1259 83.454 40.2712 83.5593 40.5564C83.8753 41.4122 83.5382 42.3353 82.7799 42.828C82.0111 43.3259 80.9842 43.2585 80.3049 42.6569C79.6308 42.0604 79.4465 41.0906 79.852 40.2919C80.2575 39.488 81.1422 39.0524 82.0427 39.2443C82.3376 39.3065 82.5114 39.2339 82.7167 39.0316C84.0806 37.6676 85.4551 36.314 86.8401 34.9707C87.0665 34.7529 87.1508 34.5299 87.1455 34.2239C87.1402 25.931 87.1402 17.6381 87.1402 9.33996V8.76428L87.1455 8.75391ZM81.6635 42.6465C82.5061 42.6465 83.1696 41.9827 83.1644 41.158C83.1591 40.349 82.5008 39.7007 81.6741 39.6955C80.821 39.6903 80.1574 40.3334 80.1522 41.1632C80.1522 41.993 80.8157 42.6465 81.6583 42.6465H81.6635Z" fill="#101B5A"/>
<path d="M95.9865 8.75128H103.986V9.20768C103.986 14.8971 103.986 20.5916 103.991 26.281C103.991 26.5818 103.891 26.7789 103.685 26.9812C99.283 31.3066 94.8911 35.6372 90.4887 39.9625C90.2939 40.1544 90.1991 40.336 90.2043 40.6264C90.2307 41.7933 89.3565 42.6335 88.1664 42.6283C87.0552 42.6231 86.1758 41.7311 86.1916 40.6264C86.2074 39.5217 87.1342 38.64 88.277 38.6815C88.5824 38.6919 88.7772 38.6141 88.9879 38.4066C91.2102 36.2076 93.4324 34.0138 95.6705 31.8252C95.9022 31.597 95.997 31.374 95.997 31.0524C95.9865 23.7968 95.9917 16.5411 95.9917 9.28028V8.74609L95.9865 8.75128ZM88.2138 42.1512C89.03 42.1512 89.7304 41.451 89.7199 40.6471C89.7093 39.8536 89.0248 39.1846 88.2243 39.1742C87.3923 39.1639 86.6919 39.8484 86.6972 40.6627C86.7024 41.4769 87.3923 42.1564 88.219 42.1564L88.2138 42.1512Z" fill="#101B5A"/>
<path d="M86.2597 8.75076V16.5977H85.6804C80.4354 16.5977 75.1957 16.5977 69.9507 16.5925C69.6084 16.5925 69.3662 16.6858 69.1239 16.9296C67.1965 18.8433 65.2586 20.7519 63.3155 22.6501C63.1101 22.8524 63.01 23.0494 63.0153 23.3503C63.0364 24.4757 62.1622 25.3211 61.03 25.3211C59.9083 25.3211 59.0131 24.4549 59.0078 23.3606C59.0026 22.2508 59.9031 21.3535 61.0405 21.3743C61.367 21.3795 61.5935 21.2913 61.8252 21.0579C65.8906 17.0385 69.9718 13.0243 74.0529 9.01527C74.1899 8.88042 74.4163 8.74558 74.6006 8.74558C78.408 8.73002 82.2101 8.7352 86.0174 8.7352C86.0859 8.7352 86.1491 8.74039 86.2649 8.75076H86.2597ZM62.5256 23.3451C62.5256 22.5256 61.841 21.8462 61.0142 21.8514C60.198 21.8514 59.5344 22.5101 59.5239 23.3191C59.5134 24.1489 60.1769 24.8232 61.0089 24.8284C61.841 24.8284 62.5203 24.1645 62.5256 23.3451Z" fill="#101B5A"/>
<path d="M28.9649 7.88839C23.8305 7.88839 18.6908 7.88839 13.5564 7.87802C13.1983 7.87802 12.9508 7.98693 12.698 8.23588C9.99129 10.912 7.27927 13.583 4.56725 16.2487C4.4356 16.3784 4.24076 16.4614 4.13544 16.6066C4.04065 16.7362 4.01432 16.9178 3.98799 17.0785C3.95639 17.2445 3.99325 17.426 3.94586 17.5868C3.65096 18.593 2.60302 19.1946 1.57087 18.9612C0.549257 18.7278 -0.13533 17.7528 0.0226513 16.7518C0.196431 15.6575 1.11272 14.9418 2.24493 15.0611C2.55562 15.0974 2.71887 14.9885 2.90845 14.8018C7.81114 9.97848 12.7138 5.1552 17.606 0.321552C17.8377 0.0933537 18.0694 0 18.3959 0C27.0796 0.0103726 35.7633 0.00518631 44.4471 0.00518631C44.8087 0.00518631 44.9895 0.176335 44.9895 0.518632C44.9895 2.82654 44.9842 5.12927 45 7.43718C45 7.79504 44.9052 7.88839 44.5419 7.88839C39.3495 7.87802 34.1625 7.87802 28.9701 7.87802L28.9649 7.88839ZM0.522926 16.9904C0.507128 17.8254 1.16012 18.5048 1.99215 18.5152C2.80313 18.5307 3.49825 17.8772 3.51931 17.0837C3.54037 16.2332 2.86632 15.533 2.02375 15.5278C1.21805 15.5278 0.533458 16.1917 0.51766 16.9904H0.522926Z" fill="#101B5A"/>
<path d="M28.1455 8.75391H36.1183C36.1236 8.88875 36.1394 9.02878 36.1394 9.174C36.1394 15.5687 36.1288 21.9583 36.1394 28.353C36.1394 28.6279 36.034 28.799 35.8497 28.9805C32.1372 32.6317 28.4299 36.2829 24.7173 39.9341C24.5224 40.1259 24.454 40.2712 24.5593 40.5564C24.8753 41.4122 24.5382 42.3353 23.7799 42.828C23.0111 43.3259 21.9842 43.2585 21.3049 42.6569C20.6308 42.0604 20.4465 41.0906 20.852 40.2919C21.2575 39.488 22.1422 39.0524 23.0427 39.2443C23.3376 39.3065 23.5114 39.2339 23.7167 39.0316C25.0806 37.6676 26.4551 36.314 27.8401 34.9707C28.0665 34.7529 28.1508 34.5299 28.1455 34.2239C28.1402 25.931 28.1402 17.6381 28.1402 9.33996V8.76428L28.1455 8.75391ZM22.6635 42.6465C23.5061 42.6465 24.1696 41.9827 24.1644 41.158C24.1591 40.349 23.5008 39.7007 22.6741 39.6955C21.821 39.6903 21.1574 40.3334 21.1522 41.1632C21.1522 41.993 21.8157 42.6465 22.6583 42.6465H22.6635Z" fill="#101B5A"/>
<path d="M36.9865 8.75128H44.9856V9.20768C44.9856 14.8971 44.9856 20.5916 44.9909 26.281C44.9909 26.5818 44.8908 26.7789 44.6854 26.9812C40.283 31.3066 35.8911 35.6372 31.4887 39.9625C31.2939 40.1544 31.1991 40.336 31.2043 40.6264C31.2307 41.7933 30.3565 42.6335 29.1664 42.6283C28.0552 42.6231 27.1758 41.7311 27.1916 40.6264C27.2074 39.5217 28.1342 38.64 29.277 38.6815C29.5824 38.6919 29.7772 38.6141 29.9879 38.4066C32.2102 36.2076 34.4324 34.0138 36.6705 31.8252C36.9022 31.597 36.997 31.374 36.997 31.0524C36.9865 23.7968 36.9917 16.5411 36.9917 9.28028V8.74609L36.9865 8.75128ZM29.2138 42.1512C30.03 42.1512 30.7304 41.451 30.7199 40.6471C30.7093 39.8536 30.0248 39.1846 29.2243 39.1742C28.3923 39.1639 27.6919 39.8484 27.6972 40.6627C27.7024 41.4769 28.3923 42.1564 29.219 42.1564L29.2138 42.1512Z" fill="#101B5A"/>
<path d="M27.2597 8.75076V16.5977H26.6804C21.4354 16.5977 16.1957 16.5977 10.9507 16.5925C10.6084 16.5925 10.3662 16.6858 10.1239 16.9296C8.19655 18.8433 6.25864 20.7519 4.31547 22.6501C4.11009 22.8524 4.01004 23.0494 4.0153 23.3503C4.03637 24.4757 3.1622 25.3211 2.03 25.3211C0.90833 25.3211 0.0131015 24.4549 0.00783548 23.3606C0.00256943 22.2508 0.903064 21.3535 2.04053 21.3743C2.36703 21.3795 2.59347 21.2913 2.82517 21.0579C6.89057 17.0385 10.9718 13.0243 15.0529 9.01527C15.1899 8.88042 15.4163 8.74558 15.6006 8.74558C19.408 8.73002 23.2101 8.7352 27.0174 8.7352C27.0859 8.7352 27.1491 8.74039 27.2649 8.75076H27.2597ZM3.52556 23.3451C3.52556 22.5256 2.84097 21.8462 2.0142 21.8514C1.19796 21.8514 0.534441 22.5101 0.523909 23.3191C0.513377 24.1489 1.1769 24.8232 2.00894 24.8284C2.84097 24.8284 3.52029 24.1645 3.52556 23.3451Z" fill="#101B5A"/>
<g filter="url(#filter0_d_1_241)">
<path d="M59.9649 7.88839C54.8305 7.88839 49.6908 7.88839 44.5564 7.87802C44.1983 7.87802 43.9508 7.98693 43.698 8.23588C40.9913 10.912 38.2793 13.583 35.5673 16.2487C35.4356 16.3784 35.2408 16.4614 35.1354 16.6066C35.0406 16.7362 35.0143 16.9178 34.988 17.0785C34.9564 17.2445 34.9933 17.426 34.9459 17.5868C34.651 18.593 33.603 19.1946 32.5709 18.9612C31.5493 18.7278 30.8647 17.7528 31.0227 16.7518C31.1964 15.6575 32.1127 14.9418 33.2449 15.0611C33.5556 15.0974 33.7189 14.9885 33.9084 14.8018C38.8111 9.97848 43.7138 5.1552 48.606 0.321552C48.8377 0.0933537 49.0694 0 49.3959 0C58.0796 0.0103726 66.7633 0.00518631 75.4471 0.00518631C75.8087 0.00518631 75.9895 0.176335 75.9895 0.518632C75.9895 2.82654 75.9842 5.12927 76 7.43718C76 7.79504 75.9052 7.88839 75.5419 7.88839C70.3495 7.87802 65.1625 7.87802 59.9701 7.87802L59.9649 7.88839ZM31.5229 16.9904C31.5071 17.8254 32.1601 18.5048 32.9922 18.5152C33.8031 18.5307 34.4982 17.8772 34.5193 17.0837C34.5404 16.2332 33.8663 15.533 33.0238 15.5278C32.218 15.5278 31.5335 16.1917 31.5177 16.9904H31.5229Z" fill="#2C68FF"/>
<path d="M59.1455 8.75391H67.1183C67.1236 8.88875 67.1394 9.02878 67.1394 9.174C67.1394 15.5687 67.1288 21.9583 67.1394 28.353C67.1394 28.6279 67.034 28.799 66.8497 28.9805C63.1372 32.6317 59.4299 36.2829 55.7173 39.9341C55.5224 40.1259 55.454 40.2712 55.5593 40.5564C55.8753 41.4122 55.5382 42.3353 54.7799 42.828C54.0111 43.3259 52.9842 43.2585 52.3049 42.6569C51.6308 42.0604 51.4465 41.0906 51.852 40.2919C52.2575 39.488 53.1422 39.0524 54.0427 39.2443C54.3376 39.3065 54.5114 39.2339 54.7167 39.0316C56.0806 37.6676 57.4551 36.314 58.8401 34.9707C59.0665 34.7529 59.1508 34.5299 59.1455 34.2239C59.1402 25.931 59.1402 17.6381 59.1402 9.33996V8.76428L59.1455 8.75391ZM53.6635 42.6465C54.5061 42.6465 55.1696 41.9827 55.1644 41.158C55.1591 40.349 54.5008 39.7007 53.6741 39.6955C52.821 39.6903 52.1574 40.3334 52.1522 41.1632C52.1522 41.993 52.8157 42.6465 53.6583 42.6465H53.6635Z" fill="#2C68FF"/>
<path d="M67.9865 8.75128H75.9856V9.20768C75.9856 14.8971 75.9856 20.5916 75.9909 26.281C75.9909 26.5818 75.8908 26.7789 75.6854 26.9812C71.283 31.3066 66.8911 35.6372 62.4887 39.9625C62.2939 40.1544 62.1991 40.336 62.2043 40.6264C62.2307 41.7933 61.3565 42.6335 60.1664 42.6283C59.0552 42.6231 58.1758 41.7311 58.1916 40.6264C58.2074 39.5217 59.1342 38.64 60.277 38.6815C60.5824 38.6919 60.7772 38.6141 60.9879 38.4066C63.2102 36.2076 65.4324 34.0138 67.6705 31.8252C67.9022 31.597 67.997 31.374 67.997 31.0524C67.9865 23.7968 67.9917 16.5411 67.9917 9.28028V8.74609L67.9865 8.75128ZM60.2138 42.1512C61.03 42.1512 61.7304 41.451 61.7199 40.6471C61.7093 39.8536 61.0248 39.1846 60.2243 39.1742C59.3923 39.1639 58.6919 39.8484 58.6972 40.6627C58.7024 41.4769 59.3923 42.1564 60.219 42.1564L60.2138 42.1512Z" fill="#2C68FF"/>
<path d="M58.2597 8.75076V16.5977H57.6804C52.4354 16.5977 47.1957 16.5977 41.9507 16.5925C41.6084 16.5925 41.3662 16.6858 41.1239 16.9296C39.1965 18.8433 37.2586 20.7519 35.3155 22.6501C35.1101 22.8524 35.01 23.0494 35.0153 23.3503C35.0364 24.4757 34.1622 25.3211 33.03 25.3211C31.9083 25.3211 31.0131 24.4549 31.0078 23.3606C31.0026 22.2508 31.9031 21.3535 33.0405 21.3743C33.367 21.3795 33.5935 21.2913 33.8252 21.0579C37.8906 17.0385 41.9718 13.0243 46.0529 9.01527C46.1899 8.88042 46.4163 8.74558 46.6006 8.74558C50.408 8.73002 54.2101 8.7352 58.0174 8.7352C58.0859 8.7352 58.1491 8.74039 58.2649 8.75076H58.2597ZM34.5256 23.3451C34.5256 22.5256 33.841 21.8462 33.0142 21.8514C32.198 21.8514 31.5344 22.5101 31.5239 23.3191C31.5134 24.1489 32.1769 24.8232 33.0089 24.8284C33.841 24.8284 34.5203 24.1645 34.5256 23.3451Z" fill="#2C68FF"/>
</g>
<defs>
<filter id="filter0_d_1_241" x="27" y="0" width="53" height="51.1597" filterUnits="userSpaceOnUse" color-interpolation-filters="sRGB">
<feFlood flood-opacity="0" result="BackgroundImageFix"/>
<feColorMatrix in="SourceAlpha" type="matrix" values="0 0 0 0 0 0 0 0 0 0 0 0 0 0 0 0 0 0 127 0" result="hardAlpha"/>
<feOffset dy="4"/>
<feGaussianBlur stdDeviation="2"/>
<feComposite in2="hardAlpha" operator="out"/>
<feColorMatrix type="matrix" values="0 0 0 0 0 0 0 0 0 0 0 0 0 0 0 0 0 0 0.25 0"/>
<feBlend mode="normal" in2="BackgroundImageFix" result="effect1_dropShadow_1_241"/>
<feBlend mode="normal" in="SourceGraphic" in2="effect1_dropShadow_1_241" result="shape"/>
</filter>
</defs>
</svg>
