<svg width="54" height="54" viewBox="0 0 54 54" fill="none" xmlns="http://www.w3.org/2000/svg">
<rect width="54" height="54" rx="15" fill="#1855EE"/>
<g clip-path="url(#clip0_1_333)">
<path d="M29.3157 33.6676C29.8904 33.1775 30.5273 32.7408 31.0349 32.1779C33.0604 29.936 33.683 27.3108 32.7348 24.4284C31.7915 21.5557 29.7563 19.7796 26.8017 19.2458C22.6068 18.484 18.6945 21.3227 17.9475 25.5978C17.2388 29.6352 20.0353 33.7356 24.0147 34.4586C24.5462 34.5557 25.0921 34.609 25.6285 34.609C29.354 34.6236 33.0796 34.6139 36.81 34.6139C36.9105 34.6139 37.0063 34.6042 37.1404 34.5993V33.2891C38.462 34.4343 39.7119 35.5213 41 36.6423C39.7262 37.7535 38.4668 38.8502 37.1547 39.9954V38.6706C36.9967 38.6706 36.8818 38.6706 36.7669 38.6706C33.0317 38.6706 29.2918 38.6706 25.5566 38.6706C20.0353 38.6706 15.3425 34.8711 14.1118 29.4168C12.7183 23.2686 16.5732 16.9118 22.6021 15.4172C25.6476 14.665 28.5495 15.0581 31.2934 16.6158C31.5185 16.7468 31.5903 16.8681 31.552 17.135C31.1258 20.0514 33.1897 22.5747 36.0869 22.6863C36.3263 22.696 36.4317 22.7639 36.5083 22.9969C37.6959 26.68 37.2553 30.1495 35.1962 33.4153C35.0717 33.6094 34.9424 33.6773 34.7125 33.6773C32.9934 33.6676 31.2791 33.6725 29.56 33.6725H29.3157V33.6676Z" fill="white"/>
<path d="M28.851 31.4595C28.5829 31.2945 28.2956 31.1004 27.9987 30.9402C27.9029 30.8917 27.7544 30.8917 27.6491 30.9257C27.3666 31.0227 27.0888 31.1392 26.8207 31.2799C26.7153 31.3333 26.6052 31.4498 26.5669 31.5614C26.4807 31.8088 26.428 32.0709 26.3801 32.3281C26.3514 32.4979 26.2843 32.5658 26.1072 32.561C25.7049 32.5464 25.3027 32.5513 24.9004 32.561C24.7376 32.561 24.6466 32.5319 24.6179 32.3426C24.5604 32.0224 24.5508 31.6439 24.3689 31.4158C24.2013 31.2023 23.8086 31.1877 23.5548 31.0179C23.2627 30.8238 23.0328 30.8675 22.7743 31.0616C22.5731 31.212 22.3481 31.3284 22.1517 31.4498C21.7639 31.0518 21.3856 30.6588 20.9737 30.2366C21.1126 30.0085 21.2706 29.7174 21.4526 29.4457C21.5532 29.2904 21.5675 29.1739 21.4765 29.0041C21.3472 28.7663 21.2323 28.5091 21.1653 28.2471C21.1078 28.0287 20.9881 27.9608 20.8013 27.9171C20.4997 27.8492 20.0926 27.8492 19.9394 27.6551C19.7861 27.4561 19.8867 27.0533 19.8771 26.7428C19.8771 26.5196 19.8771 26.2963 19.8771 26.0343C20.2028 25.9518 20.5284 25.8596 20.8588 25.7917C21.0264 25.7577 21.1078 25.6752 21.1605 25.5054C21.2419 25.2336 21.352 24.9667 21.4861 24.7193C21.5771 24.5494 21.5627 24.4281 21.4622 24.2777C21.285 24.0108 21.127 23.7245 20.9737 23.4673C21.3664 23.0645 21.7447 22.6763 22.1469 22.2639C22.4007 22.4191 22.6785 22.5744 22.9419 22.7588C23.0999 22.8704 23.2292 22.885 23.4064 22.7879C23.6314 22.6618 23.8756 22.555 24.1247 22.4871C24.3449 22.4289 24.4311 22.3027 24.4646 22.094C24.5077 21.8465 24.57 21.5942 24.6466 21.3564C24.6706 21.2788 24.7855 21.1817 24.8573 21.1817C25.2883 21.1672 25.7193 21.1623 26.1502 21.1817C26.2269 21.1817 26.3418 21.2837 26.3657 21.3613C26.4615 21.6816 26.4471 22.0795 26.6387 22.3124C26.8254 22.5405 27.2229 22.5744 27.5006 22.7394C27.7449 22.885 27.9316 22.8753 28.1519 22.7103C28.377 22.5453 28.6308 22.4094 28.8463 22.2784C29.2389 22.6763 29.622 23.0645 30.029 23.4819C29.8758 23.7342 29.6891 24.0156 29.5358 24.3214C29.4831 24.4233 29.4879 24.5834 29.5215 24.7047C29.5789 24.9085 29.7226 25.0881 29.7609 25.2919C29.8279 25.6801 30.0626 25.7965 30.4121 25.8645C31.1304 26.01 31.1256 26.0295 31.1256 26.7865C31.1256 26.9708 31.1017 27.1552 31.1304 27.3348C31.1783 27.6551 31.0251 27.7764 30.7473 27.8006C30.1967 27.854 29.8423 28.0675 29.6507 28.6789C29.5119 29.1205 29.4544 29.4408 29.7513 29.7999C29.871 29.9455 29.9476 30.125 30.0338 30.2706C29.6364 30.6733 29.2581 31.0616 28.8558 31.4692L28.851 31.4595ZM25.5325 24.7726C24.4024 24.7435 23.4447 25.6704 23.4207 26.8253C23.3968 27.9559 24.3162 28.9313 25.4272 28.9604C26.586 28.9895 27.5294 28.0821 27.5677 26.9029C27.606 25.7626 26.6866 24.8018 25.5325 24.7726Z" fill="white"/>
<path d="M36.2306 21.7642C34.0996 21.7545 32.3996 20.0124 32.4092 17.8482C32.4188 15.7227 34.1667 13.9855 36.2784 14.0001C38.3711 14.0146 40.0663 15.7616 40.0615 17.8967C40.0615 20.0512 38.3519 21.7739 36.2306 21.7642ZM35.5554 18.2849C35.4165 18.1248 35.3111 17.9889 35.1866 17.8724C34.9759 17.6735 34.7269 17.6686 34.5402 17.8482C34.3438 18.0326 34.3295 18.3043 34.5306 18.5275C34.7557 18.775 34.9903 19.0128 35.2345 19.2409C35.45 19.4447 35.6894 19.4447 35.9049 19.2409C36.0821 19.0759 36.2497 18.9012 36.4173 18.7265C36.9153 18.2218 37.4229 17.7317 37.897 17.2076C38.0024 17.096 38.0646 16.868 38.0311 16.7175C37.9976 16.5865 37.8156 16.4215 37.6815 16.407C37.5331 16.3924 37.3319 16.4895 37.217 16.6011C36.6663 17.1348 36.1348 17.688 35.5506 18.28L35.5554 18.2849Z" fill="white"/>
<path d="M12 38.6606V34.6573C12.0862 34.6476 12.1628 34.6282 12.2394 34.6282C13.2642 34.6282 14.289 34.6233 15.3137 34.633C15.4239 34.633 15.5723 34.6912 15.6394 34.7786C16.9562 36.4624 18.594 37.7192 20.5334 38.5733C20.5669 38.5879 20.5956 38.6121 20.6818 38.6606H12Z" fill="white"/>
</g>
<defs>
<clipPath id="clip0_1_333">
<rect width="29" height="26" fill="white" transform="translate(12 14)"/>
</clipPath>
</defs>
</svg>
