<svg width="53" height="53" viewBox="0 0 53 53" fill="none" xmlns="http://www.w3.org/2000/svg">
<rect x="0.5" y="0.5" width="52" height="52" rx="15.5" fill="#E29400" stroke="#E9EFFF"/>
<path d="M31.6455 25.4416L29.6926 24.7554C29.5342 24.2276 29.3231 23.6998 29.0064 23.1719L29.9037 21.3245C30.0093 21.1134 29.9565 20.8495 29.7981 20.7439L27.5284 18.4742C27.3701 18.3159 27.1062 18.2631 26.9478 18.3687L25.1004 19.266C24.5726 19.0021 24.0447 18.7909 23.5169 18.5798L22.8307 16.6268C22.7779 16.4157 22.5668 16.2573 22.3557 16.2573H19.1359C18.9248 16.2573 18.7136 16.4157 18.6081 16.6268L17.9219 18.5798C17.3941 18.7381 16.8662 18.9493 16.3384 19.266L14.5438 18.3159C14.3326 18.2103 14.1215 18.2631 13.9104 18.4214L11.6407 20.6911C11.4823 20.8495 11.4295 21.1134 11.5351 21.2717L12.4324 23.1191C12.1685 23.647 11.9574 24.1748 11.799 24.7026L9.84605 25.3888C9.63491 25.4944 9.47656 25.7055 9.47656 25.9167V29.1364C9.47656 29.3476 9.63491 29.5587 9.84605 29.6643L11.799 30.3505C11.9574 30.8783 12.1685 31.4061 12.4852 31.934L11.5879 33.7814C11.4823 33.9925 11.5351 34.2564 11.6935 34.4148L13.9631 36.6844C14.1215 36.8428 14.3854 36.8956 14.5965 36.79L16.444 35.8927C16.9718 36.1566 17.4996 36.3678 18.0275 36.5789L18.7136 38.5319C18.7664 38.743 18.9776 38.9013 19.1887 38.9013H22.4085C22.6196 38.9013 22.8307 38.743 22.8835 38.5319L23.5697 36.5789C24.0975 36.4205 24.6254 36.2094 25.1532 35.8927L27.0006 36.79C27.2117 36.8956 27.4229 36.8428 27.5812 36.6844L29.8509 34.4148C30.0093 34.2564 30.062 33.9925 29.9565 33.7814L29.0064 31.8812C29.2703 31.3533 29.4814 30.8255 29.6926 30.2977L31.6455 29.6115C31.8567 29.5587 32.015 29.3476 32.015 29.0837V25.8639C32.015 25.7055 31.8567 25.4944 31.6455 25.4416ZM20.7194 32.0395C18.2386 32.0395 16.2328 30.0338 16.2328 27.5529C16.2328 25.0721 18.2386 23.0664 20.7194 23.0664C23.2002 23.0664 25.206 25.0721 25.206 27.5529C25.206 29.981 23.2002 32.0395 20.7194 32.0395Z" fill="white"/>
<path d="M42.8893 14.9379L41.8336 14.5684C41.728 14.3045 41.6225 14.0406 41.5169 13.8294L41.992 12.8266C42.0975 12.6154 42.0447 12.4043 41.8864 12.1932L40.6196 10.8736C40.4612 10.7152 40.1973 10.6625 40.039 10.768L39.0361 11.2431C38.7722 11.1375 38.561 11.0319 38.2971 10.9264L37.9276 9.8707C37.8749 9.65957 37.6637 9.50122 37.4526 9.50122H35.5524C35.3413 9.50122 35.1301 9.65957 35.0246 9.8707L34.6551 10.9264C34.3912 11.0319 34.1273 11.1375 33.9161 11.2431L32.9132 10.768C32.7021 10.6625 32.4382 10.7152 32.2798 10.8736L30.9603 12.1932C30.8019 12.3515 30.7491 12.6154 30.8547 12.8266L31.3297 13.8294C31.2242 14.0934 31.1186 14.3045 31.013 14.5684L29.9574 14.9379C29.7462 14.9907 29.5879 15.2018 29.5879 15.4129V17.3131C29.5879 17.5243 29.7462 17.7354 29.9574 17.7882L31.013 18.1577C31.1186 18.4216 31.2242 18.6855 31.3297 18.9494L30.8547 19.8995C30.7491 20.1107 30.8019 20.3746 30.9603 20.5329L32.2798 21.8525C32.4382 22.0109 32.7021 22.0636 32.9132 21.9581L33.9161 21.483C34.18 21.5886 34.444 21.6942 34.6551 21.7997L35.0246 22.8554C35.0774 23.0665 35.2885 23.2249 35.5524 23.2249H37.4526C37.6637 23.2249 37.8749 23.0665 37.9276 22.8554L38.2971 21.7997C38.561 21.6942 38.825 21.5886 39.0361 21.483L40.039 21.9581C40.2501 22.0636 40.4612 22.0109 40.6724 21.8525L41.992 20.5329C42.1503 20.3746 42.2031 20.1107 42.0975 19.8995L41.6225 18.8966C41.728 18.6327 41.8336 18.3688 41.9392 18.1049L42.9948 17.7354C43.206 17.6826 43.3643 17.4715 43.3643 17.2604V15.3602C43.2588 15.2018 43.1004 14.9907 42.8893 14.9379ZM36.4497 19.0022C34.9718 19.0022 33.8106 17.841 33.8106 16.363C33.8106 14.9379 34.9718 13.7239 36.4497 13.7239C37.8749 13.7239 39.0889 14.8851 39.0889 16.363C39.0889 17.841 37.8749 19.0022 36.4497 19.0022Z" fill="white"/>
<path d="M42.8891 32.1453L41.4111 31.6175C41.3056 31.1952 41.1472 30.8257 40.9361 30.4563L41.6223 29.0311C41.7278 28.82 41.6751 28.6088 41.5167 28.4505L39.7221 26.6559C39.5637 26.4975 39.2998 26.4447 39.0887 26.5503L37.7163 27.2893C37.3468 27.0781 36.9246 26.9198 36.5551 26.8142L36.08 25.3363C36.0272 25.1251 35.8161 24.9668 35.5522 24.9668H33.0186C32.913 24.9668 32.8603 24.9668 32.7547 25.0196C32.913 25.2835 33.0186 25.6002 33.0186 25.9169V29.1367C33.0186 29.8229 32.5963 30.4035 31.9629 30.6146L30.485 31.1424C30.3794 31.4064 30.2739 31.6703 30.1683 31.8814L30.8545 33.2538C31.1712 33.8872 31.0656 34.5734 30.5378 35.1012L28.2681 37.3709C28.0042 37.6348 27.6875 37.7931 27.3708 37.8459L26.8957 38.796C26.7902 39.0071 26.843 39.2183 27.0013 39.3766L28.7959 41.1713C28.9543 41.3296 29.2182 41.3824 29.4293 41.2768L30.8545 40.5906C31.224 40.8018 31.6462 40.9601 32.0157 41.0657L32.5436 42.5436C32.5963 42.7548 32.8075 42.9131 33.0714 42.9131H35.605C35.8161 42.9131 36.0272 42.7548 36.1328 42.5436L36.6079 41.0657C37.0301 40.9073 37.3996 40.749 37.7691 40.5906L39.1942 41.2768C39.4054 41.3824 39.6165 41.3296 39.8276 41.1713L41.6223 39.3766C41.7806 39.2183 41.8334 38.9544 41.7278 38.796L41.0417 37.3709C41.2528 37.0014 41.4111 36.5791 41.5167 36.2096L42.9946 35.6818C43.2058 35.629 43.3641 35.4179 43.3641 35.154V32.6204C43.2586 32.4092 43.1002 32.2509 42.8891 32.1453ZM34.8132 37.4764C32.8603 37.4764 31.2768 35.8929 31.2768 33.94C31.2768 31.987 32.8603 30.4035 34.8132 30.4035C36.7662 30.4035 38.3497 31.987 38.3497 33.94C38.3497 35.8929 36.7662 37.4764 34.8132 37.4764Z" fill="white"/>
</svg>
