<svg width="16" height="16" viewBox="0 0 16 16" fill="none" xmlns="http://www.w3.org/2000/svg">
<path d="M15.5618 13.968H0.499978C0.209866 14.0618 0 14.2716 0 14.5305V15.5304C0 15.7893 0.209866 15.9992 0.468729 15.9992H15.5306C15.7894 15.9992 15.9993 15.7893 15.9993 15.5304V14.5305C15.9993 14.2716 15.7894 14.0618 15.5618 13.968Z" fill="#023ED6"/>
<path d="M15.7102 3.16065L8.17929 0.0357875C8.06426 -0.0119292 7.93502 -0.0119292 7.81999 0.0357875L0.289081 3.16065C0.114057 3.23324 0 3.40411 0 3.59357V4.53102C0 4.78989 0.209866 4.99975 0.468729 4.99975H15.5306C15.7894 4.99975 15.9993 4.78989 15.9993 4.53102V3.59357C15.9993 3.40411 15.8852 3.23324 15.7102 3.16065ZM10.812 3.59357H5.18727C4.9284 3.59357 4.71854 3.3837 4.71854 3.12484C4.71854 2.86597 4.9284 2.65611 5.18727 2.65611H10.812C11.0709 2.65611 11.2807 2.86597 11.2807 3.12484C11.2807 3.3837 11.0709 3.59357 10.812 3.59357Z" fill="#023ED6"/>
<path d="M0.890533 12.187V13.1244H4.48412V12.187C4.48412 11.9281 4.27426 11.7183 4.01539 11.7183H1.35926C1.1004 11.7183 0.890533 11.9281 0.890533 12.187Z" fill="#023ED6"/>
<path d="M1.51553 5.93726H3.85918V10.7808H1.51553V5.93726Z" fill="#023ED6"/>
<path d="M12 12.187V13.1244H15.5936V12.187C15.5936 11.9281 15.3837 11.7183 15.1249 11.7183H12.4687C12.2099 11.7183 12 11.9281 12 12.187Z" fill="#023ED6"/>
<path d="M12.625 5.93726H14.9686V10.7808H12.625V5.93726Z" fill="#023ED6"/>
<path d="M7.99963 10.9371C7.74117 10.9371 7.5309 10.7268 7.5309 10.4683C7.5309 10.2095 7.32104 9.9996 7.06217 9.9996C6.80331 9.9996 6.59344 10.2095 6.59344 10.4683C6.59344 11.0794 6.98533 11.6004 7.5309 11.7939V12.0308C7.5309 12.2896 7.74077 12.4995 7.99963 12.4995C8.2585 12.4995 8.46836 12.2896 8.46836 12.0308V11.7939C9.01393 11.6004 9.40582 11.0794 9.40582 10.4683C9.40582 9.69296 8.775 9.06214 7.99963 9.06214C7.74117 9.06214 7.5309 8.85187 7.5309 8.59342C7.5309 8.33496 7.74117 8.12469 7.99963 8.12469C8.25809 8.12469 8.46836 8.33496 8.46836 8.59342C8.46836 8.85228 8.67823 9.06214 8.93709 9.06214C9.19595 9.06214 9.40582 8.85228 9.40582 8.59342C9.40582 7.98235 9.01393 7.46134 8.46836 7.26785V7.03098C8.46836 6.77212 8.2585 6.56226 7.99963 6.56226C7.74077 6.56226 7.5309 6.77212 7.5309 7.03098V7.26785C6.98533 7.46134 6.59344 7.98235 6.59344 8.59342C6.59344 9.36879 7.22426 9.9996 7.99963 9.9996C8.25809 9.9996 8.46836 10.2099 8.46836 10.4683C8.46836 10.7268 8.25809 10.9371 7.99963 10.9371Z" fill="#023ED6"/>
</svg>
