<?xml version="1.0" encoding="utf-8"?>
<!-- Generator: Adobe Illustrator 23.1.0, SVG Export Plug-In . SVG Version: 6.00 Build 0)  -->
<svg version="1.1" id="Illustration" xmlns="http://www.w3.org/2000/svg" xmlns:xlink="http://www.w3.org/1999/xlink" x="0px"
	 y="0px" viewBox="0 0 540 390" style="enable-background:new 0 0 540 390;" xml:space="preserve">
<style type="text/css">
	.st0{display:none;}
	.st1{display:inline;}
	.st2{fill:#E9E9EB;}
	.st3{fill:#FFFFFF;}
	.st4{fill:url(#SVGID_1_);}
	.st5{fill:#18285D;}
	.st6{fill:#DBE6F7;}
	.st7{fill:#021147;}
	.st8{fill:#707FFF;}
	.st9{fill:#3B3E7D;}
	.st10{fill:#4F60D9;}
	.st11{fill:#C47F10;}
	.st12{fill:#FFA800;}
	.st13{opacity:0.5;}
	.st14{fill:#BBD4F2;}
	.st15{font-family:'ArialMT';}
	.st16{font-size:21.3569px;}
	.st17{fill:url(#SVGID_2_);}
	.st18{fill:#2551DB;}
	.st19{fill:#FAB083;}
	.st20{fill:#58619B;}
	.st21{fill:#FC8664;}
	.st22{fill:#FD664D;}
	.st23{fill:#FF7469;}
	.st24{fill:#1D38C8;}
	.st25{fill:url(#SVGID_3_);}
	.st26{fill:url(#SVGID_4_);}
	.st27{fill:#91B3F9;}
	.st28{fill:#91B3FA;}
	.st29{fill:url(#SVGID_5_);}
	.st30{fill:#BDD0FB;}
	.st31{opacity:0.75;}
	.st32{opacity:0.76;fill:#FFFFFF;}
	.st33{fill:url(#SVGID_6_);}
	.st34{clip-path:url(#SVGID_8_);fill:url(#SVGID_9_);}
	.st35{fill:url(#SVGID_10_);}
	.st36{fill:#0C0C0C;}
	.st37{opacity:0.9;}
	.st38{fill-rule:evenodd;clip-rule:evenodd;fill:#FFFFFF;}
	.st39{fill:url(#SVGID_11_);}
	.st40{fill:url(#SVGID_12_);}
	.st41{fill:url(#SVGID_13_);}
	.st42{fill:url(#SVGID_14_);}
	.st43{fill:url(#SVGID_15_);}
	.st44{fill:url(#SVGID_16_);}
	.st45{fill:url(#SVGID_17_);}
	.st46{fill:url(#SVGID_18_);}
	.st47{fill:url(#SVGID_19_);}
	.st48{fill:url(#SVGID_20_);}
	.st49{fill:url(#SVGID_21_);}
	.st50{fill:url(#SVGID_22_);}
	.st51{fill:url(#SVGID_23_);}
	.st52{fill:url(#SVGID_24_);}
	.st53{fill:url(#SVGID_25_);}
	.st54{fill:url(#SVGID_26_);}
	.st55{fill:#7D97F4;}
</style>
<g class="st0">
	<g class="st1">
		<path class="st2" d="M454,335.5H102.5c-43.8,5-70.8,11.9-70.8,19.4c0,15.3,110.4,27.7,246.5,27.7s246.5-12.4,246.5-27.7
			C524.8,347.4,497.8,340.5,454,335.5"/>
		<path class="st2" d="M531.3,336.1c2.1-6.7,0-15-3.5-21.5c-4.6-8.6-11.2-16.5-12.3-26.2c-2.1-18.4,16.4-33.9,15.6-52.4
			c-0.9-22-28.2-36.2-28.3-58.3c-0.1-20.7,24.2-36.6,20.8-57c-3-18.3-25.1-24.9-38.4-37.5c-13.1-12.4-15.5-33.9-29.4-45.5
			c-11-9.2-23.2-15.9-37.8-16.3c-9.6-0.2-17.7,2.7-26.8,5c-23.5,6-47.5-10.4-69.9-15c-17.4-3.6-36.2-3.4-53.6,0.7
			c-12.5,2.9-24.7,7.4-37.1,10.7c-12.7,3.3-22.9,3.4-35.6,0.6c-29.8-6.5-75.6,12.2-96.5,30.1C75.2,73.4,74.2,99,63.2,127.7
			c-10.6,27.8-13.3,58.4-25.5,85.5c-6.7,15-16.2,28.6-22.3,43.8c-10,25-10.1,53.9-0.4,79h516.3V336.1z"/>
	</g>
	<g class="st1">
		<path class="st3" d="M209.1,77.1c0,1-0.4,1.8-1,2.5c-0.6,0.6-1.5,1-2.5,1h-74.5c-1.9,0-3.5-1.6-3.5-3.5c0-1,0.4-1.8,1-2.5
			c0.6-0.6,1.5-1,2.5-1h3.5c1.4-3.2,4.6-5.5,8.3-5.5c2.5,0,4.8,1,6.4,2.7c2.2-3.7,6.2-6.2,10.9-6.2c1.3,0,2.5,0.2,3.7,0.5
			c2.4-4.6,7.2-7.7,12.7-7.7c6.6,0,12.2,4.5,13.9,10.6c1.2-0.6,2.6-1,4.1-1c4.1,0,7.6,2.8,8.7,6.5h2.2
			C207.6,73.7,209.1,75.2,209.1,77.1z"/>
		<path class="st3" d="M444.6,79.1c0,1-0.4,1.8-1,2.5c-0.6,0.6-1.5,1-2.5,1h-74.5c-1.9,0-3.5-1.6-3.5-3.5c0-1,0.4-1.8,1-2.5
			c0.6-0.6,1.5-1,2.5-1h3.5c1.4-3.2,4.6-5.5,8.3-5.5c2.5,0,4.8,1,6.4,2.7c2.2-3.7,6.2-6.2,10.9-6.2c1.3,0,2.5,0.2,3.7,0.5
			c2.4-4.6,7.2-7.7,12.7-7.7c6.6,0,12.2,4.5,13.9,10.6c1.2-0.6,2.6-1,4.1-1c4.1,0,7.6,2.8,8.7,6.5h2.2
			C443.1,75.6,444.6,77.2,444.6,79.1z"/>
		<path class="st3" d="M329.8,58.8c0,1-0.4,1.8-1,2.5c-0.6,0.6-1.5,1-2.5,1h-74.5c-1.9,0-3.5-1.6-3.5-3.5c0-1,0.4-1.8,1-2.5
			c0.6-0.6,1.5-1,2.5-1h3.5c1.4-3.2,4.6-5.5,8.3-5.5c2.5,0,4.8,1,6.4,2.7c2.2-3.7,6.2-6.2,10.9-6.2c1.3,0,2.5,0.2,3.7,0.5
			c2.4-4.6,7.2-7.7,12.7-7.7c6.6,0,12.2,4.5,13.9,10.6c1.2-0.6,2.6-1,4.1-1c4.1,0,7.6,2.8,8.7,6.5h2.2
			C328.2,55.3,329.8,56.9,329.8,58.8z"/>
	</g>
	<g class="st1">
		<g>
			
				<linearGradient id="SVGID_1_" gradientUnits="userSpaceOnUse" x1="130.8" y1="167.2256" x2="441.2" y2="167.2256" gradientTransform="matrix(1 0 0 -1 0 391.2756)">
				<stop  offset="0" style="stop-color:#09005D"/>
				<stop  offset="1" style="stop-color:#1A0F91"/>
			</linearGradient>
			<path class="st4" d="M441.2,140.3v167.5c0,6.9-5.6,12.5-12.5,12.5H143.3c-6.9,0-12.5-5.6-12.5-12.5V140.3
				c0-6.9,5.6-12.5,12.5-12.5h285.4C435.6,127.8,441.2,133.4,441.2,140.3z"/>
			<g>
				<path class="st5" d="M441.2,224v83.7c0,6.9-5.6,12.5-12.5,12.5H143.3c-6.9,0-12.5-5.6-12.5-12.5V224H441.2z"/>
			</g>
			<path class="st3" d="M427.4,148.8v150.4c0,4.4-3.6,8-8,8H152.6c-2.4,0-4.5-1-6-2.7c-1.3-1.4-2.1-3.3-2.1-5.4V148.8
				c0-4.4,3.6-8,8-8h266.8c1.5,0,2.9,0.4,4.1,1.1C425.8,143.3,427.4,145.8,427.4,148.8z"/>
			<g>
				<path class="st3" d="M427.4,148.8v150.4c0,4.4-3.6,8-8,8H152.6c-2.4,0-4.5-1-6-2.7c-1.3-1.4-2.1-3.3-2.1-5.4V148.8
					c0-4.4,3.6-8,8-8h266.8c1.5,0,2.9,0.4,4.1,1.1C425.8,143.3,427.4,145.8,427.4,148.8z"/>
				<g>
					<g>
						<path class="st6" d="M153.6,204.8L153.6,204.8c0,1.2,1,2.2,2.2,2.2h46.1c1.2,0,2.2-1,2.2-2.2l0,0c0-1.2-1-2.2-2.2-2.2h-46.1
							C154.6,202.7,153.6,203.6,153.6,204.8z"/>
						<path class="st6" d="M153.6,215.9L153.6,215.9c0,1.2,1,2.2,2.2,2.2h46.1c1.2,0,2.2-1,2.2-2.2l0,0c0-1.2-1-2.2-2.2-2.2h-46.1
							C154.6,213.8,153.6,214.7,153.6,215.9z"/>
						<path class="st6" d="M153.6,226.7L153.6,226.7c0,1,1,1.9,2.1,1.9h45.4c1.2,0,2.1-0.8,2.1-1.9l0,0c0-1-1-1.9-2.1-1.9h-45.4
							C154.5,224.8,153.6,225.7,153.6,226.7z"/>
					</g>
					<g>
						<path class="st6" d="M153.6,243.3L153.6,243.3c0,1.2,1,2.2,2.2,2.2h46.1c1.2,0,2.2-1,2.2-2.2l0,0c0-1.2-1-2.2-2.2-2.2h-46.1
							C154.6,241.1,153.6,242.1,153.6,243.3z"/>
						<path class="st6" d="M153.6,254.4L153.6,254.4c0,1.2,1,2.2,2.2,2.2h46.1c1.2,0,2.2-1,2.2-2.2l0,0c0-1.2-1-2.2-2.2-2.2h-46.1
							C154.6,252.2,153.6,253.2,153.6,254.4z"/>
						<path class="st6" d="M153.6,265.4L153.6,265.4c0,1.2,1,2.2,2.2,2.2h46.1c1.2,0,2.2-1,2.2-2.2l0,0c0-1.2-1-2.2-2.2-2.2h-46.1
							C154.6,263.3,153.6,264.2,153.6,265.4z"/>
					</g>
				</g>
				<g>
					<g>
						<path class="st6" d="M367.6,204.8L367.6,204.8c0,1.2,1,2.2,2.2,2.2h46.1c1.2,0,2.2-1,2.2-2.2l0,0c0-1.2-1-2.2-2.2-2.2h-46.1
							C368.6,202.7,367.6,203.6,367.6,204.8z"/>
						<path class="st6" d="M367.6,215.9L367.6,215.9c0,1.2,1,2.2,2.2,2.2h46.1c1.2,0,2.2-1,2.2-2.2l0,0c0-1.2-1-2.2-2.2-2.2h-46.1
							C368.6,213.8,367.6,214.7,367.6,215.9z"/>
						<path class="st6" d="M367.6,226.7L367.6,226.7c0,1,1,1.9,2.1,1.9h45.4c1.2,0,2.1-0.8,2.1-1.9l0,0c0-1-1-1.9-2.1-1.9h-45.4
							C368.6,224.8,367.6,225.7,367.6,226.7z"/>
					</g>
					<g>
						<path class="st6" d="M367.6,243.3L367.6,243.3c0,1.2,1,2.2,2.2,2.2h46.1c1.2,0,2.2-1,2.2-2.2l0,0c0-1.2-1-2.2-2.2-2.2h-46.1
							C368.6,241.1,367.6,242.1,367.6,243.3z"/>
						<path class="st6" d="M367.6,254.4L367.6,254.4c0,1.2,1,2.2,2.2,2.2h46.1c1.2,0,2.2-1,2.2-2.2l0,0c0-1.2-1-2.2-2.2-2.2h-46.1
							C368.6,252.2,367.6,253.2,367.6,254.4z"/>
						<path class="st6" d="M367.6,265.4L367.6,265.4c0,1.2,1,2.2,2.2,2.2h46.1c1.2,0,2.2-1,2.2-2.2l0,0c0-1.2-1-2.2-2.2-2.2h-46.1
							C368.6,263.3,367.6,264.2,367.6,265.4z"/>
					</g>
				</g>
				<path class="st6" d="M427.4,148.8v8.4H144.6v-8.4c0-4.4,3.6-8,8-8h266.8c1.5,0,2.9,0.4,4.1,1.1
					C425.8,143.3,427.4,145.8,427.4,148.8z"/>
				<g>
					<path class="st7" d="M425.9,144.2H146c1.4-2.1,3.8-3.4,6.6-3.4h266.8C422.1,140.8,424.5,142.1,425.9,144.2z"/>
				</g>
				<g>
					<path class="st8" d="M398,149.8c0,1.5-1.3,2.8-2.8,2.8s-2.8-1.3-2.8-2.8s1.3-2.8,2.8-2.8C396.8,147,398,148.3,398,149.8z"/>
					<g>
						<path class="st9" d="M407.1,149.8c0,1.5-1.3,2.8-2.8,2.8s-2.8-1.3-2.8-2.8s1.3-2.8,2.8-2.8C405.9,147,407.1,148.3,407.1,149.8
							z"/>
					</g>
					<path class="st10" d="M415.8,149.8c0,1.5-1.3,2.8-2.8,2.8s-2.8-1.3-2.8-2.8s1.3-2.8,2.8-2.8S415.8,148.3,415.8,149.8z"/>
				</g>
				<g>
					<polygon class="st6" points="360.5,197.3 360.5,299.1 213.1,299.1 213.1,197.3 219.9,197.3 219.8,197.3 219.9,197.3 					"/>
					<g>
						<g>
							<rect x="213.2" y="193.2" class="st11" width="147.3" height="101.8"/>
							<rect x="213.2" y="189.4" class="st12" width="147.3" height="101.8"/>
							<g class="st13">
								<g>
									<path class="st10" d="M223.3,223.8V268c0,1.5-1.2,2.7-2.7,2.7s-2.7-1.2-2.7-2.7v-44.3c0-1.5,1.2-2.7,2.7-2.7
										C222.1,221.1,223.3,222.3,223.3,223.8z"/>
								</g>
							</g>
							<g class="st13">
								<g>
									<path class="st10" d="M223.3,210.2v4.5c0,1.5-1.2,2.7-2.7,2.7s-2.7-1.2-2.7-2.7v-4.5c0-1.5,1.2-2.7,2.7-2.7
										C222.1,207.6,223.3,208.7,223.3,210.2z"/>
								</g>
							</g>
							<g>
								<polygon class="st11" points="272.7,242.1 217.5,291.2 213.2,291.2 213.2,288.6 269.5,238.5 								"/>
							</g>
							<g>
								<polygon class="st11" points="360.5,289 360.5,291.2 355.9,291.2 300.7,242.1 303.8,238.5 								"/>
							</g>
							<path class="st11" d="M360.5,189.4l-22.3,19.8l-46.5,41.3c-2.8,2.5-6.9,2.5-9.7,0l-46.5-41.3l-22.3-19.9L360.5,189.4
								L360.5,189.4z"/>
							<g>
								<path class="st6" d="M338.2,173.2v36.1L324,221.9l-4.9,4.3l-7.6,6.7l-4.9,4.3l-7.6,6.7l-4.9,4.3l-2.5,2.2
									c-2.8,2.5-6.9,2.5-9.7,0l-2.5-2.2l-4.9-4.3l-7.6-6.7l-4.9-4.3l-7.6-6.7l-4.9-4.3l-14.2-12.6v-36.1c0-3.3,2.6-5.9,5.9-5.9
									h90.9C335.6,167.3,338.2,169.9,338.2,173.2z"/>
								<g>
									<path class="st14" d="M276.2,193H248c-1.2,0-2.2-1-2.2-2.2l0,0c0-1.2,1-2.2,2.2-2.2h28.2c1.2,0,2.2,1,2.2,2.2l0,0
										C278.4,192,277.4,193,276.2,193z"/>
									<path class="st14" d="M329,204.1h-81c-1.2,0-2.2-1-2.2-2.2l0,0c0-1.2,1-2.2,2.2-2.2h81c1.2,0,2.2,1,2.2,2.2l0,0
										C331.1,203.1,330.2,204.1,329,204.1z"/>
									<path class="st14" d="M329,215.2h-81c-1.2,0-2.2-1-2.2-2.2l0,0c0-1.2,1-2.2,2.2-2.2h81c1.2,0,2.2,1,2.2,2.2l0,0
										C331.1,214.2,330.2,215.2,329,215.2z"/>
									<polygon class="st14" points="324,221.9 319.1,226.2 254.6,226.2 249.7,221.9 									"/>
									<polygon class="st14" points="311.6,233 306.7,237.3 267,237.3 262.1,233 									"/>
									<polygon class="st14" points="299.1,244.1 294.2,248.4 279.5,248.4 274.6,244.1 									"/>
								</g>
							</g>
						</g>
					</g>
				</g>
				<g>
					<g>
						<g>
							<path class="st10" d="M336.8,178.9L336.8,178.9c-7.3,0-13.2-5.9-13.2-13.2l0,0c0-7.3,5.9-13.2,13.2-13.2l0,0
								c7.3,0,13.2,5.9,13.2,13.2l0,0C349.9,173,344,178.9,336.8,178.9z"/>
						</g>
					</g>
					<g>
						<g>
							<path class="st8" d="M339.1,178.9L339.1,178.9c-7.3,0-13.2-5.9-13.2-13.2l0,0c0-7.3,5.9-13.2,13.2-13.2l0,0
								c7.3,0,13.2,5.9,13.2,13.2l0,0C352.2,173,346.4,178.9,339.1,178.9z"/>
						</g>
					</g>
					<g>
						<text transform="matrix(1 0 0 1 335.7361 173.7772)" class="st3 st15 st16">!</text>
					</g>
				</g>
			</g>
		</g>
		
			<linearGradient id="SVGID_2_" gradientUnits="userSpaceOnUse" x1="101.7" y1="65.0256" x2="470.2" y2="65.0256" gradientTransform="matrix(1 0 0 -1 0 391.2756)">
			<stop  offset="0" style="stop-color:#09005D"/>
			<stop  offset="1" style="stop-color:#1A0F91"/>
		</linearGradient>
		<path class="st17" d="M470.2,313.5v1.1c0,5.3-1.7,10.3-4.6,14.3C461.2,335,454,339,445.8,339H126.1c-8.1,0-15.3-4-19.8-10.1
			c-2.9-4-4.6-8.9-4.6-14.3v-1.1H470.2z"/>
		<path class="st3" d="M244.7,313.5v0.2c0,1.9,1.3,3.5,2.9,3.5h75.2c1.6,0,2.9-1.6,2.9-3.5v-0.2H244.7z"/>
		<path class="st18" d="M465.5,328.9c-4.4,6.1-11.6,10.1-19.8,10.1H126.1c-8.1,0-15.3-4-19.8-10.1H465.5z"/>
	</g>
	<g class="st1">
		<g>
			<g>
				<polygon class="st19" points="129.8,297.8 126.5,304.7 133.4,304.8 136,298.5 				"/>
				<g>
					<g>
						<path class="st8" d="M128.7,304.3c0,0-1.4-1.9-2.5-1.8s-9.7,6.9-12.6,7.5s-2.7,3.6-1.4,3.6c3.5,0,23.1-0.1,23.1-0.1
							s0.6-6.8-0.1-8.9C134.3,302.4,131,304.8,128.7,304.3z"/>
						<g>
							<g>
								<path class="st3" d="M123.9,309c0.1,0,0.2,0,0.3,0c0.2-0.1,0.3-0.4,0.2-0.6c0-0.1-0.9-1.6-2.1-2.2c-1.6-0.8-2.9,0.1-2.9,0.1
									c-0.2,0.1-0.2,0.4-0.1,0.6s0.4,0.2,0.6,0.1c0,0,0.9-0.6,2.1-0.1c1,0.5,1.8,1.9,1.8,1.9C123.8,309,123.8,309,123.9,309z"/>
							</g>
							<g>
								<path class="st3" d="M125.2,307.9c0.1,0,0.2,0,0.3,0c0.2-0.1,0.3-0.4,0.2-0.6c0-0.1-0.9-1.6-2.1-2.2
									c-1.6-0.8-2.9,0.1-2.9,0.1c-0.2,0.1-0.2,0.4-0.1,0.6s0.4,0.2,0.6,0.1c0,0,0.9-0.6,2.1-0.1c1,0.5,1.8,1.9,1.8,1.9
									C125,307.8,125.1,307.9,125.2,307.9z"/>
							</g>
							<g>
								<path class="st3" d="M122.3,310c0.1,0,0.2,0,0.3,0c0.2-0.1,0.3-0.4,0.2-0.6c0-0.1-0.9-1.6-2.1-2.2c-1.6-0.8-2.9,0.1-2.9,0.1
									c-0.2,0.1-0.2,0.4-0.1,0.6s0.4,0.2,0.6,0.1c0,0,0.9-0.6,2.1-0.1c1,0.5,1.8,1.9,1.8,1.9C122.1,309.9,122.2,310,122.3,310z"/>
							</g>
						</g>
					</g>
				</g>
			</g>
			<g>
				<g>
					<g>
						<g>
							<g>
								<g>
									<path class="st5" d="M127.8,300.1l3,1l1.7,0.1l2.9,0.2c3.8-3,14.1-12.1,16.1-17.5c0,0,9.6,26.1,27.9,26.1
										c1.2,0,1.7-10.7-1.3-13.9c0,0-16.9-31.5-27.8-28.1C145.4,269.5,140.5,276.7,127.8,300.1z"/>
								</g>
							</g>
						</g>
					</g>
				</g>
				<g>
					<g>
						<path class="st7" d="M130.8,301l1.7,0.1c11.2-8.5,16.4-15.7,18.8-20.3c0.1-0.2,0.2-0.2,0.3-0.2s0.1,0,0.2,0.1
							c5.4,12.7,11.8,20.3,16.3,24.4c4.9,4.5,8.4,6,8.6,6.1l0.2-0.5l0.2-0.5c0,0-3.6-1.5-8.3-5.9c-4.4-4.1-10.7-11.5-16-24
							c-0.2-0.5-0.6-0.8-1.1-0.8s-1,0.3-1.3,0.8C148,285,142.6,292.3,130.8,301z"/>
					</g>
				</g>
				<g>
					<path class="st9" d="M138.4,299.3c-0.5,0.9-1.3,2.2-2.1,2.8c0,0-6.5-0.3-9.6-1.9l1.4-3.3C128.1,296.9,133.3,298.8,138.4,299.3z
						"/>
				</g>
			</g>
		</g>
		<g>
			<g>
				<path class="st10" d="M179,242.7c0,0-12.5,15-17.8,17.4c-2.3,1.1-4.6,1.5-6.3,1.5c-0.6,0-2-0.1-2.1-0.1l0,0
					c-6.3-0.8-13.6-2.7-22.8-6.4l1.4-4.3c0,0,5.5,1.2,12.3,1.7c2.5,0.2,8.3,0.4,10.4,0.8c0.5-0.2,1-0.5,1.6-0.8
					c9.3-5,15.5-15.3,15.5-15.3C174.1,238.3,177.4,240.4,179,242.7z"/>
			</g>
			<g>
				<g>
					<g>
						<path class="st19" d="M131.6,250.5c0,0-1.3-3.2-3-4.2c-1.7-0.9-6.7-4.2-7.8-3.2c-1.1,1-0.8,5.6,3.6,9.5
							c2.8,2.5,5.7,2.4,5.7,2.4L131.6,250.5z"/>
					</g>
					<g>
						<g>
							<g>
								<path class="st5" d="M120.5,246.1l7.3,6.8c0.3,0.3,0.8,0.3,1.1,0.2l4.5-2.2c0.1-0.1,0.2-0.2,0.3-0.3l0,0l0.2-0.7l-1.2-0.5
									l-11.5-4.4l-0.6-0.2l-0.2,0.8v0.1l0,0C120.3,245.9,120.3,246,120.5,246.1z"/>
							</g>
						</g>
						<g>
							<g>
								<path class="st9" d="M129.1,252.4l4.5-2.2c0.3-0.2,0.4-0.5,0.1-0.8l-7.3-6.8c-0.3-0.3-0.8-0.3-1.1-0.2l-4.5,2.2
									c-0.3,0.2-0.4,0.5-0.1,0.8l7.3,6.8C128.3,252.5,128.8,252.5,129.1,252.4z"/>
							</g>
						</g>
						<g>
							<g>
								<path class="st20" d="M128.6,251.2l3.5-1.7c0.3-0.2,0.4-0.5,0.1-0.8l-5.7-5.3c-0.3-0.3-0.8-0.3-1.1-0.2l-3.5,1.7
									c-0.3,0.2-0.4,0.5-0.1,0.8l5.7,5.3C127.8,251.2,128.2,251.3,128.6,251.2z"/>
							</g>
						</g>
					</g>
					<g>
						<path class="st19" d="M128.7,244.7c0,0-1,0.2-1.1,1.1c-0.1,0.9,0.9,0.5,1.5,0.3s1.2,0,1.3,0.1
							C130.6,246.5,130.5,244.5,128.7,244.7z"/>
					</g>
					<g>
						<path class="st19" d="M124,249.6c0,0-1.6-2.7-2.9-4.2c-0.8-1-1.3,0.4-0.7,1.4C121,247.9,122.1,249.9,124,249.6z"/>
					</g>
				</g>
			</g>
		</g>
		<g>
			<g>
				<path class="st8" d="M187.8,227.2c0,0,7.9,0,11.5,3.3s0.2,9.9-3.7,10.7s-16.1-0.6-17.4-2.7C176.9,236.4,177.7,227.3,187.8,227.2
					z"/>
			</g>
			<g>
				<g>
					<g>
						<path class="st8" d="M200.2,298.1l3.8-24.8l-0.8-34.2L194,236l-0.5-0.2l-2.1-0.7l-1.6-0.6l-9.7,1.3l-1.6,0.2l-0.6,0.1l-6.9,1
							c-0.1,22,2,26.7-2,44.5C167,288.5,174.5,312.3,200.2,298.1z"/>
					</g>
				</g>
			</g>
			<g>
				<g>
					<path class="st10" d="M187.1,241.3c6.9,0,8.6-6.1,8.6-6.2c0-0.1,0-0.3-0.2-0.3c-0.1,0-0.3,0-0.3,0.2c-0.1,0.2-1.5,5.8-8.1,5.8
						H187c-0.1,0-0.3,0.1-0.3,0.3c0,0.1,0.1,0.3,0.3,0.3C187,241.3,187.1,241.3,187.1,241.3z"/>
				</g>
			</g>
			<g>
				<g>
					<path class="st10" d="M180.6,240.3c0.1,0,0.3-0.1,0.3-0.3c0-0.1-0.1-0.3-0.3-0.3c-0.1,0-2.1-0.1-2.6-2.8c0-0.1-0.2-0.2-0.3-0.2
						s-0.2,0.2-0.2,0.3C178.1,240.3,180.6,240.3,180.6,240.3L180.6,240.3z"/>
				</g>
			</g>
			<g>
				<path class="st10" d="M191.8,275c0,0,1.1,8.6-1.2,12.8c0,0-11.4,0.8-19.7-2.5c0,0,2.1-6,2.1-11.9L191.8,275z"/>
			</g>
			<g>
				<path class="st3" d="M185.7,265.9L185.7,265.9c0.2,0,0.3-0.1,0.3-0.3c-0.6-6.4,1.8-22.5,1.8-22.7c0-0.1-0.1-0.3-0.2-0.3
					c-0.1,0-0.3,0.1-0.3,0.2c0,0.2-2.4,16.3-1.8,22.8C185.5,265.8,185.6,265.9,185.7,265.9z"/>
			</g>
			<g>
				<path class="st3" d="M177.3,264.6L177.3,264.6c0.2,0,0.3-0.1,0.3-0.3c-0.6-6.4,1.9-22.6,1.9-22.8c0-0.1-0.1-0.3-0.2-0.3
					c-0.1,0-0.3,0.1-0.3,0.2c0,0.2-2.5,16.5-1.9,22.9C177,264.5,177.1,264.6,177.3,264.6z"/>
			</g>
		</g>
		<g>
			<path class="st19" d="M210.2,306.7c0,0-2.8,3.9-2.6,5.9s2.8,5.8,4.9,5.9c2.1,0.2-2.4-4.8-1.3-4.7c1.3,0.2,9.8,7.2,11.6,7.2
				s-2.1-3.3-3.6-4.1c0,0,4,1.8,5,2.7c0.9,0.9,1.6-1.1-3.1-3.9c0,0,4.3,2.4,4.6,2.5c1,0.1-1.8-3.1-4.1-4.2c0,0,3.5,1.7,3.8,1.7
				c0.5,0-0.6-1.1-3.1-2.5c-2.3-1.3-6.1-7.1-6.1-7.1L210.2,306.7z"/>
			<path class="st8" d="M203.2,239.2c0,0,9.6,18.4,11.8,37.6l1,29.2c0,0-1,2.1-5.9,0.7l-4.7-29.2l-3.6-13.4
				C201.8,264.1,200.2,247.7,203.2,239.2z"/>
		</g>
		<g>
			<g>
				<path class="st7" d="M173.8,219.3c1,5.8,6.5,9.6,12.3,8.6s9.6-6.5,8.6-12.3s-6.5-9.6-12.3-8.6S172.8,213.5,173.8,219.3z"/>
			</g>
			<g>
				<path class="st7" d="M173.7,217.4c0,0-3.1-0.3-3.2-3.2c-0.1-2.5,3-1.4,2.5-3.3c-0.6-1.9-1.5-3.5,0.9-4.4c2.1-0.8,2.4,0.7,4.8-2
					c2.9-3.1,6.5,2.3,9.5,1.9c4.4-0.5,5.4,1.9,6.2,3.8c0.8,1.9-0.7,3.6-0.7,3.6L173.7,217.4z"/>
			</g>
			<g>
				<path class="st21" d="M176.1,221.9c0,0-2-1.9-2.9,0.1s1.8,7.1,4.6,5.3L176.1,221.9z"/>
				<g>
					<path class="st22" d="M176.7,225.7c-0.1,0-0.2,0-0.3-0.1c-0.8-1.6-2.6-1.9-2.6-1.9c-0.1,0-0.2-0.2-0.2-0.3s0.2-0.2,0.3-0.2
						s2.1,0.4,3,2.2C177,225.5,176.9,225.6,176.7,225.7C176.8,225.7,176.8,225.7,176.7,225.7z"/>
				</g>
				<g>
					<g>
						<path class="st22" d="M174.9,225.2h-0.1c-0.1-0.1-0.2-0.2-0.1-0.3c0,0,0.2-0.5,0.8-0.9c0.1-0.1,0.3,0,0.4,0.1
							c0.1,0.1,0,0.3-0.1,0.4c-0.5,0.3-0.6,0.7-0.6,0.7C175,225.1,174.9,225.2,174.9,225.2z"/>
					</g>
				</g>
			</g>
			<path class="st19" d="M189.8,229.8l0.9,5.3c0,0-1.8,2.7-3.9,3.3c-2.1,0.6-3.9-1.8-3.9-1.8l-0.9-5.1L189.8,229.8z"/>
			<path class="st21" d="M189.8,229.8l0.4,2.4c-1.2,1.9-3.7,2.7-7.6,2.8l-0.6-3.4L189.8,229.8z"/>
			<path class="st19" d="M193.1,215.1c0.3,2.1,0.5,4.7,0.5,6.9c0,0.5,0,1-0.1,1.5c-0.4,4.1-2,11.4-10.4,10c-3.7-0.6-6-4.2-7.4-8
				c-1-2.6-1.5-5.3-1.8-7.2c-0.3-2,0.4-4,2-5.2c4.2-3.5,9.3-3.3,12.7-2.7C190.9,210.7,192.7,212.7,193.1,215.1z"/>
			<g>
				<path class="st7" d="M180.2,221.9c0.1,0.6-0.1,1.1-0.5,1.1c-0.4,0.1-0.7-0.3-0.8-0.9c-0.1-0.6,0.1-1.1,0.5-1.1
					C179.7,220.9,180.1,221.3,180.2,221.9z"/>
			</g>
			<g>
				<path class="st7" d="M187.9,220.5c0.1,0.6-0.1,1.1-0.5,1.1c-0.4,0.1-0.7-0.3-0.8-0.9c-0.1-0.6,0.1-1.1,0.5-1.1
					C187.4,219.5,187.8,219.9,187.9,220.5z"/>
			</g>
			<g>
				<path class="st7" d="M176.8,219.2c0,0,2.5-1.6,4.8-1v1c0,0-2.4-0.1-4.5,1.1C177,219.9,176.7,219.7,176.8,219.2z"/>
			</g>
			<g>
				<path class="st7" d="M189.3,217c0,0-2.9-0.6-4.9,0.7l0.3,0.9c0,0,2.2-0.9,4.6-0.5C189.4,217.7,189.6,217.4,189.3,217z"/>
			</g>
			<g>
				<g>
					<path class="st21" d="M184.5,225.3c0.4-0.1,0.8-0.3,0.9-0.4c0.1-0.1,0.2-0.2,0.1-0.4c-0.1-0.1-0.2-0.2-0.4-0.1
						c-0.2,0.1-0.7,0.4-1,0.3c-0.1,0-0.1-0.1-0.2-0.2c-0.2-0.9-0.5-3.9-0.5-3.9c0-0.1-0.1-0.2-0.3-0.2c-0.1,0-0.2,0.1-0.2,0.3
						c0,0.1,0.3,3.1,0.6,4c0.1,0.3,0.3,0.5,0.5,0.6C184.1,225.3,184.3,225.3,184.5,225.3z"/>
				</g>
			</g>
			<path class="st3" d="M181.6,227.4c0.4,1,1.4,2.8,3.7,2.4c2.3-0.4,2.7-2.3,2.7-3.5L181.6,227.4z"/>
			<g>
				<path class="st21" d="M185.6,231.1c0.7-0.1,1.2-0.5,1.2-0.6c0.1-0.1,0.1-0.3,0-0.4c-0.1-0.1-0.3-0.1-0.4,0c0,0-0.4,0.4-0.9,0.4
					c-0.5,0.1-1-0.1-1-0.1c-0.1-0.1-0.3,0-0.3,0.1c-0.1,0.1,0,0.3,0.1,0.3C184.3,231,184.9,231.2,185.6,231.1z"/>
			</g>
			<g>
				<path class="st7" d="M176.1,223.6c-0.4-1-0.8-2.3-0.8-3c0-1.3,0.9-2.2,0.4-3.3s0.5-2.6,1.4-3s3.1-0.3,5.1-1.7
					c1.9-1.3,5.5-1.3,6.3-0.1c1,1.4,0.1,1.8,2.2,3.1c0.9,0.5,0.3,2.5,0.4,3.6c0,0.5,0.1,0.8,0.2,1.4l0.1,0.3l2.3-0.4
					c-0.1-1.8-0.3-3.8-0.5-5.4c-0.3-2.4-2.1-4.4-4.5-4.8c-3.5-0.7-8.5-0.8-12.7,2.7c-1.5,1.3-2.3,3.3-2,5.2c0.2,1.5,0.6,3.5,1.3,5.6
					L176.1,223.6z"/>
			</g>
			<g>
				<path class="st19" d="M192.7,221.7c-0.1-0.6-0.2-1.2-0.2-1.8c0-0.8,0.1-1.6,0.9-2.1c0.6-0.4,1.3-0.5,1.9,0.1
					c1.5,1.6,1.2,7.5-2.1,6.7L192.7,221.7z"/>
				<g>
					<g>
						<path class="st21" d="M193.6,222.9c0.1,0,0.2-0.1,0.2-0.3c-0.2-1.7,1.2-3,1.2-3c0.1-0.1,0.1-0.3,0-0.4c-0.1-0.1-0.3-0.1-0.4,0
							c-0.1,0.1-1.6,1.5-1.4,3.5C193.2,222.9,193.4,223,193.6,222.9C193.5,223,193.5,223,193.6,222.9z"/>
					</g>
				</g>
				<g>
					<path class="st21" d="M194.9,221.5c0,0,0.1,0,0.1-0.1c0.1-0.1,0.1-0.3-0.1-0.4c0,0-0.5-0.3-1.2-0.4c-0.1,0-0.3,0.1-0.3,0.2
						c0,0.1,0.1,0.3,0.2,0.3c0.5,0,0.9,0.3,0.9,0.3C194.7,221.5,194.8,221.5,194.9,221.5z"/>
				</g>
			</g>
		</g>
		<g>
			<g>
				<g>
					<path class="st9" d="M200.9,303.6c-0.2,0.8-0.5,1.5-0.9,2.3c-1.3,2.3-4.1,4.6-9.2,6.5c-10.6,3.8-30.8,2-30.8,2
						c0.2,7.9-18.5,34.5-18.5,34.5l-0.9-0.6l-0.9-0.6l-3.6-2.3c0,0,12.4-44.6,20.9-45.9c29.9-4.5,43.3-1.4,43.3-1.4
						C200.9,299.6,201.3,301.5,200.9,303.6z"/>
				</g>
				<g>
					<path class="st5" d="M200.9,303.6c-0.2,0.8-0.5,1.5-0.9,2.3c-4.4,3.5-12.1,5.6-23.1,6.1c-8.1,0.4-15.5-0.2-17.5-0.4
						c-1.9,13.6-16,32.8-18.9,36.7c-0.3,0.4-0.5,0.6-0.5,0.7c-0.1,0.1-0.3,0.2-0.4,0.2c-0.1,0-0.2,0-0.3-0.1
						c-0.2-0.2-0.3-0.5-0.1-0.7c0,0,0.2-0.2,0.5-0.6c2.8-3.7,17.2-23.5,18.8-36.8c0-0.3,0.3-0.5,0.6-0.5
						C159.4,310.5,192.1,313.9,200.9,303.6z"/>
				</g>
			</g>
			<g>
				<g>
					<polygon class="st19" points="136.7,345.4 132.3,350.5 137.6,353.7 141.5,348.9 					"/>
					<g>
						<path class="st20" d="M142.8,348.8c-0.6,1.5-1.1,2-2.1,2.8c0,0-3.3-1.5-6.7-4.5l2.1-2.9C136,344.1,138.6,345.7,142.8,348.8z"
							/>
					</g>
					<g>
						<g>
							<path class="st8" d="M133.8,350.9c0,0-0.3-2.3-1.3-2.8s-11.9,1.1-14.7,0.1c-2.8-1-4.1,1.7-3,2.4c3.1,1.8,20,11.4,20,11.4
								s4-5.6,4.4-7.8C139.6,352,135.6,352.5,133.8,350.9z"/>
							<g>
								<g>
									<path class="st3" d="M127.3,352.6c0.1,0.1,0.2,0.1,0.3,0.1c0.2,0,0.4-0.2,0.4-0.4c0-0.1,0-1.9-0.7-3
										c-1-1.5-2.5-1.3-2.6-1.3c-0.2,0-0.4,0.2-0.4,0.5c0,0.2,0.2,0.4,0.5,0.4c0,0,1.1-0.1,1.8,1
										C127.2,350.8,127.2,352.4,127.3,352.6C127.2,352.5,127.3,352.6,127.3,352.6z"/>
								</g>
								<g>
									<path class="st3" d="M129,352.2c0.1,0.1,0.2,0.1,0.3,0.1c0.2,0,0.4-0.2,0.4-0.4c0-0.1,0-1.9-0.7-3c-1-1.5-2.5-1.3-2.6-1.3
										c-0.2,0-0.4,0.2-0.4,0.5c0,0.2,0.2,0.4,0.5,0.4c0,0,1.1-0.1,1.8,1C128.9,350.4,128.9,352,129,352.2
										C128.9,352.1,128.9,352.2,129,352.2z"/>
								</g>
								<g>
									<path class="st3" d="M125.4,352.6c0.1,0.1,0.2,0.1,0.3,0.1c0.2,0,0.4-0.2,0.4-0.4c0-0.1,0-1.9-0.7-3
										c-1-1.5-2.5-1.3-2.6-1.3c-0.2,0-0.4,0.2-0.4,0.5c0,0.2,0.2,0.4,0.5,0.4c0,0,1.1-0.1,1.8,1
										C125.3,350.8,125.3,352.4,125.4,352.6C125.3,352.4,125.3,352.5,125.4,352.6z"/>
								</g>
							</g>
						</g>
					</g>
				</g>
			</g>
		</g>
	</g>
	<g class="st1">
		<g>
			<g>
				<path class="st19" d="M377.9,342.8l-1.2,5.6c0,0,3.4,2.5,5.8,1.2l1.2-5.5L377.9,342.8z"/>
				<g>
					<path class="st8" d="M377.8,348.1c0,0-0.9-1.9-2-2c-1-0.1-9.8,4.6-12.6,4.6c-2.7,0-3.2,3.3-2.2,3.9c1.1,0.6,20.8,3.6,20.8,3.6
						s1.9-6.9,1.6-8.9C383.2,347.4,379.8,349,377.8,348.1z"/>
					<g>
						<g>
							<path class="st3" d="M372.8,351.6c0.1,0,0.2,0.1,0.3,0c0.2-0.1,0.3-0.3,0.2-0.5c0-0.1-0.6-1.6-1.6-2.4
								c-1.3-1-2.6-0.4-2.6-0.4c-0.2,0.1-0.3,0.3-0.2,0.5c0.1,0.2,0.3,0.3,0.5,0.2c0,0,0.9-0.4,1.9,0.3c0.8,0.6,1.3,2,1.3,2
								C372.6,351.5,372.7,351.6,372.8,351.6z"/>
						</g>
						<g>
							<path class="st3" d="M374.1,350.8c0.1,0,0.2,0.1,0.3,0c0.2-0.1,0.3-0.3,0.2-0.5c0-0.1-0.6-1.6-1.6-2.4
								c-1.3-1-2.6-0.4-2.6-0.4c-0.2,0.1-0.3,0.3-0.2,0.5c0.1,0.2,0.3,0.3,0.5,0.2c0,0,0.9-0.4,1.9,0.3c0.8,0.6,1.3,2,1.3,2
								C373.9,350.7,374,350.7,374.1,350.8z"/>
						</g>
						<g>
							<path class="st3" d="M371.1,352.2c0.1,0,0.2,0.1,0.3,0c0.2-0.1,0.3-0.3,0.2-0.5c0-0.1-0.6-1.6-1.6-2.4
								c-1.3-1-2.6-0.4-2.6-0.4c-0.2,0.1-0.3,0.3-0.2,0.5c0.1,0.2,0.3,0.3,0.5,0.2c0,0,0.9-0.4,1.9,0.3c0.8,0.6,1.3,2,1.3,2
								C371,352.1,371.1,352.2,371.1,352.2z"/>
						</g>
					</g>
				</g>
			</g>
			<g>
				<g>
					<path class="st9" d="M405.8,256.6c-0.5,2.2-1,4.4-1.5,6.7c-3,13.6-6.3,29.1-11.1,44.8c-1.8,14-4.8,22.9-8.9,37
						c-0.4,0.1-1,0.1-1.7,0.1c-0.3,0-0.5,0-0.8-0.1c-1.7-0.2-3.8-0.8-5.1-1.7c0,0,2.5-17.1,6-36.3c1.8-10.2,5.1-35.3,6.7-47.5
						c0.5-4.2,0.9-6.8,0.9-6.8l13.1,3.3h0.2l0.6,0.1L405.8,256.6z"/>
				</g>
				<path class="st5" d="M405.8,256.6c-0.5,2.2-1,4.4-1.5,6.7l-15-3.8c0.5-4.2,0.9-6.8,0.9-6.8l13.1,3.3h0.2l0.6,0.1L405.8,256.6z"
					/>
				<g>
					<path class="st5" d="M404.1,256.2L404.1,256.2l-12.4,51.7c0,0.1-2.4,17-9.1,37.3c-0.3,0-0.5,0-0.8-0.1
						c6.7-20.2,9.1-37.2,9.1-37.3l12.4-51.7h0.2L404.1,256.2z"/>
				</g>
			</g>
		</g>
		<g>
			<g>
				<polygon class="st19" points="415,342.4 415.5,349.8 420.9,348.5 420.9,342.4 				"/>
				<g>
					<g>
						<path class="st8" d="M417.4,348.2c0,0,2.9-0.8,3.7-0.7c0.8,0,6.1,6,7.9,6.3c3.3,0.6,3.2,5.7,1.3,6c-5.7,0.7-15.5-1.7-15.5-1.7
							s-0.9-6.5-0.5-8.6C414.6,347.5,415.8,348.8,417.4,348.2z"/>
						<g>
							<g>
								<path class="st3" d="M422.1,353.8c-0.1,0-0.2,0-0.3-0.1c-0.2-0.1-0.2-0.4-0.1-0.6c0-0.1,1-1.5,2.2-2
									c1.6-0.7,2.7,0.3,2.8,0.3c0.2,0.1,0.2,0.4,0,0.6c-0.1,0.2-0.4,0.2-0.6,0c0,0-0.8-0.7-2-0.2c-1,0.4-1.9,1.7-1.9,1.7
									C422.3,353.7,422.2,353.8,422.1,353.8z"/>
							</g>
							<g>
								<path class="st3" d="M421,352.6c-0.1,0-0.2,0-0.3-0.1c-0.2-0.1-0.2-0.4-0.1-0.5c0-0.1,1-1.5,2.2-2c1.6-0.7,2.7,0.3,2.8,0.3
									c0.2,0.1,0.2,0.4,0,0.6c-0.1,0.2-0.4,0.2-0.6,0c0,0-0.8-0.7-2-0.2c-1,0.4-1.9,1.7-1.9,1.7
									C421.2,352.5,421.1,352.6,421,352.6z"/>
							</g>
							<g>
								<g>
									<g>
										<path class="st3" d="M423.7,354.8c-0.1,0-0.2,0-0.3-0.1c-0.2-0.1-0.2-0.4-0.1-0.6c0-0.1,1-1.5,2.2-2
											c1.6-0.7,2.7,0.3,2.8,0.3c0.2,0.1,0.2,0.4,0,0.6c-0.1,0.2-0.4,0.2-0.6,0c0,0-0.8-0.7-2-0.2c-1,0.4-1.9,1.7-1.9,1.7
											C423.8,354.8,423.8,354.8,423.7,354.8z"/>
									</g>
								</g>
							</g>
						</g>
					</g>
				</g>
			</g>
			<g>
				<g>
					<path class="st9" d="M421.7,343.2c-1.3,0.5-3.1,0.7-4.9,0.7c-0.3,0-0.5,0-0.8,0c-0.6,0-1.3-0.1-1.8-0.1l-7.8-80.4l-0.6-6.6
						l1.5-0.1l0.8-0.1l13.3-1c0,0,0,1.6,0,4.3c0,9.1,0,30.2,0.6,39.3C422.6,310.8,421.7,343.2,421.7,343.2z"/>
				</g>
				<path class="st5" d="M421.3,255.5c0,0,0,1.6,0,4.3l-15,3.5l-0.6-6.6l1.5-0.1l0.8-0.1L421.3,255.5z"/>
				<g>
					<path class="st5" d="M416.8,343.8c-0.3,0-0.5,0-0.8,0l-8.7-87.3l0.8-0.1L416.8,343.8z"/>
				</g>
			</g>
		</g>
		<g>
			<g>
				<path class="st19" d="M418.1,209.6l3.6,11.5l3.9,10.9c0.6,2.3,3.2,3.5,5.3,2.5c0,0,0.1,0,0.1-0.1c3.7-1.8,1.7-9.1,1.7-9.1
					l-0.7-0.1c-0.3-0.8-1.1-2.8-2-5.4c-0.1-0.3-0.2-0.6-0.4-1c-0.2-0.5-0.4-1.1-0.6-1.7c-0.3-0.8-0.6-1.7-1-2.5
					c-2.4-6.3-4.4-13.1-4.4-13.1l-1.7-5L418.1,209.6z"/>
				<path class="st19" d="M428.7,227.9c0,0,0.5-8.3,2.3-10.1s3.4-2.4,5.1-2.4c1.7,0.1,3.2,0.3,3.1,1c0,0,3.8-0.6,5.5,0.4
					s-5.1,1.9-7.1,1.9c-2,0.1-3.1,1.2-3.2,2.4s-1.2,9.1-1.2,9.1L428.7,227.9z"/>
				<g>
					<path class="st23" d="M418.7,212.6c0,0,6.3,20.2,7.8,21.6c1.4,1.4,4.7,2.8,6.5-0.9s2.1-13.6,2.1-13.6l-4.4-2.1l-0.7,2.2
						l-8-23.2C422,196.7,419.1,211.1,418.7,212.6z"/>
					<g>
						<g>
							<path class="st10" d="M428.2,227.7L428.2,227.7c0.2,0,0.3-0.1,0.3-0.2c0.5-3.5,1.1-6.1,1.4-7.6c-0.1-0.3-0.2-0.6-0.3-0.9
								c-0.3,1.4-1,4.3-1.7,8.5C427.9,227.5,428,227.7,428.2,227.7z"/>
						</g>
					</g>
				</g>
			</g>
			<g>
				<path class="st5" d="M426.7,216.9l25.4,0.2c1,0,1.7-0.8,1.7-1.7l0,0c0-1-0.8-1.7-1.7-1.7l-25.4-0.2c-1,0-1.7,0.8-1.7,1.7l0,0
					C425,216.1,425.7,216.9,426.7,216.9z"/>
				<g>
					<path class="st9" d="M453.8,217.1l5.6-20.3c0.3-1.1-0.5-2.3-1.7-2.3l-11.9-0.1c-0.8,0-1.5,0.5-1.7,1.3l-6.1,21.2L453.8,217.1z"
						/>
				</g>
				<path class="st5" d="M443.9,195.8l-6.1,21h-1.4l6.1-21c0.2-0.8,0.9-1.3,1.7-1.3h1.4C444.9,194.5,444.2,195,443.9,195.8z"/>
				<g>
					<path class="st20" d="M446.9,206.7c-0.3,1.3,0.5,2.4,1.8,2.4s2.7-1.1,3-2.4c0.3-1.3-0.5-2.4-1.8-2.4
						C448.6,204.2,447.3,205.3,446.9,206.7z"/>
				</g>
			</g>
		</g>
		<g>
			<g>
				<path class="st19" d="M351.2,188.7c-0.5,0.1-1,0-1.4-0.2c-1.1-0.6-2-1.1-2.5-1.5c-0.3-0.2-0.5-0.3-0.5-0.3l0,0
					c-0.1,0-0.7,0.1-1.7-0.4c-1.1-0.6-1.7-1.7-1.5-2.3c0.1-0.6,0.9-0.7,0.9-0.7s-0.4-0.6-0.2-1.2c0.2-0.6,1.4-0.9,1.4-0.9
					s-0.3-0.8,0.3-1.3c0.6-0.5,1.9,0.4,2,0.5c-0.2-0.2-4-4.2-2.9-4.2c1.2,0,5.2,3.7,5.4,3.8c0.2,0.1,1.2,0,2.1,0.2
					c1,0.1,1.4,0.6,1.9,2c0.4,1.4,0.3,3.8,0.3,3.8c0.3,0.2,0.9,0.7,1.2,1l0.2,0.1c0.7,0.4,12,6.7,15.7,9.6l0,0
					c0.1,0.1,0.3,0.2,0.6,0.3c3.7,1,19.8-0.2,19.8-0.2l0.8,8.8c0,0-16.1,1-23.8-2.9c-6.1-3-15.8-12.1-15.8-12.1L351.2,188.7z"/>
				<g>
					<g>
						<path class="st21" d="M352.5,184h0.1c0.1,0,0.2-0.2,0.2-0.3l-0.3-1.2c0-0.1-0.1-0.1-0.1-0.2c-0.1,0-0.1,0-0.2,0
							c0,0-1.4,0.4-2.4-0.1c-0.3-0.2-0.5-0.4-0.5-0.6c0-0.2,0.1-0.4,0.1-0.4c0.1-0.1,0.1-0.3,0-0.4c-0.1-0.1-0.3-0.1-0.4,0
							c0,0-0.3,0.4-0.2,0.8c0.1,0.4,0.3,0.7,0.8,0.9c0.9,0.5,2,0.3,2.5,0.2l0.2,0.9C352.3,183.9,352.4,184,352.5,184z"/>
					</g>
					<g>
						<path class="st21" d="M346.8,186.7C346.8,186.7,346.9,186.7,346.8,186.7c0,0,0.2,0.1,0.5,0.3c0.6-0.4,0.8-1,1-1.6
							c0.1-0.5,0.3-0.9,0.6-1.1c0.3-0.2,0.5-0.5,0.6-0.9c0.1-0.3,0.1-0.6,0.1-0.9c0-0.1,0-0.2,0-0.3c0-0.2-0.1-0.3-0.1-0.4
							c0-0.1-0.2-0.2-0.3-0.2c-0.1,0-0.2,0.2-0.2,0.3c0,0,0,0,0,0.1c0,0.2,0.1,0.6,0,1c-0.1,0.3-0.2,0.5-0.5,0.7
							c-0.5,0.3-0.6,0.8-0.8,1.4C347.6,185.9,347.4,186.5,346.8,186.7z"/>
					</g>
					<g>
						<path class="st21" d="M350.9,185.8c0.1,0,0.2,0,0.3-0.1c0.1-0.1,0.1-0.3,0-0.4l0,0c0,0-1.3-1.2-1.1-2.7c0-0.1-0.1-0.3-0.2-0.3
							s-0.3,0.1-0.3,0.2c-0.3,1.8,1.2,3.1,1.3,3.1C350.9,185.8,350.9,185.8,350.9,185.8z"/>
					</g>
				</g>
			</g>
		</g>
		<g>
			<path class="st23" d="M422.7,255.7c-6.3,1.5-11.5,2.2-16.5,2.3h-0.1H406c-5.1,0-10.2-0.8-16.5-2.3c-0.9-11.4,3-18.6,2.6-31.3
				c0-0.1,0-0.2,0-0.3c0-0.6,0-1.1-0.1-1.6c-0.1-1-0.1-2.1-0.2-3.1c0-0.6-0.1-1.1-0.1-1.6c-0.9-11-2.6-19.7-1.7-20.9
				c1-1.3,3.6-2.8,6.3-4.2c2.5-1.3,5.1-2.6,6.4-3.4c1.3,0.6,2.3,0.9,3.4,0.9h0.1h0.1c1.1,0,2.1-0.3,3.4-0.9c1.2,0.8,3.4,1.9,5.7,3.1
				c2.8,1.5,5.6,3.1,6.7,4.5c1,1.2-0.8,10.8-1.6,22.5c0,0.5-0.1,1.1-0.1,1.6c-0.1,1.2-0.1,2.3-0.2,3.5v0.1c0,0.5,0,0.9,0,1.4
				C420,237.7,423.5,244.8,422.7,255.7z"/>
			<g>
				<path class="st2" d="M416.3,241.3L416.3,241.3c-6.4,0-11.8-2.9-15.3-5.4c-3.7-2.6-6-5.3-6-5.3c-0.1-0.1-0.1-0.3,0-0.4
					c0.1-0.1,0.3-0.1,0.4,0c0,0,2.2,2.6,5.9,5.2c3.4,2.4,8.7,5.2,14.9,5.2c0.2,0,0.3,0.1,0.3,0.3
					C416.6,241.2,416.5,241.3,416.3,241.3z"/>
			</g>
			<g>
				<path class="st2" d="M409.7,243.5c-5.5,0-11.1-3.2-11.3-3.3c-0.1-0.1-0.2-0.3-0.1-0.4c0.1-0.1,0.3-0.2,0.4-0.1
					c0.1,0,6.6,3.8,12.3,3.2c0.2,0,0.3,0.1,0.3,0.3s-0.1,0.3-0.3,0.3C410.6,243.5,410.1,243.5,409.7,243.5z"/>
			</g>
			<g>
				<path class="st2" d="M404.8,204.7c-0.1,0-0.3-0.1-0.3-0.3s0.1-0.3,0.2-0.4c7.8-1.5,10.1-6.5,10.2-6.5c0.1-0.2,0.3-0.2,0.4-0.2
					c0.2,0.1,0.2,0.3,0.2,0.4C415.3,198,412.9,203.1,404.8,204.7L404.8,204.7z"/>
			</g>
			<g>
				<path class="st3" d="M406.7,195.1c-4.5,0.5-6.1-5-6.1-5c0-0.1,0-0.2,0.2-0.3c0.1,0,0.2,0,0.3,0.2c0.1,0.2,1.6,5.3,5.9,4.7
					c3.8-0.6,3.6-4.8,3.5-5c0-0.1,0.1-0.2,0.2-0.2s0.2,0.1,0.2,0.2c0,0,0.2,4.8-3.9,5.4C406.9,195,406.8,195.1,406.7,195.1z"/>
			</g>
		</g>
		<g>
			<g>
				<path class="st7" d="M397.6,177c0,0-3.7-6.3-0.6-11.2s9.7-4.4,11.4-4c1.7,0.4,11.5,5,5.6,16.2L397.6,177z"/>
			</g>
			<g>
				<path class="st21" d="M398.2,175.2c0,0-1.5-2-2.6-0.3c-1.1,1.6,0.5,6.5,3.2,5.3L398.2,175.2z"/>
				<g>
					<path class="st22" d="M398.2,178.7c-0.1,0-0.2-0.1-0.2-0.2c-0.4-1.5-2-2.1-2-2.1c-0.1,0-0.2-0.2-0.1-0.3c0-0.1,0.2-0.2,0.3-0.1
						c0.1,0,1.8,0.7,2.3,2.4C398.5,178.5,398.4,178.6,398.2,178.7L398.2,178.7z"/>
				</g>
				<g>
					<g>
						<g>
							<path class="st22" d="M396.6,177.9h-0.1c-0.1-0.1-0.1-0.2-0.1-0.3c0,0,0.3-0.4,0.9-0.7c0.1-0.1,0.3,0,0.3,0.1
								c0.1,0.1,0,0.3-0.1,0.3c-0.4,0.2-0.7,0.5-0.7,0.5C396.8,177.9,396.7,177.9,396.6,177.9z"/>
						</g>
					</g>
				</g>
			</g>
			<g>
				<path class="st21" d="M413.6,175.2c0,0,1.5-2,2.6-0.3c1.1,1.6-0.5,6.5-3.2,5.3L413.6,175.2z"/>
				<g>
					<path class="st22" d="M413.6,178.7c0.1,0,0.2-0.1,0.2-0.2c0.4-1.5,2-2.1,2-2.1c0.1,0,0.2-0.2,0.1-0.3c0-0.1-0.2-0.2-0.3-0.1
						c-0.1,0-1.8,0.7-2.3,2.4C413.3,178.5,413.4,178.6,413.6,178.7L413.6,178.7z"/>
				</g>
				<g>
					<g>
						<g>
							<path class="st22" d="M415.2,177.9h0.1c0.1-0.1,0.1-0.2,0.1-0.3c0,0-0.3-0.4-0.9-0.7c-0.1-0.1-0.3,0-0.3,0.1
								c-0.1,0.1,0,0.3,0.1,0.3c0.4,0.2,0.7,0.5,0.7,0.5C415,177.9,415.1,177.9,415.2,177.9z"/>
						</g>
					</g>
				</g>
			</g>
			<path class="st19" d="M409.6,184.3v4.8c0,0-1.4,2.5-3.4,2.6c-1.9,0.2-3.7-2.1-3.7-2.1v-5L409.6,184.3z"/>
			<path class="st21" d="M409.6,184.3v2.1c-1.3,1.4-3.6,1.8-7.1,1.3v-3.1L409.6,184.3z"/>
			<path class="st19" d="M414.7,171.9c-0.1,1.9-0.3,4.2-0.6,6.1c-0.1,0.5-0.2,0.9-0.3,1.3c-1,3.6-3.6,9.7-10.7,7.1
				c-3.1-1.1-4.6-4.6-5.2-8.2c-0.4-2.4-0.5-4.9-0.5-6.6c0-1.8,1-3.4,2.6-4.3c4.2-2.4,8.6-1.5,11.5-0.4
				C413.5,167.8,414.8,169.7,414.7,171.9z"/>
			<g>
				<path class="st7" d="M404,165c0,0,9.4,15.1,10.7,9.5C416.5,166.7,410.9,161.9,404,165z"/>
			</g>
			<g>
				<path class="st7" d="M403.6,165c-6.2,0-9.4,7.1-6.5,8c4,1.2,7.5-4.5,8.6-6.5C405,166,404.3,165.5,403.6,165z"/>
			</g>
			<g>
				<path class="st7" d="M415,161.7c0,3.4-2.8,6.2-6.2,6.2c-3.4,0-6.2-2.8-6.2-6.2s2.8-6.2,6.2-6.2S415,158.2,415,161.7z"/>
			</g>
			<g>
				<path class="st7" d="M398.4,172.3c0,0,0.5,1.9-0.2,3.2s-0.3,3.4,0,5.9c0,0-1.1-1.5-1.1-3.9c-0.1-2.4,0.3-4.4,0-5.3L398.4,172.3z
					"/>
			</g>
			<g>
				<path class="st7" d="M413.2,172.3c0,0-0.5,1.9,0.2,3.2s0.3,3.4,0,5.9c0,0,1.1-1.5,1.1-3.9c0.1-2.4-0.3-4.4,0-5.3L413.2,172.3z"
					/>
			</g>
			<g>
				<path class="st7" d="M402.8,175.5c0,0.5-0.3,0.9-0.6,0.9c-0.3,0-0.6-0.4-0.6-0.9s0.3-0.9,0.6-0.9S402.8,175,402.8,175.5z"/>
			</g>
			<g>
				<path class="st7" d="M410.1,175.5c0,0.5-0.3,0.9-0.6,0.9c-0.3,0-0.6-0.4-0.6-0.9s0.3-0.9,0.6-0.9
					C409.8,174.6,410.1,175,410.1,175.5z"/>
			</g>
			<g>
				<path class="st7" d="M401,172.7c0.5-0.1,1.5-0.4,2.5-0.4c0.3,0,0.5,0.2,0.4,0.5l0,0c0,0.2-0.2,0.4-0.5,0.4
					c-0.7,0-2.6,0.1-3.5,0.4c0-0.2,0.1-0.3,0.2-0.5C400.4,173,400.7,172.8,401,172.7z"/>
			</g>
			<g>
				<path class="st7" d="M410.6,172.7c-0.5-0.1-1.5-0.4-2.5-0.4c-0.3,0-0.5,0.2-0.4,0.5l0,0c0,0.2,0.2,0.4,0.5,0.4
					c0.7,0,2.6,0.1,3.5,0.4c0-0.2-0.1-0.3-0.2-0.5C411.1,173,410.9,172.8,410.6,172.7z"/>
			</g>
			<g>
				<path class="st21" d="M406,179.8c-0.2,0-0.4,0-0.5-0.1s-0.3-0.2-0.3-0.6c-0.1-0.8,0.1-3.5,0.1-3.6s0.1-0.2,0.2-0.2
					s0.2,0.1,0.2,0.2c0,0-0.2,2.7-0.1,3.5c0,0.1,0.1,0.2,0.1,0.2c0.2,0.1,0.7,0,0.9-0.1c0.1,0,0.3,0,0.3,0.1s0,0.3-0.1,0.3
					C406.8,179.6,406.4,179.8,406,179.8z"/>
			</g>
			<path class="st3" d="M403.1,181.2c0.2,0.9,0.7,2.5,2.7,2.5c1.9,0,2.5-1.5,2.7-2.5H403.1z"/>
			<g>
				<path class="st21" d="M405.7,185c-0.6,0-1.1-0.3-1.1-0.3c-0.1-0.1-0.1-0.2-0.1-0.3c0.1-0.1,0.2-0.1,0.3-0.1l0,0
					c0,0,0.4,0.2,0.8,0.2c0.5,0,0.9-0.2,0.9-0.2c0.1-0.1,0.2,0,0.3,0.1c0.1,0.1,0,0.2-0.1,0.3C406.8,184.7,406.3,185,405.7,185z"/>
			</g>
		</g>
		<path class="st23" d="M356,186.7l-3.2,4.2c0,0,12,10.3,18,12.3c5.9,2,19.7,3.9,19.7,3.9c1-3.4,0.5-6.9-0.6-10.4
			c0,0-14.2,0.3-18.3-1.7C363,190.7,356,186.7,356,186.7z"/>
	</g>
	<g class="st1">
		<g>
			<g>
				<g>
					<g>
						<path class="st6" d="M351.7,84.1c-0.1,0-0.2,0-0.2,0c-0.8-0.4-1.3-0.5-1.3-0.5c-0.3-0.1-0.4-0.4-0.3-0.6
							c0.1-0.3,0.4-0.4,0.6-0.3c0,0,0.5,0.2,1.4,0.5c0.2,0.1,0.4,0.4,0.3,0.6C352.1,84,351.9,84.1,351.7,84.1z"/>
					</g>
					<g>
						<path class="st6" d="M376.7,110.4c0.3,0.9,0.6,1.8,0.9,2.7c0.1,0.2,0.3,0.4,0.5,0.3h0.1c0.3-0.1,0.4-0.4,0.3-0.6
							c-0.3-0.9-0.6-1.9-0.9-2.8c-0.1-0.3-0.4-0.4-0.6-0.3C376.7,109.8,376.6,110.1,376.7,110.4z"/>
						<path class="st6" d="M378.4,115.8c0.2,0.9,0.4,1.9,0.6,2.8c0,0.3,0.3,0.4,0.5,0.4l0,0c0.3,0,0.4-0.3,0.4-0.6
							c-0.2-1-0.4-1.9-0.6-2.9c-0.1-0.3-0.3-0.4-0.6-0.4C378.4,115.3,378.3,115.6,378.4,115.8z"/>
						<path class="st6" d="M379.8,121c-0.3,0-0.5,0.3-0.4,0.5c0.1,0.4,0.1,0.9,0.2,1.3c0.1,0.5,0.1,1,0.1,1.5c0,0.3,0.3,0.5,0.5,0.4
							l0,0c0.3,0,0.5-0.3,0.4-0.5c0-0.5-0.1-1-0.1-1.6c0-0.4-0.1-0.9-0.2-1.4C380.3,121.1,380.1,120.9,379.8,121L379.8,121z"/>
						<path class="st6" d="M375.6,107.7c0.1,0.2,0.3,0.3,0.5,0.3h0.1c0.2-0.1,0.4-0.4,0.2-0.6c-0.4-0.9-0.8-1.8-1.3-2.6
							c-0.1-0.2-0.4-0.3-0.7-0.2c-0.2,0.1-0.3,0.4-0.2,0.7C374.8,106,375.2,106.8,375.6,107.7z"/>
						<path class="st6" d="M354.1,85.3c0.8,0.4,1.7,0.9,2.5,1.4c0.1,0.1,0.2,0.1,0.3,0.1c0.1,0,0.3-0.1,0.4-0.2
							c0.1-0.2,0.1-0.5-0.2-0.7c-0.8-0.5-1.7-1-2.6-1.4c-0.2-0.1-0.5,0-0.7,0.2C353.7,84.9,353.8,85.2,354.1,85.3z"/>
						<path class="st6" d="M361.4,89.9c0.1,0.1,0.2,0.1,0.3,0.1c0.1,0,0.3-0.1,0.3-0.2c0.2-0.2,0.1-0.5-0.1-0.7
							c-0.8-0.6-1.6-1.2-2.4-1.7c-0.2-0.2-0.5-0.1-0.7,0.1s-0.1,0.5,0.1,0.7C359.8,88.8,360.6,89.3,361.4,89.9z"/>
						<path class="st6" d="M369.6,97.9c0.1,0.1,0.3,0.2,0.4,0.2s0.2,0,0.3-0.1c0.2-0.2,0.2-0.5,0.1-0.7c-0.6-0.8-1.2-1.5-1.9-2.2
							c-0.2-0.2-0.5-0.2-0.7,0s-0.2,0.5,0,0.7C368.4,96.4,369,97.2,369.6,97.9z"/>
						<path class="st6" d="M365.7,93.7c0.1,0.1,0.3,0.2,0.4,0.1c0.1,0,0.2-0.1,0.3-0.1c0.2-0.2,0.2-0.5,0-0.7
							c-0.7-0.7-1.4-1.3-2.2-2c-0.2-0.2-0.5-0.2-0.7,0.1c-0.2,0.2-0.2,0.5,0.1,0.7C364.3,92.3,365.1,93,365.7,93.7z"/>
						<path class="st6" d="M372.9,102.6c0.1,0.2,0.3,0.3,0.5,0.2c0.1,0,0.1,0,0.2-0.1c0.2-0.1,0.3-0.4,0.2-0.7
							c-0.5-0.8-1-1.7-1.6-2.5c-0.2-0.2-0.5-0.3-0.7-0.1c-0.2,0.2-0.3,0.5-0.1,0.7C371.9,101,372.4,101.8,372.9,102.6z"/>
					</g>
				</g>
				<g>
					<g>
						
							<rect x="332" y="68.8" transform="matrix(0.2558 -0.9667 0.9667 0.2558 175.5529 387.8599)" class="st10" width="15.4" height="22.3"/>
						<g>
							<polygon class="st24" points="341.7,80.7 347.9,90.1 348.5,90.2 348.6,89.8 342.3,80.3 							"/>
						</g>
						<g>
							<polygon class="st24" points="327,84.2 326.9,84.5 327.6,84.7 337.6,79.6 337.3,79 							"/>
						</g>
						<polygon class="st8" points="352.4,75.3 339.1,82.1 330.9,69.6 						"/>
					</g>
				</g>
			</g>
		</g>
		<g>
			<g>
				<g>
					<g>
						<path class="st8" d="M414,102.1c-3,0-5.4-2.4-5.4-5.4s2.4-5.4,5.4-5.4s5.4,2.4,5.4,5.4S417,102.1,414,102.1z M414,93
							c-2,0-3.7,1.7-3.7,3.7s1.7,3.7,3.7,3.7s3.7-1.7,3.7-3.7S416.1,93,414,93z"/>
					</g>
					<g>
						<g>
							<g>
								<path class="st10" d="M441.4,107.6c-3,0-5.4-2.4-5.4-5.4s2.4-5.4,5.4-5.4s5.4,2.4,5.4,5.4S444.4,107.6,441.4,107.6z
									 M441.4,98.5c-2,0-3.7,1.7-3.7,3.7s1.7,3.7,3.7,3.7s3.7-1.7,3.7-3.7S443.5,98.5,441.4,98.5z"/>
							</g>
						</g>
					</g>
					<g>
						<g>
							<g>
								<path class="st8" d="M454.4,118.6c-0.5,0-0.8-0.4-0.8-0.8v-3.7c0-0.5,0.4-0.8,0.8-0.8c0.5,0,0.8,0.4,0.8,0.8v3.7
									C455.3,118.3,454.9,118.6,454.4,118.6z"/>
							</g>
							<g>
								<path class="st8" d="M454.4,125.2c-0.5,0-0.8-0.4-0.8-0.8v-3.7c0-0.5,0.4-0.8,0.8-0.8c0.5,0,0.8,0.4,0.8,0.8v3.7
									C455.3,124.8,454.9,125.2,454.4,125.2z"/>
							</g>
						</g>
						<g>
							<g>
								<path class="st8" d="M459.6,120h-3.4c-0.5,0-0.8-0.4-0.8-0.8s0.4-0.8,0.8-0.8h3.4c0.5,0,0.8,0.4,0.8,0.8
									S460.1,120,459.6,120z"/>
							</g>
							<g>
								<path class="st8" d="M452.5,120h-3.4c-0.5,0-0.8-0.4-0.8-0.8s0.4-0.8,0.8-0.8h3.4c0.5,0,0.8,0.4,0.8,0.8S453,120,452.5,120z
									"/>
							</g>
						</g>
					</g>
					<g>
						<g>
							<g>
								<g>
									<g>
										<path class="st10" d="M425.6,112.5c-0.5,0-0.8-0.4-0.8-0.8V108c0-0.5,0.4-0.8,0.8-0.8c0.5,0,0.8,0.4,0.8,0.8v3.7
											C426.5,112.2,426.1,112.5,425.6,112.5z"/>
									</g>
								</g>
								<g>
									<g>
										<path class="st10" d="M425.6,119.1c-0.5,0-0.8-0.4-0.8-0.8v-3.7c0-0.5,0.4-0.8,0.8-0.8c0.5,0,0.8,0.4,0.8,0.8v3.7
											C426.5,118.7,426.1,119.1,425.6,119.1z"/>
									</g>
								</g>
							</g>
							<g>
								<g>
									<g>
										<path class="st10" d="M430.9,113.9h-3.4c-0.5,0-0.8-0.4-0.8-0.8c0-0.5,0.4-0.8,0.8-0.8h3.4c0.5,0,0.8,0.4,0.8,0.8
											C431.7,113.6,431.3,113.9,430.9,113.9z"/>
									</g>
								</g>
								<g>
									<g>
										<path class="st10" d="M423.7,113.9h-3.4c-0.5,0-0.8-0.4-0.8-0.8c0-0.5,0.4-0.8,0.8-0.8h3.4c0.5,0,0.8,0.4,0.8,0.8
											C424.6,113.6,424.2,113.9,423.7,113.9z"/>
									</g>
								</g>
							</g>
						</g>
					</g>
				</g>
			</g>
		</g>
		<g>
			<g>
				<g>
					<g>
						<path class="st8" d="M98.6,222.4c0,3-2.4,5.4-5.4,5.4s-5.4-2.4-5.4-5.4s2.4-5.4,5.4-5.4S98.6,219.5,98.6,222.4z M89.5,222.4
							c0,2,1.7,3.7,3.7,3.7s3.7-1.7,3.7-3.7s-1.7-3.7-3.7-3.7S89.5,220.4,89.5,222.4z"/>
					</g>
					<g>
						<g>
							<g>
								<path class="st10" d="M104.1,195c0,3-2.4,5.4-5.4,5.4s-5.4-2.4-5.4-5.4s2.4-5.4,5.4-5.4S104.1,192.1,104.1,195z M95,195
									c0,2,1.7,3.7,3.7,3.7s3.7-1.7,3.7-3.7s-1.7-3.7-3.7-3.7S95,193,95,195z"/>
							</g>
						</g>
					</g>
					<g>
						<g>
							<g>
								<path class="st8" d="M115.1,182.1c0,0.5-0.4,0.8-0.8,0.8h-3.7c-0.5,0-0.8-0.4-0.8-0.8c0-0.5,0.4-0.8,0.8-0.8h3.7
									C114.7,181.2,115.1,181.6,115.1,182.1z"/>
							</g>
							<g>
								<path class="st8" d="M121.6,182.1c0,0.5-0.4,0.8-0.8,0.8h-3.7c-0.5,0-0.8-0.4-0.8-0.8c0-0.5,0.4-0.8,0.8-0.8h3.7
									C121.3,181.2,121.6,181.6,121.6,182.1z"/>
							</g>
						</g>
						<g>
							<g>
								<path class="st8" d="M116.5,176.8v3.4c0,0.5-0.4,0.8-0.8,0.8c-0.5,0-0.8-0.4-0.8-0.8v-3.4c0-0.5,0.4-0.8,0.8-0.8
									S116.5,176.4,116.5,176.8z"/>
							</g>
							<g>
								<path class="st8" d="M116.5,183.9v3.4c0,0.5-0.4,0.8-0.8,0.8c-0.5,0-0.8-0.4-0.8-0.8v-3.4c0-0.5,0.4-0.8,0.8-0.8
									C116.1,183.1,116.5,183.5,116.5,183.9z"/>
							</g>
						</g>
					</g>
					<g>
						<g>
							<g>
								<g>
									<g>
										<path class="st10" d="M109,210.8c0,0.5-0.4,0.8-0.8,0.8h-3.7c-0.5,0-0.8-0.4-0.8-0.8c0-0.5,0.4-0.8,0.8-0.8h3.7
											C108.6,210,109,210.4,109,210.8z"/>
									</g>
								</g>
								<g>
									<g>
										<path class="st10" d="M115.6,210.8c0,0.5-0.4,0.8-0.8,0.8H111c-0.5,0-0.8-0.4-0.8-0.8c0-0.5,0.4-0.8,0.8-0.8h3.7
											C115.2,210,115.6,210.4,115.6,210.8z"/>
									</g>
								</g>
							</g>
							<g>
								<g>
									<g>
										<path class="st10" d="M110.4,205.6v3.4c0,0.5-0.4,0.8-0.8,0.8c-0.5,0-0.8-0.4-0.8-0.8v-3.4c0-0.5,0.4-0.8,0.8-0.8
											S110.4,205.1,110.4,205.6z"/>
									</g>
								</g>
								<g>
									<g>
										<path class="st10" d="M110.4,212.7v3.4c0,0.5-0.4,0.8-0.8,0.8c-0.5,0-0.8-0.4-0.8-0.8v-3.4c0-0.5,0.4-0.8,0.8-0.8
											S110.4,212.3,110.4,212.7z"/>
									</g>
								</g>
							</g>
						</g>
					</g>
				</g>
			</g>
		</g>
		<g>
			<g>
				<path class="st8" d="M183.7,94.2v16.7c0,2.2,1.8,4,4,4H218l9.2,3.3c0.9,0.3,1.8-0.6,1.5-1.5l-3.5-8.9V94.2c0-2.2-1.8-4-4-4
					h-33.5C185.5,90.2,183.7,92,183.7,94.2z"/>
			</g>
			<g>
				<path class="st10" d="M210,103c0,1.6,1.3,2.9,2.9,2.9c1.6,0,2.9-1.3,2.9-2.9s-1.3-2.9-2.9-2.9S210,101.4,210,103z"/>
				<path class="st10" d="M200.9,103c0,1.6,1.3,2.9,2.9,2.9s2.9-1.3,2.9-2.9s-1.3-2.9-2.9-2.9S200.9,101.4,200.9,103z"/>
				<path class="st10" d="M191.7,103c0,1.6,1.3,2.9,2.9,2.9c1.6,0,2.9-1.3,2.9-2.9s-1.3-2.9-2.9-2.9S191.7,101.4,191.7,103z"/>
			</g>
		</g>
	</g>
	<g class="st1">
		<path d="M251.9,173.2h1.8v9h-1.4l-3.9-5.5v5.5h-1.8v-9h1.4l3.9,5.5V173.2z"/>
		<path d="M256.7,179.7c0.2,0.8,0.8,1.2,1.8,1.2c0.6,0,1.1-0.2,1.4-0.6l1.3,0.8c-0.6,0.9-1.6,1.4-2.8,1.4c-1.1,0-1.9-0.3-2.6-1
			c-0.6-0.6-1-1.5-1-2.4c0-1,0.3-1.8,1-2.4c0.6-0.6,1.5-1,2.5-1c0.9,0,1.7,0.3,2.3,1c0.6,0.7,0.9,1.5,0.9,2.4c0,0.2,0,0.4-0.1,0.7
			L256.7,179.7L256.7,179.7z M256.7,178.4h3.3c-0.1-0.4-0.3-0.8-0.6-1c-0.3-0.2-0.6-0.3-1-0.3s-0.8,0.1-1.1,0.3
			C257,177.6,256.8,178,256.7,178.4z"/>
		<path d="M269.8,175.7h1.6l-1.9,6.5h-1.6l-1.2-3.9l-1.2,3.9h-1.6l-1.9-6.5h1.8l1.1,4l1.2-4h1.6l1.2,4L269.8,175.7z"/>
		<path d="M273.6,177.6c0,0.2,0.1,0.3,0.3,0.4c0.2,0.1,0.5,0.2,0.8,0.3s0.7,0.2,1,0.3s0.6,0.3,0.8,0.6c0.2,0.3,0.3,0.7,0.3,1.1
			c0,0.7-0.2,1.2-0.7,1.5c-0.5,0.4-1.1,0.5-1.9,0.5c-1.3,0-2.2-0.5-2.7-1.5l1.4-0.8c0.2,0.6,0.6,0.8,1.3,0.8c0.6,0,0.9-0.2,0.9-0.6
			c0-0.2-0.1-0.3-0.3-0.4c-0.2-0.1-0.5-0.2-0.8-0.3s-0.7-0.2-1-0.3s-0.6-0.3-0.8-0.6c-0.2-0.3-0.3-0.6-0.3-1.1
			c0-0.6,0.2-1.1,0.7-1.5s1.1-0.5,1.7-0.5c0.5,0,1,0.1,1.4,0.4c0.4,0.2,0.8,0.6,1,1l-1.4,0.8c-0.2-0.4-0.6-0.7-1-0.7
			c-0.2,0-0.4,0-0.5,0.1C273.7,177.3,273.6,177.4,273.6,177.6z"/>
		<path d="M278,182.2v-9.4h1.7v9.4H278z"/>
		<path d="M282.6,179.7c0.2,0.8,0.8,1.2,1.8,1.2c0.6,0,1.1-0.2,1.4-0.6l1.3,0.8c-0.6,0.9-1.6,1.4-2.8,1.4c-1.1,0-1.9-0.3-2.6-1
			c-0.6-0.6-1-1.5-1-2.4c0-1,0.3-1.8,1-2.4c0.6-0.6,1.5-1,2.5-1c0.9,0,1.7,0.3,2.3,1c0.6,0.7,0.9,1.5,0.9,2.4c0,0.2,0,0.4-0.1,0.7
			L282.6,179.7L282.6,179.7z M282.6,178.4h3.3c-0.1-0.4-0.3-0.8-0.6-1c-0.3-0.2-0.6-0.3-1-0.3s-0.8,0.1-1.1,0.3
			C282.9,177.6,282.7,178,282.6,178.4z"/>
		<path d="M292.2,177.3h-1.5v2.7c0,0.2,0.1,0.4,0.2,0.5s0.3,0.2,0.5,0.2s0.5,0,0.8,0v1.5c-1.1,0.1-2,0-2.4-0.3
			c-0.5-0.3-0.7-1-0.7-1.8v-2.7H288v-1.6h1.1v-1.3l1.7-0.5v1.8h1.5v1.5H292.2z"/>
		<path d="M296.8,177.3h-1.5v2.7c0,0.2,0.1,0.4,0.2,0.5s0.3,0.2,0.5,0.2s0.5,0,0.8,0v1.5c-1.1,0.1-2,0-2.4-0.3
			c-0.5-0.3-0.7-1-0.7-1.8v-2.7h-1.1v-1.6h1.1v-1.3l1.7-0.5v1.8h1.5v1.5H296.8z"/>
		<path d="M299.2,179.7c0.2,0.8,0.8,1.2,1.8,1.2c0.6,0,1.1-0.2,1.4-0.6l1.3,0.8c-0.6,0.9-1.6,1.4-2.8,1.4c-1.1,0-1.9-0.3-2.6-1
			c-0.6-0.6-1-1.5-1-2.4c0-1,0.3-1.8,1-2.4c0.6-0.6,1.5-1,2.5-1c0.9,0,1.7,0.3,2.3,1c0.6,0.7,0.9,1.5,0.9,2.4c0,0.2,0,0.4-0.1,0.7
			L299.2,179.7L299.2,179.7z M299.2,178.4h3.3c-0.1-0.4-0.3-0.8-0.6-1c-0.3-0.2-0.6-0.3-1-0.3s-0.8,0.1-1.1,0.3
			C299.5,177.6,299.3,178,299.2,178.4z"/>
		<path d="M307,176.9c0.2-0.4,0.4-0.7,0.8-0.9s0.8-0.3,1.2-0.3v1.9c-0.5-0.1-1,0-1.4,0.3s-0.6,0.7-0.6,1.3v3.1h-1.7v-6.5h1.7V176.9z
			"/>
	</g>
</g>
<g>
	<g>
		<path class="st2" d="M451.9,332.3H104.4c-43.3,4.9-70,11.7-70,19.2c0,15.1,109.1,27.4,243.7,27.4s243.7-12.3,243.7-27.4
			C521.8,344,495.1,337.2,451.9,332.3"/>
		<path class="st2" d="M528.3,332.8c2.1-6.6,0-14.8-3.5-21.2c-4.5-8.5-11.1-16.3-12.1-25.9c-2.1-18.2,16.2-33.5,15.4-51.8
			c-0.9-21.8-27.9-35.8-28-57.6c-0.1-20.4,23.9-36.2,20.6-56.3c-3-18-24.8-24.6-38-37.1c-13-12.3-15.3-33.5-29-45
			c-10.8-9.1-22.9-15.7-37.4-16.1c-9.5-0.2-17.5,2.7-26.5,5c-23.2,5.9-47-10.3-69.1-14.9c-17.2-3.6-35.8-3.3-52.9,0.7
			c-12.4,2.9-24.4,7.3-36.7,10.5c-12.5,3.3-22.6,3.3-35.2,0.6c-29.4-6.4-74.7,12.1-95.4,29.8c-23,19.6-24,45-34.9,73.4
			c-10.5,27.5-13.2,57.7-25.2,84.6c-6.6,14.8-16,28.3-22,43.3c-9.9,24.7-10,53.3-0.4,78.1H528.3z"/>
	</g>
	<g>
		<g>
			<linearGradient id="SVGID_3_" gradientUnits="userSpaceOnUse" x1="282.3019" y1="280.0311" x2="284.1213" y2="409.2154">
				<stop  offset="0" style="stop-color:#09005D"/>
				<stop  offset="1" style="stop-color:#1A0F91"/>
			</linearGradient>
			<polygon class="st25" points="244.2,291.9 236.1,348 330.4,348 318.1,291.9 			"/>
			<linearGradient id="SVGID_4_" gradientUnits="userSpaceOnUse" x1="299.8801" y1="-19.9724" x2="267.1289" y2="254.7731">
				<stop  offset="0" style="stop-color:#09005D"/>
				<stop  offset="1" style="stop-color:#1A0F91"/>
			</linearGradient>
			<path class="st26" d="M85.8,112.3v167c0,13.7,10.9,25,24.7,25.3c61,1.6,274.3,5.4,332.3,4.5c10-0.1,18.1-8.1,18.3-18.1
				c1.1-38.8,2.9-132.1-3.8-175.4c-1.4-9.1-9.1-15.9-18.3-16.2c-51.1-1.6-277.2-6.8-335.2-5.5C93.8,94.1,85.8,102.3,85.8,112.3z"/>
			<path class="st27" d="M96.3,111.5v158.6c0,8,6.4,14.6,14.5,14.7l323.7,4c7.9,0.1,14.5-6.3,14.5-14.2l0.5-157.2
				c0-5.7-4.5-10.3-10.2-10.5l-331.4-6.7C101.5,100,96.3,105.1,96.3,111.5z"/>
			<path class="st28" d="M451.4,295.3C451.4,295.3,451.4,295.3,451.4,295.3l-355.1-6.1c-0.2,0-0.4-0.2-0.4-0.5
				c0-0.2,0.2-0.4,0.5-0.4l355.1,6.1c0.2,0,0.4,0.2,0.4,0.5C451.8,295.1,451.6,295.3,451.4,295.3z"/>
			<path class="st28" d="M277.3,302.7c-2.3,0-4.1-1.9-4.1-4.1c0-2.3,1.9-4.1,4.1-4.1c2.3,0,4.1,1.9,4.1,4.1
				C281.5,300.8,279.6,302.7,277.3,302.7z M277.3,295.3c-1.8,0-3.2,1.5-3.2,3.2c0,1.8,1.5,3.2,3.2,3.2s3.2-1.5,3.2-3.2
				C280.6,296.7,279.1,295.3,277.3,295.3z"/>
			<linearGradient id="SVGID_5_" gradientUnits="userSpaceOnUse" x1="275.4367" y1="278.7626" x2="283.6245" y2="382.4742">
				<stop  offset="0" style="stop-color:#09005D"/>
				<stop  offset="1" style="stop-color:#1A0F91"/>
			</linearGradient>
			<path class="st29" d="M350.7,362.9h-138c-3.7,0-6.6-2.7-5.8-5.5l1.8-7c0.5-2.1,2.8-3.7,5.6-3.7l133.1-4.2c2.9-0.1,5.4,1.4,6,3.6
				l3.2,11.2C357.4,360.2,354.5,362.9,350.7,362.9z"/>
			<path class="st28" d="M287,348.5c-0.2,0-0.4-0.2-0.4-0.4c0-0.2,0.2-0.5,0.4-0.5l5.7-0.1c0.2,0,0.5,0.2,0.5,0.4
				c0,0.2-0.2,0.5-0.4,0.5L287,348.5C287,348.5,287,348.5,287,348.5z"/>
			<path class="st28" d="M212,359C211.9,359,211.9,359,212,359c-0.3,0-0.5-0.3-0.4-0.5l0.8-5.1c0.4-2.7,2.8-4.8,5.5-4.8l60.5-0.9
				c0,0,0,0,0,0c0.2,0,0.4,0.2,0.4,0.4c0,0.2-0.2,0.5-0.4,0.5l-60.5,0.9c-2.3,0-4.3,1.7-4.7,4l-0.8,5.1
				C212.4,358.9,212.2,359,212,359z"/>
			<g>
				<path class="st28" d="M372.7,288.2l-217.1-3V51.4c0-5,4-9,9-9h199.9c4.6,0,8.4,3.8,8.4,8.4L372.7,288.2z"/>
				<path class="st30" d="M365.7,288.2L162,285.3V57.6c0-4.9,3.9-8.9,8.8-8.9h186.7c4.5,0,8.2,3.7,8.2,8.3V288.2z"/>
				<g class="st31">
					<path class="st32" d="M340.3,193.7H191.9c-4.8,0-8.8-3.9-8.8-8.8v-62.7c0-4.8,3.9-8.8,8.8-8.8h148.4c4.8,0,8.8,3.9,8.8,8.8V185
						C349,189.8,345.1,193.7,340.3,193.7z"/>
					<path class="st32" d="M352.5,225.9H176.7c-2.4,0-4.4-2-4.4-4.4v-9c0-2.4,2-4.4,4.4-4.4h175.8c2.4,0,4.4,2,4.4,4.4v9
						C356.8,224,354.9,225.9,352.5,225.9z"/>
					<path class="st32" d="M349.5,255.4H178.9c-3.9,0-7-3.1-7-7v-3.8c0-3.9,3.1-7,7-7h170.5c3.9,0,7,3.1,7,7v3.8
						C356.5,252.3,353.3,255.4,349.5,255.4z"/>
					<path class="st32" d="M348.9,282.9H180.3c-4.4,0-8-3.6-8-8v-1.8c0-4.4,3.6-8,8-8h168.5c4.4,0,8,3.6,8,8v1.8
						C356.9,279.3,353.3,282.9,348.9,282.9z"/>
				</g>
			</g>
		</g>
		<g>
			<g>
				<linearGradient id="SVGID_6_" gradientUnits="userSpaceOnUse" x1="103.5586" y1="160.7841" x2="151.7751" y2="264.4951">
					<stop  offset="0" style="stop-color:#09005D"/>
					<stop  offset="1" style="stop-color:#1A0F91"/>
				</linearGradient>
				<path class="st33" d="M107.4,200.6c0,0,23.3,61.4,30.6,74.2c8.5,14.8,33.5,5.4,32.2-7c-1.2-12.4-30.4-63.7-30.4-63.7
					L107.4,200.6z"/>
				<polygon class="st12" points="138.8,155.8 283.6,105.7 282.1,241.5 134.9,208.6 				"/>
				<ellipse class="st11" cx="283.7" cy="174" rx="14.2" ry="69.8"/>
				<path class="st12" d="M284.8,239c-1.3-1.3-4.1-6.4-6.5-19.4c-2.3-12.6-3.6-28.9-3.6-46c0-17.1,1.3-33.4,3.6-46
					c2.4-13,5.2-18.1,6.5-19.4c1.3,1.3,4.1,6.4,6.5,19.4c2.3,12.6,3.6,28.9,3.6,46c0,17.1-1.3,33.4-3.6,46
					C288.9,232.6,286.1,237.7,284.8,239z"/>
				<g>
					<defs>
						<path id="SVGID_7_" d="M284.8,239c-1.3-1.3-4.1-6.4-6.5-19.4c-2.3-12.6-3.6-28.9-3.6-46c0-17.1,1.3-33.4,3.6-46
							c2.4-13,5.2-18.1,6.5-19.4c1.3,1.3,4.1,6.4,6.5,19.4c2.3,12.6,20.6,28.9,20.6,46c0,17.1-18.3,33.4-20.6,46
							C288.9,232.6,286.1,237.7,284.8,239z"/>
					</defs>
					<clipPath id="SVGID_8_">
						<use xlink:href="#SVGID_7_"  style="overflow:visible;"/>
					</clipPath>
					<linearGradient id="SVGID_9_" gradientUnits="userSpaceOnUse" x1="317.4095" y1="153.2502" x2="242.1324" y2="197.212">
						<stop  offset="0" style="stop-color:#09005D"/>
						<stop  offset="1" style="stop-color:#1A0F91"/>
					</linearGradient>
					<path class="st34" d="M303,173c0,11.9-6.4,21.5-19,21.5c-12.6,0-22.9-9.6-22.9-21.5c0-11.9,10.3-21.5,22.9-21.5
						C296.6,151.6,303,161.2,303,173z"/>
				</g>
				<linearGradient id="SVGID_10_" gradientUnits="userSpaceOnUse" x1="192.7522" y1="52.9651" x2="165.4597" y2="105.7305">
					<stop  offset="0" style="stop-color:#09005D"/>
					<stop  offset="1" style="stop-color:#1A0F91"/>
				</linearGradient>
				<path class="st35" d="M115.5,152.9c6.8-0.8,16.6-1.1,27.1,1.3c-3.5,18.2-3,37.1,1.1,56.7l-29.8,0c-4.7,0-8.8-3.4-9.5-8.1
					c-1.5-9.4-3.3-25.2-1.4-37.9C104,158.6,109.1,153.7,115.5,152.9z"/>
				<path class="st28" d="M133.4,166.8h-23.2c-0.8,0-1.5-0.4-1.9-1.1c-0.4-0.7-0.3-1.5,0.1-2.2c0.2-0.3,0.5-0.4,0.8-0.2
					c0.3,0.2,0.4,0.5,0.2,0.8c-0.2,0.3-0.2,0.6,0,0.9c0.2,0.3,0.5,0.5,0.8,0.5h23.2c0.5,0,0.9-0.4,0.9-0.9v-1.7
					c0-0.5-0.4-0.9-0.9-0.9H110c-0.3,0-0.6-0.3-0.6-0.6c0-0.3,0.3-0.6,0.6-0.6h23.4c1.2,0,2.1,0.9,2.1,2.1v1.7
					C135.5,165.9,134.5,166.8,133.4,166.8z"/>
				<path class="st28" d="M131.3,177.1h-23.2c-0.8,0-1.5-0.4-1.9-1.1c-0.4-0.7-0.3-1.5,0.1-2.2c0.2-0.3,0.5-0.4,0.8-0.2
					c0.3,0.2,0.4,0.5,0.2,0.8c-0.2,0.3-0.2,0.6,0,0.9c0.2,0.3,0.5,0.5,0.8,0.5h23.2c0.5,0,0.9-0.4,0.9-0.9v-1.7
					c0-0.5-0.4-0.9-0.9-0.9h-23.4c-0.3,0-0.6-0.3-0.6-0.6s0.3-0.6,0.6-0.6h23.4c1.2,0,2.1,0.9,2.1,2.1v1.7
					C133.4,176.2,132.5,177.1,131.3,177.1z"/>
				<path class="st30" d="M159.9,152.2c-0.3,0-0.5-0.2-0.6-0.4c-0.1-0.3,0.1-0.6,0.4-0.7l109.6-34.9c0.3-0.1,0.6,0.1,0.7,0.4
					c0.1,0.3-0.1,0.6-0.4,0.7L160,152.1C160,152.2,159.9,152.2,159.9,152.2z"/>
				<path class="st30" d="M145,158.2c-0.2,0-0.5-0.1-0.6-0.4c-0.1-0.3,0-0.7,0.3-0.8l5.6-2.3c0.3-0.1,0.7,0,0.8,0.3
					c0.1,0.3,0,0.7-0.3,0.8l-5.6,2.3C145.2,158.2,145.1,158.2,145,158.2z"/>
				<path class="st28" d="M133.4,189.2h-23.2c-0.8,0-1.5-0.4-1.9-1.1c-0.4-0.7-0.3-1.5,0.1-2.2c0.2-0.3,0.5-0.4,0.8-0.2
					c0.3,0.2,0.4,0.5,0.2,0.8c-0.2,0.3-0.2,0.6,0,0.9c0.2,0.3,0.5,0.5,0.8,0.5h23.2c0.5,0,0.9-0.4,0.9-0.9v-1.7
					c0-0.5-0.4-0.9-0.9-0.9H110c-0.3,0-0.6-0.3-0.6-0.6c0-0.3,0.3-0.6,0.6-0.6h23.4c1.2,0,2.1,0.9,2.1,2.1v1.7
					C135.5,188.2,134.5,189.2,133.4,189.2z"/>
				<path class="st28" d="M135.5,202.5h-23.2c-0.8,0-1.5-0.4-1.9-1.1c-0.4-0.7-0.3-1.5,0.1-2.2c0.2-0.3,0.5-0.4,0.8-0.2
					c0.3,0.2,0.4,0.5,0.2,0.8c-0.2,0.3-0.2,0.6,0,0.9c0.2,0.3,0.5,0.5,0.8,0.5h23.2c0.5,0,0.9-0.4,0.9-0.9v-1.7
					c0-0.5-0.4-0.9-0.9-0.9h-23.4c-0.3,0-0.6-0.3-0.6-0.6c0-0.3,0.3-0.6,0.6-0.6h23.4c1.2,0,2.1,0.9,2.1,2.1v1.7
					C137.6,201.6,136.7,202.5,135.5,202.5z"/>
				<path class="st28" d="M156.2,275.1c-1.1,0-2.1-0.1-3.2-0.4c-4.7-1-8.6-4.1-10.5-8.5l-18.5-41.2c-0.1-0.3,0-0.7,0.3-0.8
					c0.3-0.1,0.7,0,0.8,0.3l18.5,41.2c1.8,4,5.4,6.9,9.7,7.9c4.3,0.9,8.6-0.2,11.9-3c0.2-0.2,0.4-0.3,0.5-0.5c0.2-0.2,0.6-0.2,0.8,0
					c0.2,0.2,0.2,0.6,0,0.8c-0.2,0.2-0.4,0.3-0.5,0.5C163.2,273.9,159.8,275.1,156.2,275.1z"/>
				<path class="st28" d="M121.8,219.3c-0.2,0-0.4-0.1-0.5-0.4l-2.1-4.6c-0.1-0.3,0-0.7,0.3-0.8c0.3-0.1,0.7,0,0.8,0.3l2.1,4.6
					c0.1,0.3,0,0.7-0.3,0.8C121.9,219.3,121.8,219.3,121.8,219.3z"/>
				<path class="st30" d="M299.6,172.4c-0.3,0-0.6-0.2-0.6-0.6c-0.4-5.8-2.4-10.1-6-12.9c-6.2-4.7-14.9-3.1-15-3.1
					c-0.3,0.1-0.6-0.1-0.7-0.5c-0.1-0.3,0.1-0.6,0.5-0.7c0.4-0.1,9.4-1.7,16,3.3c3.8,2.9,6,7.6,6.4,13.7
					C300.3,172.1,300,172.4,299.6,172.4C299.7,172.4,299.7,172.4,299.6,172.4z"/>
			</g>
		</g>
		<g>
			<path class="st36" d="M221.8,61.4h7.5c3.1,0,5.3,0.6,6.7,1.7c1.4,1.1,2.1,2.9,2.1,5.3c0,1.6-0.4,2.9-1.1,4c-0.7,1.1-1.7,1.7-3,2
				v0.2c1.7,0.4,2.9,1.1,3.6,2.2c0.7,1.1,1.1,2.5,1.1,4.3c0,2.5-0.7,4.5-2.1,5.9c-1.4,1.4-3.4,2.1-5.9,2.1h-8.9V61.4z M227,72.6h2.5
				c1.2,0,2-0.3,2.4-0.9c0.5-0.6,0.7-1.4,0.7-2.6c0-1.1-0.3-2-0.8-2.5c-0.5-0.5-1.4-0.7-2.5-0.7H227V72.6z M227,76.8v7.7h2.8
				c1.1,0,2-0.3,2.6-1c0.6-0.7,0.8-1.7,0.8-3c0-2.5-1.2-3.7-3.5-3.7H227z"/>
			<path class="st36" d="M242.8,89.1V61.4h5.5v23.1h7.6v4.5H242.8z"/>
			<path class="st36" d="M279.7,75.2c0,4.6-0.9,8.1-2.7,10.5c-1.8,2.5-4.4,3.7-7.8,3.7c-3.4,0-6-1.2-7.9-3.7
				c-1.8-2.5-2.7-6-2.7-10.6c0-4.6,0.9-8.1,2.7-10.5c1.8-2.4,4.5-3.7,7.9-3.7c3.4,0,6,1.2,7.8,3.7C278.8,67.1,279.7,70.6,279.7,75.2
				z M264.1,75.2c0,3.1,0.4,5.5,1.3,7.2c0.8,1.7,2.1,2.5,3.7,2.5c3.3,0,5-3.2,5-9.7c0-6.5-1.6-9.7-4.9-9.7c-1.7,0-2.9,0.8-3.8,2.5
				C264.5,69.7,264.1,72.1,264.1,75.2z"/>
			<path class="st36" d="M292.9,73.7h9v14.2c-2.6,1-5.3,1.5-8.2,1.5c-3.4,0-6.1-1.2-7.9-3.7c-1.8-2.4-2.8-6-2.8-10.6
				c0-4.4,1.1-7.9,3.2-10.4c2.1-2.5,5.1-3.8,8.9-3.8c2.4,0,4.6,0.6,6.7,1.7l-1.7,4.2c-1.7-0.9-3.2-1.4-4.7-1.4c-2.1,0-3.7,0.9-5,2.6
				c-1.2,1.7-1.8,4.1-1.8,7.1c0,3.1,0.4,5.5,1.3,7.1c0.9,1.7,2.2,2.5,3.8,2.5c0.9,0,1.8-0.1,2.7-0.3v-6.3h-3.7V73.7z"/>
		</g>
		<g>
			<path class="st18" d="M358.1,137.1l-35,2c-2.9,0.2-5.5-2-5.7-5l-2.9-40.6c-0.2-3.1,2.2-5.8,5.4-5.8h37.9c3,0,5.4,2.4,5.4,5.4
				v38.6C363.2,134.6,361,136.9,358.1,137.1z"/>
			<g>
				<path class="st3" d="M338.9,134.2L338.9,134.2c-1.8,0-3.4-0.9-4.3-2.4c-5.2-8.5-11.3-19.8-11.3-24.8c0-7.9,7-14.4,15.6-14.4
					c8.6,0,15.6,6.5,15.6,14.4c0,5.1-6.2,16.3-11.3,24.8C342.2,133.3,340.6,134.2,338.9,134.2z M338.9,94.6
					c-7.5,0-13.6,5.6-13.6,12.4c0,3.6,4,12.2,11,23.8c0.6,0.9,1.5,1.5,2.6,1.5c1.1,0,2-0.5,2.6-1.5c7-11.6,11-20.2,11-23.8
					C352.5,100.2,346.4,94.6,338.9,94.6z"/>
				<path class="st3" d="M337.6,117.1c-5.3,0-9.7-4.3-9.7-9.7c0-0.6,0.4-1,1-1c0.6,0,1,0.4,1,1c0,4.2,3.4,7.7,7.7,7.7
					c4.2,0,7.7-3.4,7.7-7.7s-3.4-7.7-7.7-7.7c-2.4,0-4.7,1.1-6.2,3.1c-0.3,0.4-1,0.5-1.4,0.2c-0.4-0.3-0.5-1-0.2-1.4
					c1.8-2.4,4.7-3.9,7.8-3.9c5.3,0,9.7,4.3,9.7,9.7C347.3,112.7,343,117.1,337.6,117.1z"/>
			</g>
		</g>
		<g>
			<path class="st18" d="M439.9,163.4l-42.7-0.7c-3.1-0.1-5.5-2.6-5.3-5.7l2.8-44.5c0.2-2.6,2.1-4.6,4.7-5l48.1-6.4
				c3.6-0.5,6.6,2.6,6,6.2l-8.2,51.5C444.8,161.5,442.5,163.4,439.9,163.4z"/>
			<g class="st37">
				<path class="st3" d="M420.4,151.5c-9.3,0-16.8-7.5-16.8-16.8s7.5-16.8,16.8-16.8c9.3,0,16.8,7.5,16.8,16.8
					S429.7,151.5,420.4,151.5z M420.4,120.8c-7.7,0-14,6.3-14,14s6.3,14,14,14c7.7,0,14-6.3,14-14S428.1,120.8,420.4,120.8z"/>
				<path class="st38" d="M415.1,141.2v-12.1c0-1.3,1.4-2.1,2.5-1.4l10.2,6c1.1,0.6,1.1,2.2,0,2.9l-10.2,6
					C416.5,143.3,415.1,142.5,415.1,141.2z"/>
			</g>
		</g>
		<g>
			<path class="st18" d="M338.6,227.4l-25.6,2.7c-3.2,0.3-5.9-2.2-5.9-5.3v-29.6c0-2.7,2-4.9,4.6-5.3l25.6-3.7
				c3.2-0.5,6.1,2,6.1,5.3v30.6C343.4,224.8,341.4,227.1,338.6,227.4z"/>
			<path class="st3" d="M323.2,217.6c-2.9,0-5.9-1.2-6.8-3.1c-1-2.1,1-3.6,1.7-4.1c2-1.3,3.7-1.7,5.2-1.3c1.5,0.4,2.2,1.6,2.2,1.7
				l-2,1l0,0c0,0-0.3-0.5-0.9-0.6c-0.6-0.1-1.6-0.1-3.3,1c-0.7,0.5-1,0.9-0.8,1.2c0.6,1.2,4.1,2.4,6.7,1.5c0.9-0.3,1.6-2.8,0.9-9
				c-0.5-4.5-1.6-8.9-1.6-8.9c-0.1-0.4,0-0.8,0.4-1.1c0.3-0.3,0.8-0.3,1.1-0.2c0.3,0.1,6.5,2.7,8.2,7.6c0.8,2.2,0.5,4.5-0.8,6.8
				c-0.3,0.5-1,0.7-1.5,0.4c-0.5-0.3-0.7-1-0.4-1.5c1-1.8,1.2-3.4,0.7-5c-0.8-2.4-3.2-4.1-4.9-5.2c0.4,1.7,0.8,4.3,1.1,6.9
				c0.8,6.9,0.1,10.5-2.4,11.4C325,217.5,324.1,217.6,323.2,217.6z"/>
		</g>
		<g>
			<path class="st18" d="M420.5,94.5h-38.8c-3,0-5.4-2.4-5.4-5.4V50.3c0-2.8,2.1-5.1,4.9-5.4l41.3-3.3c3.3-0.3,6,2.4,5.8,5.7
				l-2.5,42.2C425.7,92.3,423.4,94.5,420.5,94.5z"/>
			<g>
				<path class="st3" d="M411.4,58.7c-2.8-2.8-7.2-1.9-10.3,0.6c-0.4,0.4-1.1,0.4-1.5,0c-3.1-2.5-7.5-3.3-10.3-0.4
					c-3,3.1-3,8,0.1,11L399.7,80c0.5,0.5,1.2,0.5,1.7,0l10.1-10.3C414.5,66.6,414.4,61.7,411.4,58.7z"/>
			</g>
		</g>
		<g>
			
				<ellipse transform="matrix(0.2757 -0.9612 0.9612 0.2757 110.5715 473.5381)" class="st18" cx="369.5" cy="163.4" rx="20" ry="20"/>
			<g>
				<path class="st3" d="M364.6,156.7c0-0.5-0.4-0.9-0.9-0.9h-3.4c-0.5,0-0.9,0.4-0.9,0.9v14.8c0,0.5,0.4,0.9,0.9,0.9h3.4
					c0.5,0,0.9-0.4,0.9-0.9V156.7z"/>
				<path class="st3" d="M376.1,155.8h-3.3v-4c0-1.3-0.8-2.1-2.1-2.1h-0.1c-1.3,0-2.3,1-2.3,2.2l-1.2,4c-0.5,0-1.4,0.4-1.4,0.9v15.3
					c0,0.5,1.3,1.2,1.8,1.2h0.7h7.8c1.9,0,3.4-1.8,3.4-3.8v-10.2C379.6,157.4,378.1,155.8,376.1,155.8z"/>
			</g>
		</g>
		<g>
			
				<linearGradient id="SVGID_11_" gradientUnits="userSpaceOnUse" x1="9923.1875" y1="312.771" x2="9860.9766" y2="380.4386" gradientTransform="matrix(-1 9.500000e-03 9.500000e-03 1 10313.8721 -48.4172)">
				<stop  offset="0" style="stop-color:#09005D"/>
				<stop  offset="1" style="stop-color:#1A0F91"/>
			</linearGradient>
			<path class="st39" d="M413.4,363.5c0,0,0.7,3.6,1,7.2c0.1,1.4-0.9,2.6-2.4,2.7c-4.8,0.2-15.1,0.7-18.8,0.6
				c-0.6,0-0.9-0.6-0.7-1.1l0,0c0.2-0.4,0.5-0.8,0.9-1l16.9-8L413.4,363.5z"/>
			
				<linearGradient id="SVGID_12_" gradientUnits="userSpaceOnUse" x1="9902.9941" y1="317.7961" x2="9908.5205" y2="317.7961" gradientTransform="matrix(-1 9.500000e-03 9.500000e-03 1 10313.8721 -48.4172)">
				<stop  offset="0" style="stop-color:#FEBBBA"/>
				<stop  offset="1" style="stop-color:#FF928E"/>
			</linearGradient>
			<path class="st40" d="M413.9,361.3l-0.5,4.4c0,0-3,1.4-5-0.1l1.2-4.9L413.9,361.3z"/>
			
				<linearGradient id="SVGID_13_" gradientUnits="userSpaceOnUse" x1="-5658.0449" y1="-1991.6433" x2="-5608.0088" y2="-2053.5066" gradientTransform="matrix(-1 0 0 1 -7111.2642 0)">
				<stop  offset="0" style="stop-color:#09005D"/>
				<stop  offset="1" style="stop-color:#1A0F91"/>
			</linearGradient>
			<path class="st41" d="M412.7,279.3c0.2,1.1,1.7,56.8-4,81.9c-0.1,0.4,0.1,0.8,0.5,1c0.9,0.4,2.7,0.9,4.9,0.9
				c0.7,0,1.3-0.4,1.4-1.1c1.6-5.8,9.5-34.9,10.3-62.6c0.9-31,0-1.1,0-1.1l-0.9-19.1L412.7,279.3z"/>
			
				<linearGradient id="SVGID_14_" gradientUnits="userSpaceOnUse" x1="9909.2314" y1="299.9383" x2="9847.0186" y2="367.6089" gradientTransform="matrix(-1 9.500000e-03 9.500000e-03 1 10313.8721 -48.4172)">
				<stop  offset="0" style="stop-color:#09005D"/>
				<stop  offset="1" style="stop-color:#1A0F91"/>
			</linearGradient>
			<path class="st42" d="M432.9,365.2c0,0,1,1.8,2.1,6.7c0.2,0.9-0.4,1.7-1.3,1.8c-1.6,0.2-4,0.4-6,0.4c-0.9,0-1.6-0.8-1.5-1.7
				c0.2-1.8,0.8-4.7,2.9-7L432.9,365.2z"/>
			
				<linearGradient id="SVGID_15_" gradientUnits="userSpaceOnUse" x1="9883.0791" y1="317.512" x2="9887.8496" y2="317.512" gradientTransform="matrix(-1 9.500000e-03 9.500000e-03 1 10313.8721 -48.4172)">
				<stop  offset="0" style="stop-color:#FEBBBA"/>
				<stop  offset="1" style="stop-color:#FF928E"/>
			</linearGradient>
			<path class="st43" d="M433.8,359.6l-1.1,6.6c0,0-1.2,0.9-3.6,0.3l0.5-7.1L433.8,359.6z"/>
			
				<linearGradient id="SVGID_16_" gradientUnits="userSpaceOnUse" x1="-5666.8789" y1="-1998.7915" x2="-5616.8428" y2="-2060.6543" gradientTransform="matrix(-1 0 0 1 -7111.2642 0)">
				<stop  offset="0" style="stop-color:#09005D"/>
				<stop  offset="1" style="stop-color:#1A0F91"/>
			</linearGradient>
			<path class="st44" d="M436.3,280.8c5.2,29.3-0.4,72.7-2.3,81.2c-0.1,0.5-0.5,0.9-1.1,1c-0.9,0.2-2.4,0.3-3.8-0.1
				c-0.5-0.1-0.9-0.6-0.9-1.1c-0.3-6.8-0.3-48.9-4.9-65.4c-0.2-0.8-0.8-1.6-1.5-2.1l-8.9-6.2l-0.8-10.1L436.3,280.8z"/>
			<g>
				<path class="st23" d="M404.7,225.4c14.6-0.4,30.7,3.5,30.7,3.5c4.6,25.3,1.3,54.7,1.3,54.7c-11.3,3.1-24.1-1.6-24.1-1.6
					c-2-10.6-11-40.4-11-40.4c-7.1-0.8-13-2.8-17.9-5.5c3.6-4.3,5.3-9.8,6.1-13C395,224.7,400.2,225.5,404.7,225.4z"/>
				
					<linearGradient id="SVGID_17_" gradientUnits="userSpaceOnUse" x1="9925.7402" y1="173.6293" x2="9953.9727" y2="173.6293" gradientTransform="matrix(-1 9.500000e-03 9.500000e-03 1 10313.8721 -48.4172)">
					<stop  offset="0" style="stop-color:#FEBBBA"/>
					<stop  offset="1" style="stop-color:#FF928E"/>
				</linearGradient>
				<path class="st45" d="M361.4,204.3c1.4-1.7,3.2-0.9,3.2-0.9c2.2,9.1,13.6,16.3,25.2,19.8c-0.7,3.2-2.4,8.7-6.1,13
					C364.4,225.5,361.4,204.3,361.4,204.3z"/>
			</g>
			<g>
				<linearGradient id="SVGID_18_" gradientUnits="userSpaceOnUse" x1="367.0514" y1="212.2194" x2="356.5892" y2="190.8402">
					<stop  offset="0" style="stop-color:#FEBBBA"/>
					<stop  offset="1" style="stop-color:#FF928E"/>
				</linearGradient>
				<path class="st46" d="M361.8,204.7c-0.1,0.5,1.6,1.2,2.6-0.8c0-0.9,0.6-4.9,0-5.7c-3-4-8.8-9.1-8.8-9.1c-1,1-0.2,1.9-0.2,1.9
					l2.8,2.9c-0.6,1.1-1.3,2-1.6,3.2c-0.2,1-0.1,2,0.4,2.9c0.5,0.9,1.2,2,1.8,2.9C360,204.7,361.8,204.7,361.8,204.7z"/>
				
					<linearGradient id="SVGID_19_" gradientUnits="userSpaceOnUse" x1="9953.8369" y1="154.5429" x2="9961.7422" y2="142.3894" gradientTransform="matrix(-1 9.500000e-03 9.500000e-03 1 10313.8721 -48.4172)">
					<stop  offset="0" style="stop-color:#FEBBBA"/>
					<stop  offset="1" style="stop-color:#FF928E"/>
				</linearGradient>
				<path class="st47" d="M359.4,195.9l2.6,2.1l0.8,2.1l-2.2,2.5c0,0-0.8-4.3-1.4-5.2C358.6,196.6,358.9,196.2,359.4,195.9z"/>
			</g>
			<path class="st23" d="M430,243.1l5.5-14.2c0,0,13.7,9.1,16.1,20.9c-2.6,0.2-7.3,0.9-11.8,3.3C438.7,247.5,430,243.1,430,243.1z"
				/>
			
				<linearGradient id="SVGID_20_" gradientUnits="userSpaceOnUse" x1="9863.9619" y1="213.6159" x2="9899.6895" y2="213.6159" gradientTransform="matrix(-1 9.500000e-03 9.500000e-03 1 10313.8721 -48.4172)">
				<stop  offset="0" style="stop-color:#FEBBBA"/>
				<stop  offset="1" style="stop-color:#FF928E"/>
			</linearGradient>
			<path class="st48" d="M418.2,256.5c0,0,15.4,8.5,20.5,1.1c1.1-1.5,1.3-3.1,1-4.5c4.6-2.4,9.2-3.1,11.8-3.3
				c0.7,3.5,0.4,7.3-1.7,11.1c-8.9,16.6-33.7-0.6-33.7-0.6L418.2,256.5z"/>
			<linearGradient id="SVGID_21_" gradientUnits="userSpaceOnUse" x1="426.2207" y1="240.5107" x2="412.5745" y2="213.6731">
				<stop  offset="0" style="stop-color:#FEBBBA"/>
				<stop  offset="1" style="stop-color:#FF928E"/>
			</linearGradient>
			<path class="st49" d="M419.4,213.4l4.8,13.4c0.1,0.2,0,0.5-0.2,0.6c-1.3,0.7-5.8,2.8-11.3-0.7c-0.6-0.4-1-0.9-1.1-1.6l-1.6-11.6
				L419.4,213.4z"/>
			<g>
				
					<linearGradient id="SVGID_22_" gradientUnits="userSpaceOnUse" x1="2218.532" y1="3206.6069" x2="2231.4958" y2="3185.228" gradientTransform="matrix(-0.7523 -0.6588 -0.6588 0.7523 4463.8799 -2273.47)">
					<stop  offset="0" style="stop-color:#FEBBBA"/>
					<stop  offset="1" style="stop-color:#FF928E"/>
				</linearGradient>
				<path class="st50" d="M409.2,201.1c0,0-5,9.6-4.3,13.5c0.7,3.9,7,3.5,12.5,0.3l3.8-10.4L409.2,201.1z"/>
				
					<linearGradient id="SVGID_23_" gradientUnits="userSpaceOnUse" x1="1410.0616" y1="4512.6782" x2="1414.4772" y2="4537.8633" gradientTransform="matrix(-0.7523 -0.6588 -0.6588 0.7523 4463.8799 -2273.47)">
					<stop  offset="0" style="stop-color:#09005D"/>
					<stop  offset="1" style="stop-color:#1A0F91"/>
				</linearGradient>
				<path class="st51" d="M417.1,209.8c-0.2-0.1-0.3-0.4-0.2-0.6c0.4-0.6,1.2-1.9,1.4-3c0,0,0.9-0.6-2.3-1.3
					c-3.3-0.7-8.1-1.9-9.2-4.7c-1-2.7,1.5-9.5,5.7-4.1c0.2,0.2,0.5,0.2,0.6,0c0.7-0.9,2.5-2.8,5-1.7c2.3,1,2.6,2.7,2.6,3.6
					c0,0.3,0.2,0.4,0.5,0.4c1.2-0.2,4-0.5,5.4,2.4c1.1,2.4,0.4,3.7-0.2,4.4c-0.2,0.2-0.1,0.6,0.2,0.7c0.8,0.2,1.8,0.9,1.7,2.7
					c-0.1,2.5-2.9,2.3-3.7,2.2c-0.1,0-0.3,0-0.4,0.1c-0.7,0.8-3.7,4-7.1,4.4c-0.3,0-0.5-0.2-0.4-0.5l1.4-4.2c0.1-0.2,0-0.4-0.2-0.5
					L417.1,209.8z"/>
				
					<linearGradient id="SVGID_24_" gradientUnits="userSpaceOnUse" x1="2213.9968" y1="3203.8567" x2="2226.9607" y2="3182.4775" gradientTransform="matrix(-0.7523 -0.6588 -0.6588 0.7523 4463.8799 -2273.47)">
					<stop  offset="0" style="stop-color:#FEBBBA"/>
					<stop  offset="1" style="stop-color:#FF928E"/>
				</linearGradient>
				<path class="st52" d="M416.5,210.4c0,0,3.6-2.5,3.9-0.4c0.3,2.1-3.2,3.1-5,2.3L416.5,210.4z"/>
			</g>
			<g>
				<g>
					
						<linearGradient id="SVGID_25_" gradientUnits="userSpaceOnUse" x1="9623.1836" y1="236.2052" x2="9642.8975" y2="318.3479" gradientTransform="matrix(-1 0 0 1 10029.8164 0)">
						<stop  offset="0" style="stop-color:#09005D"/>
						<stop  offset="1" style="stop-color:#1A0F91"/>
					</linearGradient>
					<path class="st53" d="M421.4,270l-8.4-29.3c-0.1-0.3-0.4-0.6-0.7-0.6c-1.5-0.2-5.9-0.7-11-1.1c-6.1-0.5-13.2-0.9-17.5-0.6
						c-0.6,0.1-1,0.7-0.7,1.2c2.4,4.9,12.4,24.8,17.3,31.3c0.2,0.2,0.4,0.3,0.7,0.3l19.5-0.2C421.1,271.1,421.5,270.5,421.4,270z"/>
					
						<linearGradient id="SVGID_26_" gradientUnits="userSpaceOnUse" x1="9609.6748" y1="257.9363" x2="9620.8447" y2="257.9363" gradientTransform="matrix(-1 0 0 1 10029.8164 0)">
						<stop  offset="0" style="stop-color:#FEBBBA"/>
						<stop  offset="1" style="stop-color:#FF928E"/>
					</linearGradient>
					<path class="st54" d="M419.3,262.9c0,0,1.2-4.8,0.7-6.5c-0.5-1.7-1.4-3.9-4.4-3.4c-3,0.5-6.6,1.8-6.6,1.8s0.2,2.2,2.5,1.5
						l-1.4,1.1c0,0,0.2,1.8,2.2,0.8l-1.3,1.5c0,0,0.8,1.5,2.3,0.5C414.6,259.3,415.3,263.5,419.3,262.9z"/>
				</g>
				<path class="st55" d="M401.8,247.7c0,1.4-1.1,2.5-2.5,2.5c-1.4,0-2.5-1.1-2.5-2.5c0-1.4,1.1-2.5,2.5-2.5
					C400.7,245.3,401.8,246.4,401.8,247.7z"/>
				<path class="st28" d="M412,249.3l0.6-0.2l-1.7-5.8c-0.3-0.9-1-1.6-2-1.8c-5.4-1.1-19.7-1.4-20.3-1.4l0,0.6
					c0.1,0,14.8,0.2,20.1,1.4c0.7,0.1,1.3,0.7,1.5,1.4L412,249.3z"/>
			</g>
		</g>
	</g>
</g>
</svg>
