<svg width="19" height="13" viewBox="0 0 19 13" fill="none" xmlns="http://www.w3.org/2000/svg">
<path d="M13.3434 7.71746L11.9971 8.03441C11.7551 8.09177 11.5006 8.02081 11.3251 7.84579C11.1484 7.67187 11.0768 7.42037 11.1347 7.1799L11.4557 5.84592C11.4861 5.71759 11.5514 5.60214 11.646 5.50838L14.8963 2.28777V2.02929C14.8963 1.48106 14.703 0.980632 14.3906 0.614779C14.0666 0.235322 13.6165 0 13.1166 0H1.78082C1.28135 0 0.830853 0.23569 0.505785 0.614779C0.194447 0.980632 0 1.48106 0 2.02929V7.67996C0 8.22819 0.194447 8.72935 0.505785 9.09447C0.830853 9.47392 1.28097 9.70925 1.78082 9.70925H3.65404C3.66443 9.70925 3.67297 9.71035 3.67816 9.71329C3.68967 9.71954 3.70228 9.73315 3.7149 9.7519C3.73049 9.7747 3.74125 9.7997 3.74644 9.8258C3.75275 9.85596 3.75275 9.88831 3.74644 9.92177L3.34048 12.0805C3.31228 12.2368 3.32675 12.393 3.37944 12.5298C3.43511 12.6758 3.53196 12.8019 3.66332 12.8883C3.80433 12.9821 3.96316 13.0155 4.1179 12.9935C4.2693 12.9718 4.41142 12.8957 4.52386 12.7703L6.89359 10.1332C7.02384 9.98833 7.16411 9.88096 7.31328 9.8111C7.45949 9.74234 7.61831 9.70888 7.79198 9.70888H13.1155C13.615 9.70888 14.0655 9.47319 14.3894 9.0941C14.7019 8.72935 14.8952 8.22782 14.8952 7.67959V6.32686L13.6836 7.52847C13.5894 7.6215 13.4725 7.68621 13.3434 7.71746ZM9.57874 3.35334C9.57874 2.95734 9.74164 2.59663 10.0059 2.33594C10.269 2.07525 10.6319 1.91273 11.0326 1.91273C11.2271 1.91273 11.4167 1.95134 11.5922 2.02414C11.7659 2.09694 11.9266 2.20431 12.0657 2.34293C12.1815 2.45948 12.1804 2.64848 12.0616 2.76393C11.944 2.87976 11.7533 2.87755 11.6368 2.76099C11.5577 2.68194 11.4631 2.61833 11.3592 2.57531C11.2571 2.53266 11.1466 2.51059 11.033 2.51059C10.7996 2.51059 10.587 2.60546 10.4322 2.75768C10.2775 2.91101 10.1817 3.12133 10.1817 3.35297V3.40629C10.1817 3.63757 10.2775 3.84825 10.4322 4.00048C10.587 4.1538 10.7992 4.24867 11.033 4.24867C11.2668 4.24867 11.4791 4.1538 11.6327 4.00048C11.7306 3.90451 11.8041 3.78464 11.8461 3.65227H11.3158C11.1484 3.65227 11.0141 3.5177 11.0141 3.35334C11.0141 3.18862 11.1488 3.05404 11.3158 3.05404H12.1845C12.3507 3.05404 12.4865 3.18862 12.4865 3.35334V3.40666C12.4865 3.80266 12.3225 4.16226 12.0594 4.42406C11.7963 4.68475 11.4327 4.84617 11.0326 4.84617C10.6319 4.84617 10.269 4.68475 10.0059 4.42406C9.74164 4.16263 9.57874 3.80303 9.57874 3.40666V3.35334ZM6.38595 3.35334C6.38595 2.95734 6.54997 2.59663 6.81306 2.33594C7.07616 2.07525 7.43982 1.91273 7.83985 1.91273C8.24062 1.91273 8.60354 2.07525 8.86663 2.33594C9.13084 2.59663 9.29375 2.95697 9.29375 3.35334V3.40666C9.29375 3.80266 9.13084 4.16226 8.86663 4.42406C8.60354 4.68475 8.24062 4.84617 7.83985 4.84617C7.44019 4.84617 7.07616 4.68475 6.81306 4.42406C6.54997 4.16263 6.38595 3.80303 6.38595 3.40666V3.35334ZM4.86488 2.21203C4.86488 2.0473 4.99959 1.9131 5.16694 1.9131C5.33319 1.9131 5.46901 2.04767 5.46901 2.21203V4.24867H6.37779C6.54403 4.24867 6.67948 4.38214 6.67948 4.5476C6.67948 4.71233 6.54366 4.8458 6.37779 4.8458H5.16694C4.99959 4.8458 4.86488 4.71233 4.86488 4.5476V2.21203ZM2.41092 2.21203C2.41092 2.0473 2.54562 1.9131 2.71261 1.9131H3.50264C3.74756 1.9131 3.97058 2.01201 4.13274 2.17269C4.29379 2.33226 4.39361 2.55325 4.39361 2.79592C4.39361 2.96984 4.34203 3.13273 4.25371 3.26914C4.28192 3.2912 4.30938 3.3151 4.33461 3.3401C4.49566 3.50079 4.59548 3.72066 4.59548 3.96444C4.59548 4.20712 4.49566 4.42737 4.33461 4.58768C4.17245 4.74726 3.95054 4.84617 3.70451 4.84617H2.71298C2.54562 4.84617 2.41129 4.71269 2.41129 4.54797V2.21203H2.41092ZM10.4348 7.91565H2.71298C2.54562 7.91565 2.41129 7.78108 2.41129 7.61635C2.41129 7.45162 2.54599 7.31705 2.71298 7.31705H10.4348C10.6011 7.31705 10.7358 7.45162 10.7358 7.61635C10.7358 7.78108 10.6011 7.91565 10.4348 7.91565ZM10.8304 6.26876H2.71298C2.54562 6.26876 2.41129 6.13529 2.41129 5.96946C2.41129 5.80474 2.54599 5.67127 2.71298 5.67127H10.8304C10.9966 5.67127 11.1313 5.80474 11.1313 5.96946C11.1313 6.13529 10.9966 6.26876 10.8304 6.26876ZM3.50301 3.08162H3.01393V2.51133H3.50301C3.58205 2.51133 3.6533 2.54369 3.706 2.59479C3.75869 2.64701 3.79134 2.7176 3.79134 2.79592C3.79134 2.87424 3.75869 2.94484 3.706 2.99705C3.6533 3.04926 3.58168 3.08162 3.50301 3.08162ZM7.24018 4.00084C7.08544 3.84862 6.9897 3.6383 6.9897 3.40666V3.35334C6.9897 3.12206 7.08544 2.91138 7.24018 2.75805C7.39381 2.60583 7.60607 2.51096 7.83985 2.51096C8.07363 2.51096 8.28589 2.60583 8.44063 2.75805C8.59537 2.91138 8.69111 3.1217 8.69111 3.35334V3.40666C8.69111 3.63793 8.59537 3.84862 8.44063 4.00084C8.28589 4.15417 8.07363 4.24904 7.83985 4.24904C7.60607 4.24904 7.39381 4.1538 7.24018 4.00084ZM3.70488 4.24867H3.01393V3.67838H3.70488C3.78392 3.67838 3.85628 3.71074 3.90786 3.76295C3.96056 3.81406 3.99321 3.88576 3.99321 3.96408C3.99321 4.04129 3.96056 4.11299 3.90786 4.1641C3.85628 4.21631 3.78392 4.24867 3.70488 4.24867ZM16.6516 1.39171L17.8379 2.56759L13.661 6.70558L12.6984 5.75179L12.4754 5.53081L16.6516 1.39171ZM12.0409 5.98417C12.0438 5.97388 12.0472 5.96542 12.0513 5.95586L12.2709 6.17353L12.8075 6.70521L13.2313 7.12512C13.2228 7.12916 13.2135 7.13247 13.2027 7.13541L11.8564 7.45236C11.8175 7.46155 11.7785 7.45126 11.7503 7.42331C11.7221 7.395 11.7113 7.35676 11.721 7.31815L12.0409 5.98417ZM18.8573 1.55754L18.2639 2.14437L17.0783 0.969601L17.6717 0.381663C17.8609 0.193038 18.1723 0.193038 18.3626 0.381663L18.8569 0.871427C19.0476 1.06042 19.0476 1.36891 18.8573 1.55754Z" fill="#023ED6"/>
</svg>
