<svg width="16" height="15" viewBox="0 0 16 15" fill="none" xmlns="http://www.w3.org/2000/svg">
<path d="M10.1963 12.0031C5.47779 11.4662 5.59064 4.77396 10.2792 4.35892L10.2791 0.561357C10.2792 0.412976 10.2206 0.270599 10.1159 0.16539C10.0113 0.0601818 9.86924 0.000712519 9.72086 0H0.561354C0.412495 7.16878e-05 0.269754 0.0592376 0.164495 0.164497C0.0592361 0.269756 7.09326e-05 0.412498 0 0.561357V11.7147C7.09326e-05 11.8636 0.0592361 12.0063 0.164495 12.1116C0.269754 12.2168 0.412495 12.276 0.561354 12.2761H9.72086C9.81703 12.276 9.9115 12.2507 9.9949 12.2028C10.0783 12.1549 10.1477 12.0861 10.1963 12.0031ZM3.32516 1.20245H6.95705C7.0376 1.20368 7.11443 1.23654 7.17095 1.29393C7.22747 1.35133 7.25916 1.42865 7.25915 1.5092C7.25915 1.58976 7.22747 1.66708 7.17094 1.72447C7.11441 1.78186 7.03758 1.81472 6.95704 1.81595H3.32516C3.24479 1.81446 3.16822 1.78148 3.1119 1.72412C3.05559 1.66675 3.02405 1.58958 3.02405 1.5092C3.02405 1.42881 3.05559 1.35164 3.1119 1.29428C3.16822 1.23691 3.24479 1.20394 3.32516 1.20245ZM1.5092 3.10736H8.773C8.85354 3.10859 8.93037 3.14145 8.9869 3.19885C9.04342 3.25624 9.0751 3.33356 9.0751 3.41412C9.0751 3.49467 9.04341 3.57199 8.98689 3.62939C8.93036 3.68678 8.85353 3.71963 8.77298 3.72086H1.5092C1.42883 3.71937 1.35225 3.6864 1.29594 3.62903C1.23963 3.57167 1.20808 3.49449 1.20808 3.41411C1.20808 3.33373 1.23963 3.25655 1.29594 3.19919C1.35225 3.14183 1.42883 3.10885 1.5092 3.10736ZM5.94172 9.1687H1.5092C1.42867 9.16745 1.35186 9.13459 1.29535 9.0772C1.23885 9.0198 1.20718 8.9425 1.20718 8.86196C1.20718 8.78142 1.23885 8.70411 1.29535 8.64672C1.35186 8.58933 1.42867 8.55646 1.5092 8.55521H5.94172C6.02231 8.55636 6.09922 8.58918 6.15581 8.64659C6.2124 8.70399 6.24412 8.78136 6.24412 8.86196C6.24412 8.94257 6.2124 9.01993 6.15581 9.07734C6.09922 9.13474 6.02231 9.16755 5.94172 9.1687ZM6.01226 7.35274H1.5092C1.42865 7.35151 1.35182 7.31866 1.29529 7.26126C1.23877 7.20387 1.20709 7.12655 1.20709 7.04599C1.20709 6.96544 1.23877 6.88812 1.29529 6.83072C1.35182 6.77333 1.42865 6.74047 1.5092 6.73924H6.01226C6.09288 6.74037 6.16981 6.77318 6.22642 6.83059C6.28303 6.88799 6.31476 6.96538 6.31476 7.046C6.31476 7.12662 6.28303 7.204 6.22642 7.26141C6.16981 7.31881 6.09288 7.35161 6.01226 7.35274ZM6.38343 5.5368H1.5092C1.42865 5.53557 1.35182 5.50271 1.29529 5.44532C1.23877 5.38792 1.20709 5.3106 1.20709 5.23005C1.20709 5.14949 1.23877 5.07217 1.29529 5.01478C1.35182 4.95738 1.42865 4.92453 1.5092 4.9233H6.38343C6.46398 4.92453 6.54081 4.95738 6.59734 5.01478C6.65386 5.07217 6.68555 5.14949 6.68555 5.23005C6.68555 5.3106 6.65386 5.38792 6.59734 5.44532C6.54081 5.50271 6.46398 5.53557 6.38343 5.5368Z" fill="#023ED6"/>
<path d="M13.0031 5.25762V3.77909C13.0031 3.64052 12.9758 3.5033 12.9228 3.37527C12.8697 3.24724 12.792 3.13092 12.694 3.03293C12.596 2.93494 12.4797 2.85721 12.3517 2.80419C12.2237 2.75116 12.0864 2.72387 11.9479 2.72388H10.8926V4.36805C11.6702 4.44303 12.4064 4.75336 13.0031 5.25762Z" fill="#023ED6"/>
<path d="M7.93559 6.26682C7.4277 6.9534 7.21287 7.81339 7.33823 8.65816C7.46359 9.50292 7.91891 10.2635 8.6043 10.773C10.6872 12.3484 13.7762 10.797 13.7423 8.19009C13.7589 5.11886 9.77804 3.78528 7.93559 6.26682ZM8.34664 6.57357C8.59792 6.23161 8.92646 5.95389 9.30548 5.76304C9.6845 5.5722 10.1033 5.47364 10.5276 5.47541C10.609 5.47541 10.687 5.50772 10.7445 5.56525C10.802 5.62278 10.8344 5.7008 10.8344 5.78216C10.8344 5.86351 10.802 5.94153 10.7445 5.99906C10.687 6.05659 10.609 6.0889 10.5276 6.0889C10.1993 6.08729 9.87524 6.16344 9.58201 6.31113C9.28877 6.45882 9.03467 6.67384 8.8405 6.9386C8.7915 7.00247 8.71938 7.04455 8.63967 7.05578C8.55996 7.067 8.47902 7.04649 8.41429 6.99864C8.34955 6.95079 8.30619 6.87944 8.29354 6.79994C8.28089 6.72044 8.29995 6.63915 8.34664 6.57357Z" fill="#023ED6"/>
<path d="M12.4202 11.5183C11.9392 11.7919 11.4043 11.9573 10.8528 12.003C10.7906 12.2561 10.6452 12.4811 10.44 12.6418C10.2348 12.8025 9.98154 12.8898 9.72087 12.8895H2.72394V13.9447C2.72393 14.0833 2.75122 14.2205 2.80425 14.3485C2.85727 14.4766 2.935 14.5929 3.03299 14.6909C3.13097 14.7889 3.2473 14.8666 3.37533 14.9196C3.50336 14.9726 3.64058 14.9999 3.77915 14.9999H11.9479C12.0864 14.9999 12.2237 14.9726 12.3517 14.9196C12.4797 14.8666 12.596 14.7889 12.694 14.6909C12.792 14.5929 12.8697 14.4766 12.9228 14.3485C12.9758 14.2205 13.0031 14.0833 13.0031 13.9447V11.914L12.4632 11.4907C12.4501 11.5017 12.4357 11.5109 12.4202 11.5183Z" fill="#023ED6"/>
<path d="M15.592 10.856L14.0613 9.65967C13.9429 9.94739 13.7894 10.2194 13.6043 10.4695C13.4245 10.7102 13.2176 10.9295 12.9877 11.1229L13.4816 11.5094L13.5276 11.5462L14.5706 12.3621C14.659 12.4327 14.761 12.4844 14.8702 12.5139C14.9794 12.5435 15.0936 12.5503 15.2055 12.5339C15.9829 12.4253 16.2104 11.3001 15.592 10.856Z" fill="#023ED6"/>
</svg>
