<svg width="64" height="64" viewBox="0 0 64 64" fill="none" xmlns="http://www.w3.org/2000/svg">
<rect width="64" height="64" rx="20" fill="#EDEFFC"/>
<path d="M25.2145 15.7143L26.5717 13H18.2686L19.6257 15.7143H25.2145Z" fill="#023ED6"/>
<path d="M46.9286 45.949V44.2142C46.9286 43.8544 46.7854 43.5091 46.531 43.2546L44.2143 40.938V38.6314C43.5027 38.4828 42.8161 38.2315 42.1786 37.8552C41.9585 37.9851 41.7303 38.0949 41.5 38.1982V41.4999C41.5 41.8597 41.6431 42.205 41.8976 42.4594L44.2143 44.7761V45.949C43.4071 46.4198 42.8571 47.2854 42.8571 48.2856C42.8571 49.7826 44.0751 50.9999 45.5714 50.9999C47.0677 50.9999 48.2857 49.7826 48.2857 48.2856C48.2857 47.2854 47.7358 46.4198 46.9286 45.949Z" fill="#023ED6"/>
<path d="M40.1427 45.9492V38.6316C39.6988 38.7243 39.2474 38.7858 38.7856 38.7858C38.3238 38.7858 37.8723 38.7243 37.4284 38.6316V45.9492C36.6212 46.42 36.0713 47.2856 36.0713 48.2858C36.0713 49.7828 37.2893 51.0001 38.7856 51.0001C40.2819 51.0001 41.4999 49.7828 41.4999 48.2858C41.4999 47.2856 40.9499 46.42 40.1427 45.9492Z" fill="#023ED6"/>
<path d="M35.3933 37.8555C34.7558 38.2317 34.0692 38.483 33.3576 38.6316V40.9382L31.0409 43.2549C30.7864 43.5093 30.6433 43.8546 30.6433 44.2144V45.9492C29.8361 46.42 29.2861 47.2856 29.2861 48.2859C29.2861 49.7828 30.5041 51.0001 32.0004 51.0001C33.4967 51.0001 34.7147 49.7828 34.7147 48.2859C34.7147 47.2856 34.1648 46.42 33.3576 45.9492V44.7764L35.6742 42.4597C35.9287 42.2052 36.0718 41.86 36.0718 41.5001V38.1984C35.8416 38.0951 35.6134 37.9854 35.3933 37.8555Z" fill="#023ED6"/>
<path d="M25.2143 32C25.2143 28.5674 27.7762 25.7219 31.0882 25.2753C31.3113 24.6281 31.632 24.0339 32 23.4755V14.3571C32 13.6076 31.3924 13 30.6429 13H27.9286L26.2679 16.3212C26.0381 16.781 25.5681 17.0714 25.054 17.0714H19.7857C19.2716 17.0714 18.8017 16.781 18.5718 16.3212L16.9111 13H14.3571C13.6076 13 13 13.6076 13 14.3571V40.1429C13 40.8924 13.6076 41.5 14.3571 41.5H30.6429C31.3924 41.5 32 40.8924 32 40.1429V38.7857C28.2586 38.7857 25.2143 35.7414 25.2143 32ZM20.9441 34.5155L18.2298 37.2298C18.0972 37.3623 17.9236 37.4286 17.75 37.4286C17.5764 37.4286 17.4028 37.3623 17.2702 37.2298L15.9131 35.8726C15.648 35.6076 15.648 35.1782 15.9131 34.9131C16.1782 34.648 16.6076 34.648 16.8726 34.9131L17.75 35.7905L19.9845 33.5559C20.2496 33.2909 20.679 33.2909 20.9441 33.5559C21.2091 33.821 21.2091 34.2504 20.9441 34.5155ZM20.9441 27.7298L18.2298 30.4441C18.0972 30.5766 17.9236 30.6429 17.75 30.6429C17.5764 30.6429 17.4028 30.5766 17.2702 30.4441L15.9131 29.0869C15.648 28.8218 15.648 28.3924 15.9131 28.1274C16.1782 27.8623 16.6076 27.8623 16.8726 28.1274L17.75 29.0047L19.9845 26.7702C20.2496 26.5052 20.679 26.5052 20.9441 26.7702C21.2091 27.0353 21.2091 27.4647 20.9441 27.7298ZM20.9441 20.9441L18.2298 23.6583C18.0972 23.7909 17.9236 23.8571 17.75 23.8571C17.5764 23.8571 17.4028 23.7909 17.2702 23.6583L15.9131 22.3012C15.648 22.0361 15.648 21.6067 15.9131 21.3417C16.1782 21.0766 16.6076 21.0766 16.8726 21.3417L17.75 22.219L19.9845 19.9845C20.2496 19.7194 20.679 19.7194 20.9441 19.9845C21.2091 20.2496 21.2091 20.679 20.9441 20.9441Z" fill="#023ED6"/>
<path d="M45.5713 26.5714C45.5249 26.5714 45.482 26.5839 45.4359 26.5851C44.8121 23.4813 42.073 21.1428 38.7856 21.1428C35.4982 21.1428 32.759 23.4813 32.1353 26.5851C32.0892 26.5839 32.0462 26.5714 31.9999 26.5714C29.0017 26.5714 26.5713 29.0018 26.5713 32C26.5713 34.9981 29.0017 37.4285 31.9999 37.4285C33.291 37.4285 34.4609 36.959 35.3927 36.2063C36.3245 36.959 37.4945 37.4285 38.7856 37.4285C40.0767 37.4285 41.2466 36.959 42.1784 36.2063C43.1102 36.959 44.2802 37.4285 45.5713 37.4285C48.5694 37.4285 50.9999 34.9981 50.9999 32C50.9999 29.0018 48.5694 26.5714 45.5713 26.5714Z" fill="#023ED6"/>
</svg>
