<svg width="16" height="15" viewBox="0 0 16 15" fill="none" xmlns="http://www.w3.org/2000/svg">
<path fill-rule="evenodd" clip-rule="evenodd" d="M14.1424 6.39585V6.5888L13.2082 6.42551V6.21757L8.98273 5.41181L8.71607 5.36096V5.64025L7.78187 5.47696V5.18278L7.536 5.13588C7.73771 4.67258 7.84884 4.177 7.86373 3.67436L14.77 5.19635V6.51557L14.1423 6.39585H14.1424ZM11.3333 10.9705V15H13.3392V11.1609L11.3333 10.9705ZM10.8 10.9198L8.49493 10.7012V15H10.8V10.9198ZM7.1085 5.88443C6.56427 6.63845 5.77284 7.1919 4.8629 7.45478V15H7.9616V10.6469C7.81125 10.6169 7.67617 10.5376 7.57919 10.4223C7.4822 10.307 7.42926 10.1628 7.4293 10.014V9.45045C7.42932 9.35977 7.44904 9.2701 7.48718 9.18729C7.52531 9.10448 7.58101 9.03038 7.65065 8.96981C7.72029 8.90923 7.8023 8.86354 7.89136 8.83571C7.98042 8.80788 8.07453 8.79853 8.16757 8.80827L13.7545 9.39295C13.918 9.41 14.0692 9.48502 14.179 9.60359C14.2889 9.72215 14.3496 9.87589 14.3496 10.0352V10.5442C14.3496 10.6836 14.3032 10.8192 14.2172 10.9309C14.1312 11.0426 14.0103 11.1243 13.8724 11.164V15H16V7.43862C13.0362 6.92055 10.0723 6.40246 7.1085 5.88437V5.88443ZM11.7185 5.22868C11.7039 5.29561 11.7173 5.36544 11.7557 5.4228C11.7942 5.48016 11.8546 5.52036 11.9237 5.53456L13.3933 5.83672C13.4624 5.85091 13.5345 5.83794 13.5936 5.80064C13.6528 5.76335 13.6943 5.7048 13.709 5.63787C13.7236 5.57093 13.7102 5.5011 13.6717 5.44374C13.6333 5.38638 13.5728 5.34618 13.5038 5.33199L12.0341 5.02989C11.9999 5.02286 11.9646 5.02242 11.9303 5.02861C11.8959 5.0348 11.8631 5.04749 11.8338 5.06596C11.8045 5.08442 11.7792 5.1083 11.7594 5.13624C11.7397 5.16417 11.7257 5.1956 11.7185 5.22875V5.22868ZM10.1736 4.64723L8.4785 4.29878C8.40975 4.28538 8.33831 4.29881 8.27972 4.33615C8.22112 4.37349 8.1801 4.43173 8.16555 4.49822C8.15101 4.56471 8.16413 4.63407 8.20205 4.69124C8.23998 4.7484 8.29965 4.78876 8.3681 4.80354L10.0631 5.15196C10.1322 5.16616 10.2043 5.15318 10.2634 5.11588C10.3226 5.07859 10.3641 5.02004 10.3788 4.95311C10.3934 4.88618 10.38 4.81635 10.3415 4.75898C10.3031 4.70162 10.2426 4.66142 10.1736 4.64723ZM1.79193 14.0619V11.2566L1.41193 11.3394V13.9458L1.79193 14.0619ZM1.19883 10.8561L3.3745 10.3821C3.4745 10.3605 3.45257 10.2473 3.45257 10.1709V9.73678C3.45263 9.7218 3.4491 9.70702 3.44225 9.69358C3.4354 9.68015 3.42543 9.66845 3.41311 9.6594C3.40079 9.65035 3.38647 9.6442 3.37128 9.64143C3.35608 9.63866 3.34043 9.63936 3.32557 9.64346L1.15 10.2347C1.1289 10.2402 1.11028 10.2524 1.09706 10.2692C1.08385 10.2861 1.07678 10.3068 1.07697 10.328V10.7615C1.0769 10.7761 1.08023 10.7905 1.08671 10.8036C1.09319 10.8167 1.10264 10.8283 1.11436 10.8374C1.12609 10.8464 1.13978 10.8529 1.15442 10.8561C1.16906 10.8593 1.18426 10.8593 1.1989 10.8561H1.19883ZM3.0519 10.9821L2.32523 11.1403V14.2247L3.0519 14.4467V10.9823V10.9821ZM1.00593 9.73701C0.872809 9.773 0.75552 9.85027 0.672016 9.957C0.588512 10.0637 0.543394 10.194 0.543567 10.328V10.7615C0.54353 10.8727 0.574684 10.9818 0.633697 11.0772C0.692711 11.1726 0.777363 11.2506 0.8786 11.3029V13.7829L1.51605e-10 13.5145V8.69259L2.08127 7.32269C2.58449 7.52131 3.12278 7.62312 3.66613 7.62246C3.88827 7.62254 4.11007 7.60565 4.32947 7.57197V14.8371L3.58513 14.6097V10.8585C3.70336 10.8134 3.80482 10.7348 3.87629 10.633C3.94775 10.5311 3.98592 10.4108 3.9858 10.2876V9.73678C3.98583 9.64203 3.96322 9.54856 3.91974 9.46368C3.87626 9.37881 3.81309 9.30485 3.73518 9.24759C3.65728 9.19033 3.56675 9.15133 3.47069 9.13364C3.37463 9.11596 3.27565 9.12006 3.1815 9.14564L1.00583 9.73678L1.00593 9.73701ZM3.66613 1.46918e-10C4.39124 -6.38877e-06 5.10006 0.208359 5.70296 0.598748C6.30586 0.989136 6.77577 1.54401 7.05326 2.19321C7.33074 2.84241 7.40335 3.55677 7.26189 4.24596C7.12043 4.93514 6.77126 5.5682 6.25854 6.06508C5.74581 6.56195 5.09256 6.90033 4.38139 7.03741C3.67022 7.1745 2.93308 7.10414 2.26317 6.83523C1.59326 6.56632 1.02069 6.11094 0.617847 5.52667C0.215006 4.9424 -6.59256e-06 4.2555 1.51605e-10 3.55281C8.84056e-06 2.61055 0.386264 1.70688 1.0738 1.0406C1.76133 0.374324 2.69382 8.56728e-06 3.66613 1.46918e-10ZM5.48053 5.0902H2.71967C2.70054 5.0902 2.68219 5.08284 2.66866 5.06973C2.65513 5.05662 2.64753 5.03884 2.64753 5.0203C2.64753 5.00176 2.65513 4.98398 2.66866 4.97087C2.68219 4.95776 2.70054 4.95039 2.71967 4.95039L5.41557 4.94942C5.47606 4.9494 5.53473 4.92938 5.58189 4.89266C5.62905 4.85595 5.66187 4.80474 5.67493 4.7475L6.0651 3.0566C6.08395 2.97415 6.08348 2.88865 6.06372 2.80639C6.04397 2.72413 6.00544 2.64722 5.95096 2.5813C5.89648 2.51538 5.82744 2.46214 5.74893 2.4255C5.67041 2.38885 5.58441 2.36973 5.49727 2.36955H2.456L2.30177 1.70136C2.28871 1.64412 2.25589 1.59291 2.20873 1.55619C2.16157 1.51948 2.10289 1.49945 2.0424 1.49944L1.51767 1.49847C1.44694 1.49847 1.37911 1.5257 1.3291 1.57416C1.2791 1.62262 1.251 1.68835 1.251 1.75689C1.251 1.82543 1.2791 1.89116 1.3291 1.93963C1.37911 1.98809 1.44694 2.01532 1.51767 2.01532H1.83C2.02251 2.84957 2.215 3.68383 2.40747 4.51808C2.29418 4.58423 2.20637 4.68451 2.15747 4.8036C2.10856 4.92269 2.10125 5.05402 2.13666 5.17751C2.17206 5.301 2.24823 5.40985 2.35352 5.48743C2.4588 5.565 2.58741 5.60701 2.71967 5.60705H5.48053C5.55126 5.60705 5.61909 5.57982 5.6691 5.53136C5.71911 5.48289 5.7472 5.41716 5.7472 5.34862C5.7472 5.28009 5.71911 5.21435 5.6691 5.16589C5.61909 5.11743 5.55126 5.0902 5.48053 5.0902ZM2.93223 4.43355H5.203L5.54633 2.94558C5.54804 2.93845 5.54806 2.93105 5.54638 2.92392C5.5447 2.91679 5.54137 2.91013 5.53665 2.90443C5.53192 2.89873 5.52592 2.89414 5.5191 2.89102C5.51228 2.8879 5.50481 2.88632 5.49727 2.8864H2.57523L2.93223 4.43371V4.43355ZM8.083 10.1426C8.05 10.1396 8.01937 10.1247 7.9971 10.1009C7.97484 10.0772 7.96254 10.0462 7.96263 10.014V9.45045C7.96254 9.43228 7.96642 9.4143 7.97402 9.39769C7.98162 9.38108 7.99276 9.36622 8.00671 9.35408C8.02065 9.34194 8.0371 9.3328 8.05495 9.32727C8.07281 9.32173 8.09167 9.31992 8.1103 9.32195L13.6972 9.90692C13.73 9.91024 13.7603 9.92522 13.7822 9.94895C13.8042 9.97268 13.8163 10.0035 13.8162 10.0354V10.5444C13.8163 10.5624 13.8125 10.5803 13.805 10.5968C13.7975 10.6133 13.7865 10.6281 13.7727 10.6403C13.7589 10.6524 13.7426 10.6616 13.7249 10.6672C13.7072 10.6728 13.6885 10.6748 13.6699 10.673L8.083 10.1426Z" fill="black"/>
</svg>
