<svg width="53" height="53" viewBox="0 0 53 53" fill="none" xmlns="http://www.w3.org/2000/svg">
<rect x="0.5" y="0.5" width="52" height="52" rx="15.5" fill="#023ED6" stroke="#E9EFFF"/>
<path d="M40.2727 27.4233C39.6279 27.4233 39.0832 27.8388 38.8781 28.4138H28.8828V29.4042H38.8781C39.0832 29.9791 39.6279 30.3946 40.2727 30.3946C41.0917 30.3946 41.7583 29.728 41.7583 28.909C41.7583 28.0899 41.0917 27.4233 40.2727 27.4233Z" fill="white"/>
<path d="M40.2727 32.3754C39.6279 32.3754 39.0832 32.7909 38.8781 33.3658H36.516L33.5447 30.3945H28.8828V31.385H33.1347L36.106 34.3562H38.8781C39.0832 34.9312 39.6279 35.3466 40.2727 35.3466C41.0917 35.3466 41.7583 34.6801 41.7583 33.861C41.7583 33.0419 41.0917 32.3754 40.2727 32.3754Z" fill="white"/>
<path d="M36.106 23.4616L33.1347 26.4329H28.8828V27.4233H33.5447L36.516 24.452H38.8781C39.0832 25.027 39.6279 25.4425 40.2727 25.4425C41.0917 25.4425 41.7583 24.7759 41.7583 23.9568C41.7583 23.1377 41.0917 22.4712 40.2727 22.4712C39.6279 22.4712 39.0832 22.8867 38.8781 23.4616H36.106Z" fill="white"/>
<path d="M26.9268 18.0142C26.9911 18.7223 27.1927 19.3904 27.5032 19.995H29.591C29.4796 19.3824 29.4112 18.7169 29.3884 18.0142H26.9268Z" fill="white"/>
<path d="M30.5101 12.3979C29.582 12.7327 28.7679 13.3062 28.1504 14.0524H29.8207C30.0035 13.4112 30.2357 12.853 30.5101 12.3979Z" fill="white"/>
<path d="M27.5032 15.043C27.1932 15.6476 26.9911 16.3157 26.9268 17.0238H29.3884C29.4112 16.3211 29.4796 15.6555 29.591 15.043H27.5032Z" fill="white"/>
<path d="M27.7787 12.9919C27.5529 12.4467 27.0122 12.0718 26.407 12.0718H13.5315C12.7125 12.0718 12.0459 12.7383 12.0459 13.5574V15.043H26.4085C26.7309 14.272 27.1993 13.5772 27.7787 12.9919ZM13.5315 14.0526C13.2582 14.0526 13.0363 13.8308 13.0363 13.5574C13.0363 13.2841 13.2582 13.0622 13.5315 13.0622C13.8049 13.0622 14.0267 13.2841 14.0267 13.5574C14.0267 13.8308 13.8049 14.0526 13.5315 14.0526ZM22.9405 14.0526H16.998V13.0622H22.9405V14.0526Z" fill="white"/>
<path d="M36.5486 14.0524C35.9316 13.3062 35.117 12.7327 34.1895 12.3979C34.4633 12.853 34.6956 13.4112 34.8778 14.0524H36.5486Z" fill="white"/>
<path d="M13.5315 39.8035C12.9719 39.8035 12.4609 39.6099 12.0459 39.2954V39.3083C12.0459 40.1274 12.7125 40.7939 13.5315 40.7939H26.407C27.2261 40.7939 27.8926 40.1274 27.8926 39.3083V39.2954C27.4777 39.6099 26.9666 39.8035 26.407 39.8035H13.5315Z" fill="white"/>
<path d="M35.308 17.0238H37.7697C37.7053 16.3157 37.5038 15.6476 37.1933 15.043H35.1055C35.2169 15.6555 35.2857 16.3211 35.308 17.0238Z" fill="white"/>
<path d="M32.3485 12.0718C31.8161 12.0718 31.2491 12.828 30.8584 14.0526H33.8391C33.4479 12.828 32.8808 12.0718 32.3485 12.0718Z" fill="white"/>
<path d="M34.3188 17.0238C34.2931 16.3072 34.2114 15.6417 34.091 15.043H30.6057C30.4849 15.6417 30.4037 16.3072 30.3779 17.0238H34.3188Z" fill="white"/>
<path d="M34.1875 22.6401C35.1155 22.3058 35.9297 21.7319 36.5467 20.9856H34.8763C34.6941 21.6269 34.4618 22.185 34.1875 22.6401Z" fill="white"/>
<path d="M29.8207 20.9856H28.1504C28.7674 21.7319 29.582 22.3053 30.5096 22.6401C30.2352 22.185 30.003 21.6269 29.8207 20.9856Z" fill="white"/>
<path d="M26.0916 16.0334H12.0459V37.3275C12.0459 38.1466 12.7125 38.8131 13.5315 38.8131H26.407C27.2261 38.8131 27.8926 38.1466 27.8926 37.3275V22.1538C26.6744 20.9816 25.9118 19.339 25.9118 17.5191C25.9118 17.007 25.9782 16.5113 26.0916 16.0334ZM19.9341 30.8898C19.273 30.8898 18.651 31.1478 18.1835 31.6152L17.4833 30.915C18.1375 30.2604 19.0081 29.8993 19.9341 29.8993C20.8602 29.8993 21.7307 30.2604 22.3854 30.915L21.6852 31.6152C21.2177 31.1478 20.5957 30.8898 19.9341 30.8898ZM21.4197 33.3658C21.4197 34.1849 20.7532 34.8514 19.9341 34.8514C19.115 34.8514 18.4485 34.1849 18.4485 33.3658C18.4485 32.5467 19.115 31.8802 19.9341 31.8802C20.7532 31.8802 21.4197 32.5467 21.4197 33.3658ZM22.9405 37.8227H17.9884V36.8323H22.9405V37.8227ZM23.0856 30.2143C21.3474 28.4761 18.5203 28.4761 16.7821 30.2143L16.0819 29.5141C18.2058 27.3901 21.6619 27.3901 23.7859 29.5141L23.0856 30.2143ZM26.9022 23.9568C26.9022 25.5955 25.5696 26.9281 23.931 26.9281H16.0076C14.3689 26.9281 13.0363 25.5955 13.0363 23.9568C13.0363 22.5935 13.9445 21.4372 15.238 21.0955C15.8298 19.2662 17.5284 18.0143 19.4741 18.0143C21.393 18.0143 23.0604 19.2201 23.6784 20.9984C23.7646 20.99 23.8483 20.9856 23.931 20.9856C25.5696 20.9856 26.9022 22.3182 26.9022 23.9568Z" fill="white"/>
<path d="M30.6057 19.995H34.091C34.2119 19.3963 34.2931 18.7307 34.3188 18.0142H30.3779C30.4037 18.7307 30.4849 19.3963 30.6057 19.995Z" fill="white"/>
<path d="M23.4468 22.0437L22.959 22.1666L22.8441 21.6768C22.4747 20.1035 21.0881 19.0046 19.4727 19.0046C17.8771 19.0046 16.495 20.0877 16.1117 21.6372L16.0325 21.9576L15.7061 22.0076C14.7321 22.1567 14.0254 22.9767 14.0254 23.9567C14.0254 25.0492 14.9138 25.9376 16.0062 25.9376H23.9296C25.022 25.9376 25.9104 25.0492 25.9104 23.9567C25.9104 22.8643 25.022 21.9759 23.9296 21.9759C23.7835 21.9759 23.6305 21.9972 23.4468 22.0437Z" fill="white"/>
<path d="M32.348 22.9664C32.8804 22.9664 33.4474 22.2103 33.8381 20.9856H30.8574C31.2486 22.2103 31.8157 22.9664 32.348 22.9664Z" fill="white"/>
<path d="M37.7697 18.0142H35.308C35.2852 18.7169 35.2169 19.3824 35.1055 19.995H37.1933C37.5038 19.3904 37.7058 18.7223 37.7697 18.0142Z" fill="white"/>
</svg>
