<svg width="64" height="64" viewBox="0 0 64 64" fill="none" xmlns="http://www.w3.org/2000/svg">
<rect width="64" height="64" rx="20" fill="#EDEFFC"/>
<path fill-rule="evenodd" clip-rule="evenodd" d="M20.4942 18.1577C22.0018 18.1577 23.224 19.361 23.224 20.8453C23.224 22.3296 22.0019 23.5329 20.4942 23.5329C18.9866 23.5329 17.7645 22.3297 17.7645 20.8453C17.7645 19.361 18.9866 18.1577 20.4942 18.1577ZM41.0522 31.2521C40.4282 26.8794 36.6135 23.5148 32 23.5148C27.3866 23.5148 23.5719 26.8793 22.9478 31.2521H28.7107L30.147 28.8028C30.2548 28.5709 30.4925 28.4098 30.7684 28.4098H35.3365V28.4105C35.468 28.4104 35.6009 28.4476 35.7181 28.5254C36.0306 28.7329 36.113 29.1505 35.9022 29.4581L34.6728 31.2521H41.0522ZM32 13C34.1015 13 35.8051 14.6772 35.8051 16.7462C35.8051 18.8152 34.1015 20.4923 32 20.4923C29.8986 20.4923 28.195 18.8151 28.195 16.7462C28.1951 14.6772 29.8987 13 32 13ZM43.5059 25.7012C46.8156 25.7012 49.5523 28.115 50 31.2521H42.4316L42.4049 31.065C42.158 29.3348 41.4822 27.7545 40.493 26.4214C41.3953 25.9613 42.4197 25.7012 43.5059 25.7012ZM43.5059 18.1577C45.0135 18.1577 46.2357 19.361 46.2357 20.8453C46.2357 22.3296 45.0135 23.5329 43.5059 23.5329C41.9983 23.5329 40.7762 22.3297 40.7762 20.8453C40.7762 19.361 41.9983 18.1577 43.5059 18.1577ZM49.317 36.1686V34.6233H43.2624C43.0926 37.423 41.8697 39.9434 39.9782 41.8056C37.9364 43.8158 35.1156 45.0592 32 45.0592C28.8845 45.0592 26.0637 43.8158 24.0219 41.8056C22.1304 39.9434 20.9075 37.423 20.7377 34.6233H14.6831V36.1686H16.8545V36.1697C17.1755 36.1694 17.4618 36.3932 17.5243 36.715C17.7144 37.686 18.0012 38.6205 18.3747 39.5079C18.7495 40.3988 19.2158 41.2496 19.7629 42.0493C19.9623 42.3126 19.9406 42.687 19.6978 42.9262L18.1621 44.4381L21.3481 47.5748L22.8837 46.0629L22.8841 46.0633C23.1104 45.84 23.4728 45.7985 23.7483 45.9814C24.5682 46.5275 25.4413 46.9925 26.3561 47.3656C27.2455 47.7284 28.1815 48.0082 29.1538 48.1953C29.4887 48.2385 29.7473 48.5206 29.7473 48.8621V51H34.2527V48.8622H34.2538C34.2535 48.5461 34.4808 48.2643 34.8078 48.2027C35.794 48.0156 36.7432 47.7331 37.6445 47.3655C38.5493 46.9965 39.4135 46.5374 40.2257 45.9987C40.4932 45.8023 40.8735 45.8237 41.1164 46.0629L42.652 47.5748L45.838 44.4381L44.3023 42.9262L44.3027 42.9258C44.0759 42.703 44.0337 42.3462 44.2196 42.075C44.7743 41.2677 45.2465 40.4081 45.6255 39.5075C45.994 38.6318 46.2782 37.7103 46.4682 36.753C46.5121 36.4232 46.7986 36.1686 47.1455 36.1686H49.317ZM30.7684 29.0824H35.3366L32 33.9508H37.2541L29.9777 41.9864L32 35.9418H26.7459L30.7684 29.0824ZM20.4942 25.7012C21.5804 25.7012 22.6049 25.9612 23.507 26.4214C22.5178 27.7545 21.842 29.3348 21.5951 31.065L21.5684 31.2521H14C14.4477 28.1151 17.1844 25.7012 20.4942 25.7012Z" fill="#023ED6"/>
</svg>
