<svg width="14" height="17" viewBox="0 0 14 17" fill="none" xmlns="http://www.w3.org/2000/svg">
<path d="M5.02124 13.3996C4.95193 13.2924 4.90572 13.2388 4.88262 13.17C4.744 12.8102 4.61307 12.4428 4.48215 12.0754C3.91225 10.5062 2.84177 9.44992 1.2707 8.88349C0.901038 8.75337 0.531375 8.62324 0.169413 8.48547C0.100101 8.4625 0.0615943 8.38596 -1.62125e-05 8.33238C0.053893 8.28645 0.100101 8.21756 0.161711 8.1946C0.73931 7.96497 1.34771 7.78892 1.90221 7.52101C3.15752 6.91631 3.99697 5.92124 4.46675 4.62765C4.59767 4.26024 4.72859 3.88517 4.87492 3.51776C4.89802 3.44887 4.97504 3.4106 5.02894 3.34937C5.07515 3.40295 5.14446 3.44887 5.16757 3.51011C5.3524 3.99999 5.51413 4.50518 5.72206 4.98741C6.31506 6.34223 7.32394 7.26076 8.71018 7.77361C9.09524 7.91904 9.48801 8.04916 9.88078 8.1946C9.95009 8.21756 9.9963 8.29411 10.0502 8.34769C9.9963 8.39361 9.95009 8.4625 9.88078 8.48547C9.37249 8.67683 8.8488 8.83757 8.34821 9.05955C7.00818 9.64893 6.09173 10.6517 5.58344 12.0218C5.44482 12.4122 5.30619 12.7949 5.15987 13.1853C5.13676 13.2465 5.08285 13.3001 5.00584 13.3996H5.02124Z" fill="#023ED6"/>
<path d="M8.04781 2.64368C8.65582 2.40922 9.28784 2.23136 9.76785 1.74628C10.2479 1.2612 10.4319 0.622517 10.6559 0C10.6719 0 10.6959 0 10.7119 0C10.7359 0.0404232 10.7679 0.0808464 10.7919 0.129354C10.8639 0.315301 10.9279 0.509332 10.9919 0.695279C11.2959 1.528 11.8639 2.09392 12.6879 2.39305C12.8559 2.45773 13.0319 2.51432 13.1999 2.579C13.2559 2.60325 13.3039 2.62751 13.3999 2.6841C13.2959 2.74069 13.2399 2.77303 13.1759 2.79729C12.9439 2.88622 12.7039 2.95898 12.4719 3.05599C11.7999 3.35513 11.3199 3.84021 11.0399 4.53548C10.9439 4.76994 10.8719 5.01248 10.7759 5.24693C10.7599 5.28736 10.7199 5.31969 10.6879 5.36012C10.6559 5.32778 10.6159 5.29544 10.5999 5.25502C10.5199 5.04482 10.4479 4.82653 10.3679 4.61633C10.0719 3.84021 9.53584 3.29853 8.75983 3.00749C8.57582 2.93473 8.38382 2.87005 8.19981 2.79729C8.14381 2.77303 8.09581 2.74878 8.03981 2.72452C8.03981 2.70027 8.03981 2.67602 8.03981 2.65176L8.04781 2.64368Z" fill="#023ED6"/>
<path d="M13.3999 14.0985C12.7919 14.3491 12.1519 14.5189 11.6639 15.0121C11.1839 15.4971 11.0079 16.1358 10.7759 16.7503C10.7519 16.7503 10.7359 16.7503 10.7119 16.7422C10.6879 16.6937 10.6559 16.6371 10.6319 16.5886C10.5599 16.3864 10.4879 16.1843 10.4159 15.9822C10.1199 15.2061 9.59184 14.6725 8.82383 14.3815C8.63182 14.3087 8.43982 14.2359 8.24781 14.1632C8.19181 14.1389 8.14381 14.1147 8.03981 14.0662C8.12781 14.0176 8.16781 13.9853 8.21581 13.9691C8.42382 13.8883 8.62382 13.8236 8.83183 13.7428C9.59184 13.4517 10.1199 12.9181 10.4159 12.1501C10.4959 11.9399 10.5679 11.7216 10.6479 11.5114C10.6639 11.4629 10.7119 11.4306 10.7439 11.3901C10.7759 11.4306 10.8079 11.4629 10.8239 11.5033C10.8879 11.6812 10.9519 11.859 11.0159 12.0369C11.3199 12.8939 11.8959 13.476 12.7439 13.7751C12.9119 13.8317 13.0719 13.8964 13.2399 13.953C13.2959 13.9772 13.3439 14.0096 13.3919 14.0338C13.3919 14.05 13.3919 14.0742 13.3919 14.0904L13.3999 14.0985Z" fill="#023ED6"/>
</svg>
