<svg width="14" height="17" viewBox="0 0 14 17" fill="none" xmlns="http://www.w3.org/2000/svg">
<path d="M5.02124 13.4797C4.95193 13.3725 4.90573 13.3189 4.88262 13.25C4.744 12.8903 4.61307 12.5229 4.48215 12.1555C3.91225 10.5863 2.84177 9.53 1.2707 8.96357C0.901039 8.83345 0.531376 8.70332 0.169414 8.56554C0.100102 8.54258 0.0615953 8.46604 -1.52588e-05 8.41246C0.053894 8.36653 0.100102 8.29764 0.161712 8.27468C0.739311 8.04504 1.34772 7.86899 1.90221 7.60109C3.15753 6.99639 3.99697 6.00132 4.46675 4.70773C4.59767 4.34032 4.72859 3.96525 4.87492 3.59784C4.89802 3.52895 4.97504 3.49068 5.02895 3.42944C5.07515 3.48302 5.14447 3.52895 5.16757 3.59019C5.3524 4.08007 5.51413 4.58526 5.72206 5.06748C6.31507 6.42231 7.32394 7.34084 8.71018 7.85368C9.09524 7.99912 9.48801 8.12924 9.88078 8.27468C9.95009 8.29764 9.9963 8.37418 10.0502 8.42776C9.9963 8.47369 9.95009 8.54258 9.88078 8.56554C9.37249 8.7569 8.8488 8.91765 8.34821 9.13962C7.00818 9.72901 6.09173 10.7317 5.58344 12.1019C5.44482 12.4922 5.30619 12.875 5.15987 13.2653C5.13676 13.3266 5.08286 13.3802 5.00584 13.4797H5.02124Z" fill="#1B1B1B"/>
<path d="M8.04781 2.72376C8.65582 2.4893 9.28784 2.31144 9.76785 1.82636C10.2479 1.34128 10.4319 0.702596 10.6559 0.0800781C10.6719 0.0800781 10.6959 0.0800781 10.7119 0.0800781C10.7359 0.120501 10.7679 0.160925 10.7919 0.209432C10.8639 0.395379 10.9279 0.589411 10.9919 0.775357C11.2959 1.60808 11.8639 2.174 12.6879 2.47313C12.8559 2.53781 13.0319 2.5944 13.1999 2.65908C13.2559 2.68333 13.3039 2.70759 13.3999 2.76418C13.2959 2.82077 13.2399 2.85311 13.1759 2.87736C12.9439 2.9663 12.7039 3.03906 12.4719 3.13607C11.7999 3.4352 11.3199 3.92028 11.0399 4.61556C10.9439 4.85002 10.8719 5.09256 10.7759 5.32701C10.7599 5.36743 10.7199 5.39977 10.6879 5.4402C10.6559 5.40786 10.6159 5.37552 10.5999 5.3351C10.5199 5.1249 10.4479 4.90661 10.3679 4.69641C10.0719 3.92028 9.53584 3.37861 8.75983 3.08757C8.57582 3.0148 8.38382 2.95013 8.19981 2.87736C8.14381 2.85311 8.09581 2.82886 8.03981 2.8046C8.03981 2.78035 8.03981 2.75609 8.03981 2.73184L8.04781 2.72376Z" fill="#1B1B1B"/>
<path d="M13.3999 14.1786C12.7919 14.4292 12.1519 14.599 11.6639 15.0921C11.1839 15.5772 11.0079 16.2159 10.7759 16.8303C10.7519 16.8303 10.7359 16.8303 10.7119 16.8222C10.6879 16.7737 10.6559 16.7171 10.6319 16.6686C10.5599 16.4665 10.4879 16.2644 10.4159 16.0623C10.1199 15.2862 9.59184 14.7526 8.82383 14.4615C8.63182 14.3888 8.43982 14.316 8.24781 14.2432C8.19181 14.219 8.14381 14.1947 8.03981 14.1462C8.12781 14.0977 8.16781 14.0654 8.21581 14.0492C8.42382 13.9684 8.62382 13.9037 8.83183 13.8228C9.59184 13.5318 10.1199 12.9982 10.4159 12.2302C10.4959 12.02 10.5679 11.8017 10.6479 11.5915C10.6639 11.543 10.7119 11.5106 10.7439 11.4702C10.7759 11.5106 10.8079 11.543 10.8239 11.5834C10.8879 11.7613 10.9519 11.9391 11.0159 12.117C11.3199 12.974 11.8959 13.5561 12.7439 13.8552C12.9119 13.9118 13.0719 13.9765 13.2399 14.033C13.2959 14.0573 13.3439 14.0896 13.3919 14.1139C13.3919 14.1301 13.3919 14.1543 13.3919 14.1705L13.3999 14.1786Z" fill="#1B1B1B"/>
</svg>
