<svg width="39" height="39" viewBox="0 0 39 39" fill="none" xmlns="http://www.w3.org/2000/svg">
<path fill-rule="evenodd" clip-rule="evenodd" d="M11.5183 15.8329L12.3721 9.95315H5.23064L19.4725 0L33.7143 9.95315H26.5728L27.4266 15.8329C26.9308 15.6133 26.3527 15.6033 25.8364 15.8294L24.8222 16.2736C24.3214 16.027 23.8038 15.8158 23.2731 15.6412L22.8748 14.6203C22.5857 13.8792 21.8631 13.3902 21.0571 13.3902H17.891C17.0861 13.3902 16.364 13.878 16.0743 14.6177L15.6736 15.6407C15.1422 15.8154 14.6242 16.0268 14.1227 16.2736C13.6669 16.074 13.1086 15.8294 13.1086 15.8294C12.5922 15.6033 12.0141 15.6133 11.5183 15.8329ZM3.08331 18.1539C2.83349 18.711 2.26749 19.1003 1.60981 19.1003C0.721294 19.1003 0 18.3897 0 17.5145C0 16.6393 0.721294 15.9288 1.60981 15.9288C2.26749 15.9288 2.83349 16.3181 3.08331 16.8752H6.96093C7.09992 16.8752 7.23525 16.9191 7.34697 17.0006L10.0156 18.9452L11.8585 17.13C12.0484 16.9429 12.3357 16.8904 12.5812 16.9978C12.5812 16.9978 14.175 17.6959 14.1749 17.6959C14.9563 17.2555 15.7893 16.9156 16.6567 16.683L17.2854 15.0781C17.382 14.8315 17.6227 14.6689 17.891 14.6689H21.0571C21.3258 14.6689 21.5667 14.8319 21.6631 15.0789L22.2888 16.6831C23.156 16.9158 23.9888 17.2556 24.77 17.6959L26.3637 16.9978C26.6092 16.8904 26.8965 16.9429 27.0864 17.13L28.9293 18.9452L31.598 17.0006C31.7097 16.9191 31.8451 16.8752 31.9841 16.8752H35.9167C36.1665 16.3181 36.7325 15.9288 37.3902 15.9288C38.2787 15.9288 39 16.6393 39 17.5145C39 18.3897 38.2787 19.1003 37.3902 19.1003C36.7325 19.1003 36.1665 18.711 35.9167 18.1539H32.198L29.3898 20.2002C29.2117 20.5962 28.7532 21.6159 28.7531 21.6159C29.2005 22.3858 29.5457 23.2069 29.782 24.0638L31.4074 24.68C31.658 24.775 31.8233 25.0122 31.8233 25.2766V26.1951H35.9167C36.1665 25.6379 36.7325 25.2487 37.3902 25.2487C38.2787 25.2487 39 25.9593 39 26.8345C39 27.7096 38.2787 28.4201 37.3902 28.4201C36.7325 28.4201 36.1665 28.0309 35.9167 27.4738H31.8233V28.3954C31.8233 28.6598 31.658 28.897 31.4074 28.992C31.4074 28.992 29.7816 29.6084 29.7816 29.6083C29.545 30.4625 29.1981 31.2828 28.7528 32.0522L29.3898 33.4686L32.198 35.515H35.9167C36.1665 34.9579 36.7325 34.5686 37.3902 34.5686C38.2787 34.5686 39 35.2792 39 36.1544C39 37.0295 38.2787 37.7401 37.3902 37.7401C36.7325 37.7401 36.1665 37.3508 35.9167 36.7937H31.9841C31.8451 36.7937 31.7097 36.7497 31.598 36.6683L28.9293 34.7237L27.0864 36.5389C26.8967 36.7258 26.6099 36.7784 26.3646 36.6713C26.3646 36.6713 24.7709 35.9761 24.771 35.9761C23.9913 36.4164 23.1564 36.7564 22.2886 36.989L21.6629 38.5903C21.5664 38.8371 21.3257 39 21.0571 39H17.891C17.6224 39 17.3816 38.8371 17.2852 38.5903C17.2852 38.5903 16.6596 36.9891 16.6596 36.9892C15.7899 36.7561 14.9566 36.4143 14.1752 35.9755L12.5804 36.6713C12.3351 36.7784 12.0482 36.7258 11.8585 36.5389L10.0156 34.7237L7.34697 36.6683C7.23525 36.7497 7.09992 36.7937 6.96093 36.7937H3.08331C2.83349 37.3508 2.26749 37.7401 1.60981 37.7401C0.721294 37.7401 0 37.0295 0 36.1544C0 35.2792 0.721294 34.5686 1.60981 34.5686C2.26749 34.5686 2.83349 34.9579 3.08331 35.515H6.7469L9.55556 33.4683C9.73406 33.073 10.1945 32.0529 10.1945 32.053C9.74761 31.2853 9.40238 30.4632 9.16424 29.6087L7.53756 28.992C7.28693 28.897 7.12158 28.6598 7.12158 28.3954V27.4738H3.08331C2.83349 28.0309 2.26749 28.4201 1.60981 28.4201C0.721294 28.4201 0 27.7096 0 26.8345C0 25.9593 0.721294 25.2487 1.60981 25.2487C2.26749 25.2487 2.83349 25.6379 3.08331 26.1951H7.12158V25.2766C7.12158 25.0122 7.28693 24.775 7.53756 24.68C7.53756 24.68 9.164 24.0634 9.16392 24.0635C9.40221 23.2068 9.74753 22.3861 10.1947 21.6164L9.55556 20.2006L6.7469 18.1539H3.08331ZM19.4719 19.5328C15.3764 19.5328 12.0596 22.7998 12.0596 26.8339C12.0596 30.868 15.3764 34.1391 19.4719 34.1391C23.5675 34.1391 26.8884 30.868 26.8884 26.8339C26.8884 22.7998 23.5675 19.5328 19.4719 19.5328ZM16.2821 25.5895H14.5907C14.2325 25.5895 13.9417 25.3031 13.9417 24.9502C13.9417 24.5973 14.2325 24.3108 14.5907 24.3108H16.2821V24.0683C16.2821 23.9685 16.3223 23.8727 16.394 23.8021C16.4656 23.7316 16.5628 23.6919 16.6642 23.6919H16.9104V22.026C16.9104 21.6731 17.2013 21.3866 17.5595 21.3866C17.9178 21.3866 18.2086 21.6731 18.2086 22.026V23.6919H18.8234V22.026C18.8234 21.6731 19.1142 21.3866 19.4725 21.3866C19.8307 21.3866 20.1216 21.6731 20.1216 22.026V23.6919H20.7363V22.026C20.7363 21.6731 21.0272 21.3866 21.3854 21.3866C21.7436 21.3866 22.0345 21.6731 22.0345 22.026V23.6919H22.2808C22.3822 23.6919 22.4793 23.7316 22.5509 23.8021C22.6227 23.8727 22.6629 23.9685 22.6629 24.0683V24.3108H24.3542C24.7124 24.3108 25.0033 24.5973 25.0033 24.9502C25.0033 25.3031 24.7124 25.5895 24.3542 25.5895H22.6629V26.1951H24.3542C24.7124 26.1951 25.0033 26.4816 25.0033 26.8345C25.0033 27.1873 24.7124 27.4738 24.3542 27.4738H22.6629V28.0794H24.3542C24.7124 28.0794 25.0033 28.3658 25.0033 28.7187C25.0033 29.0715 24.7124 29.358 24.3542 29.358H22.6629V29.6006C22.6629 29.7004 22.6227 29.7962 22.5509 29.8667C22.4793 29.9373 22.3822 29.977 22.2808 29.977H22.0345V31.6429C22.0345 31.9957 21.7436 32.2822 21.3854 32.2822C21.0272 32.2822 20.7363 31.9957 20.7363 31.6429V29.977H20.1216V31.6429C20.1216 31.9957 19.8307 32.2822 19.4725 32.2822C19.1142 32.2822 18.8234 31.9957 18.8234 31.6429V29.977H18.2086V31.6429C18.2086 31.9957 17.9178 32.2822 17.5595 32.2822C17.2013 32.2822 16.9104 31.9957 16.9104 31.6429V29.977H16.6642C16.5628 29.977 16.4656 29.9373 16.394 29.8667C16.3223 29.7962 16.2821 29.7004 16.2821 29.6006V29.358H14.5907C14.2325 29.358 13.9417 29.0715 13.9417 28.7187C13.9417 28.3658 14.2325 28.0794 14.5907 28.0794H16.2821V27.4738H14.5907C14.2325 27.4738 13.9417 27.1873 13.9417 26.8345C13.9417 26.4816 14.2325 26.1951 14.5907 26.1951H16.2821V25.5895Z" fill="#E29400"/>
</svg>
