<svg width="64" height="64" viewBox="0 0 64 64" fill="none" xmlns="http://www.w3.org/2000/svg">
<rect width="64" height="64" rx="20" fill="#EDEEFC"/>
<path d="M43.4621 34.0337C43.1808 34.0331 42.902 33.981 42.6395 33.8801C42.1799 34.1085 41.7075 34.3099 41.2245 34.4834C41.0451 34.8839 40.7531 35.2236 40.3841 35.4612C40.015 35.6988 39.5849 35.8239 39.146 35.8215H37.8408C37.401 35.8218 36.9706 35.6944 36.6016 35.455C36.2327 35.2155 35.9412 34.8742 35.7623 34.4724C35.2697 34.3196 34.7923 34.1213 34.3364 33.8801C33.9256 34.0387 33.4773 34.0739 33.0467 33.9814C32.6161 33.8888 32.2219 33.6725 31.9124 33.3591L30.9966 32.4378C30.6791 32.1286 30.4606 31.7322 30.3688 31.2986C30.277 30.8651 30.3161 30.4141 30.4811 30.0028C30.2449 29.5481 30.0415 29.0771 29.8723 28.5934C29.4714 28.4145 29.1312 28.1227 28.8936 27.7535C28.6559 27.3843 28.531 26.9539 28.5342 26.5149V25.2097C28.5325 24.7717 28.6574 24.3425 28.8938 23.9738C29.1302 23.6051 29.4681 23.3125 29.8668 23.1312C30.0447 22.6492 30.2479 22.1769 30.4756 21.7163C30.3139 21.3066 30.2757 20.8586 30.3659 20.4275H18.2898C17.8535 20.4278 17.4353 20.6013 17.1268 20.9098C16.8183 21.2182 16.6449 21.6365 16.6445 22.0727V38.5801C16.6449 39.0163 16.8183 39.4346 17.1268 39.7431C17.4353 40.0515 17.8535 40.225 18.2898 40.2253H44.1531C44.5893 40.225 45.0076 40.0515 45.3161 39.7431C45.6246 39.4346 45.798 39.0163 45.7983 38.5801V32.6352C45.1736 33.2797 44.4422 34.0955 43.4621 34.0337ZM22.2932 35.2347C22.3684 35.3122 22.4191 35.4101 22.4393 35.5162C22.4595 35.6222 22.4482 35.7319 22.4068 35.8316C22.3654 35.9313 22.2957 36.0167 22.2063 36.0773C22.117 36.1379 22.0118 36.171 21.9038 36.1725C21.8312 36.1724 21.7594 36.1578 21.6925 36.1296C21.6257 36.1013 21.5651 36.0599 21.5145 36.0079L19.6663 34.1598C19.5635 34.0562 19.5059 33.9163 19.5059 33.7704C19.5059 33.6245 19.5635 33.4846 19.6663 33.381L21.5145 31.5329C21.6177 31.433 21.756 31.3775 21.8997 31.3785C22.0433 31.3794 22.1809 31.4366 22.2828 31.5378C22.3848 31.6391 22.443 31.7762 22.4449 31.9199C22.4468 32.0635 22.3924 32.2022 22.2932 32.3061L20.8289 33.7704L22.2932 35.2347ZM26.1376 32.0539L25.2163 35.7557C25.1792 35.8952 25.0886 36.0145 24.9642 36.0877C24.8398 36.1608 24.6916 36.1821 24.5516 36.1467C24.4117 36.1114 24.2913 36.0223 24.2165 35.8988C24.1418 35.7753 24.1187 35.6274 24.1523 35.487L25.0737 31.7852C25.1115 31.6464 25.2022 31.528 25.3263 31.4555C25.4505 31.3829 25.5982 31.362 25.7376 31.3972C25.877 31.4324 25.997 31.521 26.0718 31.6438C26.1467 31.7666 26.1703 31.9138 26.1376 32.0539ZM30.6237 34.1598L28.7755 36.008C28.7248 36.06 28.6643 36.1013 28.5974 36.1296C28.5306 36.1578 28.4587 36.1724 28.3861 36.1725C28.2782 36.171 28.173 36.1379 28.0836 36.0773C27.9942 36.0168 27.9246 35.9313 27.8832 35.8316C27.8418 35.7319 27.8304 35.6222 27.8506 35.5162C27.8708 35.4101 27.9216 35.3123 27.9967 35.2347L29.461 33.7705L27.9967 32.3062C27.9459 32.2555 27.9056 32.1952 27.878 32.1288C27.8505 32.0625 27.8363 31.9914 27.8363 31.9196C27.8363 31.8477 27.8505 31.7766 27.878 31.7103C27.9056 31.6439 27.9459 31.5836 27.9967 31.5329C28.1003 31.4302 28.2402 31.3725 28.3861 31.3725C28.532 31.3725 28.672 31.4302 28.7755 31.5329L30.6237 33.3811C30.7264 33.4846 30.7841 33.6246 30.7841 33.7704C30.7841 33.9163 30.7264 34.0563 30.6237 34.1598Z" fill="#023ED6"/>
<path d="M33.6886 43.2088C33.5456 42.5908 33.4903 41.9557 33.5241 41.3223H28.9174C28.9508 41.9557 28.8954 42.5907 28.7529 43.2088C22.8739 43.5598 20.7625 45.0954 20.6638 45.1666C20.5518 45.2547 20.4787 45.3831 20.4599 45.5243C20.4411 45.6655 20.4781 45.8085 20.5631 45.9229C20.6482 46.0372 20.7745 46.1139 20.9151 46.1365C21.0558 46.1591 21.1998 46.126 21.3164 46.0441C21.3438 46.0277 23.4113 44.5744 29.1697 44.2837C30.4411 44.218 32.0004 44.218 33.2718 44.2837C39.0302 44.5744 41.0977 46.0277 41.1197 46.0441C41.2363 46.1274 41.3808 46.1617 41.5224 46.1398C41.6639 46.1179 41.7913 46.0414 41.8773 45.9268C41.9632 45.8122 42.0009 45.6685 41.9823 45.5265C41.9637 45.3844 41.8903 45.2553 41.7777 45.1667C41.6791 45.0954 39.5677 43.5598 33.6886 43.2088Z" fill="#023ED6"/>
<path d="M46.2753 24.0307C46.2597 24.0312 46.2443 24.0267 46.2315 24.0178C46.2186 24.0089 46.209 23.9961 46.204 23.9813C45.9752 23.1765 45.6684 22.3959 45.288 21.6506C45.4801 21.4263 45.5801 21.1375 45.5679 20.8425C45.5557 20.5474 45.4322 20.2679 45.2223 20.0602L44.301 19.1388C44.0935 18.927 43.8133 18.8018 43.5171 18.7886C43.2209 18.7754 42.9306 18.8751 42.7051 19.0675C41.9587 18.6897 41.1783 18.3831 40.3743 18.1518C40.3595 18.1467 40.3468 18.1371 40.3379 18.1242C40.329 18.1114 40.3245 18.096 40.325 18.0804C40.2995 17.7853 40.1643 17.5106 39.9459 17.3105C39.7276 17.1104 39.442 16.9996 39.1459 17H37.8407C37.5484 16.9987 37.2661 17.1065 37.0491 17.3022C36.832 17.4979 36.6958 17.7676 36.667 18.0585C36.6695 18.0779 36.6655 18.0976 36.6556 18.1145C36.6457 18.1313 36.6304 18.1444 36.6122 18.1517C35.8229 18.343 35.0681 18.6557 34.3747 19.0785C34.3607 19.0861 34.3448 19.0892 34.329 19.0872C34.3133 19.0852 34.2985 19.0784 34.2869 19.0675C34.0615 18.8754 33.772 18.7755 33.4761 18.7877C33.1802 18.7999 32.8998 18.9233 32.691 19.1334L31.7697 20.0602C31.5591 20.2672 31.4346 20.5463 31.4214 20.8414C31.4082 21.1364 31.5071 21.4255 31.6984 21.6506C31.3197 22.3966 31.013 23.1771 30.7826 23.9814C30.7783 23.9966 30.7688 24.0099 30.7558 24.0189C30.7428 24.0279 30.727 24.0321 30.7112 24.0307C30.4162 24.0562 30.1414 24.1915 29.9414 24.4098C29.7413 24.6282 29.6305 24.9137 29.6309 25.2098V26.515C29.6298 26.8108 29.7405 27.0961 29.9408 27.3138C30.1412 27.5314 30.4164 27.6653 30.7112 27.6886C30.7273 27.6893 30.7428 27.695 30.7555 27.7048C30.7683 27.7146 30.7777 27.7281 30.7825 27.7435C31.0133 28.5459 31.32 29.3245 31.6985 30.0687C31.5071 30.2947 31.4081 30.5847 31.4213 30.8806C31.4345 31.1765 31.5589 31.4565 31.7697 31.6646L32.691 32.586C32.8991 32.7967 33.1791 32.9211 33.475 32.9344C33.7709 32.9476 34.0608 32.8486 34.2869 32.6573C34.2986 32.6466 34.3133 32.6397 34.329 32.6378C34.3448 32.6358 34.3607 32.6388 34.3747 32.6463C35.0681 33.0691 35.8229 33.3818 36.6122 33.5731C36.646 33.5777 36.6718 33.6257 36.667 33.6664C36.6967 33.9569 36.8332 34.226 37.05 34.4216C37.2669 34.6172 37.5486 34.7252 37.8407 34.7248H39.1459C39.442 34.7252 39.7276 34.6144 39.9459 34.4143C40.1643 34.2142 40.2995 33.9395 40.325 33.6444C40.3244 33.6288 40.329 33.6134 40.3379 33.6006C40.3467 33.5878 40.3595 33.5781 40.3743 33.5732C41.1786 33.3426 41.9591 33.0359 42.7051 32.6571C42.9306 32.8497 43.2208 32.9494 43.5171 32.9362C43.8133 32.923 44.0935 32.7978 44.301 32.586L45.2223 31.6646C45.4324 31.4558 45.5558 31.1755 45.568 30.8796C45.5802 30.5837 45.4803 30.2941 45.2881 30.0687C45.6668 29.3246 45.9735 28.546 46.2039 27.7435C46.2095 27.7286 46.2192 27.7155 46.2318 27.7059C46.2444 27.6962 46.2595 27.6902 46.2753 27.6886C46.5706 27.6662 46.8463 27.5326 47.0468 27.3148C47.2474 27.0969 47.3578 26.8111 47.3557 26.515V25.2098C47.357 24.9134 47.2466 24.6273 47.0463 24.4087C46.8461 24.1902 46.5707 24.0552 46.2753 24.0307ZM38.4933 30.7981C37.1848 30.7963 35.9304 30.2758 35.0051 29.3505C34.0799 28.4253 33.5593 27.1709 33.5575 25.8624C33.8251 19.3166 43.1624 19.3185 43.429 25.8624C43.4272 27.1709 42.9066 28.4253 41.9814 29.3505C41.0561 30.2758 39.8018 30.7963 38.4933 30.7981Z" fill="#023ED6"/>
</svg>
