<svg width="64" height="64" viewBox="0 0 64 64" fill="none" xmlns="http://www.w3.org/2000/svg">
<rect width="64" height="64" rx="20" fill="#EDEFFC"/>
<path d="M36.925 42.8187V43.732H19.9799V19.3893H36.925V26.3557C37.1406 26.2536 37.3846 26.2026 37.6342 26.2026H38.9049V16.2578C38.9049 15.0438 37.8838 14 36.6414 14H20.2579C19.0155 14 18 15.0154 18 16.2578V48.0491C18 49.3085 19.0268 50.307 20.2579 50.307H36.6414C37.9008 50.307 38.9049 49.2745 38.9049 48.0491V43.0456H37.776C37.464 43.0456 37.1747 42.9662 36.925 42.8187ZM27.0087 16.1274H29.8906C30.2082 16.1274 30.4579 16.3827 30.4579 16.6947C30.4579 17.0067 30.2082 17.262 29.8906 17.262H27.0087C26.6967 17.262 26.4414 17.0067 26.4414 16.6947C26.4414 16.3827 26.6967 16.1274 27.0087 16.1274ZM30.3274 47.7995H26.5719C26.2598 47.7995 26.0046 47.5499 26.0046 47.2322C26.0046 46.9202 26.2598 46.6649 26.5719 46.6649H30.3274C30.6451 46.6649 30.8947 46.9202 30.8947 47.2322C30.8947 47.5499 30.6451 47.7995 30.3274 47.7995Z" fill="#023ED6"/>
<path d="M31.9523 28.2937C32.173 28.5128 32.5326 28.514 32.7545 28.2899L35.1254 25.8969C35.3445 25.6758 35.3445 25.3196 35.1254 25.0985L32.7545 22.7055C32.534 22.4828 32.175 22.4817 31.9523 22.7017C31.7296 22.9221 31.728 23.2814 31.9484 23.5039L33.9237 25.4977L31.9484 27.4915C31.728 27.714 31.7296 28.0732 31.9523 28.2937Z" fill="#023ED6"/>
<path d="M24.9494 22.7018C24.727 22.4807 24.3674 22.4824 24.1472 22.7057L21.7766 25.0987C21.5575 25.3197 21.5575 25.6759 21.7766 25.897L24.1472 28.29C24.3676 28.5125 24.7265 28.5145 24.9494 28.2939C25.1721 28.0734 25.1738 27.7141 24.9533 27.4917L22.9783 25.4978L24.9533 23.504C25.1738 23.2816 25.1721 22.9223 24.9494 22.7018Z" fill="#023ED6"/>
<path d="M29.3652 21.0988L26.0354 29.4781C25.9196 29.7692 26.062 30.0991 26.3531 30.2146C26.6426 30.3302 26.9734 30.1894 27.0897 29.8969L30.4195 21.5176C30.5353 21.2265 30.3929 20.8966 30.1018 20.7811C29.8095 20.6639 29.4807 20.8077 29.3652 21.0988Z" fill="#023ED6"/>
<path d="M45.0921 33.3304L43.846 33.1895C43.7107 32.6483 43.4902 32.1371 43.2095 31.676V31.671L43.9463 30.6323C44.1142 30.3956 44.0869 30.0725 43.8817 29.8673L42.9894 28.9749C42.7751 28.7607 42.4341 28.7417 42.1973 28.9307L41.2198 29.7113C40.7538 29.4357 40.2425 29.2252 39.6962 29.0949L39.484 27.8321C39.4358 27.5456 39.1878 27.3357 38.8972 27.3357H37.6318C37.329 27.3357 37.0745 27.5631 37.0406 27.8641L36.8996 29.1149C36.3584 29.2553 35.8471 29.4708 35.3861 29.7514L34.3431 29.0105C34.1061 28.8423 33.7823 28.8698 33.5771 29.0756L32.6882 29.9672C32.4748 30.1813 32.4558 30.5213 32.644 30.7578L33.4264 31.7411C33.1457 32.2072 32.9352 32.7184 32.8049 33.2647L31.5469 33.4768C31.2605 33.5251 31.0508 33.7731 31.0508 34.0635V35.3245C31.0508 35.6272 31.278 35.8816 31.5788 35.9157L32.82 36.0564C32.9603 36.5976 33.1758 37.1088 33.4615 37.5749V37.5799L32.7258 38.6134C32.5574 38.8501 32.5845 39.1738 32.7899 39.3792L33.6823 40.2716C33.8963 40.4856 34.2367 40.5049 34.4735 40.3165L35.4562 39.5346C35.9223 39.8102 36.4335 40.0207 36.9748 40.151L37.1871 41.4138C37.2352 41.7003 37.4833 41.9102 37.7738 41.9102H39.0392C39.342 41.9102 39.5965 41.6827 39.6305 41.3818L39.7714 40.131C40.3127 39.9956 40.8239 39.7801 41.285 39.4945L42.3279 40.2354C42.5649 40.4036 42.8887 40.3762 43.0939 40.1704L43.983 39.2785C44.1964 39.0645 44.2154 38.7246 44.0274 38.4881L43.2496 37.5098C43.5253 37.0387 43.7358 36.5275 43.8661 35.9811L45.1242 35.7691C45.4105 35.7208 45.6202 35.4728 45.6202 35.1823V33.9216C45.6202 33.6188 45.3929 33.3644 45.0921 33.3304ZM38.338 37.0687C36.9898 37.0687 35.8922 35.9761 35.8922 34.623C35.8922 33.2748 36.9898 32.1771 38.338 32.1771C39.6862 32.1771 40.7788 33.2748 40.7788 34.623C40.7788 35.9761 39.6862 37.0687 38.338 37.0687Z" fill="#023ED6"/>
</svg>
