<svg width="64" height="64" viewBox="0 0 64 64" fill="none" xmlns="http://www.w3.org/2000/svg">
<rect width="64" height="64" rx="20" fill="#FCF8ED"/>
<path d="M34.8409 40.0233C34.7385 40.6503 34.5758 41.2559 34.3565 41.8352L36.3236 43.6175C36.0478 44.198 35.7336 44.7559 35.3711 45.2798L32.8456 44.4656C32.4473 44.9525 32.0012 45.398 31.5143 45.7963L32.3285 48.3218C31.8046 48.6843 31.2467 48.9978 30.6662 49.2743L28.8838 47.3072C28.3046 47.5265 27.6996 47.6892 27.072 47.7916L26.511 50.39C26.1937 50.4152 25.8752 50.4384 25.551 50.4384C25.2268 50.4384 24.9083 50.4152 24.5904 50.39L24.0294 47.7916C23.4024 47.6892 22.7967 47.5265 22.2175 47.3072L20.4352 49.2743C19.8547 48.9985 19.2968 48.6843 18.7728 48.3218L19.587 45.7963C19.1001 45.398 18.6547 44.9519 18.2564 44.4656L15.7308 45.2798C15.3683 44.7559 15.0548 44.198 14.7784 43.6175L16.7455 41.8352C16.5262 41.2559 16.3635 40.6509 16.2611 40.0233L13.6626 39.4623C13.6375 39.1444 13.6143 38.8258 13.6143 38.5017C13.6143 38.1775 13.6375 37.859 13.6626 37.5411L16.2611 36.9801C16.3635 36.3531 16.5262 35.7474 16.7455 35.1682L14.7784 33.3858C15.0542 32.8053 15.3683 32.2475 15.7308 31.7235L18.2564 32.5377C18.6547 32.0508 19.1008 31.6054 19.5876 31.2071L18.7734 28.6815C19.2974 28.319 19.8553 28.0055 20.4358 27.7291L22.2181 29.6961C22.7974 29.4769 23.4024 29.3142 24.03 29.2118L24.591 26.6133C24.9083 26.5882 25.2268 26.5649 25.551 26.5649C25.8752 26.5649 26.1937 26.5882 26.5116 26.6133L27.0726 29.2118C27.6996 29.3142 28.3052 29.4769 28.8845 29.6961L30.6668 27.7291C31.2473 28.0049 31.8052 28.319 32.3292 28.6815L31.515 31.2071C32.0018 31.6054 32.4473 32.0514 32.8456 32.5383L35.3711 31.7241C35.7336 32.2481 36.0471 32.806 36.3236 33.3865L34.3565 35.1688C34.5758 35.7481 34.7385 36.3531 34.8409 36.9807L37.4393 37.5417C37.4645 37.859 37.4877 38.1775 37.4877 38.5017C37.4877 38.8258 37.4645 39.1444 37.4393 39.4623L34.8409 40.0233ZM25.551 32.2192C22.0812 32.2192 19.2685 35.0319 19.2685 38.5017C19.2685 41.9715 22.0812 44.7842 25.551 44.7842C29.0208 44.7842 31.8335 41.9715 31.8335 38.5017C31.8335 35.0319 29.0208 32.2192 25.551 32.2192Z" fill="#E29400"/>
<path d="M43.5565 22.3589C43.4585 22.6837 43.3303 22.9953 43.1726 23.2887L44.1646 25.1897C43.8298 25.6132 43.4478 25.9952 43.0244 26.33L41.1233 25.338C40.8299 25.4963 40.5183 25.6245 40.1935 25.7219L39.5501 27.77C39.285 27.8014 39.0174 27.8215 38.7447 27.8215C38.4721 27.8215 38.2044 27.8014 37.9399 27.7706L37.2966 25.7225C36.9718 25.6251 36.6602 25.4963 36.3668 25.3386L34.4657 26.3306C34.0423 25.9958 33.6603 25.6138 33.3254 25.1904L34.3175 23.2893C34.1591 22.9959 34.031 22.6843 33.9336 22.3595L31.8855 21.7162C31.8541 21.451 31.834 21.1834 31.834 20.9107C31.834 20.6381 31.8541 20.3704 31.8849 20.106L33.933 19.4626C34.0303 19.1378 34.1591 18.8262 34.3168 18.5328L33.3248 16.6317C33.6597 16.2083 34.0417 15.8263 34.4651 15.4915L36.3662 16.4835C36.6596 16.3251 36.9712 16.197 37.296 16.0996L37.9393 14.0515C38.2044 14.0201 38.4721 14 38.7447 14C39.0174 14 39.285 14.0201 39.5495 14.0509L40.1928 16.099C40.5176 16.1964 40.8293 16.3251 41.1226 16.4828L43.0237 15.4908C43.4472 15.8257 43.8291 16.2077 44.164 16.6311L43.172 18.5322C43.3303 18.8256 43.4585 19.1372 43.5559 19.462L45.6039 20.1053C45.6354 20.3704 45.6555 20.6381 45.6555 20.9107C45.6555 21.1834 45.6354 21.451 45.6046 21.7155L43.5565 22.3589ZM38.7447 18.3977C37.3569 18.3977 36.2317 19.5229 36.2317 20.9107C36.2317 22.2985 37.3569 23.4237 38.7447 23.4237C40.1325 23.4237 41.2577 22.2985 41.2577 20.9107C41.2577 19.5229 40.1325 18.3977 38.7447 18.3977Z" fill="#E29400"/>
<path d="M48.6321 36.5357C48.5354 36.8844 48.3991 37.2149 48.2244 37.5234L48.8495 38.8389C48.5656 39.2014 48.2395 39.5275 47.877 39.8114L46.5614 39.1863C46.2536 39.361 45.9225 39.4973 45.5738 39.5941L45.0851 40.9687C44.8595 40.9963 44.6315 41.0145 44.3984 41.0145C44.1653 41.0145 43.9372 40.9963 43.7117 40.9687L43.2229 39.5941C42.8742 39.4973 42.5438 39.361 42.2353 39.1863L40.9198 39.8114C40.5573 39.5275 40.2312 39.2014 39.9472 38.8389L40.5723 37.5234C40.3977 37.2155 40.2614 36.8844 40.1646 36.5364L38.79 36.0476C38.7624 35.8214 38.7441 35.5934 38.7441 35.3603C38.7441 35.1272 38.7624 34.8992 38.79 34.6736L40.1646 34.1848C40.2614 33.8362 40.3977 33.5057 40.5723 33.1979L39.9472 31.8823C40.2312 31.5198 40.5573 31.1937 40.9198 30.9098L42.2353 31.5349C42.5432 31.3602 42.8742 31.2239 43.2229 31.1272L43.7117 29.7525C43.9372 29.7243 44.1653 29.7061 44.3984 29.7061C44.6315 29.7061 44.8595 29.7243 45.0851 29.7519L45.5738 31.1265C45.9225 31.2233 46.253 31.3596 46.5614 31.5343L47.877 30.9092C48.2395 31.1931 48.5656 31.5192 48.8495 31.8817L48.2244 33.1972C48.3991 33.5051 48.5354 33.8362 48.6321 34.1848L50.0068 34.6736C50.0344 34.8992 50.0526 35.1272 50.0526 35.3603C50.0526 35.5934 50.0344 35.8214 50.0068 36.047L48.6321 36.5357ZM44.3984 33.4755C43.3574 33.4755 42.5136 34.3193 42.5136 35.3603C42.5136 36.4013 43.3574 37.245 44.3984 37.245C45.4394 37.245 46.2831 36.4013 46.2831 35.3603C46.2831 34.3193 45.4394 33.4755 44.3984 33.4755Z" fill="#E29400"/>
<path d="M50.1759 15.2695L46.4184 14.5181L45.667 18.275L46.899 18.5219L47.2376 16.8307C47.8464 18.0972 48.1681 19.4932 48.1681 20.9111C48.1681 23.0773 47.4531 25.1141 46.1011 26.801L47.0818 27.5869C48.5927 25.7015 49.4245 23.3311 49.4245 20.9111C49.4245 19.2657 49.0445 17.6436 48.3213 16.1798L49.9297 16.5014L50.1759 15.2695Z" fill="#E29400"/>
<path d="M26.6236 20.4668L25.7352 21.3551L26.589 22.2089C26.2435 22.1869 25.8973 22.1675 25.5512 22.1675C20.691 22.1675 16.1161 24.3104 13 28.0472L13.965 28.852C16.8417 25.4023 21.0642 23.424 25.5512 23.424C25.8709 23.424 26.1901 23.4422 26.5092 23.4623L25.7352 24.2363L26.6236 25.1246L28.9525 22.7957L26.6236 20.4668Z" fill="#E29400"/>
</svg>
