<svg width="64" height="64" viewBox="0 0 64 64" fill="none" xmlns="http://www.w3.org/2000/svg">
<rect width="64" height="64" rx="20" fill="#FCF8ED"/>
<path fill-rule="evenodd" clip-rule="evenodd" d="M39.2159 22.2215C39.1165 20.9249 38.6867 19.6755 37.9676 18.5928C37.2485 17.5102 36.2641 16.6304 35.1085 16.0376L34.6775 19.3621C34.6679 19.4383 34.6434 19.512 34.6053 19.5788C34.5673 19.6455 34.5165 19.7042 34.4558 19.7513C34.3952 19.7984 34.3258 19.8331 34.2518 19.8534C34.1778 19.8736 34.1005 19.8791 34.0243 19.8695C33.9481 19.8598 33.8746 19.8352 33.808 19.7971C33.7413 19.759 33.6828 19.7081 33.6357 19.6474C33.5407 19.5247 33.4983 19.3692 33.5177 19.2151L33.9871 15.5711C34.1013 14.3751 32.6339 14 31.6504 14C30.667 14 29.1997 14.3747 29.314 15.5708L29.7864 19.2148C29.7962 19.2912 29.7908 19.3687 29.7706 19.4429C29.7504 19.5172 29.7158 19.5867 29.6688 19.6476C29.6218 19.7084 29.5632 19.7594 29.4965 19.7975C29.4298 19.8357 29.3562 19.8603 29.28 19.87C29.2038 19.8796 29.1264 19.8741 29.0523 19.8538C28.9782 19.8335 28.9089 19.7987 28.8482 19.7515C28.7875 19.7043 28.7367 19.6456 28.6987 19.5787C28.6607 19.5119 28.6362 19.4381 28.6267 19.3618L28.1955 16.0359C27.0392 16.6284 26.054 17.5083 25.3344 18.5913C24.6147 19.6744 24.1846 20.9243 24.0852 22.2215H27.1291V19.8158C27.1291 19.6599 27.1909 19.5104 27.3009 19.4002C27.411 19.29 27.5602 19.2281 27.7158 19.2281C27.8714 19.2281 28.0207 19.29 28.1307 19.4002C28.2408 19.5104 28.3026 19.6599 28.3026 19.8158V22.2215H34.9977V19.8158C34.9977 19.6599 35.0595 19.5104 35.1696 19.4002C35.2796 19.29 35.4288 19.2281 35.5845 19.2281C35.7401 19.2281 35.8893 19.29 35.9994 19.4002C36.1094 19.5104 36.1712 19.6599 36.1712 19.8158V22.2215H39.2159ZM38.7742 45.4154C39.0139 46.0033 39.0806 46.6476 38.9664 47.2723C38.8523 47.8969 38.562 48.4758 38.13 48.9405C37.6979 49.4052 37.1421 49.7364 36.5281 49.8948C35.9142 50.0532 35.2678 50.0324 34.6654 49.8346L37.0258 47.4703L36.5777 45.7952L34.9054 45.3463L32.545 47.7107C32.3476 47.1073 32.3267 46.4598 32.4849 45.8448C32.6431 45.2299 32.9737 44.6731 33.4376 44.2403C33.9016 43.8075 34.4795 43.5168 35.1032 43.4025C35.7268 43.2881 36.3701 43.355 36.957 43.5951L42.5989 37.9432C42.3574 37.3358 42.2974 36.671 42.4263 36.03C42.5552 35.389 42.8675 34.7993 43.325 34.3329C43.756 33.8933 44.3019 33.5843 44.9001 33.4412C45.4984 33.2981 46.1248 33.3267 46.7075 33.5239L44.347 35.8883L44.7952 37.5634L46.4675 38.0123L48.8279 35.6479C49.0247 36.2316 49.0534 36.859 48.9105 37.4583C48.7677 38.0575 48.4591 38.6043 48.0203 39.036C47.5546 39.4943 46.966 39.8071 46.326 39.9362C45.6861 40.0654 45.0225 40.0053 44.416 39.7633L38.7742 45.4149V45.4154ZM22.8338 24.4407C22.8346 24.7173 22.9447 24.9823 23.1399 25.1778C23.3351 25.3734 23.5997 25.4836 23.8758 25.4844H39.4251C39.7014 25.4844 39.9664 25.3744 40.1618 25.1787C40.3572 24.983 40.467 24.7175 40.467 24.4407C40.467 24.1639 40.3572 23.8984 40.1618 23.7027C39.9664 23.507 39.7014 23.397 39.4251 23.397H23.8758C23.5997 23.3978 23.3351 23.508 23.1399 23.7036C22.9447 23.8991 22.8346 24.1641 22.8338 24.4407ZM29.3294 45.3459H31.4066C31.737 44.2743 32.4548 43.3648 33.4195 42.7954C34.3842 42.2261 35.5263 42.0378 36.6222 42.2676L41.2763 37.6053C41.1884 37.1705 41.1646 36.7252 41.2058 36.2835C39.0064 34.2943 36.2431 33.0408 33.2997 32.697C30.3564 32.3533 27.3793 32.9364 24.782 34.3653L24.8147 34.4504C25.1699 34.5678 25.5159 34.7115 25.8498 34.8803L27.2603 34.2528L29.8252 36.822L29.1989 38.2344C29.3675 38.569 29.511 38.9158 29.6282 39.2718L31.0676 39.8267V43.4607L29.6279 44.0157C29.5107 44.3715 29.3673 44.7181 29.1987 45.0526L29.3289 45.3465L29.3294 45.3459ZM40.503 45.3459H44.9844C45.0912 45.3463 45.1968 45.3234 45.2938 45.2785C45.3908 45.2337 45.4767 45.1681 45.5457 45.0864C45.6146 45.0047 45.6649 44.9089 45.6928 44.8056C45.7208 44.7024 45.7258 44.5943 45.7076 44.4889C45.5129 43.3342 45.1762 42.2082 44.7052 41.1364L40.5025 45.3462L40.503 45.3459ZM38.5748 26.6599C38.139 28.1617 37.2283 29.4812 35.9797 30.4202C34.7311 31.3591 33.212 31.8667 31.6507 31.8667C30.0893 31.8667 28.5702 31.3591 27.3216 30.4202C26.073 29.4812 25.1623 28.1617 24.7266 26.6599H38.5748ZM28.6606 40.1584C28.504 39.4997 28.2435 38.8702 27.8889 38.2937L28.4259 37.0827L27.0006 35.655L25.7912 36.193C25.2158 35.8379 24.5875 35.5771 23.9301 35.4202L23.4551 34.184H21.4394L20.9644 35.4202C20.3069 35.5771 19.6787 35.8379 19.1032 36.193L17.8939 35.655L16.4686 37.0828L17.0056 38.294C16.6511 38.8704 16.3906 39.4998 16.234 40.1584L15 40.6341V42.6532L16.2339 43.1289C16.3905 43.7876 16.651 44.4171 17.0056 44.9936L16.4686 46.2046L17.894 47.6323L19.1033 47.0943C19.6787 47.4494 20.3069 47.7103 20.9644 47.8671L21.4394 49.1033H23.4551L23.93 47.8674C24.5876 47.7106 25.2161 47.4496 25.7916 47.0944L27.0006 47.6323L28.4259 46.2046L27.8888 44.9932C28.2433 44.4169 28.5037 43.7875 28.6603 43.129L29.8944 42.6532V40.6341L28.6606 40.1584ZM22.4472 45.1651C21.7519 45.1651 21.0723 44.9585 20.4943 44.5716C19.9162 44.1846 19.4657 43.6347 19.1996 42.9913C18.9336 42.3478 18.864 41.6399 18.9997 40.9568C19.1353 40.2738 19.4702 39.6464 19.9618 39.154C20.4534 38.6615 21.0798 38.3262 21.7617 38.1903C22.4435 38.0544 23.1503 38.1242 23.7927 38.3906C24.435 38.6571 24.984 39.1084 25.3703 39.6875C25.7566 40.2665 25.9628 40.9473 25.9629 41.6437C25.9629 42.1061 25.872 42.5641 25.6953 42.9914C25.5187 43.4186 25.2597 43.8069 24.9333 44.1339C24.6068 44.4609 24.2192 44.7203 23.7926 44.8972C23.3661 45.0742 22.9089 45.1652 22.4472 45.1651Z" fill="#E29400"/>
</svg>
