<svg width="15" height="17" viewBox="0 0 15 17" fill="none" xmlns="http://www.w3.org/2000/svg">
<g clip-path="url(#clip0_1_4126)">
<path d="M0.774005 12.5595C0.774005 12.5126 0.774005 12.4798 0.774005 12.4462C0.774005 10.5773 0.772255 8.70851 0.77488 6.83966C0.77488 6.23147 1.20629 5.78086 1.80922 5.76758C1.80922 5.8508 1.80922 5.93313 1.80922 6.01546C1.80922 6.44305 1.80659 6.87153 1.80922 7.29913C1.81272 7.78426 2.13825 8.11094 2.61866 8.11625C2.77355 8.11802 2.92844 8.11625 3.09295 8.11625C3.10083 8.17468 3.10783 8.22248 3.11571 8.27825C3.13233 8.28534 3.15159 8.29862 3.17171 8.30127C3.37035 8.32872 3.56812 8.36147 3.76676 8.37652C3.87002 8.38449 3.91465 8.42787 3.93478 8.52259C3.94615 8.57748 3.95753 8.63768 3.98816 8.68195C4.15092 8.9192 4.08179 9.11043 3.8954 9.29545C3.80527 9.38575 3.73614 9.4973 3.66876 9.58494C4.12204 10.0417 4.56921 10.4915 5.02337 10.9492C5.15551 10.8465 5.31302 10.7314 5.46178 10.6057C5.53179 10.5464 5.58692 10.5384 5.66918 10.5818C5.80744 10.6535 5.95008 10.7181 6.09709 10.7686C6.18722 10.7996 6.21522 10.8465 6.2231 10.9368C6.2406 11.1262 6.2721 11.3148 6.29836 11.514H8.19377C8.22002 11.321 8.25152 11.128 8.27078 10.9332C8.27953 10.842 8.31191 10.796 8.40116 10.7677C8.5228 10.7296 8.64793 10.6862 8.75294 10.6172C8.8912 10.5269 8.99009 10.557 9.1021 10.6588C9.22636 10.7703 9.36375 10.8668 9.48801 10.9633C9.9378 10.5065 10.3815 10.0559 10.8347 9.59556C10.7131 9.43887 10.5731 9.27066 10.4506 9.09183C10.4156 9.04049 10.4138 8.95196 10.4261 8.88645C10.441 8.805 10.5022 8.73241 10.5145 8.65185C10.5468 8.43495 10.6737 8.36324 10.8759 8.35705C11.0413 8.35173 11.2058 8.31898 11.3755 8.29773C11.3843 8.2393 11.3913 8.19061 11.3992 8.13838C11.4123 8.13307 11.4272 8.12156 11.442 8.12156C11.5812 8.11979 11.7203 8.1189 11.8595 8.11802C12.3609 8.11359 12.6855 7.78958 12.6873 7.28496C12.6899 6.84055 12.6873 6.39525 12.6873 5.95083C12.6873 5.89063 12.6873 5.82955 12.6873 5.76935C13.2876 5.78086 13.7207 6.23324 13.7216 6.84143C13.7242 8.36147 13.7225 9.88151 13.7225 11.4016C13.7225 11.784 13.7225 12.1664 13.7225 12.5622H0.774005V12.5595Z" fill="#1B1B1B"/>
<path d="M3.63671 6.83571C3.84061 6.81004 4.04537 6.79145 4.24664 6.75338C4.30177 6.74276 4.36565 6.68521 4.3919 6.6321C4.52229 6.36031 4.64568 6.08499 4.76206 5.80612C4.78219 5.7592 4.77694 5.67775 4.74894 5.63703C4.62117 5.45378 4.48029 5.27938 4.35253 5.11206C4.58705 4.8748 4.81457 4.64462 5.05434 4.40117C5.21535 4.52777 5.39299 4.66144 5.56363 4.80398C5.64589 4.87303 5.70627 4.88277 5.81128 4.83053C6.0388 4.71722 6.27769 4.62072 6.51921 4.54105C6.62335 4.50652 6.66273 4.46137 6.67323 4.36045C6.69773 4.13204 6.72748 3.90452 6.75636 3.66992H7.74257C7.77057 3.90364 7.8012 4.13116 7.82483 4.35868C7.83533 4.4596 7.87383 4.50475 7.97884 4.54016C8.22561 4.62161 8.46626 4.72519 8.70165 4.83673C8.79178 4.87923 8.84604 4.87745 8.92042 4.81548C9.09106 4.67207 9.27045 4.53839 9.42884 4.41356C9.66423 4.65259 9.8935 4.88542 10.1341 5.12888C9.99939 5.30416 9.84275 5.50778 9.70799 5.68395C9.84888 6.02567 9.97664 6.34615 10.1158 6.6622C10.1359 6.70823 10.2103 6.7463 10.2654 6.75604C10.4623 6.78879 10.6609 6.80827 10.8683 6.83306V7.83078C10.6741 7.85733 10.4833 7.88743 10.2917 7.90603C10.2059 7.91399 10.177 7.94763 10.149 8.03174C10.0466 8.33893 9.93551 8.64436 9.8095 8.94181C9.77187 9.03034 9.77537 9.07903 9.83137 9.1472C9.94076 9.28088 10.044 9.42075 10.1385 9.54292C9.90226 9.78106 9.67211 10.013 9.43321 10.2547C9.32296 10.1688 9.18819 10.0697 9.06131 9.96166C8.99655 9.90678 8.95105 9.91032 8.87317 9.9475C8.56339 10.0953 8.24836 10.2334 7.92983 10.3609C7.85108 10.3928 7.81345 10.4202 7.80557 10.5052C7.7907 10.661 7.76445 10.816 7.74169 10.9851H6.75898C6.73623 10.8275 6.71961 10.661 6.68548 10.499C6.67498 10.4495 6.62247 10.3928 6.57522 10.3707C6.25844 10.2246 5.93904 10.0829 5.61789 9.94927C5.56976 9.92979 5.491 9.93333 5.449 9.96166C5.31073 10.0546 5.18297 10.1644 5.06484 10.2565C4.82944 10.0183 4.60017 9.78549 4.36215 9.54469C4.47854 9.39154 4.61067 9.21891 4.70431 9.09408C4.5748 8.70544 4.46191 8.35487 4.33853 8.00783C4.32365 7.96534 4.26064 7.92108 4.21339 7.91222C4.02787 7.8777 3.83973 7.85822 3.63847 7.83078V6.83483L3.63671 6.83571ZM7.24378 8.99758C8.09522 9.00024 8.78216 8.30883 8.78391 7.44833C8.78566 6.59049 8.09697 5.88934 7.25165 5.88757C6.40458 5.8858 5.71327 6.5834 5.71239 7.44036C5.71239 8.30352 6.39145 8.99493 7.24378 8.9967V8.99758Z" fill="#1B1B1B"/>
<path d="M0.77441 13.1074H13.7483C13.7203 13.3969 13.729 13.6882 13.6581 13.9573C13.5391 14.4061 13.134 14.6682 12.6404 14.6691C10.6724 14.67 8.70347 14.6691 6.73542 14.6691C5.12879 14.6691 3.52127 14.6691 1.91463 14.6691C1.19707 14.6691 0.77616 14.2415 0.775285 13.5155C0.775285 13.3872 0.775285 13.2579 0.775285 13.1074H0.77441Z" fill="#1B1B1B"/>
<path d="M9.57728 15.207V15.9825C9.64904 15.9825 9.70679 15.9825 9.76542 15.9825C10.0489 15.9825 10.3333 15.979 10.6169 15.9843C10.7674 15.987 10.8724 16.0994 10.8733 16.2402C10.8741 16.3827 10.7735 16.4872 10.6195 16.4987C10.5696 16.5022 10.5197 16.5004 10.469 16.5004C8.32155 16.5004 6.17411 16.5004 4.02668 16.5004C3.99867 16.5004 3.97067 16.5004 3.94354 16.5004C3.7379 16.4978 3.62327 16.4031 3.62502 16.2402C3.62677 16.0773 3.74315 15.9843 3.94879 15.9834C4.2647 15.9825 4.5806 15.9834 4.91575 15.9834V15.2079H9.57728V15.207Z" fill="#1B1B1B"/>
<path d="M11.3955 7.59732V7.07942C11.4769 7.07323 11.5565 7.06791 11.6537 7.05995C11.6537 6.99355 11.6537 6.93335 11.6537 6.87315C11.6537 6.00645 11.6537 5.13976 11.6537 4.27306C11.6537 4.0119 11.7368 3.9278 11.9897 3.92691C12.2793 3.92691 12.5681 3.92337 12.8578 3.92868C12.9523 3.93045 13.0021 3.90212 13.0494 3.81448C13.2419 3.45771 13.6453 3.31341 14.0067 3.45771C14.355 3.5967 14.5589 3.9756 14.4854 4.34565C14.4093 4.72987 14.0654 4.99988 13.6716 4.97244C13.3898 4.95296 13.1772 4.81043 13.045 4.55812C13.003 4.47668 12.961 4.44569 12.8683 4.44923C12.6416 4.45809 12.415 4.45189 12.1673 4.45189C12.1673 4.53776 12.1673 4.60327 12.1673 4.66967C12.1673 5.51955 12.1673 6.36942 12.1673 7.2193C12.1673 7.52384 12.0947 7.59555 11.7919 7.59643C11.665 7.59643 11.5381 7.59643 11.3955 7.59643V7.59732Z" fill="#1B1B1B"/>
<path d="M2.33334 4.44613C2.05769 4.44613 1.80829 4.43993 1.55977 4.45233C1.51689 4.4541 1.47051 4.53466 1.43989 4.58689C1.20449 4.9835 0.695198 5.09416 0.324166 4.82769C-0.0381151 4.56741 -0.108121 4.04421 0.171903 3.69363C0.508807 3.27224 1.15899 3.31296 1.43026 3.78393C1.49764 3.90079 1.56765 3.93089 1.68928 3.92735C1.96668 3.91938 2.24496 3.92381 2.52323 3.92558C2.75863 3.92647 2.84526 4.01322 2.84613 4.25048C2.84701 5.12249 2.84613 5.9945 2.84613 6.86651C2.84613 6.92759 2.84613 6.98779 2.84613 7.05773C2.93627 7.06393 3.01152 7.06924 3.09728 7.07544V7.58802C2.91701 7.58802 2.73937 7.59776 2.56348 7.58536C2.4051 7.57385 2.33509 7.47559 2.33421 7.29145C2.33159 6.75673 2.33334 6.2229 2.33334 5.68819C2.33334 5.28361 2.33334 4.87992 2.33334 4.44701V4.44613Z" fill="#1B1B1B"/>
<path d="M3.06113 1.83054C3.48642 1.83054 3.89683 1.83054 4.30811 1.83054C4.56714 1.83054 4.65114 1.91199 4.65114 2.16872C4.65202 2.7477 4.65464 3.32668 4.64764 3.90566C4.64677 3.97914 4.60739 4.0659 4.55839 4.12344C4.44025 4.26331 4.30549 4.38991 4.14448 4.55546V2.34932C3.78394 2.34932 3.44704 2.3449 3.11014 2.35463C3.07163 2.35552 3.02875 2.43165 2.99988 2.47946C2.83449 2.76187 2.51508 2.92122 2.20968 2.86899C1.88241 2.81233 1.62951 2.56533 1.56825 2.24309C1.49562 1.85622 1.70039 1.48794 2.0618 1.35514C2.42408 1.22146 2.81349 1.37108 3.00338 1.71811C3.02175 1.75264 3.03838 1.78805 3.05938 1.83143L3.06113 1.83054Z" fill="#1B1B1B"/>
<path d="M10.3601 2.35358V4.55795C10.1728 4.36673 10.0135 4.20826 9.86216 4.0436C9.83853 4.01704 9.84728 3.95773 9.84728 3.91258C9.84728 3.3274 9.84553 2.74222 9.84728 2.15705C9.84728 1.91891 9.93479 1.83215 10.1693 1.83126C10.5421 1.82949 10.9149 1.82684 11.2868 1.83303C11.3927 1.8348 11.4487 1.80825 11.5038 1.70644C11.6893 1.36117 12.0962 1.22218 12.4524 1.36295C12.8068 1.50282 13.0046 1.87995 12.9249 2.26594C12.8488 2.63333 12.5119 2.89804 12.133 2.87767C11.8512 2.86262 11.6307 2.72717 11.4994 2.47575C11.4452 2.37129 11.3848 2.34916 11.2807 2.35093C10.9814 2.35712 10.6821 2.35358 10.3592 2.35358H10.3601Z" fill="#1B1B1B"/>
<path d="M7.51111 3.13835H6.99744C6.99394 3.08169 6.98869 3.02857 6.98869 2.97457C6.98869 2.54166 6.98431 2.10876 6.99131 1.67585C6.99306 1.56785 6.96856 1.51119 6.8688 1.4563C6.5529 1.28278 6.40851 0.921585 6.49952 0.579864C6.59228 0.231946 6.89068 0 7.24771 0C7.60474 0 7.90314 0.228404 7.99765 0.577208C8.09216 0.924241 7.94427 1.28455 7.61874 1.46427C7.53036 1.51296 7.50761 1.56342 7.50848 1.65903C7.51373 2.08574 7.51111 2.51333 7.51111 2.94093C7.51111 3.00113 7.51111 3.06133 7.51111 3.13835Z" fill="#1B1B1B"/>
</g>
<defs>
<clipPath id="clip0_1_4126">
<rect width="14.5" height="16.5" fill="white"/>
</clipPath>
</defs>
</svg>
