<svg width="72" height="72" viewBox="0 0 72 72" fill="none" xmlns="http://www.w3.org/2000/svg">
<rect width="72" height="72" rx="15" fill="#0C48E0"/>
<g clip-path="url(#clip0_1_2242)">
<path d="M19.397 46.8253C19.397 46.7002 19.397 46.6128 19.397 46.5231C19.397 41.5396 19.3924 36.556 19.3994 31.5724C19.3994 29.9505 20.5498 28.7489 22.1576 28.7135C22.1576 28.9354 22.1576 29.155 22.1576 29.3745C22.1576 30.5148 22.1506 31.6574 22.1576 32.7976C22.1669 34.0913 23.035 34.9625 24.3161 34.9766C24.7292 34.9813 25.1422 34.9766 25.5809 34.9766C25.6019 35.1324 25.6206 35.2599 25.6416 35.4086C25.6859 35.4275 25.7372 35.4629 25.7909 35.47C26.3206 35.5432 26.848 35.6306 27.3777 35.6707C27.6531 35.6919 27.7721 35.8076 27.8258 36.0602C27.8561 36.2066 27.8864 36.3671 27.9681 36.4851C28.4021 37.1178 28.2178 37.6278 27.7208 38.1212C27.4804 38.362 27.296 38.6594 27.1164 38.8931C28.3251 40.1113 29.5176 41.3106 30.7287 42.5311C31.081 42.2572 31.5011 41.9503 31.8978 41.6151C32.0845 41.4569 32.2315 41.4357 32.4508 41.5514C32.8195 41.7426 33.1999 41.9149 33.5919 42.0495C33.8323 42.1321 33.907 42.2572 33.928 42.498C33.9746 43.0032 34.0586 43.5061 34.1286 44.0372H39.1831C39.2531 43.5226 39.3371 43.008 39.3884 42.4886C39.4118 42.2454 39.4981 42.1227 39.7361 42.0471C40.0605 41.9456 40.3942 41.8299 40.6742 41.6458C41.0429 41.405 41.3066 41.4853 41.6053 41.7567C41.9366 42.0542 42.303 42.3115 42.6344 42.5688C43.8338 41.3507 45.0169 40.1491 46.2257 38.9215C45.9013 38.5036 45.528 38.0551 45.2013 37.5782C45.1079 37.4413 45.1033 37.2052 45.1359 37.0305C45.1756 36.8133 45.3389 36.6197 45.3716 36.4049C45.4579 35.8265 45.7963 35.6353 46.3354 35.6187C46.7764 35.6046 47.2151 35.5172 47.6678 35.4606C47.6911 35.3048 47.7098 35.1749 47.7308 35.0356C47.7658 35.0215 47.8055 34.9908 47.8452 34.9908C48.2162 34.9861 48.5872 34.9837 48.9582 34.9813C50.2954 34.9695 51.1611 34.1055 51.1658 32.7599C51.1728 31.5748 51.1658 30.3873 51.1658 29.2022C51.1658 29.0416 51.1658 28.8788 51.1658 28.7182C52.7666 28.7489 53.9217 29.9553 53.924 31.5771C53.931 35.6306 53.9263 39.684 53.9263 43.7374C53.9263 44.7573 53.9263 45.7771 53.9263 46.8324H19.397V46.8253Z" fill="white"/>
<path d="M27.0312 31.5617C27.575 31.4933 28.121 31.4437 28.6577 31.3422C28.8047 31.3139 28.9751 31.1604 29.0451 31.0188C29.3928 30.294 29.7218 29.5598 30.0322 28.8162C30.0858 28.691 30.0718 28.4739 29.9972 28.3653C29.6565 27.8766 29.2808 27.4115 28.9401 26.9653C29.5655 26.3326 30.1722 25.7188 30.8116 25.0696C31.2409 25.4072 31.7147 25.7637 32.1697 26.1438C32.389 26.3279 32.5501 26.3539 32.8301 26.2146C33.4368 25.9124 34.0739 25.6551 34.7179 25.4426C34.9956 25.3506 35.1006 25.2302 35.1286 24.961C35.194 24.3519 35.2733 23.7452 35.3503 23.1196H37.9802C38.0549 23.7429 38.1365 24.3496 38.1995 24.9563C38.2275 25.2254 38.3302 25.3458 38.6102 25.4403C39.2683 25.6575 39.91 25.9337 40.5377 26.2311C40.7781 26.3444 40.9228 26.3397 41.1211 26.1745C41.5762 25.792 42.0545 25.4355 42.4769 25.1027C43.1046 25.7401 43.716 26.361 44.3577 27.0102C43.9984 27.4776 43.5807 28.0206 43.2213 28.4904C43.597 29.4016 43.9377 30.2562 44.3087 31.099C44.3624 31.2218 44.5608 31.3233 44.7078 31.3493C45.2328 31.4366 45.7625 31.4886 46.3156 31.5547V34.2152C45.7975 34.2861 45.2888 34.3663 44.7778 34.4159C44.5491 34.4372 44.4721 34.5269 44.3974 34.7511C44.1244 35.5703 43.828 36.3848 43.492 37.178C43.3917 37.4141 43.401 37.5439 43.5503 37.7257C43.842 38.0822 44.1174 38.4552 44.3694 38.781C43.7394 39.416 43.1256 40.0345 42.4886 40.679C42.1946 40.45 41.8352 40.1856 41.4968 39.8976C41.3241 39.7512 41.2028 39.7607 40.9951 39.8598C40.169 40.2541 39.329 40.6224 38.4796 40.9623C38.2696 41.0473 38.1692 41.1205 38.1482 41.3471C38.1085 41.7626 38.0385 42.1758 37.9779 42.6267H35.3573C35.2966 42.2064 35.2523 41.7626 35.1613 41.3306C35.1333 41.1984 34.9933 41.0473 34.8673 40.9883C34.0225 40.5988 33.1708 40.221 32.3144 39.8646C32.186 39.8126 31.976 39.8221 31.864 39.8976C31.4953 40.1455 31.1546 40.4382 30.8396 40.6837C30.2119 40.0487 29.6005 39.4278 28.9657 38.7857C29.2761 38.3773 29.6285 37.9169 29.8782 37.5841C29.5328 36.5477 29.2318 35.6128 28.9027 34.6874C28.8631 34.5741 28.6951 34.456 28.569 34.4324C28.0743 34.3404 27.5726 34.2884 27.0359 34.2152V31.5594L27.0312 31.5617ZM36.6501 37.3267C38.9206 37.3338 40.7524 35.4901 40.7571 33.1954C40.7618 30.9078 38.9253 29.0381 36.6711 29.0334C34.4122 29.0286 32.5687 30.8889 32.5664 33.1741C32.5664 35.4759 34.3772 37.3196 36.6501 37.3244V37.3267Z" fill="white"/>
<path d="M19.3984 48.2864H53.9954C53.9207 49.0583 53.9441 49.835 53.7551 50.5527C53.4377 51.7496 52.3573 52.4484 51.0412 52.4508C45.793 52.4531 40.5426 52.4508 35.2945 52.4508C31.0101 52.4508 26.7234 52.4508 22.439 52.4508C20.5255 52.4508 19.4031 51.3105 19.4008 49.3747C19.4008 49.0324 19.4008 48.6877 19.4008 48.2864H19.3984Z" fill="white"/>
<path d="M42.8728 53.8853V55.9533C43.0641 55.9533 43.2181 55.9533 43.3745 55.9533C44.1305 55.9533 44.8889 55.9438 45.645 55.958C46.0464 55.9651 46.3264 56.2649 46.3287 56.6403C46.3311 57.0204 46.0627 57.2989 45.652 57.3296C45.519 57.3391 45.386 57.3343 45.2506 57.3343C39.5241 57.3343 33.7976 57.3343 28.0711 57.3343C27.9965 57.3343 27.9218 57.3343 27.8495 57.3343C27.3011 57.3273 26.9954 57.0747 27.0001 56.6403C27.0047 56.2059 27.3151 55.958 27.8635 55.9556C28.7059 55.9533 29.5483 55.9556 30.442 55.9556V53.8876H42.8728V53.8853Z" fill="white"/>
<path d="M47.7207 33.5928V32.2118C47.9377 32.1953 48.1501 32.1811 48.4091 32.1599C48.4091 31.9828 48.4091 31.8223 48.4091 31.6617C48.4091 29.3505 48.4091 27.0394 48.4091 24.7282C48.4091 24.0317 48.6308 23.8075 49.3052 23.8051C50.0776 23.8051 50.8476 23.7957 51.62 23.8098C51.8721 23.8145 52.0051 23.739 52.1311 23.5053C52.6445 22.5539 53.7202 22.1691 54.684 22.5539C55.6127 22.9245 56.1564 23.9349 55.9604 24.9217C55.7574 25.9463 54.8403 26.6664 53.7902 26.5932C53.0388 26.5412 52.4718 26.1611 52.1194 25.4883C52.0074 25.2711 51.8954 25.1885 51.648 25.198C51.0437 25.2216 50.4393 25.205 49.7789 25.205C49.7789 25.434 49.7789 25.6087 49.7789 25.7858C49.7789 28.0521 49.7789 30.3185 49.7789 32.5848C49.7789 33.3969 49.5852 33.5881 48.7778 33.5905C48.4394 33.5905 48.1011 33.5905 47.7207 33.5905V33.5928Z" fill="white"/>
<path d="M23.5553 25.1896C22.8202 25.1896 22.1551 25.173 21.4924 25.2061C21.3781 25.2108 21.2544 25.4256 21.1727 25.5649C20.545 26.6225 19.1869 26.9176 18.1975 26.207C17.2314 25.513 17.0447 24.1178 17.7914 23.1829C18.6898 22.0592 20.4237 22.1678 21.147 23.4237C21.3267 23.7353 21.5134 23.8156 21.8378 23.8061C22.5775 23.7849 23.3196 23.7967 24.0616 23.8014C24.6894 23.8038 24.9204 24.0351 24.9227 24.6678C24.925 26.9932 24.9227 29.3185 24.9227 31.6439C24.9227 31.8068 24.9227 31.9673 24.9227 32.1538C25.1631 32.1703 25.3637 32.1845 25.5924 32.201V33.5679C25.1117 33.5679 24.638 33.5939 24.169 33.5608C23.7466 33.5302 23.5599 33.2681 23.5576 32.7771C23.5506 31.3512 23.5553 29.9276 23.5553 28.5017C23.5553 27.4228 23.5553 26.3463 23.5553 25.1919V25.1896Z" fill="white"/>
<path d="M25.4964 18.2147C26.6305 18.2147 27.7249 18.2147 28.8216 18.2147C29.5124 18.2147 29.7364 18.4319 29.7364 19.1165C29.7387 20.6605 29.7457 22.2044 29.7271 23.7483C29.7247 23.9443 29.6197 24.1756 29.489 24.3291C29.174 24.7021 28.8146 25.0397 28.3853 25.4811V19.5981C27.4239 19.5981 26.5255 19.5863 25.627 19.6123C25.5244 19.6146 25.41 19.8177 25.333 19.9451C24.892 20.6982 24.0402 21.1232 23.2258 20.9839C22.3531 20.8328 21.6787 20.1741 21.5154 19.3148C21.3217 18.2832 21.8677 17.3011 22.8315 16.947C23.7975 16.5905 24.836 16.9895 25.3423 17.9149C25.3914 18.007 25.4357 18.1014 25.4917 18.2171L25.4964 18.2147Z" fill="white"/>
<path d="M44.9596 19.6094V25.4877C44.4602 24.9778 44.0355 24.5552 43.6318 24.1161C43.5688 24.0453 43.5921 23.8871 43.5921 23.7667C43.5921 22.2062 43.5874 20.6458 43.5921 19.0853C43.5921 18.4503 43.8255 18.2189 44.4509 18.2165C45.4449 18.2118 46.439 18.2047 47.4308 18.2213C47.7131 18.226 47.8625 18.1552 48.0095 17.8837C48.5042 16.963 49.5893 16.5923 50.5391 16.9677C51.4841 17.3407 52.0115 18.3464 51.7992 19.3757C51.5961 20.3554 50.6977 21.0613 49.6873 21.007C48.9359 20.9668 48.3479 20.6056 47.9978 19.9352C47.8532 19.6566 47.6921 19.5976 47.4144 19.6023C46.6164 19.6188 45.8183 19.6094 44.9572 19.6094H44.9596Z" fill="white"/>
<path d="M37.363 21.7022H35.9932C35.9838 21.5511 35.9698 21.4094 35.9698 21.2654C35.9698 20.111 35.9582 18.9566 35.9768 17.8022C35.9815 17.5142 35.9162 17.3631 35.6502 17.2167C34.8077 16.754 34.4227 15.7908 34.6654 14.8796C34.9128 13.9518 35.7085 13.3333 36.6606 13.3333C37.6127 13.3333 38.4084 13.9423 38.6604 14.8725C38.9124 15.7979 38.5181 16.7587 37.65 17.238C37.4143 17.3678 37.3536 17.5024 37.356 17.7573C37.37 18.8952 37.363 20.0355 37.363 21.1757C37.363 21.3363 37.363 21.4968 37.363 21.7022Z" fill="white"/>
</g>
<defs>
<clipPath id="clip0_1_2242">
<rect width="38.6667" height="44" fill="white" transform="translate(17.333 13.3333)"/>
</clipPath>
</defs>
</svg>
