<svg width="44" height="43" viewBox="0 0 44 43" fill="none" xmlns="http://www.w3.org/2000/svg">
<g clip-path="url(#clip0_1_5067)">
<path d="M28.3232 7.8589C23.3004 7.8589 18.2775 7.86168 13.2546 7.85055C12.9026 7.85055 12.6614 7.96183 12.4175 8.20664C9.773 10.8745 7.12019 13.534 4.46461 16.1935C4.33433 16.3243 4.1486 16.4049 4.04327 16.5496C3.95179 16.6776 3.92684 16.8584 3.89912 17.0225C3.8714 17.1894 3.90467 17.3703 3.86031 17.5316C3.57203 18.5359 2.54638 19.134 1.5346 18.9003C0.53391 18.6694 -0.136915 17.693 0.0210896 16.697C0.192954 15.6065 1.08554 14.8916 2.19434 15.014C2.49926 15.0474 2.65726 14.9444 2.84299 14.758C7.63578 9.93977 12.4286 5.13263 17.2158 0.317138C17.4431 0.0890211 17.6649 0 17.9864 0C26.4771 0.00834573 34.9705 0.00556382 43.4611 0.00556382C43.8141 0.00556382 43.9906 0.176188 43.9906 0.517435C43.9906 2.81529 43.9823 5.11593 43.9989 7.41379C43.9989 7.76988 43.9074 7.86446 43.5499 7.86446C38.4743 7.85333 33.396 7.85612 28.3205 7.85612L28.3232 7.8589ZM0.508962 16.9307C0.495102 17.7625 1.13543 18.4385 1.94763 18.4524C2.7432 18.4663 3.42234 17.8154 3.43897 17.0225C3.45837 16.1768 2.80141 15.4758 1.97812 15.473C1.19087 15.4702 0.52005 16.1351 0.50619 16.9307H0.508962Z" fill="#215EF8"/>
<path d="M27.523 8.72266H35.3206C35.3262 8.85619 35.34 8.99807 35.34 9.13994C35.34 15.5105 35.3317 21.8811 35.34 28.2517C35.34 28.5271 35.2347 28.6968 35.0573 28.8748C31.4287 32.5108 27.803 36.1523 24.1716 39.7883C23.9831 39.9774 23.9138 40.1249 24.0164 40.4086C24.3269 41.2599 23.9942 42.1807 23.2569 42.6703C22.5057 43.1683 21.5022 43.0959 20.8369 42.4978C20.1799 41.9025 19.997 40.9372 20.3934 40.1416C20.7898 39.3432 21.6519 38.9064 22.5361 39.0983C22.8244 39.1595 22.9963 39.09 23.1959 38.8869C24.532 37.5293 25.8764 36.1773 27.2291 34.8392C27.4481 34.6222 27.5313 34.4025 27.5313 34.0965C27.5258 25.8314 27.5258 17.5663 27.5258 9.30129V8.72822L27.523 8.72266ZM22.1592 42.4978C22.9824 42.4978 23.6339 41.8385 23.6283 41.0123C23.6228 40.2055 22.9797 39.5629 22.1702 39.5574C21.3386 39.5518 20.6872 40.1944 20.6817 41.0206C20.6789 41.8469 21.3303 42.4978 22.1564 42.4978H22.1592Z" fill="#215EF8"/>
<path d="M36.1689 8.72266H43.9915V9.17611C43.9915 14.8484 43.9915 20.5207 43.9971 26.1931C43.9971 26.4907 43.9 26.691 43.6977 26.8941C39.3928 31.2033 35.0962 35.5208 30.7912 39.8328C30.6 40.0247 30.5085 40.2083 30.514 40.4949C30.539 41.6577 29.6824 42.4951 28.5182 42.4895C27.4316 42.4839 26.5722 41.5937 26.5861 40.4921C26.6 39.3904 27.5064 38.5141 28.6235 38.5559C28.9201 38.567 29.1142 38.4863 29.3193 38.2805C31.4898 36.0883 33.6686 33.9017 35.8529 31.7235C36.0802 31.4982 36.1745 31.2728 36.1745 30.9501C36.1661 23.7172 36.1689 16.487 36.1689 9.254V8.72266ZM28.5681 42.0082C29.3692 42.0082 30.0483 41.3127 30.04 40.5088C30.0317 39.7187 29.3636 39.0483 28.5736 39.0399C27.7614 39.0316 27.074 39.7131 27.0795 40.5227C27.0851 41.3378 27.7614 42.011 28.5681 42.0082Z" fill="#215EF8"/>
<path d="M26.6548 8.71792V16.5379H26.0866C20.9584 16.5379 15.8301 16.5407 10.7047 16.5323C10.3693 16.5323 10.1337 16.6269 9.89806 16.8661C8.0131 18.7745 6.11982 20.6746 4.221 22.5691C4.01864 22.7694 3.91885 22.9641 3.9244 23.2645C3.9438 24.3856 3.09002 25.2286 1.98122 25.2286C0.880736 25.2286 0.0103273 24.3662 0.0020113 23.2757C-0.00630471 22.1685 0.877964 21.2727 1.99231 21.2949C2.31386 21.3005 2.53008 21.2087 2.75738 20.9806C6.73521 16.9746 10.7213 12.9742 14.7158 8.98221C14.8516 8.84589 15.0706 8.71514 15.248 8.71514C18.9708 8.69845 22.6909 8.70402 26.4137 8.70402C26.4802 8.70402 26.5439 8.71236 26.6576 8.71792H26.6548ZM3.44484 23.2645C3.44484 22.4467 2.77679 21.7706 1.96736 21.7762C1.16902 21.7818 0.517604 22.4355 0.509288 23.2395C0.500972 24.0685 1.14962 24.7417 1.96182 24.7445C2.77679 24.7501 3.44207 24.0852 3.44207 23.2645H3.44484Z" fill="#215EF8"/>
</g>
<defs>
<clipPath id="clip0_1_5067">
<rect width="44" height="43" fill="white"/>
</clipPath>
</defs>
</svg>
