<svg width="64" height="64" viewBox="0 0 64 64" fill="none" xmlns="http://www.w3.org/2000/svg">
<rect width="64" height="64" rx="20" fill="#FCF8ED"/>
<path d="M48.9453 30.2422H41.8438C41.2613 30.2422 40.7891 30.7144 40.7891 31.2969V32C40.7891 36.8463 36.8463 40.7891 32 40.7891C27.1537 40.7891 23.2109 36.8463 23.2109 32V31.2969C23.2109 30.7144 22.7387 30.2422 22.1562 30.2422H15.0547C14.4722 30.2422 14 30.7144 14 31.2969V35.5303C14 36.0788 14.4205 36.5357 14.9671 36.5813L16.5175 36.7105C17.1906 36.7666 17.7468 37.1727 18.0054 37.7967C18.2639 38.4208 18.1577 39.1013 17.7214 39.617L16.7165 40.8046C16.3621 41.2234 16.388 41.8438 16.7758 42.2317L21.7683 47.2243C22.1561 47.6123 22.7765 47.638 23.1954 47.2836L24.383 46.2787C24.8987 45.8423 25.5792 45.736 26.2032 45.9947C26.8273 46.2532 27.2334 46.8094 27.2895 47.4825L27.4186 49.0329C27.4642 49.5795 27.9212 50 28.4698 50H35.5303C36.0788 50 36.5358 49.5795 36.5814 49.0329L36.7105 47.4825C36.7666 46.8094 37.1727 46.2531 37.7968 45.9946C38.4208 45.736 39.1013 45.8422 39.617 46.2786L40.8046 47.2835C41.2234 47.638 41.8438 47.6121 42.2317 47.2242L47.2242 42.2316C47.6121 41.8437 47.6379 41.2233 47.2835 40.8045L46.2786 39.6169C45.8423 39.1012 45.7362 38.4207 45.9946 37.7966C46.2531 37.1726 46.8094 36.7666 47.4825 36.7104L49.0329 36.5812C49.5795 36.5356 50 36.0787 50 35.5302V31.2969C50 30.7144 49.5278 30.2422 48.9453 30.2422Z" fill="#E29400"/>
<path d="M20.4164 22.6931C20.6156 23.2404 21.2209 23.5226 21.7682 23.3234C22.3156 23.1242 22.5978 22.519 22.3986 21.9716L21.9091 20.6267L27.4948 23.2313C29.4952 24.1641 30.7935 26.0869 30.9247 28.2855C29.3124 28.7516 28.1331 30.2376 28.1331 32C28.1331 34.1358 29.8644 35.8672 32.0003 35.8672C34.1361 35.8672 35.8674 34.1358 35.8674 32C35.8674 30.2376 34.6881 28.7516 33.0758 28.2855C33.207 26.0869 34.5053 24.1641 36.5057 23.2313L42.0914 20.6267L41.6019 21.9716C41.4027 22.519 41.6849 23.1242 42.2323 23.3234C42.7797 23.5226 43.3848 23.2404 43.5841 22.6931L44.9444 18.9554C45.1436 18.4081 44.8615 17.8029 44.3141 17.6037L40.5765 16.2433C40.0291 16.0441 39.4239 16.3263 39.2247 16.8736C39.0255 17.421 39.3077 18.0262 39.8551 18.2255L41.2 18.715L35.6142 21.3195C34.6396 21.774 33.7714 22.4157 33.0549 23.205V17.6009L34.067 18.613C34.4789 19.0248 35.1467 19.0248 35.5586 18.613C35.9704 18.2011 35.9704 17.5333 35.5586 17.1214L32.7461 14.3089C32.3342 13.897 31.6664 13.897 31.2545 14.3089L28.442 17.1214C28.0301 17.5333 28.0301 18.2011 28.442 18.613C28.8539 19.0248 29.5217 19.0248 29.9336 18.613L30.9456 17.6009V23.2051C30.2291 22.4157 29.3609 21.7741 28.3863 21.3196L22.8006 18.7149L24.1455 18.2254C24.6929 18.0262 24.975 17.4209 24.7759 16.8736C24.5767 16.3262 23.9714 16.044 23.4241 16.2432L19.6864 17.6036C19.139 17.8028 18.8569 18.4081 19.0561 18.9554L20.4164 22.6931Z" fill="#E29400"/>
</svg>
