<svg width="16" height="14" viewBox="0 0 16 14" fill="none" xmlns="http://www.w3.org/2000/svg">
<path d="M14.7688 11.6246H1.23243V3.06063C1.23243 2.87909 1.37679 2.7302 1.55491 2.7302H4.11132L4.20788 2.92519C4.18663 2.97514 4.16632 3.02509 4.14663 3.076L3.56635 3.26939C3.29606 3.35936 3.09419 3.5726 3.01201 3.83739H2.47423C2.38486 3.83739 2.31299 3.91168 2.31299 4.00261V10.8805C2.31299 10.972 2.38486 11.0466 2.47423 11.0466H13.5261C13.6155 11.0466 13.6883 10.9724 13.6883 10.8805V4.00261C13.6883 3.912 13.6158 3.83739 13.5261 3.83739H12.9883C12.9058 3.57228 12.7039 3.35904 12.4336 3.26939L11.8534 3.076C11.834 3.02509 11.8134 2.97514 11.7921 2.92519L11.8896 2.7302H14.4451C14.6232 2.7302 14.7685 2.87909 14.7685 3.06063V11.6246H14.7688ZM6.51149 12.6911C6.53993 12.7202 6.57868 12.7382 6.62211 12.7382H9.37789C9.42132 12.7382 9.46038 12.7199 9.48851 12.6911C9.51694 12.662 9.53444 12.6223 9.53444 12.5777V12.1538H6.46525V12.5777C6.46556 12.6223 6.48337 12.662 6.51149 12.6911ZM15.8372 12.1538H10.0513V12.5777C10.0513 12.7673 9.97504 12.9399 9.8538 13.0651C9.73162 13.1893 9.56319 13.2665 9.3782 13.2665H6.62242C6.43744 13.2665 6.26901 13.1893 6.14683 13.0651C6.02558 12.9399 5.95028 12.7673 5.95028 12.5777V12.1538H0.163115C0.0737457 12.1538 0 12.2281 0 12.32V13.0769C0 13.5844 0.405601 14 0.901822 14H15.0991C15.5944 14 16 13.5844 16 13.0769V12.32C16 12.2281 15.9266 12.1538 15.8372 12.1538ZM10.06 4.38394C10.091 4.35225 10.1097 4.3087 10.1097 4.26131C10.1097 4.21329 10.091 4.16974 10.06 4.13868C10.0291 4.10699 9.9866 4.08682 9.94035 4.08682H9.61537V4.43453H9.94035C9.9866 4.43453 10.0291 4.41564 10.06 4.38394ZM8.11921 4.38394C8.15015 4.35225 8.1689 4.3087 8.1689 4.26131C8.1689 4.21329 8.15015 4.16974 8.11921 4.13868C8.08827 4.10699 8.04578 4.08682 7.99953 4.08682H7.67455V4.43453H7.99953C8.04578 4.43453 8.08827 4.41564 8.11921 4.38394ZM4.39006 2.12762C4.321 1.98866 4.34662 1.82728 4.4538 1.71746L5.16407 0.989686C5.27125 0.878902 5.42968 0.853608 5.5653 0.924368L6.18183 1.24647C6.27932 1.29738 6.38369 1.29898 6.48306 1.25288C6.56899 1.21189 6.65742 1.17379 6.7471 1.14049C6.84897 1.10143 6.92147 1.02427 6.95522 0.918285L7.16958 0.243979C7.21645 0.0960549 7.34582 0 7.49831 0H8.50294C8.65449 0 8.78386 0.0960549 8.83073 0.243979L9.04509 0.918285C9.07884 1.02459 9.15134 1.10175 9.25414 1.14049C9.34351 1.17411 9.43132 1.21221 9.51725 1.25288C9.61631 1.2993 9.72099 1.29738 9.81849 1.24647L10.436 0.924368C10.5716 0.853608 10.7291 0.878902 10.8362 0.989686L11.5465 1.71746C11.6546 1.82728 11.6793 1.98898 11.6103 2.12762L11.2959 2.7603C11.2462 2.86019 11.2447 2.96714 11.2906 3.06895C11.3296 3.157 11.3668 3.24698 11.3996 3.33855C11.4378 3.44389 11.5131 3.51817 11.6165 3.55275L12.2746 3.7724C12.419 3.82042 12.5127 3.95298 12.5127 4.10827V5.13766C12.5127 5.29391 12.419 5.42614 12.2746 5.47449L11.6165 5.69413C11.5128 5.72871 11.4375 5.803 11.3996 5.90738C11.3668 5.99895 11.3296 6.08988 11.2906 6.17793C11.2447 6.27943 11.2462 6.38669 11.2959 6.48659L11.6103 7.11831C11.6793 7.25823 11.6546 7.4196 11.5465 7.52942L10.8362 8.2572C10.7291 8.36702 10.5713 8.39328 10.436 8.32252L9.81849 8.00041C9.72099 7.9495 9.61662 7.9479 9.51725 7.99401C9.43132 8.03499 9.34351 8.07213 9.25414 8.10639C9.15134 8.14449 9.07884 8.22262 9.04509 8.3286L8.83073 9.0029C8.78386 9.15083 8.65449 9.24688 8.50294 9.24688H7.49831C7.34582 9.24688 7.21676 9.15083 7.16958 9.0029L6.95522 8.3286C6.92147 8.2223 6.84897 8.14449 6.7471 8.10639C6.65773 8.07181 6.56899 8.03467 6.48306 7.99401C6.384 7.94758 6.27932 7.9495 6.18183 8.00041L5.5653 8.32252C5.42968 8.39328 5.27125 8.36702 5.16407 8.2572L4.4538 7.52942C4.34662 7.4196 4.321 7.25791 4.39006 7.11831L4.70441 6.48659C4.7541 6.38669 4.75566 6.27975 4.71066 6.17793C4.67066 6.08988 4.63442 5.99991 4.60067 5.90738C4.56255 5.803 4.48724 5.72871 4.38381 5.69413L3.72572 5.47449C3.58135 5.42646 3.48761 5.29391 3.48761 5.13766V4.10827C3.48761 3.95298 3.58135 3.82042 3.72572 3.7724L4.38381 3.55275C4.48755 3.51817 4.56286 3.44389 4.60067 3.33951C4.63348 3.24698 4.67066 3.157 4.71066 3.06895C4.75597 2.96746 4.7541 2.86019 4.70441 2.7603L4.39006 2.12762ZM9.09884 5.42294C9.09884 5.56894 9.21477 5.68709 9.35758 5.68709C9.50007 5.68709 9.61537 5.56926 9.61537 5.42294V4.9638H9.94035C10.1291 4.9638 10.301 4.88471 10.425 4.75792C10.5491 4.63081 10.6259 4.45471 10.6259 4.26131C10.6259 4.06792 10.5488 3.89182 10.425 3.76471C10.301 3.63664 10.1291 3.55787 9.94035 3.55787H9.35758C9.21508 3.55787 9.09884 3.67666 9.09884 3.82298V5.42294ZM7.15833 5.42294C7.15833 5.56894 7.27364 5.68709 7.41613 5.68709C7.55862 5.68709 7.67486 5.56926 7.67486 5.42294V4.9638H7.77392L8.10702 5.55549C8.17889 5.68165 8.33639 5.72423 8.4595 5.65155C8.58262 5.57791 8.62418 5.41653 8.55262 5.29038L8.32232 4.88119C8.3817 4.84757 8.43669 4.80691 8.4845 4.75792C8.60856 4.63081 8.68543 4.45471 8.68543 4.26131C8.68543 4.06792 8.60824 3.89182 8.4845 3.76471C8.35951 3.63664 8.18858 3.55787 7.99984 3.55787H7.41613C7.27364 3.55787 7.15833 3.67666 7.15833 3.82298V5.42294ZM5.37437 5.42294C5.37437 5.56894 5.48968 5.68709 5.63217 5.68709H6.49306C6.63555 5.68709 6.75179 5.56926 6.75179 5.42294C6.75179 5.27694 6.63586 5.15879 6.49306 5.15879H5.89059V4.88727H6.49306C6.63555 4.88727 6.75179 4.76849 6.75179 4.62216C6.75179 4.4768 6.63586 4.35801 6.49306 4.35801H5.89059V4.0865H6.49306C6.63555 4.0865 6.75179 3.96835 6.75179 3.82234C6.75179 3.67634 6.63586 3.55723 6.49306 3.55723H5.63217C5.48968 3.55723 5.37437 3.67602 5.37437 3.82234V4.62184V5.42294Z" fill="#023ED6"/>
</svg>
