<svg width="64" height="64" viewBox="0 0 64 64" fill="none" xmlns="http://www.w3.org/2000/svg">
<rect width="64" height="64" rx="20" fill="#FCF8ED"/>
<path fill-rule="evenodd" clip-rule="evenodd" d="M45.7461 36.0471L45.6861 36.0705L43.9167 37.3191C43.102 37.8957 36.4461 42.6244 35.8932 42.6392L31.5819 42.6789C31.2957 42.6811 31.0637 42.4541 31.061 42.1683C31.0583 41.8847 31.2877 41.6524 31.5718 41.6503L35.8831 41.6105C36.3524 41.6059 37.4427 40.8134 36.6386 39.749C36.4214 39.4622 36.0244 39.1493 35.6469 39.151L27.4435 39.1838C24.7042 39.1945 22.7957 40.5249 20.8083 42.2245L24.7434 47.57L26.4406 46.6379L27.0852 46.2106C27.4261 45.99 27.9421 45.8289 28.346 45.8124L37.4768 45.4211C37.8883 45.4036 38.6512 45.3304 38.915 44.9789L46.2801 37.4309C46.7329 36.8488 46.6791 35.911 45.7461 36.0471ZM19.4372 42.0988L24.2279 48.6092C24.3953 48.8359 24.3429 49.1528 24.1202 49.3171L20.5994 51.9018C20.3748 52.0672 20.0547 52.0184 19.8901 51.7946L15.0983 45.2854C14.9326 45.0605 14.9815 44.7414 15.2066 44.576L18.7274 41.9907C18.9503 41.8268 19.2726 41.8767 19.4372 42.0988ZM28.1523 20.3599L28.3211 20.2492L29.3755 21.7066L27.4419 31.2296C27.4101 31.3897 27.4589 31.5551 27.5731 31.6718L30.339 34.4903C30.5322 34.6865 30.8518 34.6875 31.0445 34.4903L33.8094 31.6718C33.9235 31.5551 33.9734 31.3897 33.9405 31.2296L32.007 21.7066L33.0624 20.2492C34.5181 21.2045 35.8193 21.7556 37.5485 22.0147V28.9111C37.5485 29.6014 37.4243 30.2711 37.1752 30.9164C36.1733 33.517 33.1484 35.4874 30.9096 37.0169L30.6904 37.1632C29.3852 36.2863 27.8551 35.2355 26.6943 34.2068C25.0948 32.7894 23.8349 31.1192 23.8349 28.9111V22.0147L24.0144 21.9877C25.492 21.7645 26.9052 21.1723 28.1523 20.3599ZM32.2683 19.6643C31.6206 19.1298 31.2586 18.7916 30.6915 18.1729C30.1122 18.8029 29.7722 19.1195 29.1142 19.6648L30.3012 21.3048C30.382 21.416 30.4122 21.5572 30.3846 21.6923L28.4607 31.1692L30.6915 33.4421L32.9223 31.1692L30.9989 21.6923C30.9713 21.5572 31.0015 21.4161 31.0828 21.3048L32.2683 19.6643ZM47.9997 28.3029C47.7454 23.9765 46.0062 19.8435 42.9589 16.7445C36.7915 10.4743 27.1649 10.4081 20.9242 16.6109C17.9013 19.6172 16.1223 23.6493 15.7793 27.8872C15.7593 28.1518 16.1519 28.2052 16.2013 27.944C17.0492 23.425 19.9622 19.4167 24.2204 17.5552C27.5876 16.0838 31.3856 16.1839 34.6779 17.8123C38.7844 19.8446 41.4649 23.8768 42.18 28.3496C42.197 28.452 42.2851 28.5283 42.3892 28.5283H47.7862C47.909 28.5283 48.0061 28.4249 47.9997 28.3029Z" fill="#E29400"/>
</svg>
