<svg width="19" height="18" viewBox="0 0 19 18" fill="none" xmlns="http://www.w3.org/2000/svg">
<path d="M3.63545 10.4031C4.43585 10.2785 5.08165 10.5415 5.65764 11.0627C6.27975 11.6249 6.9268 12.1598 7.56637 12.7034C8.18724 13.2307 8.49019 13.8977 8.48271 14.7131C8.47523 15.5147 8.48147 16.3164 8.48147 17.118C8.48147 17.1679 8.48396 17.219 8.48022 17.2689C8.46526 17.4471 8.33809 17.5693 8.17352 17.5656C8.01768 17.5618 7.89551 17.4434 7.8793 17.2751C7.87431 17.2252 7.8768 17.1741 7.8768 17.1242C7.8768 16.3101 7.87306 15.496 7.8768 14.6819C7.8793 14.0698 7.65115 13.5686 7.18363 13.1721C6.46676 12.5637 5.75737 11.9466 5.03926 11.3407C4.5119 10.8956 3.74516 10.8445 3.21655 11.2185C3.26642 11.2659 3.3138 11.312 3.36242 11.3544C3.89851 11.8144 4.43834 12.2707 4.96945 12.737C5.05173 12.8093 5.12778 12.929 5.13401 13.0325C5.14025 13.1148 5.05422 13.2444 4.97568 13.2781C4.88965 13.3155 4.74878 13.3005 4.664 13.2519C4.52436 13.1721 4.40967 13.0462 4.28499 12.9402C3.73893 12.4727 3.19286 12.0039 2.6468 11.5364C2.34634 11.2796 2.34384 11.1562 2.63184 10.8831C2.64431 10.8707 2.65303 10.8545 2.67423 10.827C2.44857 10.6338 2.2279 10.4368 1.99975 10.2498C1.66563 9.97427 1.50979 9.62395 1.51228 9.19133C1.51727 8.15032 1.51602 7.1093 1.51228 6.06704C1.50979 5.4948 1.13078 5.00608 0.603418 4.90011V5.10582C0.603418 6.87866 0.608405 8.65275 0.600925 10.4256C0.598431 11.0689 0.836556 11.5813 1.32402 11.999C2.54083 13.0412 3.74766 14.0959 4.96196 15.1419C5.09287 15.2541 5.15147 15.3776 5.14897 15.5509C5.14149 16.0932 5.14648 16.6368 5.14648 17.1791C5.14648 17.421 5.03677 17.5593 4.85101 17.5643C4.65776 17.5681 4.54307 17.4247 4.54307 17.1729C4.54307 16.6991 4.53808 16.2266 4.54556 15.7528C4.54805 15.6257 4.50317 15.5471 4.40967 15.4661C3.24398 14.46 2.08453 13.4476 0.917593 12.444C0.296724 11.9104 -0.0037362 11.2422 3.96794e-06 10.4194C0.00748431 8.50688 0.00249742 6.59441 0.00249742 4.68318C0.00249742 4.31789 0.125923 4.20568 0.48872 4.25057C1.03852 4.31789 1.47238 4.57845 1.80027 5.02603C1.84765 5.09086 1.94115 5.14696 2.02094 5.15943C2.99463 5.31153 3.63296 6.04086 3.63545 7.02453C3.63794 8.07801 3.63545 9.13274 3.63545 10.1862C3.63545 10.2548 3.63545 10.3221 3.63545 10.4044V10.4031Z" fill="black"/>
<path d="M17.5692 4.90521C17.0593 4.98999 16.6616 5.49491 16.6603 6.06342C16.6566 7.09197 16.6528 8.12051 16.6628 9.14906C16.6678 9.6116 16.5095 9.98187 16.1479 10.2724C15.9272 10.4494 15.7178 10.6401 15.5071 10.8222C15.5158 10.8471 15.5171 10.8608 15.5245 10.8683C15.8375 11.1625 15.8337 11.276 15.5021 11.5602C14.865 12.1063 14.2305 12.6561 13.5871 13.1947C13.5036 13.2645 13.369 13.3231 13.2705 13.3069C13.1832 13.2932 13.0635 13.1785 13.0486 13.0912C13.0311 12.9952 13.086 12.8493 13.1608 12.7808C13.5086 12.4604 13.8739 12.1599 14.2329 11.852C14.4723 11.6462 14.7117 11.4418 15.0009 11.1924C14.7665 11.1151 14.5745 11.0229 14.3726 10.9917C13.93 10.9219 13.5148 11.0216 13.1682 11.3159C12.4115 11.9554 11.6572 12.5975 10.9104 13.2483C10.4978 13.6073 10.3008 14.0761 10.2983 14.6222C10.2945 15.455 10.2983 16.2878 10.2983 17.1219C10.2983 17.1792 10.302 17.2366 10.2945 17.2927C10.2746 17.4572 10.1437 17.5782 9.98785 17.5682C9.82079 17.557 9.72354 17.461 9.69736 17.2964C9.68988 17.2528 9.69362 17.2079 9.69362 17.1642C9.69362 16.3252 9.69362 15.4862 9.69362 14.6459C9.69362 13.8891 9.97788 13.2583 10.5501 12.7633C11.2695 12.1387 11.9938 11.5203 12.7182 10.9007C13.2393 10.4556 13.8452 10.306 14.5396 10.4033C14.5396 10.3285 14.5396 10.2611 14.5396 10.1926C14.5396 9.14532 14.5396 8.09683 14.5396 7.04958C14.5409 6.03849 15.173 5.3104 16.1679 5.1583C16.2414 5.14708 16.3274 5.09222 16.3723 5.03238C16.7264 4.54865 17.1952 4.27936 17.7936 4.2457C18.0492 4.23198 18.1713 4.35042 18.1713 4.60226C18.1713 6.60325 18.1788 8.603 18.1676 10.604C18.1639 11.3146 17.8646 11.9118 17.3286 12.3793C16.1392 13.4153 14.9473 14.4489 13.7542 15.4799C13.6644 15.5572 13.6258 15.632 13.6283 15.7517C13.6358 16.2317 13.632 16.7104 13.6308 17.1904C13.6308 17.4286 13.5161 17.5694 13.3278 17.5682C13.1408 17.5682 13.0274 17.4273 13.0274 17.1892C13.0274 16.6344 13.0174 16.0784 13.0348 15.5236C13.0386 15.4026 13.1096 15.2505 13.2007 15.1707C14.42 14.101 15.6455 13.0401 16.8735 11.9816C17.3373 11.5827 17.5717 11.0865 17.5704 10.4743C17.5679 8.67531 17.5704 6.87753 17.5704 5.07851C17.5704 5.02241 17.5704 4.9663 17.5704 4.90771L17.5692 4.90521Z" fill="black"/>
<path d="M13.932 4.84478C13.932 7.51651 11.749 9.69578 9.07725 9.69079C6.413 9.68581 4.24121 7.50903 4.24121 4.84478C4.24246 2.17305 6.42422 -0.00497835 9.0972 8.5466e-06C11.7614 0.00499544 13.9332 2.18053 13.9332 4.84478H13.932ZM13.3286 4.83979C13.3261 2.50343 11.4236 0.603423 9.08723 0.60467C6.75211 0.60467 4.84961 2.50592 4.84712 4.84228C4.84587 7.18612 6.75461 9.09236 9.09845 9.08738C11.4323 9.08364 13.3311 7.17615 13.3286 4.83979Z" fill="black"/>
<path d="M9.08023 1.21167C11.0862 1.20918 12.7194 2.83865 12.7207 4.84338C12.7207 6.84811 11.0899 8.48132 9.08521 8.48007C7.08921 8.48007 5.45849 6.8531 5.45475 4.85709C5.44977 2.84987 7.07674 1.21417 9.08023 1.21167ZM9.40063 3.65151C9.74224 3.61037 9.94919 3.75374 9.99408 4.0542C10.029 4.29108 10.1574 4.41451 10.3407 4.38832C10.5239 4.36214 10.6237 4.20132 10.5987 3.97317C10.5514 3.53681 10.2322 3.16654 9.80457 3.0643C9.67242 3.03314 9.53528 3.0269 9.40313 3.0082C9.36947 2.55065 9.30838 2.43097 9.10267 2.42224C8.89571 2.41351 8.83587 2.51824 8.76855 3.0082C7.96192 3.12789 7.57792 3.47074 7.57543 4.07914C7.57418 4.3422 7.65896 4.57409 7.82852 4.77356C8.07412 5.06405 8.40201 5.16379 8.77478 5.15257V6.04647C8.42694 6.06891 8.22871 5.93177 8.18508 5.64627C8.14643 5.39568 8.01802 5.27101 7.82852 5.30342C7.64151 5.33583 7.548 5.50414 7.58291 5.74476C7.64649 6.18485 7.96566 6.53394 8.40201 6.63243C8.52294 6.65986 8.64761 6.6636 8.78101 6.6798C8.80595 6.91668 8.7112 7.25454 9.08646 7.25828C9.47544 7.26078 9.36822 6.90795 9.40437 6.67731C10.1537 6.605 10.5663 6.25841 10.6025 5.67744C10.6187 5.41563 10.5489 5.1775 10.3918 4.96805C10.1449 4.63892 9.79709 4.52546 9.40313 4.53544V3.65151H9.40063Z" fill="black"/>
<path d="M8.7741 3.64476V4.53118C8.55841 4.56484 8.38013 4.51746 8.25795 4.33544C8.15447 4.18085 8.14949 4.01503 8.24798 3.8567C8.36767 3.66346 8.54969 3.61109 8.77534 3.64476H8.7741Z" fill="black"/>
<path d="M9.40298 5.15749C9.77201 5.13754 10.0027 5.32081 9.99393 5.61503C9.98645 5.90303 9.75705 6.07383 9.40298 6.0464V5.15749Z" fill="black"/>
</svg>
