<svg width="254" height="37" viewBox="0 0 254 37" fill="none" xmlns="http://www.w3.org/2000/svg">
<path d="M22.8177 9.21424C18.7729 9.21424 14.7241 9.21424 10.6793 9.20607C10.3972 9.20607 10.2023 9.29187 10.0031 9.48798C7.87084 11.5962 5.7344 13.7003 3.59795 15.8003C3.49424 15.9024 3.34075 15.9678 3.25778 16.0822C3.18311 16.1843 3.16236 16.3273 3.14162 16.454C3.11673 16.5847 3.14577 16.7277 3.10843 16.8544C2.87612 17.647 2.05058 18.1209 1.23749 17.9371C0.432688 17.7532 -0.106609 16.9851 0.0178441 16.1966C0.154743 15.3345 0.876572 14.7707 1.76849 14.8647C2.01324 14.8933 2.14185 14.8075 2.29119 14.6604C6.15339 10.8608 10.0156 7.06112 13.8695 3.25331C14.052 3.07354 14.2346 3 14.4918 3C21.3325 3.00817 28.1733 3.00409 35.0141 3.00409C35.299 3.00409 35.4414 3.13891 35.4414 3.40856C35.4414 5.22667 35.4372 7.04069 35.4497 8.85879C35.4497 9.1407 35.375 9.21424 35.0888 9.21424C30.9984 9.20607 26.9122 9.20607 22.8218 9.20607L22.8177 9.21424ZM0.411946 16.3845C0.399501 17.0423 0.913907 17.5775 1.56936 17.5857C2.20822 17.598 2.75582 17.0832 2.77241 16.4581C2.789 15.788 2.258 15.2365 1.59425 15.2324C0.95954 15.2324 0.420243 15.7553 0.407798 16.3845H0.411946Z" fill="#1353F4"/>
<path d="M22.1715 9.89844H28.4522C28.4564 10.0047 28.4688 10.115 28.4688 10.2294C28.4688 15.267 28.4605 20.3005 28.4688 25.338C28.4688 25.5546 28.3858 25.6894 28.2406 25.8324C25.316 28.7087 22.3955 31.585 19.4708 34.4612C19.3173 34.6124 19.2634 34.7268 19.3464 34.9515C19.5953 35.6257 19.3298 36.3529 18.7324 36.741C18.1267 37.1332 17.3178 37.0801 16.7826 36.6062C16.2516 36.1364 16.1064 35.3723 16.4259 34.7432C16.7453 34.1099 17.4422 33.7667 18.1516 33.9179C18.3839 33.9669 18.5208 33.9097 18.6826 33.7503C19.7571 32.6758 20.8398 31.6095 21.9309 30.5513C22.1092 30.3797 22.1756 30.204 22.1715 29.963C22.1673 23.43 22.1673 16.8971 22.1673 10.3601V9.90661L22.1715 9.89844ZM17.8529 36.598C18.5167 36.598 19.0394 36.0751 19.0352 35.4255C19.0311 34.7881 18.5125 34.2774 17.8612 34.2733C17.1892 34.2692 16.6665 34.7758 16.6623 35.4295C16.6623 36.0832 17.185 36.598 17.8488 36.598H17.8529Z" fill="#1353F4"/>
<path d="M29.1362 9.89471H35.4377V10.2542C35.4377 14.7362 35.4377 19.2222 35.4418 23.7041C35.4418 23.9411 35.363 24.0964 35.2012 24.2557C31.7331 27.6631 28.2733 31.0746 24.8052 34.482C24.6517 34.6332 24.5771 34.7762 24.5812 35.005C24.6019 35.9243 23.9133 36.5861 22.9758 36.582C22.1004 36.578 21.4076 35.8752 21.4201 35.005C21.4325 34.1348 22.1627 33.4402 23.0629 33.4729C23.3035 33.4811 23.457 33.4198 23.6229 33.2563C25.3736 31.524 27.1242 29.7958 28.8873 28.0717C29.0698 27.8919 29.1445 27.7162 29.1445 27.4629C29.1362 21.7471 29.1403 16.0313 29.1403 10.3114V9.89062L29.1362 9.89471ZM23.0131 36.2062C23.6561 36.2062 24.2078 35.6546 24.1995 35.0213C24.1912 34.3962 23.6519 33.8692 23.0214 33.861C22.3659 33.8528 21.8142 34.3921 21.8183 35.0336C21.8225 35.675 22.3659 36.2103 23.0172 36.2103L23.0131 36.2062Z" fill="#1353F4"/>
<path d="M21.4741 9.89182V16.0734H21.0177C16.8859 16.0734 12.7582 16.0734 8.62634 16.0693C8.35669 16.0693 8.16586 16.1428 7.97504 16.3349C6.45671 17.8425 4.93008 19.346 3.3993 20.8413C3.23751 21.0006 3.15869 21.1559 3.16284 21.3929C3.17944 22.2794 2.49079 22.9454 1.59888 22.9454C0.715261 22.9454 0.0100259 22.2631 0.00587748 21.401C0.00172903 20.5267 0.711113 19.8199 1.60718 19.8362C1.86438 19.8403 2.04276 19.7709 2.22529 19.587C5.42789 16.4207 8.64293 13.2584 11.858 10.1002C11.9658 9.99396 12.1442 9.88773 12.2894 9.88773C15.2887 9.87547 18.2839 9.87956 21.2832 9.87956C21.3372 9.87956 21.3869 9.88365 21.4782 9.89182H21.4741ZM2.77704 21.3888C2.77704 20.7433 2.23774 20.208 1.58643 20.2121C0.943425 20.2121 0.420722 20.731 0.412425 21.3684C0.404128 22.0221 0.926832 22.5532 1.58229 22.5573C2.23774 22.5573 2.77289 22.0343 2.77704 21.3888Z" fill="#1353F4"/>
<path d="M42.0988 4.032H48.6608V5.715H43.8328V8.622H48.6268V10.237H43.8158V14.351H48.5928V16H42.0988V4.032ZM52.8936 3.131L56.8716 12.617L61.0196 3.216L63.3996 16.051L61.6486 16.034C61.4616 14.912 61.2916 13.79 61.0706 12.685C60.9006 11.818 60.7306 10.951 60.6116 10.084C60.5266 9.455 60.4756 8.809 60.4246 8.163L56.7866 16.646L53.3526 8.231C53.2846 8.945 53.2166 9.642 53.0976 10.339C52.9446 11.291 52.7236 12.243 52.5366 13.212C52.3496 14.147 52.1626 15.082 51.9926 16.017H50.2586L52.8936 3.131ZM65.8224 4.032H72.3844V5.715H67.5564V8.622H72.3504V10.237H67.5394V14.351H72.3164V16H65.8224V4.032ZM83.1113 16H81.0373L77.3823 10.883H76.6513V16.017H74.9683V4.015H78.4703C79.3033 4.066 80.1023 4.117 80.7483 4.61C81.6153 5.239 81.9893 6.327 81.9893 7.364C81.9893 7.874 81.8873 9.472 80.4933 10.339C80.2213 10.509 80.0003 10.594 79.4053 10.764C79.9663 11.563 80.5103 12.362 81.0883 13.144C81.5133 13.739 81.9553 14.317 82.3803 14.912C82.6353 15.269 82.8733 15.643 83.1113 16ZM78.3513 5.664H76.6853V9.421H78.0283C78.8443 9.353 79.4563 9.268 79.8813 8.588C80.0003 8.401 80.2213 7.993 80.2213 7.364C80.2213 7.16 80.1873 6.412 79.6433 6.021C79.2523 5.732 78.7933 5.698 78.3513 5.664ZM95.1392 6.106L93.9832 7.347C93.7622 7.126 93.5412 6.905 93.3202 6.701C92.9122 6.344 91.8242 5.426 90.1922 5.426C89.6652 5.426 88.5772 5.528 87.4892 6.429C85.9422 7.687 85.7892 9.387 85.7892 10.05C85.7892 12.532 87.6422 14.589 90.1582 14.589C90.6512 14.589 91.8242 14.504 92.8612 13.535C93.2522 13.161 93.5582 12.719 93.7452 12.209C93.8472 11.971 93.8812 11.818 93.9322 11.342H90.9402V9.659L95.8532 9.676C95.8532 9.931 95.8872 10.56 95.7682 11.274C95.6832 11.852 95.3942 13.229 94.2552 14.487C93.6262 15.167 92.4022 16.204 90.1072 16.204C89.4102 16.204 87.5742 16.102 86.0782 14.776C84.7692 13.603 84.0552 11.852 84.0552 10.067C84.0552 9.319 84.1742 7.636 85.4322 6.055C87.0812 4.015 89.3252 3.794 90.2432 3.794C91.0252 3.794 92.5722 3.93 94.1532 5.188C94.5102 5.46 94.8162 5.783 95.1392 6.106ZM98.046 4.032H104.608V5.715H99.78V8.622H104.574V10.237H99.763V14.351H104.54V16H98.046V4.032ZM115.335 16H113.261L109.606 10.883H108.875V16.017H107.192V4.015H110.694C111.527 4.066 112.326 4.117 112.972 4.61C113.839 5.239 114.213 6.327 114.213 7.364C114.213 7.874 114.111 9.472 112.717 10.339C112.445 10.509 112.224 10.594 111.629 10.764C112.19 11.563 112.734 12.362 113.312 13.144C113.737 13.739 114.179 14.317 114.604 14.912C114.859 15.269 115.097 15.643 115.335 16ZM110.575 5.664H108.909V9.421H110.252C111.068 9.353 111.68 9.268 112.105 8.588C112.224 8.401 112.445 7.993 112.445 7.364C112.445 7.16 112.411 6.412 111.867 6.021C111.476 5.732 111.017 5.698 110.575 5.664ZM117.171 4.032H123.733V5.715H118.905V8.622H123.699V10.237H118.888V14.351H123.665V16H117.171V4.032ZM129.164 4.032H136.559V5.715H133.703V16H132.003V5.715H129.164V4.032ZM138.072 4.032H144.634V5.715H139.806V8.622H144.6V10.237H139.789V14.351H144.566V16H138.072V4.032ZM155.31 4.559L155.293 6.633C155.089 6.497 154.902 6.361 154.681 6.225C154.307 5.987 153.508 5.494 152.284 5.494C150.907 5.494 149.496 6.157 148.68 7.228C147.881 8.282 147.813 9.557 147.813 10.016C147.813 10.339 147.864 11.172 148.238 12.022C148.935 13.552 150.618 14.504 152.301 14.504C153.508 14.504 154.273 14.045 155.259 13.382V15.405C154.715 15.66 153.78 16.17 152.267 16.17C151.519 16.17 149.768 16.034 148.153 14.691C147.422 14.062 146.079 12.583 146.079 9.999C146.079 8.452 146.589 6.956 147.575 5.868C148.731 4.593 150.567 3.794 152.301 3.794C153.423 3.794 154.256 4.134 155.31 4.559ZM157.809 4.032H159.543V8.826H164.915V3.998H166.683V16.017H164.932V10.441H159.526V16H157.809V4.032ZM178.702 10.203V4.049H180.453V16.476C179.093 15.082 177.733 13.705 176.356 12.328C175.54 11.512 174.741 10.696 173.942 9.863C173.109 8.996 172.31 8.112 171.511 7.211C171.545 7.789 171.596 8.367 171.613 8.928C171.63 9.438 171.63 9.948 171.647 10.458V16H169.879V3.233C171.562 4.899 173.245 6.565 174.894 8.248C176.22 9.608 177.529 10.985 178.821 12.345C178.787 11.971 178.736 11.58 178.736 11.206C178.719 10.866 178.719 10.543 178.702 10.203ZM182.586 9.812C182.637 8.316 183.249 6.82 184.286 5.732C185.459 4.491 187.125 3.811 188.825 3.811C190.831 3.811 192.242 4.763 192.803 5.205C194.231 6.344 195.098 8.146 195.098 10.016C195.098 10.424 195.047 11.325 194.605 12.345C193.602 14.725 191.341 16.153 188.825 16.153C186.802 16.153 185.357 15.167 184.796 14.708C183.351 13.535 182.535 11.716 182.586 9.812ZM184.32 9.778C184.269 10.832 184.609 11.937 185.272 12.77C186.122 13.841 187.465 14.47 188.825 14.47C189.335 14.47 190.525 14.385 191.63 13.535C192.701 12.702 193.364 11.393 193.364 10.016C193.364 9.166 193.109 8.486 192.99 8.214C192.259 6.548 190.61 5.545 188.825 5.545C187.822 5.545 186.819 5.868 186.037 6.48C185.544 6.854 184.405 7.959 184.32 9.778ZM197.155 4.032H198.889V14.402H202.544V16.017H197.155V4.032ZM202.757 9.812C202.808 8.316 203.42 6.82 204.457 5.732C205.63 4.491 207.296 3.811 208.996 3.811C211.002 3.811 212.413 4.763 212.974 5.205C214.402 6.344 215.269 8.146 215.269 10.016C215.269 10.424 215.218 11.325 214.776 12.345C213.773 14.725 211.512 16.153 208.996 16.153C206.973 16.153 205.528 15.167 204.967 14.708C203.522 13.535 202.706 11.716 202.757 9.812ZM204.491 9.778C204.44 10.832 204.78 11.937 205.443 12.77C206.293 13.841 207.636 14.47 208.996 14.47C209.506 14.47 210.696 14.385 211.801 13.535C212.872 12.702 213.535 11.393 213.535 10.016C213.535 9.166 213.28 8.486 213.161 8.214C212.43 6.548 210.781 5.545 208.996 5.545C207.993 5.545 206.99 5.868 206.208 6.48C205.715 6.854 204.576 7.959 204.491 9.778ZM227.968 6.106L226.812 7.347C226.591 7.126 226.37 6.905 226.149 6.701C225.741 6.344 224.653 5.426 223.021 5.426C222.494 5.426 221.406 5.528 220.318 6.429C218.771 7.687 218.618 9.387 218.618 10.05C218.618 12.532 220.471 14.589 222.987 14.589C223.48 14.589 224.653 14.504 225.69 13.535C226.081 13.161 226.387 12.719 226.574 12.209C226.676 11.971 226.71 11.818 226.761 11.342H223.769V9.659L228.682 9.676C228.682 9.931 228.716 10.56 228.597 11.274C228.512 11.852 228.223 13.229 227.084 14.487C226.455 15.167 225.231 16.204 222.936 16.204C222.239 16.204 220.403 16.102 218.907 14.776C217.598 13.603 216.884 11.852 216.884 10.067C216.884 9.319 217.003 7.636 218.261 6.055C219.91 4.015 222.154 3.794 223.072 3.794C223.854 3.794 225.401 3.93 226.982 5.188C227.339 5.46 227.645 5.783 227.968 6.106ZM230.79 3.998H232.558V15.966H230.79V3.998ZM235.839 4.032H242.401V5.715H237.573V8.622H242.367V10.237H237.556V14.351H242.333V16H235.839V4.032ZM251.258 5.766L249.745 6.633C249.643 6.48 249.524 6.327 249.405 6.174C248.793 5.443 248.215 5.324 247.739 5.324C247.484 5.341 247.263 5.375 247.025 5.477C246.26 5.817 246.124 6.582 246.124 6.854C246.124 7.687 246.923 8.027 247.093 8.112L249.286 9.217C249.626 9.404 249.898 9.557 250.204 9.795C251.36 10.713 251.496 11.818 251.496 12.396C251.496 12.668 251.479 13.093 251.258 13.705C250.663 15.252 249.286 16.204 247.62 16.204C247.144 16.204 245.988 16.119 244.968 15.235C244.152 14.521 243.846 13.722 243.523 12.719L245.138 12.362C245.359 12.94 245.529 13.263 245.682 13.501C246.124 14.147 246.855 14.623 247.688 14.623C248.079 14.623 248.419 14.504 248.538 14.453C249.269 14.13 249.745 13.382 249.745 12.583C249.745 11.648 249.15 11.07 248.368 10.645C247.552 10.203 246.651 9.982 245.869 9.489C244.577 8.673 244.373 7.551 244.373 6.939C244.373 6.582 244.458 5.681 245.121 4.933C245.478 4.525 246.345 3.794 247.79 3.794C248.232 3.794 249.252 3.879 250.204 4.627C250.646 4.967 250.918 5.324 251.258 5.766Z" fill="white"/>
<path d="M41.658 23.256H46.443V24.345H44.595V31H43.495V24.345H41.658V23.256ZM47.4221 23.256H51.6681V24.345H48.5441V26.226H51.6461V27.271H48.5331V29.933H51.6241V31H47.4221V23.256ZM58.5761 23.597L58.5651 24.939C58.4331 24.851 58.3121 24.763 58.1691 24.675C57.9271 24.521 57.4101 24.202 56.6181 24.202C55.7271 24.202 54.8141 24.631 54.2861 25.324C53.7691 26.006 53.7251 26.831 53.7251 27.128C53.7251 27.337 53.7581 27.876 54.0001 28.426C54.4511 29.416 55.5401 30.032 56.6291 30.032C57.4101 30.032 57.9051 29.735 58.5431 29.306V30.615C58.1911 30.78 57.5861 31.11 56.6071 31.11C56.1231 31.11 54.9901 31.022 53.9451 30.153C53.4721 29.746 52.6031 28.789 52.6031 27.117C52.6031 26.116 52.9331 25.148 53.5711 24.444C54.3191 23.619 55.5071 23.102 56.6291 23.102C57.3551 23.102 57.8941 23.322 58.5761 23.597ZM60.193 23.256H61.315V26.358H64.791V23.234H65.935V31.011H64.802V27.403H61.304V31H60.193V23.256ZM73.7118 27.249V23.267H74.8448V31.308C73.9648 30.406 73.0848 29.515 72.1938 28.624C71.6658 28.096 71.1488 27.568 70.6318 27.029C70.0928 26.468 69.5758 25.896 69.0588 25.313C69.0808 25.687 69.1138 26.061 69.1248 26.424C69.1358 26.754 69.1358 27.084 69.1468 27.414V31H68.0028V22.739C69.0918 23.817 70.1808 24.895 71.2478 25.984C72.1058 26.864 72.9528 27.755 73.7888 28.635C73.7668 28.393 73.7338 28.14 73.7338 27.898C73.7228 27.678 73.7228 27.469 73.7118 27.249ZM76.2252 26.996C76.2582 26.028 76.6542 25.06 77.3252 24.356C78.0842 23.553 79.1622 23.113 80.2622 23.113C81.5602 23.113 82.4732 23.729 82.8362 24.015C83.7602 24.752 84.3212 25.918 84.3212 27.128C84.3212 27.392 84.2882 27.975 84.0022 28.635C83.3532 30.175 81.8902 31.099 80.2622 31.099C78.9532 31.099 78.0182 30.461 77.6552 30.164C76.7202 29.405 76.1922 28.228 76.2252 26.996ZM77.3472 26.974C77.3142 27.656 77.5342 28.371 77.9632 28.91C78.5132 29.603 79.3822 30.01 80.2622 30.01C80.5922 30.01 81.3622 29.955 82.0772 29.405C82.7702 28.866 83.1992 28.019 83.1992 27.128C83.1992 26.578 83.0342 26.138 82.9572 25.962C82.4842 24.884 81.4172 24.235 80.2622 24.235C79.6132 24.235 78.9642 24.444 78.4582 24.84C78.1392 25.082 77.4022 25.797 77.3472 26.974ZM85.6522 23.256H86.7742V29.966H89.1392V31.011H85.6522V23.256ZM89.2769 26.996C89.3099 26.028 89.7059 25.06 90.3769 24.356C91.1359 23.553 92.2139 23.113 93.3139 23.113C94.6119 23.113 95.5249 23.729 95.8879 24.015C96.8119 24.752 97.3729 25.918 97.3729 27.128C97.3729 27.392 97.3399 27.975 97.0539 28.635C96.4049 30.175 94.9419 31.099 93.3139 31.099C92.0049 31.099 91.0699 30.461 90.7069 30.164C89.7719 29.405 89.2439 28.228 89.2769 26.996ZM90.3989 26.974C90.3659 27.656 90.5859 28.371 91.0149 28.91C91.5649 29.603 92.4339 30.01 93.3139 30.01C93.6439 30.01 94.4139 29.955 95.1289 29.405C95.8219 28.866 96.2509 28.019 96.2509 27.128C96.2509 26.578 96.0859 26.138 96.0089 25.962C95.5359 24.884 94.4689 24.235 93.3139 24.235C92.6649 24.235 92.0159 24.444 91.5099 24.84C91.1909 25.082 90.4539 25.797 90.3989 26.974ZM105.59 24.598L104.842 25.401C104.699 25.258 104.556 25.115 104.413 24.983C104.149 24.752 103.445 24.158 102.389 24.158C102.048 24.158 101.344 24.224 100.64 24.807C99.639 25.621 99.54 26.721 99.54 27.15C99.54 28.756 100.739 30.087 102.367 30.087C102.686 30.087 103.445 30.032 104.116 29.405C104.369 29.163 104.567 28.877 104.688 28.547C104.754 28.393 104.776 28.294 104.809 27.986H102.873V26.897L106.052 26.908C106.052 27.073 106.074 27.48 105.997 27.942C105.942 28.316 105.755 29.207 105.018 30.021C104.611 30.461 103.819 31.132 102.334 31.132C101.883 31.132 100.695 31.066 99.727 30.208C98.88 29.449 98.418 28.316 98.418 27.161C98.418 26.677 98.495 25.588 99.309 24.565C100.376 23.245 101.828 23.102 102.422 23.102C102.928 23.102 103.929 23.19 104.952 24.004C105.183 24.18 105.381 24.389 105.59 24.598ZM108.054 23.256L109.792 26.424C110.089 25.907 110.386 25.39 110.683 24.895C110.859 24.609 111.024 24.323 111.189 24.037C111.343 23.784 111.475 23.531 111.607 23.267H112.971C112.542 23.982 112.102 24.697 111.684 25.412L110.364 27.656V31H109.275V27.656C109.066 27.337 108.868 27.007 108.67 26.688C108.395 26.204 108.12 25.709 107.834 25.225C107.46 24.565 107.064 23.916 106.679 23.256H108.054ZM116.551 26.996C116.584 26.028 116.98 25.06 117.651 24.356C118.41 23.553 119.488 23.113 120.588 23.113C121.886 23.113 122.799 23.729 123.162 24.015C124.086 24.752 124.647 25.918 124.647 27.128C124.647 27.392 124.614 27.975 124.328 28.635C123.679 30.175 122.216 31.099 120.588 31.099C119.279 31.099 118.344 30.461 117.981 30.164C117.046 29.405 116.518 28.228 116.551 26.996ZM117.673 26.974C117.64 27.656 117.86 28.371 118.289 28.91C118.839 29.603 119.708 30.01 120.588 30.01C120.918 30.01 121.688 29.955 122.403 29.405C123.096 28.866 123.525 28.019 123.525 27.128C123.525 26.578 123.36 26.138 123.283 25.962C122.81 24.884 121.743 24.235 120.588 24.235C119.939 24.235 119.29 24.444 118.784 24.84C118.465 25.082 117.728 25.797 117.673 26.974ZM131.687 27.249V23.267H132.82V31.308C131.94 30.406 131.06 29.515 130.169 28.624C129.641 28.096 129.124 27.568 128.607 27.029C128.068 26.468 127.551 25.896 127.034 25.313C127.056 25.687 127.089 26.061 127.1 26.424C127.111 26.754 127.111 27.084 127.122 27.414V31H125.978V22.739C127.067 23.817 128.156 24.895 129.223 25.984C130.081 26.864 130.928 27.755 131.764 28.635C131.742 28.393 131.709 28.14 131.709 27.898C131.698 27.678 131.698 27.469 131.687 27.249ZM143.43 23.289H144.574L141.296 31.517C141.021 30.747 140.746 29.988 140.46 29.229C140.229 28.613 139.976 28.008 139.756 27.392C139.569 26.853 139.404 26.303 139.239 25.753C138.898 26.809 138.546 27.865 138.172 28.899C137.853 29.79 137.523 30.681 137.182 31.572L133.728 23.256L134.96 23.267C135.345 24.18 135.741 25.104 136.115 26.028C136.467 26.908 136.808 27.799 137.149 28.679C137.336 28.074 137.534 27.458 137.754 26.853C137.952 26.292 138.161 25.731 138.37 25.17C138.656 24.4 138.931 23.619 139.206 22.849C139.547 23.762 139.899 24.675 140.24 25.577C140.471 26.171 140.702 26.754 140.9 27.348C141.054 27.81 141.197 28.283 141.329 28.756C141.483 28.294 141.626 27.821 141.802 27.37C142.022 26.776 142.275 26.204 142.506 25.621C142.814 24.84 143.122 24.07 143.43 23.289ZM147.549 22.794L151.113 31.011H149.892L149.111 29.13H145.767L144.876 31H143.655L147.549 22.794ZM147.505 25.401L146.229 28.129H148.693L147.505 25.401ZM157.394 31H156.052L153.687 27.689H153.214V31.011H152.125V23.245H154.391C154.93 23.278 155.447 23.311 155.865 23.63C156.426 24.037 156.668 24.741 156.668 25.412C156.668 25.742 156.602 26.776 155.7 27.337C155.524 27.447 155.381 27.502 154.996 27.612C155.359 28.129 155.711 28.646 156.085 29.152C156.36 29.537 156.646 29.911 156.921 30.296C157.086 30.527 157.24 30.769 157.394 31ZM154.314 24.312H153.236V26.743H154.105C154.633 26.699 155.029 26.644 155.304 26.204C155.381 26.083 155.524 25.819 155.524 25.412C155.524 25.28 155.502 24.796 155.15 24.543C154.897 24.356 154.6 24.334 154.314 24.312ZM160.419 30.967H158.538V23.245C160.122 23.201 160.507 23.234 161.409 23.311C162.091 23.443 162.322 23.52 162.652 23.685C163.895 24.323 164.5 25.632 164.5 27.007C164.5 27.458 164.423 28.69 163.543 29.713C163.103 30.241 162.663 30.461 162.432 30.56C161.959 30.78 161.497 30.868 160.419 30.967ZM159.627 24.334V29.944C159.891 29.944 160.155 29.955 160.419 29.933C161.486 29.889 162.388 29.57 162.971 28.646C163.136 28.404 163.455 27.821 163.455 27.007C163.455 25.698 162.619 25.005 162.234 24.752C161.453 24.257 160.54 24.29 159.627 24.334ZM170.396 24.378L169.417 24.939C169.351 24.84 169.274 24.741 169.197 24.642C168.801 24.169 168.427 24.092 168.119 24.092C167.954 24.103 167.811 24.125 167.657 24.191C167.162 24.411 167.074 24.906 167.074 25.082C167.074 25.621 167.591 25.841 167.701 25.896L169.12 26.611C169.34 26.732 169.516 26.831 169.714 26.985C170.462 27.579 170.55 28.294 170.55 28.668C170.55 28.844 170.539 29.119 170.396 29.515C170.011 30.516 169.12 31.132 168.042 31.132C167.734 31.132 166.986 31.077 166.326 30.505C165.798 30.043 165.6 29.526 165.391 28.877L166.436 28.646C166.579 29.02 166.689 29.229 166.788 29.383C167.074 29.801 167.547 30.109 168.086 30.109C168.339 30.109 168.559 30.032 168.636 29.999C169.109 29.79 169.417 29.306 169.417 28.789C169.417 28.184 169.032 27.81 168.526 27.535C167.998 27.249 167.415 27.106 166.909 26.787C166.073 26.259 165.941 25.533 165.941 25.137C165.941 24.906 165.996 24.323 166.425 23.839C166.656 23.575 167.217 23.102 168.152 23.102C168.438 23.102 169.098 23.157 169.714 23.641C170 23.861 170.176 24.092 170.396 24.378ZM178.035 22.794L181.599 31.011H180.378L179.597 29.13H176.253L175.362 31H174.141L178.035 22.794ZM177.991 25.401L176.715 28.129H179.179L177.991 25.401ZM188.309 27.249V23.267H189.442V31.308C188.562 30.406 187.682 29.515 186.791 28.624C186.263 28.096 185.746 27.568 185.229 27.029C184.69 26.468 184.173 25.896 183.656 25.313C183.678 25.687 183.711 26.061 183.722 26.424C183.733 26.754 183.733 27.084 183.744 27.414V31H182.6V22.739C183.689 23.817 184.778 24.895 185.845 25.984C186.703 26.864 187.55 27.755 188.386 28.635C188.364 28.393 188.331 28.14 188.331 27.898C188.32 27.678 188.32 27.469 188.309 27.249ZM193.441 30.967H191.56V23.245C193.144 23.201 193.529 23.234 194.431 23.311C195.113 23.443 195.344 23.52 195.674 23.685C196.917 24.323 197.522 25.632 197.522 27.007C197.522 27.458 197.445 28.69 196.565 29.713C196.125 30.241 195.685 30.461 195.454 30.56C194.981 30.78 194.519 30.868 193.441 30.967ZM192.649 24.334V29.944C192.913 29.944 193.177 29.955 193.441 29.933C194.508 29.889 195.41 29.57 195.993 28.646C196.158 28.404 196.477 27.821 196.477 27.007C196.477 25.698 195.641 25.005 195.256 24.752C194.475 24.257 193.562 24.29 192.649 24.334ZM201.751 23.267H202.873V27.843C202.884 28.019 202.884 28.184 202.906 28.36C202.961 28.943 203.115 29.449 203.621 29.779C203.786 29.889 204.138 30.076 204.644 30.076C205.073 30.076 205.381 29.933 205.524 29.845C206.239 29.405 206.283 28.635 206.305 27.887V23.267H207.471V28.041C207.471 28.162 207.46 28.294 207.46 28.415C207.449 28.635 207.405 29.361 206.998 29.955C206.47 30.725 205.48 31.121 204.578 31.121C203.434 31.121 202.301 30.483 201.905 29.35C201.762 28.954 201.762 28.558 201.751 28.129V23.267ZM211.326 27.843H210.556V30.989H209.467V23.267H210.853C211.194 23.267 211.777 23.278 212.14 23.333C212.437 23.366 213.042 23.465 213.515 24.114C213.801 24.51 213.933 25.027 213.933 25.511C213.933 25.643 213.933 25.885 213.845 26.193C213.746 26.545 213.427 27.359 212.481 27.689C212.107 27.81 211.733 27.821 211.326 27.843ZM210.567 24.4V26.765H211.249C211.832 26.743 212.283 26.71 212.613 26.248C212.811 25.962 212.844 25.676 212.844 25.544C212.844 25.379 212.789 24.928 212.382 24.642C212.085 24.433 211.733 24.411 211.37 24.4H210.567ZM224.147 23.289H225.291L222.013 31.517C221.738 30.747 221.463 29.988 221.177 29.229C220.946 28.613 220.693 28.008 220.473 27.392C220.286 26.853 220.121 26.303 219.956 25.753C219.615 26.809 219.263 27.865 218.889 28.899C218.57 29.79 218.24 30.681 217.899 31.572L214.445 23.256L215.677 23.267C216.062 24.18 216.458 25.104 216.832 26.028C217.184 26.908 217.525 27.799 217.866 28.679C218.053 28.074 218.251 27.458 218.471 26.853C218.669 26.292 218.878 25.731 219.087 25.17C219.373 24.4 219.648 23.619 219.923 22.849C220.264 23.762 220.616 24.675 220.957 25.577C221.188 26.171 221.419 26.754 221.617 27.348C221.771 27.81 221.914 28.283 222.046 28.756C222.2 28.294 222.343 27.821 222.519 27.37C222.739 26.776 222.992 26.204 223.223 25.621C223.531 24.84 223.839 24.07 224.147 23.289ZM228.266 22.794L231.83 31.011H230.609L229.828 29.13H226.484L225.593 31H224.372L228.266 22.794ZM228.222 25.401L226.946 28.129H229.41L228.222 25.401ZM238.111 31H236.769L234.404 27.689H233.931V31.011H232.842V23.245H235.108C235.647 23.278 236.164 23.311 236.582 23.63C237.143 24.037 237.385 24.741 237.385 25.412C237.385 25.742 237.319 26.776 236.417 27.337C236.241 27.447 236.098 27.502 235.713 27.612C236.076 28.129 236.428 28.646 236.802 29.152C237.077 29.537 237.363 29.911 237.638 30.296C237.803 30.527 237.957 30.769 238.111 31ZM235.031 24.312H233.953V26.743H234.822C235.35 26.699 235.746 26.644 236.021 26.204C236.098 26.083 236.241 25.819 236.241 25.412C236.241 25.28 236.219 24.796 235.867 24.543C235.614 24.356 235.317 24.334 235.031 24.312ZM241.136 30.967H239.255V23.245C240.839 23.201 241.224 23.234 242.126 23.311C242.808 23.443 243.039 23.52 243.369 23.685C244.612 24.323 245.217 25.632 245.217 27.007C245.217 27.458 245.14 28.69 244.26 29.713C243.82 30.241 243.38 30.461 243.149 30.56C242.676 30.78 242.214 30.868 241.136 30.967ZM240.344 24.334V29.944C240.608 29.944 240.872 29.955 241.136 29.933C242.203 29.889 243.105 29.57 243.688 28.646C243.853 28.404 244.172 27.821 244.172 27.007C244.172 25.698 243.336 25.005 242.951 24.752C242.17 24.257 241.257 24.29 240.344 24.334ZM251.113 24.378L250.134 24.939C250.068 24.84 249.991 24.741 249.914 24.642C249.518 24.169 249.144 24.092 248.836 24.092C248.671 24.103 248.528 24.125 248.374 24.191C247.879 24.411 247.791 24.906 247.791 25.082C247.791 25.621 248.308 25.841 248.418 25.896L249.837 26.611C250.057 26.732 250.233 26.831 250.431 26.985C251.179 27.579 251.267 28.294 251.267 28.668C251.267 28.844 251.256 29.119 251.113 29.515C250.728 30.516 249.837 31.132 248.759 31.132C248.451 31.132 247.703 31.077 247.043 30.505C246.515 30.043 246.317 29.526 246.108 28.877L247.153 28.646C247.296 29.02 247.406 29.229 247.505 29.383C247.791 29.801 248.264 30.109 248.803 30.109C249.056 30.109 249.276 30.032 249.353 29.999C249.826 29.79 250.134 29.306 250.134 28.789C250.134 28.184 249.749 27.81 249.243 27.535C248.715 27.249 248.132 27.106 247.626 26.787C246.79 26.259 246.658 25.533 246.658 25.137C246.658 24.906 246.713 24.323 247.142 23.839C247.373 23.575 247.934 23.102 248.869 23.102C249.155 23.102 249.815 23.157 250.431 23.641C250.717 23.861 250.893 24.092 251.113 24.378Z" fill="white"/>
</svg>
