<svg width="53" height="53" viewBox="0 0 53 53" fill="none" xmlns="http://www.w3.org/2000/svg">
<rect x="0.5" y="0.5" width="52" height="52" rx="15.5" fill="#E29400" stroke="#E9EFFF"/>
<path d="M39.4274 26.3043L33.5211 24.2951C33.3456 24.2343 33.1544 24.2343 32.9789 24.2951L27.0726 26.3043C26.7295 26.4202 26.5 26.7408 26.5 27.1031V31.6233C26.5 37.1403 32.6583 39.8223 32.9204 39.9337C33.0261 39.9776 33.1375 40.0001 33.25 40.0001C33.3625 40.0001 33.4739 39.9776 33.5796 39.9326C33.8417 39.8212 40 37.1403 40 31.6233V27.1031C40 26.7408 39.7705 26.4202 39.4274 26.3043ZM36.9467 30.5703L33.853 34.5078C33.4592 35.0107 32.7213 35.0838 32.2364 34.6676L30.2676 32.9801C29.7951 32.5762 29.74 31.8652 30.1461 31.3938C30.55 30.9225 31.261 30.8685 31.7312 31.2723L32.809 32.1959L35.1771 29.1821C35.5607 28.6938 36.2673 28.6072 36.7566 28.9931C37.246 29.3744 37.3315 30.0821 36.9467 30.5703Z" fill="white"/>
<path d="M34.375 13H16.375C14.5109 13 13 14.5109 13 16.375C13 18.2391 14.5109 19.75 16.375 19.75H34.375C36.2391 19.75 37.75 18.2391 37.75 16.375C37.75 14.5109 36.2391 13 34.375 13ZM16.375 17.5C15.754 17.5 15.25 16.996 15.25 16.375C15.25 15.754 15.754 15.25 16.375 15.25C16.996 15.25 17.5 15.754 17.5 16.375C17.5 16.996 16.996 17.5 16.375 17.5ZM20.875 17.5C20.254 17.5 19.75 16.996 19.75 16.375C19.75 15.754 20.254 15.25 20.875 15.25C21.496 15.25 22 15.754 22 16.375C22 16.996 21.496 17.5 20.875 17.5Z" fill="white"/>
<path d="M16.375 22C14.5075 22 13 23.5075 13 25.375C13 27.2425 14.5075 28.75 16.375 28.75H24.25V27.1075C24.25 25.78 25.0938 24.5988 26.3538 24.1713L32.2488 22.1687C32.575 22.0562 32.9125 22 33.25 22H16.375ZM16.375 26.5C15.7562 26.5 15.25 25.9938 15.25 25.375C15.25 24.7562 15.7562 24.25 16.375 24.25C16.9938 24.25 17.5 24.7562 17.5 25.375C17.5 25.9938 16.9938 26.5 16.375 26.5ZM20.875 26.5C20.2562 26.5 19.75 25.9938 19.75 25.375C19.75 24.7562 20.2562 24.25 20.875 24.25C21.4937 24.25 22 24.7562 22 25.375C22 25.9938 21.4937 26.5 20.875 26.5Z" fill="white"/>
<path d="M24.25 31.6187V31H16.375C14.5075 31 13 32.5075 13 34.375C13 36.2425 14.5075 37.75 16.375 37.75H26.4663C25.1725 36.1075 24.25 34.0487 24.25 31.6187ZM16.375 35.5C15.7562 35.5 15.25 34.9938 15.25 34.375C15.25 33.7562 15.7562 33.25 16.375 33.25C16.9938 33.25 17.5 33.7562 17.5 34.375C17.5 34.9938 16.9938 35.5 16.375 35.5ZM20.875 35.5C20.2562 35.5 19.75 34.9938 19.75 34.375C19.75 33.7562 20.2562 33.25 20.875 33.25C21.4937 33.25 22 33.7562 22 34.375C22 34.9938 21.4937 35.5 20.875 35.5Z" fill="white"/>
</svg>
