<svg width="45" height="44" viewBox="0 0 45 44" fill="none" xmlns="http://www.w3.org/2000/svg">
<path d="M28.9649 8.26303C23.8305 8.26303 18.6908 8.26302 13.5564 8.25265C13.1983 8.25265 12.9508 8.36157 12.698 8.61051C9.99129 11.2866 7.27927 13.9576 4.56725 16.6234C4.4356 16.753 4.24076 16.836 4.13544 16.9812C4.04065 17.1109 4.01432 17.2924 3.98799 17.4532C3.95639 17.6191 3.99325 17.8007 3.94586 17.9614C3.65096 18.9676 2.60302 19.5692 1.57087 19.3358C0.549257 19.1024 -0.13533 18.1274 0.0226513 17.1264C0.196431 16.0321 1.11272 15.3164 2.24493 15.4357C2.55562 15.472 2.71887 15.3631 2.90845 15.1764C7.81114 10.3531 12.7138 5.52983 17.606 0.696185C17.8377 0.467987 18.0694 0.374634 18.3959 0.374634C27.0796 0.385006 35.7633 0.37982 44.4471 0.37982C44.8087 0.37982 44.9895 0.550969 44.9895 0.893266C44.9895 3.20118 44.9842 5.5039 45 7.81181C45 8.16967 44.9052 8.26303 44.5419 8.26303C39.3495 8.25265 34.1625 8.25265 28.9701 8.25265L28.9649 8.26303ZM0.522926 17.365C0.507128 18.2 1.16012 18.8794 1.99215 18.8898C2.80313 18.9053 3.49825 18.2519 3.51931 17.4584C3.54037 16.6078 2.86632 15.9077 2.02375 15.9025C1.21805 15.9025 0.533458 16.5663 0.51766 17.365H0.522926Z" fill="#1353F4"/>
<path d="M28.1455 9.12854H36.1183C36.1236 9.26338 36.1394 9.40341 36.1394 9.54863C36.1394 15.9434 36.1288 22.3329 36.1394 28.7276C36.1394 29.0025 36.034 29.1737 35.8497 29.3552C32.1372 33.0064 28.4299 36.6575 24.7173 40.3087C24.5224 40.5006 24.454 40.6458 24.5593 40.931C24.8753 41.7868 24.5382 42.71 23.7799 43.2027C23.0111 43.7005 21.9842 43.6331 21.3049 43.0315C20.6308 42.4351 20.4465 41.4652 20.852 40.6665C21.2575 39.8627 22.1422 39.427 23.0427 39.6189C23.3376 39.6811 23.5114 39.6085 23.7167 39.4063C25.0806 38.0423 26.4551 36.6886 27.8401 35.3454C28.0665 35.1276 28.1508 34.9045 28.1455 34.5986C28.1402 26.3056 28.1402 18.0127 28.1402 9.71459V9.13891L28.1455 9.12854ZM22.6635 43.0211C23.5061 43.0211 24.1696 42.3573 24.1644 41.5327C24.1591 40.7236 23.5008 40.0753 22.6741 40.0701C21.821 40.0649 21.1574 40.708 21.1522 41.5378C21.1522 42.3677 21.8157 43.0211 22.6583 43.0211H22.6635Z" fill="#1353F4"/>
<path d="M36.9865 9.12591H44.9856V9.58231C44.9856 15.2717 44.9856 20.9663 44.9909 26.6557C44.9909 26.9565 44.8908 27.1536 44.6854 27.3558C40.283 31.6812 35.8911 36.0118 31.4887 40.3372C31.2939 40.5291 31.1991 40.7106 31.2043 41.001C31.2307 42.1679 30.3565 43.0081 29.1664 43.0029C28.0552 42.9978 27.1758 42.1057 27.1916 41.001C27.2074 39.8963 28.1342 39.0147 29.277 39.0562C29.5824 39.0665 29.7772 38.9887 29.9879 38.7813C32.2102 36.5823 34.4324 34.3885 36.6705 32.1998C36.9022 31.9716 36.997 31.7486 36.997 31.4271C36.9865 24.1714 36.9917 16.9158 36.9917 9.65492V9.12073L36.9865 9.12591ZM29.2138 42.5258C30.03 42.5258 30.7304 41.8256 30.7199 41.0218C30.7093 40.2283 30.0248 39.5592 29.2243 39.5489C28.3923 39.5385 27.6919 40.2231 27.6972 41.0373C27.7024 41.8516 28.3923 42.531 29.219 42.531L29.2138 42.5258Z" fill="#1353F4"/>
<path d="M27.2597 9.1254V16.9723H26.6804C21.4354 16.9723 16.1957 16.9723 10.9507 16.9671C10.6084 16.9671 10.3662 17.0605 10.1239 17.3042C8.19655 19.218 6.25864 21.1265 4.31547 23.0247C4.11009 23.227 4.01004 23.4241 4.0153 23.7249C4.03637 24.8503 3.1622 25.6957 2.03 25.6957C0.90833 25.6957 0.0131015 24.8296 0.00783548 23.7353C0.00256943 22.6254 0.903064 21.7282 2.04053 21.7489C2.36703 21.7541 2.59347 21.6659 2.82517 21.4325C6.89057 17.4131 10.9718 13.3989 15.0529 9.3899C15.1899 9.25506 15.4163 9.12021 15.6006 9.12021C19.408 9.10465 23.2101 9.10984 27.0174 9.10984C27.0859 9.10984 27.1491 9.11503 27.2649 9.1254H27.2597ZM3.52556 23.7197C3.52556 22.9003 2.84097 22.2209 2.0142 22.226C1.19796 22.226 0.534441 22.8847 0.523909 23.6938C0.513377 24.5236 1.1769 25.1978 2.00894 25.203C2.84097 25.203 3.52029 24.5391 3.52556 23.7197Z" fill="#1353F4"/>
</svg>
