<svg width="53" height="53" viewBox="0 0 53 53" fill="none" xmlns="http://www.w3.org/2000/svg">
<rect x="0.5" y="0.5" width="52" height="52" rx="15.5" fill="#E29400" stroke="#E9EFFF"/>
<path d="M24.7879 17.394H30.1819C30.5395 17.394 30.8825 17.2519 31.1354 16.999C31.3883 16.7461 31.5304 16.4031 31.5304 16.0455V14.697C31.5304 14.3393 31.3883 13.9963 31.1354 13.7435C30.8825 13.4906 30.5395 13.3485 30.1819 13.3485H28.0435C27.6858 13.3485 27.3428 13.2064 27.0899 12.9535L26.5314 12.395C26.2785 12.1421 25.9355 12 25.5779 12H24.7879C24.4303 12 24.0873 12.1421 23.8344 12.395C23.5815 12.6479 23.4395 12.9908 23.4395 13.3485V16.0455C23.4395 16.4031 23.5815 16.7461 23.8344 16.999C24.0873 17.2519 24.4303 17.394 24.7879 17.394Z" fill="white"/>
<path d="M24.7883 22.7881H19.3944C18.6496 22.7881 18.0459 23.3918 18.0459 24.1366V25.4851C18.0459 26.2298 18.6496 26.8336 19.3944 26.8336H24.7883C25.5331 26.8336 26.1368 26.2298 26.1368 25.4851V24.1366C26.1368 23.3918 25.5331 22.7881 24.7883 22.7881Z" fill="white"/>
<path d="M35.5755 22.7881H30.1815C29.4367 22.7881 28.833 23.3918 28.833 24.1366V25.4851C28.833 26.2298 29.4367 26.8336 30.1815 26.8336H35.5755C36.3202 26.8336 36.9239 26.2298 36.9239 25.4851V24.1366C36.9239 23.3918 36.3202 22.7881 35.5755 22.7881Z" fill="white"/>
<path d="M35.5755 29.5303H30.1815C29.4367 29.5303 28.833 30.134 28.833 30.8788V32.2273C28.833 32.972 29.4367 33.5757 30.1815 33.5757H35.5755C36.3202 33.5757 36.9239 32.972 36.9239 32.2273V30.8788C36.9239 30.134 36.3202 29.5303 35.5755 29.5303Z" fill="white"/>
<path d="M24.7883 36.2729H19.3944C18.6496 36.2729 18.0459 36.8767 18.0459 37.6214V40.3184C18.0459 41.0632 18.6496 41.6669 19.3944 41.6669H24.7883C25.5331 41.6669 26.1368 41.0632 26.1368 40.3184V37.6214C26.1368 36.8767 25.5331 36.2729 24.7883 36.2729Z" fill="white"/>
<path d="M32.8786 41.6669C34.3681 41.6669 35.5756 40.4594 35.5756 38.9699C35.5756 37.4804 34.3681 36.2729 32.8786 36.2729C31.3891 36.2729 30.1816 37.4804 30.1816 38.9699C30.1816 40.4594 31.3891 41.6669 32.8786 41.6669Z" fill="white"/>
<path d="M15.3485 40.3181C16.0932 40.3181 16.697 39.7143 16.697 38.9696C16.697 38.2248 16.0932 37.6211 15.3485 37.6211C14.6037 37.6211 14 38.2248 14 38.9696C14 39.7143 14.6037 40.3181 15.3485 40.3181Z" fill="white"/>
<path d="M39.6209 40.3181C40.3657 40.3181 40.9694 39.7143 40.9694 38.9696C40.9694 38.2248 40.3657 37.6211 39.6209 37.6211C38.8762 37.6211 38.2725 38.2248 38.2725 38.9696C38.2725 39.7143 38.8762 40.3181 39.6209 40.3181Z" fill="white"/>
<path d="M24.7885 20.4282H30.1824C30.6888 20.4301 31.1811 20.595 31.5863 20.8986C31.9916 21.2023 32.2882 21.6284 32.4322 22.1138H33.1349C32.9821 21.4446 32.607 20.8469 32.0707 20.4183C31.5345 19.9898 30.8689 19.7556 30.1824 19.754H27.8226V18.0684H27.1483V19.754H24.7885C24.102 19.7556 23.4363 19.9898 22.9001 20.4183C22.3639 20.8469 21.9888 21.4446 21.8359 22.1138H22.5386C22.6827 21.6284 22.9793 21.2023 23.3845 20.8986C23.7898 20.595 24.2821 20.4301 24.7885 20.4282Z" fill="white"/>
<path d="M33.2162 27.5078H32.542V28.8563H33.2162V27.5078Z" fill="white"/>
<path d="M15.685 36.9814V34.9245C15.6858 34.2989 15.9347 33.6991 16.377 33.2567C16.8194 32.8143 17.4192 32.5654 18.0448 32.5646H21.7532V35.5987H22.4274V27.5078H21.7532V31.8904H18.0448C17.2405 31.8914 16.4693 32.2114 15.9005 32.7802C15.3317 33.349 15.0117 34.1201 15.0107 34.9245V36.9814C15.1219 36.9605 15.2347 36.949 15.3479 36.9472C15.461 36.949 15.5738 36.9605 15.685 36.9814Z" fill="white"/>
<path d="M29.5416 38.6328H26.8105V39.3071H29.5416C29.5245 39.1953 29.5131 39.0828 29.5075 38.9699C29.5131 38.857 29.5245 38.7445 29.5416 38.6328Z" fill="white"/>
<path d="M17.371 38.9699V38.6328H17.3369C17.3578 38.744 17.3692 38.8568 17.371 38.9699Z" fill="white"/>
<path d="M17.3369 39.3068H17.371V38.9697C17.3692 39.0829 17.3578 39.1956 17.3369 39.3068Z" fill="white"/>
<path d="M32.542 35.6326C32.6537 35.6154 32.7662 35.604 32.8791 35.5985C32.992 35.604 33.1045 35.6154 33.2162 35.6326V35.2614H36.9246C37.4399 35.263 37.9405 35.4335 38.3497 35.7468C38.7588 36.0601 39.054 36.4989 39.19 36.9959C39.3317 36.9641 39.4764 36.9476 39.6216 36.947C39.71 36.9501 39.7982 36.9591 39.8855 36.9739C39.7374 36.2985 39.3632 35.6938 38.8248 35.2598C38.2864 34.8258 37.6161 34.5885 36.9246 34.5871H33.2162V34.25H32.542V35.6326Z" fill="white"/>
<path d="M37.6325 38.6328H36.2158C36.233 38.7445 36.2444 38.857 36.2499 38.9699C36.2444 39.0828 36.233 39.1953 36.2158 39.3071H37.6325C37.5871 39.0846 37.5871 38.8553 37.6325 38.6328Z" fill="white"/>
</svg>
