<svg width="53" height="53" viewBox="0 0 53 53" fill="none" xmlns="http://www.w3.org/2000/svg">
<rect x="0.5" y="0.5" width="52" height="52" rx="15.5" fill="#023ED6" stroke="#E9EFFF"/>
<path d="M28.966 23.0377L26.6945 24.8115C26.4738 24.6581 26.2117 24.5718 25.9312 24.5718C25.1725 24.5718 24.5518 25.219 24.5518 26.01C24.5518 26.801 25.1725 27.4481 25.9312 27.4481C26.6899 27.4481 27.3106 26.801 27.3106 26.01C27.3106 25.8614 27.2831 25.7175 27.2417 25.5833L29.5177 23.8048C29.7201 23.6466 29.7615 23.3446 29.6097 23.1336C29.458 22.9227 29.1683 22.8795 28.966 23.0377Z" fill="white"/>
<path d="M38.8942 22.0287L36.9205 21.6693C36.7572 21.6413 36.6732 21.5293 36.6359 21.4687C36.5986 21.408 36.5519 21.2773 36.6126 21.1187L37.5037 18.804C37.6951 18.3093 37.5784 17.7447 37.2005 17.3713L34.6249 14.7953C34.247 14.4173 33.6871 14.3007 33.1925 14.492L30.8782 15.3833C30.7195 15.444 30.5936 15.3927 30.5282 15.36C30.4676 15.3227 30.3556 15.2433 30.3276 15.0753L29.9683 13.106C29.8517 12.4667 29.2964 12 28.6479 12H23.3474C22.6989 12 22.1436 12.4667 22.027 13.106L21.6677 15.0753C21.6397 15.2387 21.5277 15.3227 21.4671 15.36C21.4064 15.3973 21.2758 15.444 21.1171 15.3833L18.8029 14.492C18.3083 14.3007 17.7437 14.4173 17.3704 14.7953L14.7949 17.3713C14.4216 17.7447 14.3003 18.3093 14.4916 18.804L15.3828 21.1187C15.4434 21.2773 15.3921 21.4033 15.3594 21.4687C15.3221 21.5293 15.2428 21.6413 15.0748 21.6693L13.1058 22.0287C12.4666 22.1453 12 22.7007 12 23.3493V28.6507C12 29.2993 12.4666 29.8547 13.1058 29.9713L15.0795 30.3307C15.2428 30.3587 15.3268 30.4707 15.3641 30.5313C15.4014 30.592 15.4481 30.7227 15.3874 30.8813L14.4963 33.196C14.3049 33.6907 14.4216 34.2553 14.7995 34.6287L17.3751 37.2047C17.753 37.5827 18.3129 37.6993 18.8075 37.508L21.1218 36.6167C21.2805 36.556 21.4064 36.6073 21.4718 36.64C21.5324 36.6773 21.6444 36.7567 21.6724 36.9247L22.0317 38.894C22.1483 39.5333 22.7035 40 23.3521 40H28.6526C29.3011 40 29.8564 39.5333 29.973 38.894L30.3323 36.92C30.3603 36.7567 30.4723 36.6727 30.5329 36.6353C30.5936 36.598 30.7242 36.5513 30.8829 36.612L33.1971 37.5033C33.6917 37.6947 34.2563 37.578 34.6296 37.2L37.2051 34.624C37.5784 34.2507 37.6997 33.686 37.5084 33.1913L36.6172 30.8767C36.5566 30.718 36.6079 30.592 36.6406 30.5267C36.6779 30.466 36.7572 30.354 36.9252 30.326L38.8942 29.9667C39.5334 29.85 40 29.2947 40 28.646V23.3447C40 22.696 39.5334 22.1407 38.8942 22.024V22.0287ZM35.2175 27.4C34.8862 29.5887 33.799 31.5253 32.222 32.9393C32.1706 32.986 32.1193 33.0373 32.068 33.0793C31.928 33.2007 31.7787 33.3127 31.6341 33.4247C31.5501 33.49 31.4661 33.5507 31.3821 33.6113C31.2468 33.7093 31.1068 33.798 30.9668 33.8867C30.8595 33.952 30.7522 34.022 30.6449 34.0827C30.5142 34.1573 30.3789 34.232 30.2436 34.302C30.1176 34.3673 29.9917 34.428 29.861 34.4887C29.7304 34.5493 29.6044 34.6053 29.4691 34.6567C29.3244 34.7127 29.1798 34.7687 29.0305 34.8153C28.9045 34.8573 28.7785 34.904 28.6526 34.9413C28.4893 34.988 28.3213 35.03 28.158 35.0673C28.0413 35.0953 27.92 35.128 27.8034 35.1513C27.6121 35.1887 27.4161 35.2167 27.2201 35.24C27.1175 35.254 27.0195 35.2727 26.9168 35.282C26.6182 35.31 26.3149 35.3287 26.007 35.3287C25.699 35.3287 25.3958 35.31 25.0972 35.282C24.9945 35.2727 24.8965 35.254 24.7939 35.24C24.5979 35.2167 24.4019 35.1887 24.2106 35.1513C24.0893 35.128 23.9727 35.0953 23.856 35.0673C23.6881 35.03 23.5247 34.988 23.3614 34.9413C23.2355 34.904 23.1095 34.8573 22.9835 34.8153C22.8342 34.764 22.6896 34.7127 22.5449 34.6567C22.4143 34.6053 22.2836 34.5447 22.153 34.4887C22.0223 34.428 21.8964 34.3673 21.7704 34.302C21.6351 34.232 21.4998 34.162 21.3691 34.0827C21.2618 34.0173 21.1545 33.952 21.0472 33.8867C20.9072 33.798 20.7672 33.7093 20.6319 33.6113C20.5479 33.5507 20.4639 33.4853 20.3799 33.4247C20.2306 33.3127 20.086 33.2007 19.946 33.0793C19.8947 33.0327 19.8434 32.986 19.792 32.9393C18.215 31.5253 17.1278 29.5887 16.7965 27.4C16.7265 26.9427 16.6799 26.476 16.6799 26C16.6799 20.8527 20.8652 16.6667 26.0117 16.6667C31.1581 16.6667 35.3434 20.8527 35.3434 26C35.3434 26.476 35.2968 26.9427 35.2268 27.4H35.2175Z" fill="white"/>
<path d="M17.4717 25.96C17.4717 26.466 17.5222 26.9621 17.5956 27.4482H19.1372C19.4171 27.4482 19.6466 27.1804 19.6466 26.8529C19.6466 26.4858 19.6787 26.1336 19.7246 25.7814L17.5451 24.8735C17.5038 25.2307 17.4763 25.5929 17.4763 25.9649L17.4717 25.96Z" fill="white"/>
<path d="M17.793 23.9929L20.0093 24.8737C20.1667 24.2833 20.4026 23.731 20.6895 23.2169L18.723 21.6553C18.3112 22.3742 17.9919 23.1597 17.7976 23.9929H17.793Z" fill="white"/>
<path d="M19.4023 21.0084L21.242 22.6209C21.6341 22.0474 22.0994 21.5524 22.6207 21.1554L21.5781 18.7588C20.7336 19.3469 19.9926 20.1115 19.4023 21.0084Z" fill="white"/>
<path d="M25.5172 17.4712C24.3741 17.5353 23.285 17.8211 22.2988 18.2844L23.4812 20.6896C24.1141 20.3939 24.8009 20.2115 25.5172 20.1474V17.4712Z" fill="white"/>
<path d="M29.379 18.282C28.4915 17.8222 27.5112 17.5355 26.4824 17.4712V20.1408C27.1271 20.2002 27.7452 20.393 28.3148 20.6896L29.379 18.282Z" fill="white"/>
<path d="M30.1983 18.7637L29.0576 21.1603C29.6303 21.5524 30.1415 22.0523 30.5769 22.6209L32.5978 21.0035C31.9447 20.1066 31.1306 19.3469 30.203 18.7588L30.1983 18.7637Z" fill="white"/>
<path d="M33.3169 21.6553L31.3105 23.1607C31.5696 23.5909 31.7768 24.0576 31.937 24.5518L34.2071 23.7007C34.0046 22.9731 33.7079 22.2867 33.3216 21.6553H33.3169Z" fill="white"/>
<path d="M31.9541 25.7091C32.0318 26.095 32.0733 26.4947 32.0733 26.9033C32.0733 27.203 32.3271 27.4482 32.6483 27.4482H34.3889C34.477 27.0032 34.5288 26.5491 34.5288 26.086C34.5288 25.6727 34.4926 25.2686 34.42 24.8735L31.9541 25.7091Z" fill="white"/>
</svg>
