<svg width="53" height="53" viewBox="0 0 53 53" fill="none" xmlns="http://www.w3.org/2000/svg">
<rect x="0.5" y="0.5" width="52" height="52" rx="15.5" fill="#023ED6" stroke="#E9EFFF"/>
<path d="M15.3965 37.9238H18.4633V39.1176H15.3965V37.9238Z" fill="white"/>
<path d="M29.9063 33.0192L28.8824 31.5707L30.4457 30.0073H13.2287C12.5494 30.0073 12 30.5568 12 31.241V35.6914C12 36.3757 12.5494 36.9251 13.2287 36.9251H28.0233V33.6435L29.7764 33.3438C29.8164 33.234 29.8613 33.1291 29.9063 33.0192ZM22.7987 34.3927H14.1278V32.5447H22.7987V34.3927ZM26.2451 34.3927C25.7356 34.3927 25.3211 33.9782 25.3211 33.4687C25.3211 32.9592 25.7356 32.5447 26.2451 32.5447C26.7546 32.5447 27.1691 32.9592 27.1691 33.4687C27.1691 33.9782 26.7546 34.3927 26.2451 34.3927Z" fill="white"/>
<path d="M41.9282 36.5453V34.4874L40.4098 34.2277C40.2949 33.7732 40.1101 33.3336 39.8754 32.939L40.7644 31.6804L39.306 30.2219L38.0473 31.111C37.6527 30.8762 37.2132 30.6964 36.7586 30.5765L36.4989 29.0581H34.441L34.1813 30.5765C33.7218 30.6914 33.2873 30.8762 32.8927 31.111L31.634 30.2219L30.1755 31.6804L31.0646 32.939C30.8298 33.3336 30.65 33.7732 30.5301 34.2277L29.0117 34.4874V36.5453L30.5301 36.805C30.645 37.2645 30.8298 37.6991 31.0646 38.0937L30.1755 39.3523L31.634 40.8108L32.8927 39.9218C33.2873 40.1565 33.7218 40.3363 34.1813 40.4562L34.446 41.9696H36.5039L36.7636 40.4512C37.2181 40.3363 37.6577 40.1515 38.0523 39.9168L39.311 40.8058L40.7694 39.3474L39.8804 38.0887C40.1151 37.6941 40.2949 37.2595 40.4148 36.8L41.9282 36.5453ZM35.475 37.6341C34.3062 37.6341 33.3572 36.6851 33.3572 35.5164C33.3572 34.3476 34.3062 33.3986 35.475 33.3986C36.6437 33.3986 37.5928 34.3476 37.5928 35.5164C37.5928 36.6851 36.6487 37.6341 35.475 37.6341Z" fill="white"/>
<path d="M13.2287 19.9178H16.0208V20.5072H17.8389V19.9178H32.9231V20.5072H34.7412V19.9178H35.6553C36.3346 19.9178 36.889 19.3634 36.889 18.6841V14.2287C36.889 13.5494 36.3346 13 35.6553 13H13.2287C12.5494 13 12 13.5494 12 14.2287V18.6841C12 19.3634 12.5494 19.9178 13.2287 19.9178ZM33.8322 15.5324C34.3417 15.5324 34.7562 15.9469 34.7562 16.4564C34.7562 16.9659 34.3417 17.3804 33.8322 17.3804C33.3227 17.3804 32.9082 16.9659 32.9082 16.4564C32.9082 15.9469 33.3227 15.5324 33.8322 15.5324ZM30.0362 15.5324C30.5506 15.5324 30.9602 15.9469 30.9602 16.4564C30.9602 16.9659 30.5506 17.3804 30.0362 17.3804C29.5267 17.3804 29.1121 16.9659 29.1121 16.4564C29.1121 15.9469 29.5267 15.5324 30.0362 15.5324ZM26.2451 15.5324C26.7546 15.5324 27.1692 15.9469 27.1692 16.4564C27.1692 16.9659 26.7546 17.3804 26.2451 17.3804C25.7356 17.3804 25.3211 16.9659 25.3211 16.4564C25.3211 15.9469 25.7356 15.5324 26.2451 15.5324ZM14.1278 15.5324H22.7987V17.3804H14.1278V15.5324Z" fill="white"/>
<path d="M13.2287 28.4241H16.0208V29.0085H17.8389V28.4241H32.9231V29.0085H33.4426L33.6024 28.0645H36.5244C36.7491 27.8447 36.889 27.5301 36.889 27.1904V22.7401C36.889 22.0558 36.3346 21.5063 35.6553 21.5063H13.2287C12.5494 21.5063 12 22.0558 12 22.7401V27.1904C12 27.8697 12.5494 28.4241 13.2287 28.4241ZM33.8322 24.0437C34.3417 24.0437 34.7562 24.4583 34.7562 24.9677C34.7562 25.4772 34.3417 25.8918 33.8322 25.8918C33.3227 25.8918 32.9082 25.4772 32.9082 24.9677C32.9082 24.4583 33.3227 24.0437 33.8322 24.0437ZM30.0362 24.0437C30.5506 24.0437 30.9602 24.4583 30.9602 24.9677C30.9602 25.4772 30.5506 25.8918 30.0362 25.8918C29.5267 25.8918 29.1121 25.4772 29.1121 24.9677C29.1121 24.4583 29.5267 24.0437 30.0362 24.0437ZM26.2451 24.0437C26.7546 24.0437 27.1692 24.4583 27.1692 24.9677C27.1692 25.4772 26.7546 25.8918 26.2451 25.8918C25.7356 25.8918 25.3211 25.4772 25.3211 24.9677C25.3211 24.4583 25.7356 24.0437 26.2451 24.0437ZM14.1278 24.0437H22.7987V25.8918H14.1278V24.0437Z" fill="white"/>
</svg>
