<svg width="17" height="18" viewBox="0 0 17 18" fill="none" xmlns="http://www.w3.org/2000/svg">
<path d="M8.49829 8.08252C8.46245 8.04976 8.43788 8.02928 8.41586 8.00727C7.1375 6.72942 5.85147 5.45925 4.58386 4.17117C3.25226 2.81857 3.89067 0.543944 5.73167 0.0826702C6.62299 -0.140543 7.41191 0.0923975 8.0749 0.731321C8.49675 1.13782 8.50955 1.14038 8.92987 0.727225C9.899 -0.224504 11.4252 -0.237303 12.381 0.698555C13.3501 1.64773 13.3849 3.18206 12.4265 4.1599C11.1528 5.45976 9.856 6.73761 8.56894 8.02467C8.55153 8.04208 8.53054 8.05641 8.49829 8.08252ZM9.42084 4.54131C9.72443 4.54131 10.004 4.54336 10.284 4.5408C10.5338 4.53824 10.6454 4.42714 10.647 4.1768C10.6495 3.81945 10.6485 3.46159 10.647 3.10424C10.646 2.80373 10.5451 2.70287 10.2451 2.70185C9.97324 2.70082 9.70139 2.70185 9.42032 2.70185C9.42032 2.41361 9.42032 2.15252 9.42032 1.89142C9.41981 1.57554 9.32254 1.47622 9.01229 1.47571C8.67389 1.47468 8.33549 1.4752 7.99708 1.47571C7.67455 1.47622 7.58086 1.57247 7.58035 1.90114C7.58035 2.16634 7.58035 2.43102 7.58035 2.70185C7.27573 2.70185 7.00132 2.70031 6.72691 2.70185C6.46377 2.70389 6.35574 2.81192 6.35421 3.07506C6.35216 3.43241 6.35267 3.79027 6.35421 4.14761C6.35523 4.43585 6.45865 4.53977 6.74586 4.5408C7.01873 4.54233 7.29109 4.5408 7.58086 4.5408C7.58086 4.83364 7.57984 5.10651 7.58086 5.37939C7.5824 5.65738 7.68735 5.7654 7.9592 5.76694C8.3232 5.76899 8.6872 5.76899 9.0512 5.76694C9.31077 5.7654 9.41879 5.65379 9.42084 5.38962C9.42288 5.11573 9.42084 4.84183 9.42084 4.5408V4.54131Z" fill="black"/>
<path d="M7.26291 14.6517H4.20703C4.20703 14.4623 4.20345 14.2734 4.20754 14.0845C4.21932 13.5521 4.01812 13.121 3.61674 12.7703C2.97219 12.2071 2.33787 11.6317 1.69537 11.066C1.50645 10.9001 1.38358 10.7051 1.31857 10.4603C0.893129 8.86406 0.460013 7.27033 0.0355997 5.67405C0.000786545 5.54299 -0.0120124 5.39298 0.0130735 5.26141C0.0642693 4.99468 0.302842 4.81242 0.558309 4.80679C0.855244 4.80065 1.10252 4.98086 1.20133 5.28394C1.41277 5.93259 1.62113 6.58226 1.83052 7.23194C1.88326 7.39576 1.92677 7.56369 1.99077 7.7229C2.10289 8.00039 2.13463 8.25534 2.02353 8.55996C1.84588 9.04734 2.06807 9.60128 2.51655 9.87722C3.10888 10.2412 3.71606 10.5817 4.32017 10.9267C4.48963 11.0235 4.66472 10.9697 4.7492 10.8156C4.83725 10.6549 4.78503 10.4905 4.59766 10.381C4.04116 10.0559 3.48056 9.73746 2.92355 9.41288C2.62969 9.24137 2.51911 8.96338 2.61843 8.66593C2.74539 8.28452 3.16878 8.14117 3.54558 8.35927C4.25823 8.77191 4.9678 9.18966 5.67789 9.60589C5.87089 9.71903 6.06697 9.82654 6.25435 9.94787C6.88252 10.3533 7.24345 10.9339 7.26496 11.6783C7.29311 12.6423 7.27264 13.6073 7.27315 14.5719C7.27315 14.5959 7.267 14.62 7.26291 14.6517Z" fill="black"/>
<path d="M12.7952 14.6541H9.73727C9.7342 14.586 9.72857 14.5246 9.72857 14.4626C9.72806 13.5872 9.7255 12.7122 9.72857 11.8368C9.73164 10.9803 10.1018 10.3275 10.8411 9.89185C11.715 9.37631 12.5919 8.86538 13.4679 8.3524C13.6983 8.21775 13.9302 8.21161 14.1534 8.36263C14.3654 8.50598 14.4386 8.71589 14.4074 8.96367C14.3792 9.18637 14.2369 9.32563 14.051 9.43263C13.5089 9.7439 12.9657 10.0541 12.4276 10.3736C12.3462 10.4222 12.2484 10.5088 12.2356 10.5902C12.2203 10.6869 12.2628 10.818 12.3268 10.8963C12.4148 11.0043 12.5546 11.0013 12.6785 10.9306C12.9892 10.754 13.2984 10.5748 13.6077 10.3956C13.8841 10.2359 14.1626 10.0803 14.4345 9.91335C14.9848 9.57495 15.1743 8.93808 14.9188 8.34318C14.8855 8.26536 14.8789 8.15632 14.9045 8.07543C15.1983 7.1452 15.4999 6.21702 15.8014 5.28935C15.9166 4.93508 16.2535 4.73337 16.5709 4.82296C16.9108 4.91818 17.0787 5.24686 16.9758 5.63236C16.5432 7.25271 16.1147 8.87459 15.6657 10.4903C15.6094 10.6926 15.4732 10.8989 15.3181 11.0432C14.6869 11.631 14.0382 12.1992 13.388 12.766C12.9867 13.1162 12.7834 13.5457 12.7947 14.0786C12.7988 14.2635 12.7952 14.4478 12.7952 14.6536V14.6541Z" fill="black"/>
<path d="M7.57175 15.2866V17.1036H3.91534V15.2866H7.57175Z" fill="black"/>
<path d="M9.42972 17.0999V15.2834H13.0861V17.0999H9.42972Z" fill="black"/>
<path d="M0.618784 4.18236C0.608545 3.8926 0.80872 3.63764 1.08108 3.58593C1.3857 3.52859 1.70004 3.72263 1.81113 4.04158C2.0707 4.78699 2.3277 5.53342 2.58573 6.27934C2.74085 6.72884 2.89597 7.17834 3.05365 7.63552C2.91338 7.67648 2.78641 7.71334 2.64614 7.75378C2.45057 7.15172 2.25654 6.55324 2.06199 5.95476C1.98725 5.72489 1.90124 5.49758 1.8398 5.26413C1.6729 4.62777 1.28126 4.25097 0.618784 4.18185V4.18236Z" fill="black"/>
<path d="M16.3903 4.18185C15.7468 4.24994 15.3659 4.59807 15.1805 5.19962C14.9184 6.05101 14.6353 6.89574 14.3578 7.75481C14.2227 7.71641 14.0967 7.68057 13.9493 7.63859C14.0117 7.45736 14.0721 7.28022 14.1336 7.1036C14.4884 6.0807 14.8421 5.05781 15.1979 4.03594C15.3085 3.71802 15.6039 3.53423 15.9101 3.58645C16.1809 3.63252 16.3785 3.87314 16.3898 4.18236L16.3903 4.18185Z" fill="black"/>
<path d="M8.80275 3.92076V5.14485H8.20068V3.92998H6.97659V3.32126H8.19198V2.09717H8.80121V3.31204H10.0253V3.92076H8.80326H8.80275Z" fill="black"/>
</svg>
