<svg width="69" height="65" viewBox="0 0 69 65" fill="none" xmlns="http://www.w3.org/2000/svg">
<path d="M43.9321 1.92303C44.0315 1.96517 44.1309 2.0073 44.2333 2.05071C47.0074 3.24713 49.3765 4.96467 51.5804 7.01837C51.6865 7.11551 51.7925 7.21265 51.9017 7.31273C53.4392 8.77718 54.6947 10.5404 55.74 12.3819C55.784 12.4581 55.8281 12.5344 55.8734 12.6129C57.548 15.5302 58.8884 19.1725 58.8262 22.5725C58.9481 22.5663 59.0701 22.5601 59.1957 22.5537C61.7348 22.4808 63.904 23.297 65.8036 24.9861C65.8973 25.0672 65.9911 25.1483 66.0877 25.2318C67.5626 26.5938 68.6775 28.7315 68.7753 30.7587C68.7773 30.9874 68.7773 30.9874 68.7793 31.2207C68.781 31.3944 68.7828 31.5682 68.7845 31.7472C68.7856 31.9362 68.7866 32.1253 68.7875 32.3143C68.7881 32.4105 68.7886 32.5067 68.7892 32.6057C68.792 33.1156 68.7939 33.6255 68.7952 34.1354C68.7967 34.657 68.8013 35.1785 68.8066 35.7C68.8102 36.1053 68.8112 36.5106 68.8117 36.9159C68.8124 37.1079 68.8139 37.2998 68.8164 37.4918C68.8479 40.0517 68.0378 42.4004 66.2622 44.2744C64.2267 46.3026 61.6363 47.1677 58.7974 47.1722C58.7055 47.1716 58.6137 47.171 58.5191 47.1704C58.2364 47.1693 57.9541 47.1732 57.6715 47.1774C55.7031 47.1886 55.7031 47.1886 55.0691 46.5743C54.3596 45.6698 54.457 44.6737 54.4634 43.5776C54.4627 43.3678 54.4617 43.158 54.4605 42.9482C54.4585 42.4973 54.4581 42.0464 54.459 41.5955C54.4605 40.8799 54.4581 40.1644 54.4553 39.4488C54.4512 38.3142 54.4496 37.1796 54.4492 36.045C54.4483 34.0205 54.4443 31.996 54.4377 29.9716C54.4355 29.263 54.4348 28.5544 54.4352 27.8458C54.4699 23.8001 54.4699 23.8001 53.8447 19.8154C53.8164 19.7003 53.7881 19.5853 53.7589 19.4667C52.455 14.4594 49.0953 10.0478 44.6607 7.41225C39.8858 4.71672 34.4983 3.87876 29.1581 5.26848C26.3291 6.05718 23.7485 7.37073 21.5239 9.29786C21.3594 9.43787 21.3594 9.43787 21.1916 9.5807C17.1315 13.123 14.8347 18.0756 14.44 23.4157C14.3904 24.3069 14.3929 25.1982 14.3933 26.0905C14.3929 26.3032 14.3924 26.5159 14.3919 26.7287C14.3908 27.1831 14.3901 27.6375 14.3897 28.0919C14.3889 28.811 14.3867 29.5301 14.3841 30.2492C14.3833 30.4963 14.3824 30.7434 14.3816 30.9905C14.3812 31.1141 14.3807 31.2377 14.3803 31.3651C14.3747 33.0367 14.3702 34.7083 14.3686 36.3799C14.3675 37.5113 14.3644 38.6428 14.3593 39.7742C14.3566 40.3718 14.355 40.9693 14.3556 41.5668C14.3563 42.1279 14.3544 42.689 14.3507 43.2501C14.3497 43.4555 14.3497 43.661 14.3507 43.8664C14.3589 45.8018 14.3589 45.8018 13.7414 46.5743C12.4165 47.5995 10.2367 47.3201 8.6773 47.1344C6.02303 46.7835 3.80785 45.7464 2.042 43.683C0.544796 41.7297 -0.0105483 39.706 0.00150239 37.2808C0.00123034 37.0854 0.000838943 36.8899 0.000335347 36.6945C-0.000254158 36.2871 0.000591519 35.8797 0.00248516 35.4723C0.00477629 34.9547 0.00345775 34.4371 0.00104786 33.9194C-0.000419092 33.5164 5.95516e-05 33.1134 0.00109699 32.7104C0.00136224 32.5198 0.00105088 32.3291 0.000101939 32.1385C-0.00953848 29.6578 0.663852 27.5242 2.33604 25.6566C2.46784 25.5062 2.46784 25.5062 2.6023 25.3528C4.00935 23.8441 5.92662 22.873 7.97164 22.5725C8.3225 22.5635 8.66935 22.5598 9.01993 22.5642C9.1129 22.5648 9.20586 22.5654 9.30165 22.566C9.52922 22.5676 9.75679 22.57 9.98435 22.5725C9.98625 22.4825 9.98816 22.3924 9.99012 22.2997C10.2635 16.5769 13.081 11.3606 16.9618 7.28654C17.1011 7.13435 17.1011 7.13435 17.2432 6.97908C18.6558 5.4859 20.4135 4.2752 22.1948 3.26391C22.3453 3.17628 22.4958 3.08864 22.6508 2.99835C29.0322 -0.626308 37.2111 -0.939774 43.9321 1.92303Z" fill="white"/>
<path d="M31.4885 56.2045C31.6292 56.2028 31.7699 56.2011 31.9148 56.1993C32.0663 56.1983 32.2178 56.1973 32.3739 56.1963C32.6093 56.1947 32.6093 56.1947 32.8494 56.193C33.1816 56.1912 33.5139 56.1897 33.8462 56.1887C34.3515 56.1864 34.8568 56.1805 35.3621 56.1746C35.6855 56.1732 36.0089 56.1721 36.3323 56.1712C36.4822 56.1688 36.632 56.1665 36.7865 56.1641C38.2084 56.168 39.275 56.5512 40.3132 57.5299C41.1971 58.5526 41.4326 59.652 41.4217 60.9685C41.3684 61.6594 41.1774 62.1941 40.8473 62.7986C40.8002 62.8852 40.7532 62.9718 40.7047 63.061C40.006 64.1737 38.864 64.6602 37.6269 64.944C37.1283 64.9967 36.6352 65.0005 36.1342 64.9974C35.9273 64.998 35.9273 64.998 35.7163 64.9986C35.4268 64.9988 35.1372 64.9981 34.8476 64.9964C34.4077 64.9943 33.968 64.9964 33.5281 64.999C33.2451 64.9987 32.962 64.9982 32.679 64.9974C32.5492 64.9982 32.4195 64.999 32.2858 64.9999C30.8705 64.9855 29.7693 64.6459 28.6955 63.7037C27.7087 62.5911 27.3601 61.5416 27.3883 60.0545C27.4973 58.7909 28.102 57.8675 29.0393 57.0328C29.8345 56.4861 30.5227 56.2149 31.4885 56.2045Z" fill="white"/>
<path d="M9.04492 49.3906C9.88624 49.3906 10.7276 49.3906 11.5944 49.3906C11.7051 49.7474 11.8158 50.1041 11.9298 50.4717C12.5234 52.2915 13.3678 54.0398 14.7785 55.3764C14.9489 55.5587 14.9489 55.5587 14.9489 55.8268C15.0293 55.8638 15.1097 55.9008 15.1926 55.9389C15.4856 56.095 15.4856 56.095 15.8798 56.447C18.0621 58.3413 20.6605 59.0201 23.4778 59.1958C23.7384 59.2132 23.7384 59.2132 24.0043 59.2309C24.4297 59.2591 24.8553 59.2862 25.2808 59.3131C25.2808 60.1538 25.2808 60.9946 25.2808 61.8608C20.6886 61.9241 16.8297 60.9086 13.3387 57.8382C13.2569 57.7676 13.1751 57.6971 13.0908 57.6245C10.9771 55.667 9.65562 52.8395 9.04492 50.0611C9.04492 49.8398 9.04492 49.6186 9.04492 49.3906Z" fill="white"/>
</svg>
