<svg width="53" height="53" viewBox="0 0 53 53" fill="none" xmlns="http://www.w3.org/2000/svg">
<rect x="0.5" y="0.5" width="52" height="52" rx="15.5" fill="#E29400" stroke="#E9EFFF"/>
<path fill-rule="evenodd" clip-rule="evenodd" d="M27.4049 31.0122V36.6374H29.807C30.0308 36.0198 30.6211 35.5781 31.3134 35.5781C32.1979 35.5781 32.916 36.299 32.916 37.1868C32.916 38.0746 32.1979 38.7955 31.3134 38.7955C30.6211 38.7955 30.0308 38.3539 29.807 37.7362H26.8576C26.5554 37.7362 26.3103 37.4902 26.3103 37.1868V31.0122H22.9976V37.8335C23.613 38.0582 24.0528 38.6509 24.0528 39.3458C24.0528 40.2337 23.3348 40.9546 22.4504 40.9546C21.5659 40.9546 20.8478 40.2337 20.8478 39.3458C20.8478 38.6509 21.2878 38.0582 21.9031 37.8335V31.0122H18.5904V37.1868C18.5904 37.4902 18.3453 37.7362 18.0431 37.7362H15.0937C14.8699 38.3539 14.2795 38.7955 13.5873 38.7955C12.7028 38.7955 11.9847 38.0746 11.9847 37.1868C11.9847 36.299 12.7028 35.5781 13.5873 35.5781C14.2795 35.5781 14.8699 36.0198 15.0937 36.6374H17.4958V31.0122H14.4497C12.2439 31.0122 10.4395 29.2008 10.4395 26.9879C10.4395 25.309 11.4778 23.8622 12.9403 23.2599C12.9333 23.1374 12.9304 23.0135 12.9304 22.8896C12.9304 19.3367 15.7988 16.456 19.338 16.456C21.0687 16.456 22.6405 17.1451 23.7937 18.2659C24.4037 18.0465 25.0605 17.9269 25.7456 17.9269C28.7289 17.9269 31.183 20.1925 31.4965 23.1032C33.237 23.5774 34.4613 25.1751 34.4613 26.9879C34.4613 29.2008 32.6568 31.0122 30.451 31.0122H27.4049ZM35.4153 25.7987C35.0419 24.241 33.9509 22.928 32.4728 22.2853C31.8092 19.1669 29.0507 16.8282 25.7456 16.8282C25.1644 16.8282 24.6003 16.9007 24.0613 17.037C23.0852 16.242 21.9062 15.6882 20.6149 15.4659C21.5127 13.0015 23.8687 11.2424 26.6345 11.2424C28.3651 11.2424 29.9368 11.9317 31.0901 13.0524C31.7001 12.8331 32.3569 12.7135 33.0421 12.7135C36.0252 12.7135 38.4793 14.9791 38.7929 17.8898C40.5334 18.3639 41.7576 19.9617 41.7576 21.7744C41.7576 23.9874 39.9532 25.7987 37.7474 25.7987H35.4153ZM33.0633 16.7556H31.8658C31.5638 16.7556 31.3186 17.0018 31.3186 17.305C31.3186 17.6082 31.5638 17.8544 31.8658 17.8544H33.0633V19.0564C33.0633 19.3596 33.3085 19.6058 33.6105 19.6058C33.9126 19.6058 34.1578 19.3596 34.1578 19.0564V17.8544H35.3553C35.6573 17.8544 35.9026 17.6082 35.9026 17.305C35.9026 17.0018 35.6573 16.7556 35.3553 16.7556H34.1578V15.5535C34.1578 15.2503 33.9126 15.0042 33.6105 15.0042C33.3085 15.0042 33.0633 15.2503 33.0633 15.5535V16.7556Z" fill="white"/>
</svg>
