<svg width="53" height="53" viewBox="0 0 53 53" fill="none" xmlns="http://www.w3.org/2000/svg">
<rect x="0.5" y="0.5" width="52" height="52" rx="15.5" fill="#023ED6" stroke="#E9EFFF"/>
<path fill-rule="evenodd" clip-rule="evenodd" d="M13.6801 29.1583C13.6802 28.9998 13.6532 28.8426 13.6001 28.6936L15.0051 27.2936H18.4212V28.435C18.4212 28.4491 18.4212 28.4627 18.4217 28.4765L15.7537 29.3513C15.62 29.3948 15.5075 29.4884 15.439 29.6131L13.5988 32.9453C13.562 32.9423 13.5247 32.9406 13.4874 32.9406C13.1863 32.9406 12.8939 33.0438 12.6575 33.2336C12.4211 33.4233 12.2544 33.6886 12.1843 33.9866C12.1142 34.2845 12.1448 34.5978 12.2712 34.8759C12.3975 35.154 12.6123 35.3807 12.8808 35.5194C13.1492 35.6582 13.4558 35.7008 13.7511 35.6405C14.0463 35.5802 14.313 35.4205 14.5081 35.1871C14.7032 34.9537 14.8153 34.6603 14.8264 34.3541C14.8375 34.0479 14.7469 33.7469 14.5692 33.4995L16.3024 30.3585L18.8386 29.527C18.9879 29.6944 19.1699 29.8282 19.3729 29.9199C19.576 30.0115 19.7957 30.059 20.0178 30.0591H23.5781V25.2662C23.5781 24.9359 23.6449 24.6092 23.7743 24.3063C23.9038 24.0034 24.0931 23.7309 24.3306 23.5057C24.1389 23.2081 24.0299 22.8633 24.0152 22.5078C24.0005 22.1523 24.0805 21.7993 24.2469 21.4864C24.4133 21.1734 24.6598 20.912 24.9603 20.73C25.2608 20.548 25.6041 20.4521 25.9538 20.4524C26.3035 20.4528 26.6466 20.5494 26.9468 20.732C27.2469 20.9146 27.4929 21.1765 27.6587 21.4898C27.8244 21.8031 27.9038 22.1562 27.8884 22.5117C27.873 22.8671 27.7633 23.2117 27.5711 23.509C27.8075 23.734 27.996 24.0061 28.1249 24.3084C28.2538 24.6106 28.3203 24.9366 28.3203 25.266V29.6437C28.3675 29.6409 28.4151 29.6395 28.4631 29.6394C28.9392 29.639 29.4042 29.7852 29.797 30.059H31.886C32.1136 30.0588 32.3386 30.0089 32.5457 29.9129C32.7528 29.8168 32.9373 29.6767 33.0868 29.502L35.6986 30.3584L37.4319 33.4994C37.2543 33.7468 37.1637 34.0478 37.1749 34.354C37.186 34.6601 37.2982 34.9536 37.4933 35.1869C37.6884 35.4202 37.9551 35.5799 38.2503 35.6402C38.5456 35.7004 38.8521 35.6577 39.1206 35.5189C39.3891 35.3802 39.6037 35.1534 39.73 34.8753C39.8563 34.5972 39.8869 34.2839 39.8167 33.986C39.7466 33.688 39.5798 33.4228 39.3434 33.2331C39.107 33.0434 38.8146 32.9402 38.5135 32.9403C38.4759 32.9403 38.4386 32.942 38.4021 32.9451L36.5621 29.6126C36.4936 29.4879 36.3811 29.3944 36.2474 29.3508L33.4824 28.444V28.4342V27.2936H36.9955L38.4002 28.6938C38.2961 28.9863 38.2934 29.3063 38.3928 29.6006C38.4922 29.8949 38.6876 30.1457 38.9464 30.3113C39.2053 30.4769 39.5121 30.5474 39.8158 30.5111C40.1195 30.4747 40.4019 30.3337 40.6159 30.1115C40.8299 29.8892 40.9628 29.5991 40.9923 29.2894C41.0218 28.9797 40.9463 28.6691 40.7782 28.4091C40.6102 28.1491 40.3598 27.9555 40.0686 27.8604C39.7774 27.7653 39.463 27.7745 39.1777 27.8864L37.6388 26.3527C37.5865 26.2921 37.5222 26.2435 37.45 26.2103C37.3779 26.177 37.2995 26.1599 37.2203 26.16H33.4822V24.0885H38.4415C38.5687 24.3715 38.7871 24.6018 39.0607 24.741C39.3342 24.8802 39.6463 24.92 39.9452 24.8538C40.244 24.7876 40.5116 24.6194 40.7035 24.377C40.8954 24.1347 41 23.8329 41 23.5217C41 23.2105 40.8954 22.9087 40.7035 22.6664C40.5116 22.4241 40.244 22.2558 39.9452 22.1896C39.6463 22.1234 39.3342 22.1632 39.0607 22.3024C38.7871 22.4417 38.5687 22.6719 38.4415 22.9549H33.4822V20.8836H37.2208C37.3 20.8837 37.3783 20.8666 37.4505 20.8333C37.5227 20.8001 37.587 20.7516 37.6392 20.691L39.1782 19.1572C39.4634 19.2691 39.7777 19.2782 40.0687 19.1832C40.3598 19.0882 40.6101 18.8946 40.7781 18.6348C40.9461 18.375 41.0217 18.0644 40.9922 17.7549C40.9627 17.4453 40.83 17.1553 40.6161 16.9331C40.4022 16.7109 40.12 16.5698 39.8165 16.5334C39.5129 16.497 39.2062 16.5673 38.9473 16.7328C38.6885 16.8983 38.4931 17.1489 38.3937 17.443C38.2942 17.7372 38.2967 18.057 38.4007 18.3495L36.9955 19.75H33.4822V18.7349L36.2688 17.6859C36.3935 17.6396 36.4978 17.5492 36.5626 17.4312L38.4021 14.098C38.4389 14.1011 38.476 14.1027 38.5135 14.1028C38.8146 14.1028 39.107 13.9996 39.3434 13.8098C39.5798 13.62 39.7465 13.3548 39.8166 13.0568C39.8867 12.7588 39.8561 12.4455 39.7297 12.1674C39.6034 11.8893 39.3886 11.6626 39.1201 11.5239C38.8517 11.3852 38.5451 11.3425 38.2498 11.4028C37.9546 11.4631 37.6879 11.6228 37.4928 11.8562C37.2977 12.0896 37.1856 12.3831 37.1745 12.6892C37.1634 12.9954 37.254 13.2965 37.4317 13.5438L35.6924 16.6957L33.1691 17.6455C33.0209 17.4408 32.8276 17.2744 32.6047 17.1595C32.3818 17.0447 32.1356 16.9847 31.8857 16.9843H31.0932V14.2314C31.0932 12.8439 30.5515 11.5133 29.5872 10.5322C28.623 9.55116 27.3152 9 25.9516 9C24.588 9 23.2802 9.55116 22.316 10.5322C21.3517 11.5133 20.81 12.8439 20.81 14.2314V16.9843H20.0175C19.7737 16.9846 19.5331 17.0418 19.3143 17.1515C19.0955 17.2611 18.9044 17.4203 18.7555 17.6169L16.3082 16.6958L14.569 13.5438C14.7466 13.2965 14.8372 12.9954 14.8261 12.6892C14.815 12.3831 14.7029 12.0896 14.5078 11.8562C14.3127 11.6228 14.046 11.4631 13.7508 11.4028C13.4556 11.3425 13.149 11.3852 12.8805 11.5239C12.612 11.6626 12.3973 11.8893 12.2709 12.1674C12.1445 12.4455 12.1139 12.7588 12.184 13.0568C12.2541 13.3547 12.4208 13.62 12.6572 13.8098C12.8936 13.9995 13.1859 14.1027 13.487 14.1028C13.5246 14.1028 13.5618 14.1012 13.5985 14.098L15.4381 17.4312C15.5028 17.5492 15.607 17.6396 15.7318 17.6859L18.421 18.6982V19.7504H15.0051L13.6001 18.3498C13.7041 18.0573 13.7066 17.7374 13.6072 17.4433C13.5077 17.1491 13.3123 16.8985 13.0535 16.733C12.7946 16.5675 12.4879 16.4971 12.1843 16.5336C11.8807 16.57 11.5985 16.711 11.3846 16.9333C11.1707 17.1555 11.038 17.4455 11.0085 17.7551C10.979 18.0647 11.0546 18.3752 11.2226 18.6351C11.3906 18.8949 11.641 19.0885 11.932 19.1835C12.2231 19.2785 12.5374 19.2694 12.8227 19.1575L14.3616 20.6913C14.4138 20.7519 14.4781 20.8004 14.5503 20.8336C14.6225 20.8668 14.7008 20.884 14.78 20.8839H18.4212V22.9552H13.559C13.4319 22.6722 13.2134 22.442 12.9399 22.3028C12.6664 22.1636 12.3543 22.1238 12.0555 22.19C11.7566 22.2562 11.4891 22.4244 11.2972 22.6667C11.1053 22.909 11.0007 23.2108 11.0007 23.522C11.0007 23.8332 11.1053 24.135 11.2972 24.3773C11.4891 24.6196 11.7566 24.7878 12.0555 24.854C12.3543 24.9202 12.6664 24.8804 12.9399 24.7412C13.2134 24.602 13.4319 24.3718 13.559 24.0888H18.421V26.16H14.7797C14.7005 26.1599 14.6222 26.177 14.55 26.2103C14.4779 26.2435 14.4135 26.2921 14.3613 26.3527L12.8224 27.8864C12.5555 27.7817 12.2626 27.7665 11.9867 27.8433C11.7107 27.9201 11.4661 28.0847 11.2887 28.313C11.1113 28.5414 11.0104 28.8216 11.0008 29.1125C10.9911 29.4034 11.0732 29.6898 11.2351 29.9298C11.3969 30.1699 11.63 30.3509 11.9003 30.4464C12.1705 30.5419 12.4637 30.5469 12.737 30.4607C13.0102 30.3745 13.2492 30.2016 13.4189 29.9672C13.5886 29.7329 13.6801 29.4494 13.6801 29.1583ZM33.6448 41.8363H24.4057C23.9332 39.4392 22.2432 37.9833 20.2652 33.4835C19.4897 31.7193 21.2749 30.689 22.4424 32.2045L24.6916 35.1251V25.2662C24.6891 25.0966 24.7198 24.9283 24.7818 24.7709C24.8439 24.6136 24.9361 24.4703 25.053 24.3495C25.17 24.2287 25.3094 24.1328 25.4631 24.0673C25.6168 24.0019 25.7818 23.9682 25.9485 23.9682C26.1151 23.9682 26.2801 24.0019 26.4338 24.0673C26.5876 24.1328 26.727 24.2287 26.8439 24.3495C26.9609 24.4703 27.0531 24.6136 27.1151 24.7709C27.1772 24.9283 27.2078 25.0966 27.2054 25.2662V32.0521C27.2103 31.7163 27.3449 31.3958 27.58 31.1601C27.8152 30.9243 28.1321 30.7922 28.4622 30.7922C28.7924 30.7922 29.1093 30.9243 29.3445 31.1601C29.5796 31.3958 29.7142 31.7163 29.7191 32.0521V33.2254C29.7167 33.0559 29.7473 32.8875 29.8094 32.7301C29.8714 32.5728 29.9636 32.4295 30.0806 32.3087C30.1975 32.188 30.3369 32.092 30.4907 32.0266C30.6444 31.9611 30.8094 31.9274 30.976 31.9274C31.1427 31.9274 31.3077 31.9611 31.4614 32.0266C31.6151 32.092 31.7545 32.188 31.8715 32.3087C31.9884 32.4295 32.0806 32.5728 32.1427 32.7301C32.2047 32.8875 32.2354 33.0559 32.2329 33.2254V34.3627C32.2305 34.1932 32.2611 34.0248 32.3232 33.8674C32.3852 33.7101 32.4774 33.5668 32.5944 33.446C32.7113 33.3252 32.8507 33.2293 33.0045 33.1639C33.1582 33.0984 33.3232 33.0647 33.4898 33.0647C33.6565 33.0647 33.8215 33.0984 33.9752 33.1639C34.1289 33.2293 34.2683 33.3252 34.3853 33.446C34.5022 33.5668 34.5944 33.7101 34.6565 33.8674C34.7185 34.0248 34.7492 34.1932 34.7467 34.3627V36.0991C34.7467 37.4586 34.5926 40.0147 33.6438 41.8363H33.6448ZM24.4924 42.9699V44H33.3058V42.9699H24.4924ZM23.2538 16.9843V14.2314C23.2575 13.5058 23.5433 12.8112 24.0488 12.2994C24.5544 11.7876 25.2385 11.5004 25.9516 11.5004C26.6648 11.5004 27.3489 11.7876 27.8544 12.2994C28.36 12.8112 28.6458 13.5058 28.6494 14.2314V16.9843H23.2538Z" fill="white"/>
</svg>
