<svg width="17" height="21" viewBox="0 0 17 21" fill="none" xmlns="http://www.w3.org/2000/svg">
<path fill-rule="evenodd" clip-rule="evenodd" d="M14.4588 6.94507L15.6293 6.68498L16.6588 8.85857L17 8.51744L16.4144 5.69638C16.3925 5.59099 16.2953 5.52 16.1883 5.53123L14.3412 5.72473C14.5221 6.10743 14.5613 6.54052 14.4588 6.94507ZM0.62732 5.93869C1.46378 5.10226 2.81989 5.10226 3.65631 5.93869C4.49274 6.77511 4.49274 8.13125 3.65631 8.96768C2.81989 9.80414 1.46375 9.80414 0.62732 8.96768C-0.209107 8.13122 -0.209107 6.77511 0.62732 5.93869ZM6.85361 1.05768C7.30821 0.603145 8.05379 0.603111 8.50836 1.05768C8.9629 1.51226 8.96294 2.25787 8.50836 2.71244C8.05379 3.16701 7.30818 3.16698 6.85361 2.71244C6.39903 2.25787 6.39907 1.51226 6.85361 1.05768ZM7.26685 1.47092C7.03939 1.69838 7.03939 2.07174 7.26685 2.2992C7.4943 2.52666 7.86767 2.52666 8.09512 2.2992C8.32258 2.07174 8.32258 1.69838 8.09512 1.47092C7.86767 1.24344 7.49434 1.24347 7.26685 1.47092ZM1.2299 6.54127C0.728888 7.04231 0.728888 7.86412 1.2299 8.36517C1.73094 8.86618 2.55276 8.86618 3.05373 8.36514C3.55474 7.86412 3.55474 7.04228 3.05373 6.5413C2.55272 6.04032 1.73091 6.04029 1.2299 6.54127ZM1.64314 6.95451C1.36925 7.22843 1.36921 7.678 1.64314 7.95186C1.91707 8.22572 2.3666 8.22579 2.64049 7.95186C2.91442 7.67797 2.91442 7.22843 2.64053 6.95451C2.3666 6.68065 1.91703 6.68065 1.64314 6.95451ZM11.8382 5.63209C12.3168 5.15353 13.0926 5.15353 13.5712 5.63209C14.0498 6.11064 14.0498 6.88656 13.5712 7.36508C13.0927 7.84363 12.3168 7.84363 11.8382 7.36508C11.3597 6.88656 11.3597 6.11064 11.8382 5.63209ZM12.4981 6.29196C12.384 6.40611 12.384 6.59115 12.4981 6.70527C12.6123 6.81939 12.7973 6.81939 12.9114 6.70527C13.0255 6.59112 13.0255 6.40608 12.9114 6.29196C12.7973 6.17781 12.6123 6.17781 12.4981 6.29196ZM6.34806 0.552107C5.61189 1.28828 5.61189 2.48184 6.34806 3.21802C7.08424 3.95416 8.2778 3.95416 9.01391 3.21802C9.75008 2.48184 9.75008 1.28828 9.01391 0.552107C8.27776 -0.184036 7.08424 -0.184036 6.34806 0.552107ZM1.94845 19.8312V19.4358C1.94845 19.2166 2.12609 19.0389 2.34533 19.0389C3.5352 19.0389 4.13223 17.5973 3.29093 16.7561C3.13596 16.6011 3.13596 16.3497 3.29093 16.1947L4.14542 15.3402C4.30039 15.1853 4.55176 15.1853 4.70673 15.3402C5.54803 16.1815 6.98954 15.5846 6.98954 14.3947C6.98954 14.1754 7.16727 13.9978 7.38641 13.9978H8.59481C8.81395 13.9978 8.99168 14.1755 8.99168 14.3947C8.99168 15.5846 10.4332 16.1816 11.2745 15.3402C11.4295 15.1853 11.6809 15.1853 11.8358 15.3402L12.6903 16.1947C12.8452 16.3497 12.8452 16.6011 12.6903 16.7561C11.849 17.5973 12.446 19.0389 13.6358 19.0389C13.8551 19.0389 14.0327 19.2166 14.0327 19.4358V19.8312C14.0327 19.9462 13.9389 20.04 13.8239 20.04H11.0954C10.9853 20.04 10.8945 19.9549 10.8872 19.845C10.7869 18.3326 9.52834 17.1369 7.99051 17.1369C6.45268 17.1369 5.19411 18.3326 5.09383 19.845C5.08656 19.9549 4.99571 20.04 4.88559 20.04H2.15707C2.04221 20.04 1.94845 19.9462 1.94845 19.8312ZM9.55043 19.7997C9.43472 19.0422 8.78043 18.4619 7.99061 18.4619C7.20079 18.4619 6.54647 19.0422 6.43079 19.7997C6.41138 19.9268 6.50852 20.04 6.63711 20.04H9.34405C9.47271 20.04 9.56984 19.9268 9.55043 19.7997ZM13.1513 8.25261L12.8912 9.4231L15.0648 10.4527L14.7237 10.7938L11.9026 10.2082C11.7972 10.1863 11.7262 10.0892 11.7374 9.98211L11.9309 8.13504C12.3136 8.31596 12.7467 8.35516 13.1513 8.25261ZM7.54923 13.4133L4.39624 8.98679C4.30154 9.12566 4.19284 9.25784 4.06962 9.38099C3.53814 9.91247 2.84167 10.1786 2.14496 10.1794L4.19385 14.6674C4.51554 14.5894 4.86908 14.6759 5.12008 14.9269C5.59437 15.4011 6.40509 15.0654 6.40509 14.3946C6.40509 13.8528 6.84468 13.4133 7.38648 13.4133H7.54923V13.4133ZM4.76494 6.7095L6.83253 4.20468C6.50497 4.08512 6.19752 3.89416 5.93475 3.63133C5.65498 3.35155 5.45661 3.02127 5.33914 2.66986L2.76093 4.79806C3.24057 4.90937 3.69588 5.15174 4.06962 5.52545C4.41082 5.86661 4.64254 6.27586 4.76494 6.7095ZM8.81757 4.07809L11.0029 5.88193C11.0904 5.6399 11.231 5.41278 11.425 5.21878C11.619 5.02481 11.8461 4.88421 12.0882 4.79674L10.099 2.38697C10.0048 2.84296 9.78106 3.27751 9.42721 3.63129C9.24309 3.81539 9.03707 3.96427 8.81757 4.07809Z" fill="black"/>
</svg>
