<svg width="64" height="64" viewBox="0 0 64 64" fill="none" xmlns="http://www.w3.org/2000/svg">
<rect width="64" height="64" rx="20" fill="#FCF8ED"/>
<path d="M17.7967 38.2474H30.7621V40.6993H33.1047V38.2474H46.2038V40.6993H48.5464V35.9049H33.1047V33.3872H30.7621V35.9049H15.4541V40.6993H17.7967V38.2474Z" fill="#E29400"/>
<path d="M12 52.0001H21.0941V42.906H12V52.0001Z" fill="#E29400"/>
<path d="M31.9329 42.906C29.4256 42.906 27.3857 44.9458 27.3857 47.453C27.3857 49.9603 29.4256 52.0001 31.9329 52.0001C34.4401 52.0001 36.48 49.9603 36.48 47.453C36.4799 44.9458 34.44 42.906 31.9329 42.906Z" fill="#E29400"/>
<path d="M49.2842 42.906H45.6223L42.9062 45.622V49.2839L45.6223 52.0001H49.2841L52.0003 49.284V45.6221L49.2842 42.906Z" fill="#E29400"/>
<path d="M39.2074 23.1927C39.3359 22.6461 39.4043 22.0763 39.4043 21.4904C39.4043 20.9045 39.3359 20.3348 39.2074 19.7881L41.2839 18.5892L39.1546 14.9011L37.0765 16.1009C36.2504 15.3226 35.2454 14.7322 34.1297 14.3977V12H29.8711V14.3978C28.7554 14.7323 27.7504 15.3227 26.9243 16.101L24.8462 14.9012L22.7168 18.5892L24.7934 19.7881C24.6648 20.3347 24.5964 20.9045 24.5964 21.4904C24.5964 22.0763 24.6648 22.646 24.7934 23.1927L22.7168 24.3916L24.8461 28.0797L26.9242 26.8799C27.7503 27.6582 28.7553 28.2485 29.871 28.5831V30.9809H34.1296V28.5831C35.2453 28.2486 36.2503 27.6582 37.0764 26.8799L39.1545 28.0797L41.2838 24.3916L39.2074 23.1927ZM32.0004 25.8674C29.624 25.8674 27.6906 23.934 27.6906 21.5576C27.6906 19.1812 29.624 17.2478 32.0004 17.2478C34.3768 17.2478 36.3102 19.1812 36.3102 21.5576C36.3102 23.934 34.3768 25.8674 32.0004 25.8674Z" fill="#E29400"/>
<path d="M32.0002 23.5236C33.086 23.5236 33.9662 22.6434 33.9662 21.5576C33.9662 20.4718 33.086 19.5916 32.0002 19.5916C30.9144 19.5916 30.0342 20.4718 30.0342 21.5576C30.0342 22.6434 30.9144 23.5236 32.0002 23.5236Z" fill="#E29400"/>
</svg>
