<svg width="44" height="54" viewBox="0 0 44 54" fill="none" xmlns="http://www.w3.org/2000/svg">
<path d="M16.8438 17.7202H15.4255C14.9166 17.7202 14.5078 18.129 14.5078 18.6379V25.3873C14.5078 25.8962 14.9166 26.305 15.4255 26.305H28.5571C29.066 26.305 29.4748 25.8962 29.4748 25.3873V18.6379C29.4748 18.129 29.066 17.7202 28.5571 17.7202H27.1388C26.6299 17.7202 26.2211 18.129 26.2211 18.6379V20.6402C26.2211 20.9155 25.9959 21.1408 25.7206 21.1408H24.1855C23.9102 21.1408 23.6849 20.9155 23.6849 20.6402V18.6379C23.6849 18.129 23.2761 17.7202 22.7672 17.7202H21.2321C20.7232 17.7202 20.3144 18.129 20.3144 18.6379V20.6402C20.3144 20.9155 20.0892 21.1408 19.8138 21.1408H18.2788C18.0035 21.1408 17.7782 20.9155 17.7782 20.6402V18.6379C17.7699 18.1374 17.3527 17.7202 16.8438 17.7202Z" fill="#F5B037"/>
<path d="M32.078 45.5435H11.9217C11.296 45.5435 10.7871 46.0524 10.7871 46.6781V53.2939H33.2126V46.6781C33.2126 46.0524 32.7037 45.5435 32.078 45.5435ZM29.4083 50.2405H14.5914C14.1409 50.2405 13.7738 49.8734 13.7738 49.4229C13.7738 48.9724 14.1409 48.6053 14.5914 48.6053H29.3999C29.8504 48.6053 30.2175 48.9724 30.2175 49.4229C30.2259 49.8734 29.8588 50.2405 29.4083 50.2405Z" fill="#F5B037"/>
<path d="M42.6234 18.3876H39.5449C39.0777 16.1183 38.1851 14.0159 36.9587 12.1471L39.1445 9.96132C39.6701 9.42738 39.6701 8.55973 39.1445 8.02579L35.9742 4.86386C35.4486 4.32992 34.5726 4.32992 34.0387 4.86386L31.8529 7.04134C29.9841 5.8066 27.8817 4.91392 25.6124 4.44672V1.36822C25.6124 0.609026 25.0034 0 24.2359 0H19.7641C19.0049 0 18.3876 0.609026 18.3876 1.36822V4.45506C16.1183 4.92226 14.0159 5.81494 12.1555 7.04968L9.96966 4.86386C9.43572 4.32992 8.56807 4.32992 8.03413 4.86386L4.86386 8.02579C4.33826 8.55973 4.32992 9.42738 4.86386 9.96132L7.04968 12.1555C5.82328 14.0159 4.9306 16.1267 4.46341 18.3876H1.36822C0.609026 18.3876 0 18.9966 0 19.7558V24.2359C0 24.9951 0.609026 25.6041 1.36822 25.6041H4.46341C4.9306 27.8733 5.81494 29.9757 7.04968 31.8445L4.8722 34.0303C4.33826 34.5643 4.33826 35.4319 4.8722 35.9659L8.03413 39.1278C8.56807 39.6617 9.43572 39.6617 9.96966 39.1278L12.1555 36.942C13.0899 37.5593 14.0743 38.0849 15.1172 38.5271C16.0099 36.8502 16.4771 34.9314 16.694 33.1126C12.5392 31.127 9.66098 26.9056 9.66098 21.9833C9.66098 15.1756 15.1839 9.65264 22 9.65264C28.8161 9.65264 34.339 15.1756 34.339 21.9833C34.339 26.8972 31.4608 31.127 27.306 33.1126C27.5229 34.923 27.9818 36.8502 28.8828 38.5271C29.9257 38.0933 30.9268 37.5593 31.8612 36.942L34.0387 39.1278C34.5726 39.6617 35.4486 39.6617 35.9742 39.1278L39.1445 35.9659C39.6701 35.4319 39.6701 34.5643 39.1445 34.0303L36.9587 31.8445C38.1934 29.9757 39.0777 27.8733 39.5449 25.6041H42.6234C43.3826 25.6041 44 24.9951 44 24.2359V19.7558C44 19.0049 43.3826 18.3876 42.6234 18.3876Z" fill="#F5B037"/>
<path d="M28.249 40.6214C25.354 36.6085 25.354 30.7769 25.5626 27.957H18.4462C18.6547 30.7686 18.6547 36.6085 15.7598 40.6214H28.249Z" fill="#F5B037"/>
<path d="M12.8555 43.3326V43.8999H31.1346V43.3326C31.1346 42.7402 30.6507 42.2563 30.0584 42.2563H13.9317C13.3394 42.2647 12.8555 42.7402 12.8555 43.3326Z" fill="#F5B037"/>
</svg>
