<svg width="19" height="18" viewBox="0 0 19 18" fill="none" xmlns="http://www.w3.org/2000/svg">
<path d="M0 1.28925C0 0.577125 0.624625 0 1.39531 0H17.6047C18.3754 0 19 0.577125 19 1.28925V16.7108C19 17.4229 18.3754 18 17.6047 18H1.39531C0.624625 18 0 17.4229 0 16.7108V1.28925ZM5.86981 15.0682V6.94012H3.01863V15.0682H5.86981ZM4.44481 5.82975C5.43875 5.82975 6.05744 5.2065 6.05744 4.42575C6.03962 3.62812 5.43994 3.02175 4.46381 3.02175C3.48769 3.02175 2.85 3.62925 2.85 4.42575C2.85 5.2065 3.46869 5.82975 4.42581 5.82975H4.44481ZM10.2731 15.0682V10.5289C10.2731 10.2859 10.2921 10.0429 10.3681 9.86963C10.5735 9.38475 11.0426 8.88188 11.8311 8.88188C12.863 8.88188 13.2751 9.62663 13.2751 10.7201V15.0682H16.1262V10.4062C16.1262 7.90875 14.7203 6.74775 12.844 6.74775C11.3311 6.74775 10.6531 7.53525 10.2731 8.08988V8.118H10.2541C10.2604 8.10861 10.2667 8.09923 10.2731 8.08988V6.94012H7.42306C7.45869 7.70288 7.42306 15.0682 7.42306 15.0682H10.2731Z" fill="#BDC8E4"/>
</svg>
