<svg width="39" height="37" viewBox="0 0 39 37" fill="none" xmlns="http://www.w3.org/2000/svg">
<path d="M25.7672 2.38346H21.0003C20.6843 2.38346 20.3811 2.2579 20.1576 2.03441C19.9341 1.81091 19.8086 1.50779 19.8086 1.19173C19.8086 0.875662 19.9341 0.572541 20.1576 0.349049C20.3811 0.125557 20.6843 0 21.0003 0H25.7672C26.0833 0 26.3864 0.125557 26.6099 0.349049C26.8334 0.572541 26.959 0.875662 26.959 1.19173C26.959 1.50779 26.8334 1.81091 26.6099 2.03441C26.3864 2.2579 26.0833 2.38346 25.7672 2.38346Z" fill="#E29400"/>
<path d="M23.3831 5.95864C23.0671 5.95864 22.7639 5.83308 22.5405 5.60959C22.317 5.3861 22.1914 5.08298 22.1914 4.76691V1.19173C22.1914 0.875662 22.317 0.572541 22.5405 0.349049C22.7639 0.125557 23.0671 0 23.3831 0C23.6992 0 24.0023 0.125557 24.2258 0.349049C24.4493 0.572541 24.5749 0.875662 24.5749 1.19173V4.76691C24.5749 5.08298 24.4493 5.3861 24.2258 5.60959C24.0023 5.83308 23.6992 5.95864 23.3831 5.95864Z" fill="#E29400"/>
<path d="M12.5341 10.1472C12.3776 10.1474 12.2225 10.1166 12.078 10.0567C11.9334 9.99683 11.802 9.90894 11.6915 9.79812L10.0064 8.1129C9.78933 7.88813 9.6692 7.5871 9.67192 7.27463C9.67464 6.96217 9.79997 6.66327 10.0209 6.44231C10.2419 6.22135 10.5408 6.09602 10.8532 6.09331C11.1657 6.09059 11.4667 6.21071 11.6915 6.42779L13.3767 8.1129C13.5434 8.27957 13.6568 8.4919 13.7028 8.72305C13.7487 8.9542 13.7251 9.19379 13.6349 9.41152C13.5447 9.62926 13.392 9.81536 13.1961 9.9463C13.0001 10.0772 12.7697 10.1471 12.5341 10.1472Z" fill="#E29400"/>
<path d="M34.2305 10.1473C33.9949 10.1472 33.7645 10.0773 33.5686 9.94637C33.3726 9.81542 33.2199 9.62931 33.1298 9.41159C33.0396 9.19386 33.016 8.95428 33.0619 8.72314C33.1079 8.492 33.2214 8.27968 33.388 8.11301L35.0737 6.42791C35.1837 6.31448 35.3152 6.22406 35.4605 6.16192C35.6058 6.09978 35.762 6.06716 35.92 6.06595C36.078 6.06475 36.2347 6.09498 36.3809 6.15489C36.5272 6.2148 36.66 6.3032 36.7718 6.41494C36.8835 6.52667 36.9719 6.65952 37.0318 6.80574C37.0918 6.95197 37.122 7.10865 37.1208 7.26667C37.1196 7.42469 37.087 7.58089 37.0249 7.72619C36.9627 7.87149 36.8723 8.00298 36.7589 8.11301L35.0728 9.79823C34.9623 9.90901 34.8311 9.99688 34.6865 10.0568C34.542 10.1167 34.387 10.1474 34.2305 10.1473Z" fill="#E29400"/>
<path d="M7.76756 16.5967L0.00404953 19.0483V28.8408C-0.0342476 29.9474 0.199574 31.0464 0.685003 32.0415C2.3875 35.4191 6.67772 36.3862 7.76756 36.5904C8.85704 36.3862 13.1337 35.4191 14.8362 32.0278C15.3187 31.0511 15.5526 29.9704 15.5171 28.8816V19.0483L7.76756 16.5967ZM13.4741 24.1693L8.1625 29.4673C8.03817 29.5965 7.88905 29.6993 7.72406 29.7695C7.55908 29.8397 7.38162 29.8759 7.20232 29.8759C7.02302 29.8759 6.84557 29.8397 6.68058 29.7695C6.5156 29.6993 6.36648 29.5965 6.24215 29.4673L3.42288 26.6617C3.2966 26.5357 3.19641 26.386 3.12805 26.2212C3.05969 26.0565 3.0245 25.8799 3.0245 25.7015C3.0245 25.5231 3.05969 25.3465 3.12805 25.1817C3.19641 25.0169 3.2966 24.8673 3.42288 24.7413C3.68001 24.4861 4.02759 24.3429 4.38985 24.3429C4.75211 24.3429 5.09968 24.4861 5.35681 24.7413L7.20912 26.58L11.54 22.2489C11.7971 21.9937 12.1447 21.8506 12.5069 21.8506C12.8692 21.8506 13.2168 21.9937 13.4739 22.2489C13.6002 22.3749 13.7004 22.5245 13.7688 22.6893C13.8372 22.854 13.8724 23.0307 13.8724 23.209C13.8724 23.3874 13.8373 23.5641 13.7689 23.7288C13.7006 23.8936 13.6004 24.0433 13.4741 24.1693Z" fill="#E29400"/>
<path d="M31.3289 18.898C31.3319 18.5588 31.4625 18.2332 31.6946 17.9859C31.9268 17.7386 32.2436 17.5877 32.5819 17.5633C32.3576 15.9721 31.7345 14.4634 30.7705 13.1777C30.5298 13.3915 30.2207 13.5122 29.8989 13.5182C29.5375 13.5167 29.1908 13.3752 28.9318 13.1233C28.6944 12.8791 28.5571 12.5549 28.5471 12.2145C28.537 11.8741 28.6548 11.5424 28.8773 11.2846C27.5917 10.3205 26.083 9.69736 24.4918 9.47314C24.47 9.81129 24.3209 10.1286 24.0743 10.361C23.8277 10.5934 23.5022 10.7237 23.1634 10.7254C22.8245 10.7271 22.4977 10.6002 22.2487 10.3703C21.9998 10.1404 21.8474 9.82463 21.8223 9.48673C20.235 9.7101 18.7305 10.3334 17.4503 11.2982C17.6646 11.5579 17.776 11.8872 17.7635 12.2237C17.7509 12.5601 17.6153 12.8803 17.3823 13.1233C17.1434 13.3639 16.822 13.5048 16.4832 13.5174C16.1444 13.5301 15.8134 13.4135 15.5573 13.1913C14.972 13.9754 14.5083 14.8432 14.1816 15.7655L17.2869 16.746C17.5648 16.8333 17.8074 17.0074 17.979 17.2427C18.1507 17.4781 18.2422 17.7623 18.2403 18.0536V27.0288C19.3321 27.7029 20.5517 28.1435 21.8223 28.3228C21.8436 27.9833 21.9935 27.6646 22.2414 27.4317C22.4894 27.1988 22.8168 27.0692 23.157 27.0692C23.4972 27.0692 23.8246 27.1988 24.0726 27.4317C24.3206 27.6646 24.4705 27.9833 24.4918 28.3228C26.083 28.0985 27.5916 27.4754 28.8773 26.5114C28.6504 26.2557 28.5296 25.923 28.5398 25.5813C28.55 25.2396 28.6903 24.9146 28.932 24.6729C29.1737 24.4312 29.4987 24.2909 29.8404 24.2807C30.1821 24.2706 30.5148 24.3913 30.7705 24.6182C31.7345 23.3325 32.3576 21.8239 32.5819 20.2327C32.2436 20.2083 31.9268 20.0575 31.6947 19.8102C31.4625 19.5629 31.3319 19.2372 31.3289 18.898ZM26.0445 20.2599H23.1571C22.7962 20.2589 22.4504 20.1151 22.1952 19.8599C21.94 19.6047 21.7962 19.2589 21.7951 18.898V14.8258C21.7934 14.6459 21.8274 14.4674 21.8951 14.3007C21.9628 14.1339 22.0628 13.9823 22.1895 13.8545C22.3161 13.7266 22.4668 13.6252 22.6329 13.5559C22.799 13.4867 22.9771 13.451 23.1571 13.451C23.337 13.451 23.5152 13.4867 23.6812 13.5559C23.8473 13.6252 23.998 13.7266 24.1247 13.8545C24.2513 13.9823 24.3514 14.1339 24.4191 14.3007C24.4867 14.4674 24.5207 14.6459 24.519 14.8258V17.536H26.0445C26.4035 17.5394 26.7466 17.6843 26.9993 17.9394C27.252 18.1945 27.3937 18.539 27.3937 18.898C27.3937 19.257 27.252 19.6015 26.9993 19.8566C26.7466 20.1116 26.4035 20.2566 26.0445 20.2599Z" fill="#E29400"/>
<path d="M23.1577 33.8799C21.2117 33.8714 19.2857 33.4877 17.485 32.7498C17.8548 31.8989 18.0929 30.9968 18.1914 30.0743C19.7519 30.782 21.4448 31.1507 23.1583 31.156C25.4115 31.1573 27.6215 30.5376 29.5455 29.3649C31.4695 28.1922 33.033 26.5118 34.0642 24.5084C35.0955 22.505 35.5546 20.2562 35.3911 18.0089C35.2277 15.7616 34.4479 13.6029 33.1376 11.7698C31.8272 9.93679 30.037 8.5004 27.9635 7.61846C25.8901 6.73652 23.6136 6.44316 21.3843 6.77061C19.155 7.09806 17.0591 8.03365 15.3269 9.47459C13.5946 10.9155 12.293 12.8061 11.5651 14.9385L8.97266 14.1189C9.85297 11.5083 11.4364 9.19104 13.5487 7.42223C15.661 5.65342 18.2203 4.50158 20.945 4.09346C23.6697 3.68533 26.4541 4.03674 28.992 5.10901C31.5299 6.18129 33.7228 7.93287 35.3294 10.171C36.936 12.4092 37.894 15.0471 38.0981 17.7947C38.3022 20.5422 37.7445 23.2927 36.4862 25.7437C35.2279 28.1947 33.3179 30.251 30.9663 31.6865C28.6147 33.122 25.9128 33.881 23.1577 33.8799Z" fill="#E29400"/>
</svg>
