<svg width="16" height="17" viewBox="0 0 16 17" fill="none" xmlns="http://www.w3.org/2000/svg">
<path d="M2.78536 11.4321C2.44078 10.8682 2.19166 10.2866 2.02987 9.66644C2.01698 9.61682 1.92583 9.55958 1.86665 9.55433C1.38701 9.50901 0.905464 9.47847 0.42535 9.43602C0.126591 9.4093 0.00202832 9.26809 0.00107381 8.97231C-0.000357938 8.44276 -0.000357938 7.91322 0.00107381 7.3832C0.00202832 7.08456 0.125159 6.94287 0.422009 6.91663C0.890192 6.87513 1.35933 6.83982 1.82799 6.80881C1.95733 6.80023 2.02128 6.76063 2.05516 6.6218C2.20215 6.01736 2.45557 5.45538 2.78488 4.91963C2.4551 4.53464 2.13057 4.15537 1.80556 3.77658C1.54784 3.47603 1.55405 3.3124 1.83658 3.0295C2.19404 2.67122 2.5515 2.31342 2.9104 1.95705C3.11991 1.74953 3.31367 1.73904 3.53941 1.92891C3.90833 2.23948 4.27486 2.55243 4.63661 2.87111C4.71679 2.94172 4.77358 2.95078 4.86569 2.89449C5.36108 2.59203 5.89178 2.36829 6.45541 2.23137C6.58714 2.1994 6.62532 2.13739 6.63343 2.01573C6.66588 1.54105 6.7012 1.06637 6.7432 0.592169C6.76849 0.306407 6.9131 0.17903 7.19849 0.178076C7.73445 0.176168 8.26992 0.175214 8.80587 0.178076C9.20104 0.179984 9.35901 0.470517 9.16477 0.815436C8.44794 2.08777 8.3816 3.39636 8.95478 4.73835C8.97339 4.78128 8.99009 4.82517 9.01921 4.89721C8.13534 4.65152 7.29251 4.70257 6.48691 5.1033C5.6794 5.50452 5.11148 6.13233 4.79124 6.97483C4.26913 8.34831 4.70724 9.91594 5.84453 10.8429C6.91214 11.7131 8.75815 12.0184 10.2772 10.757V13.8971C10.0338 13.9739 9.78758 14.0626 9.53511 14.127C9.4201 14.1561 9.38192 14.2076 9.37428 14.3174C9.34039 14.7978 9.3046 15.2786 9.26213 15.7586C9.23683 16.0448 9.09223 16.1741 8.80874 16.175C8.27279 16.177 7.73731 16.177 7.20136 16.175C6.91405 16.1741 6.76897 16.0472 6.74367 15.7638C6.70215 15.2958 6.66636 14.8269 6.63629 14.3579C6.6277 14.2215 6.58523 14.1532 6.44014 14.1184C5.88176 13.9834 5.35774 13.7592 4.8676 13.4596C4.77549 13.4033 4.7187 13.4095 4.63852 13.4806C4.28583 13.7911 3.92694 14.0955 3.569 14.3999C3.31033 14.6203 3.12611 14.6122 2.88653 14.3732C2.52812 14.0158 2.17066 13.658 1.8132 13.3002C1.5593 13.0464 1.55357 12.8695 1.79124 12.5918C2.11959 12.2078 2.44937 11.8247 2.78536 11.4325V11.4321Z" fill="#1B1B1B"/>
<path d="M11.4327 10.3726C11.4327 8.89699 11.4308 7.42143 11.4355 5.94586C11.4355 5.81658 11.3983 5.74788 11.2842 5.68252C9.24018 4.51371 9.19341 1.55161 11.1969 0.314101C11.2547 0.278321 11.3239 0.262101 11.3878 0.236816C11.4026 0.308376 11.4303 0.380413 11.4303 0.451973C11.4331 1.4457 11.4355 2.43943 11.4284 3.43268C11.4274 3.57008 11.4742 3.62923 11.5964 3.67551C11.9744 3.81815 12.3461 3.97701 12.7251 4.11727C12.8038 4.14637 12.9117 4.14971 12.9895 4.12061C13.3737 3.97844 13.7507 3.81624 14.1344 3.67217C14.2527 3.6278 14.2938 3.5696 14.2928 3.44079C14.2871 2.44134 14.289 1.44141 14.2914 0.441955C14.2914 0.375166 14.3148 0.308376 14.3277 0.24111C14.3916 0.263532 14.4618 0.275936 14.5186 0.310285C16.5259 1.5373 16.4863 4.49129 14.4446 5.67918C14.3243 5.74931 14.2866 5.82183 14.2871 5.95636C14.2909 8.86598 14.2909 11.7756 14.2895 14.6848C14.2895 15.4104 13.8433 15.9924 13.1827 16.1374C12.2769 16.3364 11.4384 15.6751 11.4341 14.7453C11.4274 13.2874 11.4322 11.83 11.4322 10.3721L11.4327 10.3726Z" fill="#1B1B1B"/>
</svg>
