<svg width="72" height="72" viewBox="0 0 72 72" fill="none" xmlns="http://www.w3.org/2000/svg">
<rect width="72" height="72" rx="15" fill="url(#paint0_linear_1_2379)"/>
<g clip-path="url(#clip0_1_2379)">
<path d="M22.0945 44.6816C21.1756 43.1779 20.5113 41.6272 20.0799 39.9734C20.0455 39.8411 19.8024 39.6884 19.6446 39.6744C18.3656 39.5536 17.0815 39.4721 15.8012 39.3589C15.0046 39.2877 14.6724 38.9111 14.6699 38.1224C14.666 36.7103 14.666 35.2982 14.6699 33.8849C14.6724 33.0885 15.0007 32.7107 15.7923 32.6407C17.0408 32.53 18.2918 32.4359 19.5415 32.3532C19.8864 32.3303 20.057 32.2247 20.1473 31.8545C20.5393 30.2427 21.2151 28.7441 22.0932 27.3155C21.2138 26.2888 20.3484 25.2775 19.4817 24.2674C18.7945 23.4659 18.811 23.0296 19.5644 22.2752C20.5177 21.3198 21.4709 20.3657 22.4279 19.4154C22.9866 18.862 23.5033 18.834 24.1052 19.3404C25.089 20.1685 26.0664 21.0031 27.031 21.8529C27.2449 22.0411 27.3963 22.0653 27.6419 21.9152C28.9629 21.1086 30.3781 20.512 31.8811 20.1469C32.2323 20.0617 32.3342 19.8963 32.3558 19.5719C32.4423 18.3061 32.5365 17.0403 32.6485 15.7758C32.7159 15.0138 33.1016 14.6741 33.8626 14.6716C35.2918 14.6665 36.7197 14.6639 38.1489 14.6716C39.2026 14.6767 39.6239 15.4514 39.1059 16.3712C37.1944 19.764 37.0175 23.2535 38.5459 26.8321C38.5956 26.9465 38.6401 27.0636 38.7177 27.2557C36.3608 26.6005 34.1133 26.7366 31.9651 27.8053C29.8118 28.8751 28.2973 30.5493 27.4434 32.7959C26.0511 36.4584 27.2194 40.6387 30.2521 43.1105C33.099 45.4309 38.0216 46.2451 42.0724 42.8815V51.2548C41.4234 51.4596 40.7667 51.6962 40.0935 51.868C39.7868 51.9456 39.6849 52.083 39.6646 52.3756C39.5742 53.6566 39.4788 54.939 39.3655 56.2187C39.2981 56.982 38.9125 57.3268 38.1565 57.3293C36.7273 57.3344 35.2994 57.3344 33.8702 57.3293C33.1041 57.3268 32.7172 56.9884 32.6498 56.2327C32.5391 54.9847 32.4436 53.7342 32.3634 52.4837C32.3405 52.1199 32.2273 51.938 31.8404 51.8451C30.3514 51.4851 28.954 50.8872 27.647 50.0882C27.4014 49.9381 27.2499 49.9547 27.0361 50.1442C26.0957 50.9724 25.1386 51.784 24.1841 52.5956C23.4944 53.1834 23.0031 53.1618 22.3643 52.5244C21.4085 51.5716 20.4553 50.6175 19.5021 49.6633C18.825 48.9866 18.8098 48.5146 19.4435 47.7742C20.3191 46.7501 21.1985 45.7286 22.0945 44.6829V44.6816Z" fill="white"/>
<path d="M45.1526 41.8562C45.1526 37.9215 45.1475 33.9867 45.1603 30.052C45.1603 29.7072 45.061 29.524 44.7568 29.3497C39.3061 26.233 39.1814 18.3342 44.5239 15.0342C44.6779 14.9388 44.8625 14.8955 45.033 14.8281C45.0725 15.0189 45.1463 15.211 45.1463 15.4019C45.1539 18.0518 45.1603 20.7016 45.1412 23.3503C45.1386 23.7166 45.2634 23.8744 45.5891 23.9978C46.5971 24.3782 47.5885 24.8018 48.599 25.1758C48.8089 25.2534 49.0966 25.2623 49.304 25.1847C50.3285 24.8056 51.3339 24.3731 52.3571 23.9889C52.6727 23.8706 52.7821 23.7154 52.7796 23.3719C52.7643 20.7067 52.7694 18.0403 52.7758 15.3751C52.7758 15.197 52.8381 15.0189 52.8725 14.8396C53.043 14.8994 53.2301 14.9324 53.3815 15.024C58.7343 18.296 58.6287 26.1732 53.1843 29.3408C52.8636 29.5278 52.763 29.7212 52.7643 30.0799C52.7745 37.8388 52.7745 45.5976 52.7707 53.3552C52.7707 55.2902 51.5808 56.8422 49.8194 57.2289C47.4039 57.7594 45.1679 55.9962 45.1565 53.5168C45.1386 49.6291 45.1514 45.7427 45.1514 41.855L45.1526 41.8562Z" fill="white"/>
</g>
<defs>
<linearGradient id="paint0_linear_1_2379" x1="36" y1="0" x2="36" y2="72" gradientUnits="userSpaceOnUse">
<stop stop-color="#215EF8"/>
<stop offset="1" stop-color="#023ED6"/>
</linearGradient>
<clipPath id="clip0_1_2379">
<rect width="42.6667" height="42.6667" fill="white" transform="translate(14.667 14.6667)"/>
</clipPath>
</defs>
</svg>
