<svg width="16" height="16" viewBox="0 0 16 16" fill="none" xmlns="http://www.w3.org/2000/svg">
<path d="M2.78535 11.2558C2.44078 10.6919 2.19165 10.1104 2.02987 9.49017C2.01698 9.44055 1.92583 9.38331 1.86665 9.37806C1.38701 9.33274 0.905463 9.30221 0.425349 9.25975C0.12659 9.23303 0.00202736 9.09182 0.00107286 8.79604C-0.000358892 8.26649 -0.000358892 7.73695 0.00107286 7.20693C0.00202736 6.90829 0.125158 6.7666 0.422008 6.74036C0.890191 6.69886 1.35933 6.66355 1.82799 6.63254C1.95732 6.62396 2.02128 6.58436 2.05516 6.44553C2.20215 5.84109 2.45557 5.27911 2.78488 4.74336C2.4551 4.35837 2.13057 3.9791 1.80556 3.60031C1.54784 3.29976 1.55405 3.13613 1.83658 2.85323C2.19404 2.49495 2.5515 2.13715 2.91039 1.78079C3.11991 1.57326 3.31367 1.56277 3.53941 1.75264C3.90833 2.06321 4.27485 2.37616 4.63661 2.69484C4.71679 2.76545 4.77358 2.77451 4.86569 2.71822C5.36108 2.41576 5.89178 2.19202 6.45541 2.0551C6.58713 2.02313 6.62531 1.96112 6.63343 1.83946C6.66588 1.36478 6.7012 0.890103 6.7432 0.4159C6.76849 0.130137 6.9131 0.00276068 7.19849 0.00180654C7.73445 -0.000101719 8.26992 -0.00105585 8.80587 0.00180654C9.20104 0.00371481 9.35901 0.294248 9.16477 0.639166C8.44794 1.9115 8.3816 3.22009 8.95478 4.56208C8.97339 4.60501 8.99009 4.6489 9.01921 4.72094C8.13534 4.47525 7.29251 4.5263 6.48691 4.92703C5.6794 5.32825 5.11147 5.95607 4.79124 6.79856C4.26913 8.17204 4.70724 9.73967 5.84453 10.6666C6.91214 11.5368 8.75815 11.8421 10.2772 10.5807V13.7208C10.0338 13.7976 9.78758 13.8863 9.53511 13.9507C9.4201 13.9798 9.38192 14.0314 9.37428 14.1411C9.34039 14.6215 9.3046 15.1024 9.26213 15.5823C9.23683 15.8685 9.09222 15.9978 8.80874 15.9988C8.27278 16.0007 7.73731 16.0007 7.20136 15.9988C6.91405 15.9978 6.76897 15.8709 6.74367 15.5875C6.70215 15.1195 6.66636 14.6506 6.63629 14.1816C6.6277 14.0452 6.58523 13.977 6.44014 13.9421C5.88176 13.8071 5.35774 13.5829 4.8676 13.2833C4.77549 13.227 4.7187 13.2332 4.63852 13.3043C4.28583 13.6149 3.92694 13.9192 3.569 14.2236C3.31033 14.444 3.12611 14.4359 2.88653 14.1969C2.52812 13.8396 2.17066 13.4818 1.81319 13.124C1.5593 12.8702 1.55357 12.6932 1.79124 12.4155C2.11959 12.0315 2.44937 11.6484 2.78535 11.2563V11.2558Z" fill="#023ED6"/>
<path d="M11.4327 10.1963C11.4327 8.72072 11.4308 7.24516 11.4355 5.76959C11.4355 5.64031 11.3983 5.57161 11.2842 5.50625C9.24018 4.33744 9.19341 1.37534 11.1969 0.137832C11.2547 0.102052 11.3239 0.0858314 11.3878 0.0605469C11.4026 0.132107 11.4303 0.204144 11.4303 0.275704C11.4331 1.26943 11.4355 2.26316 11.4284 3.25641C11.4274 3.39381 11.4742 3.45296 11.5964 3.49924C11.9744 3.64188 12.3461 3.80074 12.7251 3.941C12.8038 3.9701 12.9117 3.97344 12.9895 3.94434C13.3737 3.80217 13.7507 3.63997 14.1344 3.4959C14.2527 3.45153 14.2938 3.39333 14.2928 3.26452C14.2871 2.26507 14.289 1.26514 14.2914 0.265685C14.2914 0.198896 14.3148 0.132107 14.3277 0.0648405C14.3916 0.0872626 14.4618 0.0996663 14.5186 0.134015C16.5259 1.36103 16.4863 4.31502 14.4446 5.50291C14.3243 5.57304 14.2866 5.64556 14.2871 5.78009C14.2909 8.68971 14.2909 11.5993 14.2895 14.5085C14.2895 15.2341 13.8433 15.8161 13.1827 15.9612C12.2769 16.1601 11.4384 15.4989 11.4341 14.5691C11.4274 13.1112 11.4322 11.6537 11.4322 10.1958L11.4327 10.1963Z" fill="#023ED6"/>
</svg>
