<svg width="15" height="15" viewBox="0 0 15 15" fill="none" xmlns="http://www.w3.org/2000/svg">
<path d="M7.38406 14.9999C7.16864 14.9038 7.04842 14.7432 7.06189 14.4941C6.38195 14.3374 5.85685 13.9729 5.49813 13.3786C5.18941 12.867 5.14998 12.3054 5.19422 11.7188H9.80087C9.98553 12.9372 9.3604 14.1556 7.94763 14.496C7.95917 14.7355 7.84281 14.9038 7.61969 14.9999H7.38503H7.38406Z" fill="#1B1B1B"/>
<path d="M0.000854911 5.33384C0.106644 5.07227 0.304759 4.9761 0.57885 4.99341C0.758693 5.00495 0.939496 4.99053 1.11934 4.99726C1.41074 5.00784 1.58962 5.18575 1.58193 5.4502C1.5752 5.70504 1.39151 5.86852 1.10491 5.87333C0.925071 5.87622 0.743305 5.86372 0.564425 5.87622C0.293219 5.89545 0.103759 5.79159 -0.000106812 5.53868V5.33384H0.000854911Z" fill="#1B1B1B"/>
<path d="M2.6226 4.97894C2.88995 2.29302 5.01248 0.478361 7.6726 0.561064C10.2289 0.640882 12.1379 2.46227 12.3841 4.99432C12.3254 4.99432 12.2687 4.99432 12.2119 4.99432C11.3137 4.99432 10.4154 4.99721 9.51623 4.9924C9.30176 4.99144 9.1325 5.05395 8.98343 5.21262C8.73242 5.479 8.46602 5.73095 8.21021 5.99253C8.14769 6.05696 8.09865 6.07234 8.0092 6.03676C7.28214 5.7473 6.43967 6.13966 6.19059 6.87725C5.94054 7.61966 6.37524 8.43707 7.13211 8.64479C7.89957 8.85635 8.67279 8.3938 8.84879 7.6187C8.91226 7.33981 8.89784 7.06478 8.78243 6.80128C8.74877 6.72531 8.75935 6.68011 8.81705 6.62338C9.04787 6.39835 9.27195 6.16659 9.50372 5.94252C9.54123 5.90598 9.60374 5.8752 9.65471 5.8752C10.5433 5.87136 11.432 5.87232 12.3206 5.87328C12.3398 5.87328 12.3591 5.87905 12.4081 5.88578C12.3523 6.16466 12.3139 6.44451 12.2408 6.71377C12.0032 7.59081 11.5599 8.35148 10.8896 8.96791C10.3616 9.45258 10.0038 10.0277 9.87687 10.7364C9.8586 10.8374 9.79801 10.8297 9.72973 10.8297C9.08537 10.8297 8.44102 10.8297 7.7957 10.8297C6.96093 10.8297 6.12615 10.8278 5.29041 10.8316C5.18366 10.8316 5.14327 10.8056 5.12115 10.6922C4.9894 10.018 4.65375 9.46124 4.14789 8.99772C3.47661 8.38322 3.02075 7.6312 2.77839 6.75512C2.70146 6.47528 2.65626 6.18582 2.59086 5.87232H2.79186C3.69972 5.87232 4.60855 5.86943 5.51642 5.87424C5.7155 5.8752 5.87226 5.81558 6.01075 5.67037C6.26656 5.40207 6.53488 5.1453 6.79455 4.87988C6.85514 4.81738 6.90226 4.79526 6.99459 4.8318C7.57739 5.06452 8.24002 4.87123 8.61605 4.36732C8.97958 3.87976 8.97478 3.20852 8.60259 2.71807C8.23136 2.22858 7.56585 2.03914 7.00132 2.26224C6.43006 2.48823 6.06075 3.09696 6.13096 3.71243C6.14539 3.83648 6.19924 3.95573 6.22425 4.07882C6.23386 4.12594 6.23002 4.1971 6.20117 4.22692C5.97131 4.46637 5.73665 4.70102 5.49815 4.93181C5.46449 4.96451 5.40486 4.98951 5.35774 4.98951C4.47391 4.9924 3.59009 4.9924 2.70627 4.99144C2.67838 4.99144 2.65049 4.98182 2.62356 4.97701L2.6226 4.97894Z" fill="#1B1B1B"/>
<path d="M2.0718 0.499611C2.0795 0.263042 2.15932 0.126487 2.32474 0.048592C2.49112 -0.0293026 2.65557 -0.011031 2.78829 0.110138C2.98256 0.287084 3.16913 0.473646 3.34513 0.668864C3.50189 0.842924 3.48073 1.08526 3.31724 1.24971C3.15086 1.41704 2.90081 1.43435 2.72481 1.27279C2.53439 1.09873 2.3507 0.916011 2.17856 0.723678C2.11508 0.652515 2.09296 0.545771 2.0718 0.499611Z" fill="#1B1B1B"/>
<path d="M2.04433 10.4121C2.09723 10.3121 2.13473 10.1986 2.20686 10.1159C2.35785 9.94377 2.52519 9.78606 2.68965 9.62835C2.88295 9.44371 3.13685 9.44275 3.31573 9.62065C3.49557 9.79952 3.49653 10.0496 3.309 10.2467C3.14743 10.4159 2.98297 10.5823 2.81275 10.7419C2.67234 10.8737 2.505 10.9054 2.32612 10.8237C2.15878 10.7468 2.07991 10.6102 2.04337 10.4121H2.04433Z" fill="#1B1B1B"/>
<path d="M14.1997 5.87227C14.0824 5.87227 13.966 5.87708 13.8487 5.87131C13.6025 5.85881 13.4226 5.67609 13.4198 5.44144C13.4169 5.21161 13.5832 5.01543 13.8218 5.00293C14.0843 4.98946 14.3478 4.98946 14.6104 5.00581C14.8518 5.0212 15.0095 5.21545 15.0008 5.45106C14.9931 5.67994 14.8296 5.85207 14.594 5.86842C14.4632 5.87708 14.3315 5.87035 14.1997 5.87035V5.87227Z" fill="#1B1B1B"/>
<path d="M12.0567 9.48657C12.1057 9.51158 12.2134 9.54139 12.2885 9.6087C12.4731 9.77411 12.6481 9.95202 12.8174 10.1328C12.9799 10.3069 12.9674 10.579 12.803 10.7406C12.6337 10.906 12.374 10.9127 12.1961 10.7454C12.0192 10.579 11.847 10.4059 11.6797 10.229C11.5518 10.0934 11.5162 9.9299 11.597 9.7568C11.6749 9.58851 11.8105 9.49715 12.0567 9.48753V9.48657Z" fill="#1B1B1B"/>
<path d="M12.9395 0.504906C12.9097 0.558759 12.8713 0.672235 12.7982 0.754938C12.6433 0.92996 12.4741 1.09248 12.3048 1.25308C12.1221 1.42618 11.8566 1.42233 11.6874 1.25212C11.5181 1.08286 11.5152 0.814561 11.6874 0.633768C11.8518 0.461631 12.0211 0.292379 12.1942 0.127935C12.3298 -0.00092806 12.4923 -0.0374712 12.6664 0.041385C12.8357 0.118318 12.9261 0.255836 12.9395 0.504906Z" fill="#1B1B1B"/>
<path d="M8.0029 3.54875C8.00386 3.82956 7.78555 4.05074 7.50665 4.05074C7.21909 4.05074 7.00655 3.8411 7.00559 3.55548C7.00367 3.27372 7.21813 3.05542 7.50088 3.05061C7.77304 3.0458 8.00193 3.27276 8.0029 3.54875Z" fill="#1B1B1B"/>
<path d="M7.00278 7.31776C7.00278 7.04273 7.22013 6.82347 7.49326 6.82059C7.7885 6.8177 8.00393 7.03407 8.00008 7.32738C7.99624 7.61011 7.77215 7.82648 7.49037 7.82071C7.22205 7.8159 7.00181 7.58799 7.00278 7.3168V7.31776Z" fill="#1B1B1B"/>
</svg>
