<svg width="53" height="53" viewBox="0 0 53 53" fill="none" xmlns="http://www.w3.org/2000/svg">
<rect x="0.5" y="0.5" width="52" height="52" rx="15.5" fill="#023ED6" stroke="#E9EFFF"/>
<path d="M23.2124 17.3841H30.3747C31.0663 17.3557 31.7184 17.0544 32.1882 16.5461C32.658 16.0378 32.9072 15.364 32.8811 14.6723C32.9072 13.9807 32.658 13.3069 32.1882 12.7986C31.7184 12.2903 31.0663 11.9889 30.3747 11.9606C29.996 11.9631 29.6236 12.0581 29.29 12.2373C29.2905 11.5652 29.0309 10.919 28.5655 10.4341C28.1001 9.94918 27.4651 9.66326 26.7935 9.63623C26.122 9.66326 25.487 9.94918 25.0216 10.4341C24.5562 10.919 24.2965 11.5652 24.2971 12.2373C23.9635 12.0581 23.5911 11.9631 23.2124 11.9606C22.5208 11.9889 21.8687 12.2903 21.3989 12.7986C20.9291 13.3069 20.6799 13.9807 20.706 14.6723C20.6799 15.364 20.9291 16.0378 21.3989 16.5461C21.8687 17.0544 22.5208 17.3557 23.2124 17.3841Z" fill="white"/>
<path d="M28.2913 24.7407L27.5087 25.5233L28.2243 26.2388H23.4727V27.3457H29.5602C29.6697 27.3456 29.7767 27.3132 29.8676 27.2524C29.9586 27.1915 30.0295 27.1051 30.0714 27.004C30.1133 26.9029 30.1243 26.7916 30.1029 26.6843C30.0816 26.577 30.0289 26.4784 29.9515 26.401L28.2913 24.7407Z" fill="white"/>
<path d="M30.1135 28.4524H24.026C23.9165 28.4524 23.8095 28.4849 23.7186 28.5457C23.6276 28.6065 23.5567 28.6929 23.5148 28.794C23.4729 28.8952 23.4619 29.0064 23.4833 29.1137C23.5046 29.2211 23.5573 29.3197 23.6347 29.3971L25.2949 31.0573L26.0775 30.2748L25.3619 29.5592H30.1135V28.4524Z" fill="white"/>
<path d="M20.8768 30.918L21.8624 30.4144C21.4635 29.6361 21.2566 28.7737 21.2592 27.8991C21.2633 26.6335 21.6992 25.4073 22.4948 24.423C23.2903 23.4388 24.398 22.7555 25.6345 22.4861C26.1225 22.3755 26.5582 22.1017 26.8695 21.71C27.1808 21.3183 27.3492 20.8321 27.3468 20.3317V19.0444H26.24V20.3317C26.2434 20.5788 26.1625 20.8197 26.0106 21.0146C25.8587 21.2095 25.6448 21.3467 25.4043 21.4036C24.4086 21.6171 23.4753 22.0565 22.6765 22.688C21.8776 23.3195 21.2346 24.1261 20.7971 25.0456C20.3595 25.9651 20.1391 26.9729 20.153 27.9911C20.1668 29.0093 20.4144 30.0107 20.8768 30.918Z" fill="white"/>
<path d="M21.5049 33.416C21.6866 33.2324 21.9274 33.1188 22.1846 33.0953C22.4419 33.0718 22.6992 33.1399 22.9112 33.2877C23.9982 34.0708 25.2967 34.5069 26.6361 34.5386C27.9755 34.5703 29.2932 34.1962 30.4161 33.4653L29.8106 32.5383C28.875 33.1473 27.777 33.4591 26.6609 33.4328C25.5449 33.4064 24.4629 33.0431 23.557 32.3906C23.133 32.0856 22.6138 31.9424 22.0934 31.987C21.573 32.0315 21.0857 32.2609 20.7196 32.6335L19.7578 33.5954L20.5403 34.3779L21.5049 33.416Z" fill="white"/>
<path d="M31.9626 33.297L33.0435 34.3778L33.826 33.5952L32.7452 32.5144C32.572 32.3339 32.4632 32.1013 32.4356 31.8527C32.408 31.6041 32.4631 31.3533 32.5924 31.1392C33.081 30.2635 33.3652 29.2887 33.4237 28.2877C33.4822 27.2866 33.3135 26.2853 32.9302 25.3587C32.547 24.4321 31.9591 23.6042 31.2105 22.937C30.462 22.2698 29.5722 21.7805 28.6078 21.5059L28.3057 22.5706C29.1095 22.7993 29.8512 23.2069 30.4752 23.7628C31.0993 24.3187 31.5895 25.0085 31.9092 25.7807C32.2289 26.5528 32.3698 27.3873 32.3213 28.2216C32.2729 29.056 32.0364 29.8685 31.6295 30.5985C31.3802 31.0222 31.2778 31.5164 31.338 32.0043C31.3983 32.4922 31.6178 32.9466 31.9626 33.297Z" fill="white"/>
<path d="M41.4425 37.4177C41.0638 37.4202 40.6914 37.5152 40.3578 37.6944C40.372 37.3577 40.3179 37.0216 40.1988 36.7064C40.0798 36.3911 39.8982 36.1032 39.6649 35.86C39.4317 35.6168 39.1517 35.4232 38.8418 35.291C38.5318 35.1587 38.1983 35.0906 37.8613 35.0906C37.5243 35.0906 37.1908 35.1587 36.8809 35.291C36.5709 35.4232 36.2909 35.6168 36.0577 35.86C35.8245 36.1032 35.6429 36.3911 35.5238 36.7064C35.4047 37.0216 35.3507 37.3577 35.3649 37.6944C35.0312 37.5152 34.6589 37.4202 34.2802 37.4177C33.5976 37.4711 32.9603 37.78 32.4955 38.2827C32.0306 38.7853 31.7725 39.4448 31.7725 40.1294C31.7725 40.8141 32.0306 41.4735 32.4955 41.9762C32.9603 42.4789 33.5976 42.7877 34.2802 42.8412H41.4425C42.125 42.7877 42.7623 42.4789 43.2272 41.9762C43.692 41.4735 43.9502 40.8141 43.9502 40.1294C43.9502 39.4448 43.692 38.7853 43.2272 38.2827C42.7623 37.78 42.125 37.4711 41.4425 37.4177Z" fill="white"/>
<path d="M12.1444 42.8411H19.3067C19.9893 42.7876 20.6266 42.4788 21.0914 41.9761C21.5562 41.4735 21.8144 40.814 21.8144 40.1294C21.8144 39.4447 21.5562 38.7852 21.0914 38.2826C20.6266 37.7799 19.9893 37.4711 19.3067 37.4176C18.928 37.4201 18.5557 37.5151 18.222 37.6943C18.2226 37.0222 17.9629 36.376 17.4976 35.8911C17.0322 35.4062 16.3971 35.1203 15.7256 35.0933C15.054 35.1203 14.419 35.4062 13.9536 35.8911C13.4882 36.376 13.2286 37.0222 13.2291 37.6943C12.8955 37.5151 12.5231 37.4201 12.1444 37.4176C11.4619 37.4711 10.8246 37.7799 10.3597 38.2826C9.8949 38.7852 9.63672 39.4447 9.63672 40.1294C9.63672 40.814 9.8949 41.4735 10.3597 41.9761C10.8246 42.4788 11.4619 42.7876 12.1444 42.8411Z" fill="white"/>
</svg>
