<svg width="265" height="44" viewBox="0 0 265 44" fill="none" xmlns="http://www.w3.org/2000/svg">
<path d="M28.9649 8.26303C23.8305 8.26303 18.6908 8.26302 13.5564 8.25265C13.1983 8.25265 12.9508 8.36157 12.698 8.61051C9.99129 11.2866 7.27927 13.9576 4.56725 16.6234C4.4356 16.753 4.24076 16.836 4.13544 16.9812C4.04065 17.1109 4.01432 17.2924 3.98799 17.4532C3.95639 17.6191 3.99325 17.8007 3.94586 17.9614C3.65096 18.9676 2.60302 19.5692 1.57087 19.3358C0.549257 19.1024 -0.13533 18.1274 0.0226513 17.1264C0.196431 16.0321 1.11272 15.3164 2.24493 15.4357C2.55562 15.472 2.71887 15.3631 2.90845 15.1764C7.81114 10.3531 12.7138 5.52983 17.606 0.696185C17.8377 0.467987 18.0694 0.374634 18.3959 0.374634C27.0796 0.385006 35.7633 0.37982 44.4471 0.37982C44.8087 0.37982 44.9895 0.550969 44.9895 0.893266C44.9895 3.20118 44.9842 5.5039 45 7.81181C45 8.16967 44.9052 8.26303 44.5419 8.26303C39.3495 8.25265 34.1625 8.25265 28.9701 8.25265L28.9649 8.26303ZM0.522926 17.365C0.507128 18.2 1.16012 18.8794 1.99215 18.8898C2.80313 18.9053 3.49825 18.2519 3.51931 17.4584C3.54037 16.6078 2.86632 15.9077 2.02375 15.9025C1.21805 15.9025 0.533458 16.5663 0.51766 17.365H0.522926Z" fill="#1353F4"/>
<path d="M28.1455 9.12854H36.1183C36.1236 9.26338 36.1394 9.40341 36.1394 9.54863C36.1394 15.9434 36.1288 22.3329 36.1394 28.7276C36.1394 29.0025 36.034 29.1737 35.8497 29.3552C32.1372 33.0064 28.4299 36.6575 24.7173 40.3087C24.5224 40.5006 24.454 40.6458 24.5593 40.931C24.8753 41.7868 24.5382 42.71 23.7799 43.2027C23.0111 43.7005 21.9842 43.6331 21.3049 43.0315C20.6308 42.4351 20.4465 41.4652 20.852 40.6665C21.2575 39.8627 22.1422 39.427 23.0427 39.6189C23.3376 39.6811 23.5114 39.6085 23.7167 39.4063C25.0806 38.0423 26.4551 36.6886 27.8401 35.3454C28.0665 35.1276 28.1508 34.9045 28.1455 34.5986C28.1402 26.3056 28.1402 18.0127 28.1402 9.71459V9.13891L28.1455 9.12854ZM22.6635 43.0211C23.5061 43.0211 24.1696 42.3573 24.1644 41.5327C24.1591 40.7236 23.5008 40.0753 22.6741 40.0701C21.821 40.0649 21.1574 40.708 21.1522 41.5378C21.1522 42.3677 21.8157 43.0211 22.6583 43.0211H22.6635Z" fill="#1353F4"/>
<path d="M36.9865 9.12591H44.9856V9.58231C44.9856 15.2717 44.9856 20.9663 44.9909 26.6557C44.9909 26.9565 44.8908 27.1536 44.6854 27.3558C40.283 31.6812 35.8911 36.0118 31.4887 40.3372C31.2939 40.5291 31.1991 40.7106 31.2043 41.001C31.2307 42.1679 30.3565 43.0081 29.1664 43.0029C28.0552 42.9978 27.1758 42.1057 27.1916 41.001C27.2074 39.8963 28.1342 39.0147 29.277 39.0562C29.5824 39.0665 29.7772 38.9887 29.9879 38.7813C32.2102 36.5823 34.4324 34.3885 36.6705 32.1998C36.9022 31.9716 36.997 31.7486 36.997 31.4271C36.9865 24.1714 36.9917 16.9158 36.9917 9.65492V9.12073L36.9865 9.12591ZM29.2138 42.5258C30.03 42.5258 30.7304 41.8256 30.7199 41.0218C30.7093 40.2283 30.0248 39.5592 29.2243 39.5489C28.3923 39.5385 27.6919 40.2231 27.6972 41.0373C27.7024 41.8516 28.3923 42.531 29.219 42.531L29.2138 42.5258Z" fill="#1353F4"/>
<path d="M27.2597 9.1254V16.9723H26.6804C21.4354 16.9723 16.1957 16.9723 10.9507 16.9671C10.6084 16.9671 10.3662 17.0605 10.1239 17.3042C8.19655 19.218 6.25864 21.1265 4.31547 23.0247C4.11009 23.227 4.01004 23.4241 4.0153 23.7249C4.03637 24.8503 3.1622 25.6957 2.03 25.6957C0.90833 25.6957 0.0131015 24.8296 0.00783548 23.7353C0.00256943 22.6254 0.903064 21.7282 2.04053 21.7489C2.36703 21.7541 2.59347 21.6659 2.82517 21.4325C6.89057 17.4131 10.9718 13.3989 15.0529 9.3899C15.1899 9.25506 15.4163 9.12021 15.6006 9.12021C19.408 9.10465 23.2101 9.10984 27.0174 9.10984C27.0859 9.10984 27.1491 9.11503 27.2649 9.1254H27.2597ZM3.52556 23.7197C3.52556 22.9003 2.84097 22.2209 2.0142 22.226C1.19796 22.226 0.534441 22.8847 0.523909 23.6938C0.513377 24.5236 1.1769 25.1978 2.00894 25.203C2.84097 25.203 3.52029 24.5391 3.52556 23.7197Z" fill="#1353F4"/>
<path d="M53.0988 7.56679H59.6608V9.24979H54.8328V12.1568H59.6268V13.7718H54.8158V17.8858H59.5928V19.5348H53.0988V7.56679ZM63.8936 6.66579L67.8716 16.1518L72.0196 6.75079L74.3996 19.5858L72.6486 19.5688C72.4616 18.4468 72.2916 17.3248 72.0706 16.2198C71.9006 15.3528 71.7306 14.4858 71.6116 13.6188C71.5266 12.9898 71.4756 12.3438 71.4246 11.6978L67.7866 20.1808L64.3526 11.7658C64.2846 12.4798 64.2166 13.1768 64.0976 13.8738C63.9446 14.8258 63.7236 15.7778 63.5366 16.7468C63.3496 17.6818 63.1626 18.6168 62.9926 19.5518H61.2586L63.8936 6.66579ZM76.8224 7.56679H83.3844V9.24979H78.5564V12.1568H83.3504V13.7718H78.5394V17.8858H83.3164V19.5348H76.8224V7.56679ZM94.1113 19.5348H92.0373L88.3823 14.4178H87.6513V19.5518H85.9683V7.54979H89.4703C90.3033 7.60079 91.1023 7.65179 91.7483 8.14479C92.6153 8.77379 92.9893 9.86179 92.9893 10.8988C92.9893 11.4088 92.8873 13.0068 91.4933 13.8738C91.2213 14.0438 91.0003 14.1288 90.4053 14.2988C90.9663 15.0978 91.5103 15.8968 92.0883 16.6788C92.5133 17.2738 92.9553 17.8518 93.3803 18.4468C93.6353 18.8038 93.8733 19.1778 94.1113 19.5348ZM89.3513 9.19879H87.6853V12.9558H89.0283C89.8443 12.8878 90.4563 12.8028 90.8813 12.1228C91.0003 11.9358 91.2213 11.5278 91.2213 10.8988C91.2213 10.6948 91.1873 9.94679 90.6433 9.55579C90.2523 9.26679 89.7933 9.23279 89.3513 9.19879ZM106.139 9.64079L104.983 10.8818C104.762 10.6608 104.541 10.4398 104.32 10.2358C103.912 9.87879 102.824 8.96079 101.192 8.96079C100.665 8.96079 99.5772 9.06279 98.4892 9.96379C96.9422 11.2218 96.7892 12.9218 96.7892 13.5848C96.7892 16.0668 98.6422 18.1238 101.158 18.1238C101.651 18.1238 102.824 18.0388 103.861 17.0698C104.252 16.6958 104.558 16.2538 104.745 15.7438C104.847 15.5058 104.881 15.3528 104.932 14.8768H101.94V13.1938L106.853 13.2108C106.853 13.4658 106.887 14.0948 106.768 14.8088C106.683 15.3868 106.394 16.7638 105.255 18.0218C104.626 18.7018 103.402 19.7388 101.107 19.7388C100.41 19.7388 98.5742 19.6368 97.0782 18.3108C95.7692 17.1378 95.0552 15.3868 95.0552 13.6018C95.0552 12.8538 95.1742 11.1708 96.4322 9.58979C98.0812 7.54979 100.325 7.32879 101.243 7.32879C102.025 7.32879 103.572 7.46479 105.153 8.72279C105.51 8.99479 105.816 9.31779 106.139 9.64079ZM109.046 7.56679H115.608V9.24979H110.78V12.1568H115.574V13.7718H110.763V17.8858H115.54V19.5348H109.046V7.56679ZM126.335 19.5348H124.261L120.606 14.4178H119.875V19.5518H118.192V7.54979H121.694C122.527 7.60079 123.326 7.65179 123.972 8.14479C124.839 8.77379 125.213 9.86179 125.213 10.8988C125.213 11.4088 125.111 13.0068 123.717 13.8738C123.445 14.0438 123.224 14.1288 122.629 14.2988C123.19 15.0978 123.734 15.8968 124.312 16.6788C124.737 17.2738 125.179 17.8518 125.604 18.4468C125.859 18.8038 126.097 19.1778 126.335 19.5348ZM121.575 9.19879H119.909V12.9558H121.252C122.068 12.8878 122.68 12.8028 123.105 12.1228C123.224 11.9358 123.445 11.5278 123.445 10.8988C123.445 10.6948 123.411 9.94679 122.867 9.55579C122.476 9.26679 122.017 9.23279 121.575 9.19879ZM128.171 7.56679H134.733V9.24979H129.905V12.1568H134.699V13.7718H129.888V17.8858H134.665V19.5348H128.171V7.56679ZM140.164 7.56679H147.559V9.24979H144.703V19.5348H143.003V9.24979H140.164V7.56679ZM149.072 7.56679H155.634V9.24979H150.806V12.1568H155.6V13.7718H150.789V17.8858H155.566V19.5348H149.072V7.56679ZM166.31 8.09379L166.293 10.1678C166.089 10.0318 165.902 9.89579 165.681 9.75979C165.307 9.52179 164.508 9.02879 163.284 9.02879C161.907 9.02879 160.496 9.69179 159.68 10.7628C158.881 11.8168 158.813 13.0918 158.813 13.5508C158.813 13.8738 158.864 14.7068 159.238 15.5568C159.935 17.0868 161.618 18.0388 163.301 18.0388C164.508 18.0388 165.273 17.5798 166.259 16.9168V18.9398C165.715 19.1948 164.78 19.7048 163.267 19.7048C162.519 19.7048 160.768 19.5688 159.153 18.2258C158.422 17.5968 157.079 16.1178 157.079 13.5338C157.079 11.9868 157.589 10.4908 158.575 9.40279C159.731 8.12779 161.567 7.32879 163.301 7.32879C164.423 7.32879 165.256 7.66879 166.31 8.09379ZM168.809 7.56679H170.543V12.3608H175.915V7.53279H177.683V19.5518H175.932V13.9758H170.526V19.5348H168.809V7.56679ZM189.702 13.7378V7.58379H191.453V20.0108C190.093 18.6168 188.733 17.2398 187.356 15.8628C186.54 15.0468 185.741 14.2308 184.942 13.3978C184.109 12.5308 183.31 11.6468 182.511 10.7458C182.545 11.3238 182.596 11.9018 182.613 12.4628C182.63 12.9728 182.63 13.4828 182.647 13.9928V19.5348H180.879V6.76779C182.562 8.43379 184.245 10.0998 185.894 11.7828C187.22 13.1428 188.529 14.5198 189.821 15.8798C189.787 15.5058 189.736 15.1148 189.736 14.7408C189.719 14.4008 189.719 14.0778 189.702 13.7378ZM193.586 13.3468C193.637 11.8508 194.249 10.3548 195.286 9.26679C196.459 8.02579 198.125 7.34579 199.825 7.34579C201.831 7.34579 203.242 8.29779 203.803 8.73979C205.231 9.87879 206.098 11.6808 206.098 13.5508C206.098 13.9588 206.047 14.8598 205.605 15.8798C204.602 18.2598 202.341 19.6878 199.825 19.6878C197.802 19.6878 196.357 18.7018 195.796 18.2428C194.351 17.0698 193.535 15.2508 193.586 13.3468ZM195.32 13.3128C195.269 14.3668 195.609 15.4718 196.272 16.3048C197.122 17.3758 198.465 18.0048 199.825 18.0048C200.335 18.0048 201.525 17.9198 202.63 17.0698C203.701 16.2368 204.364 14.9278 204.364 13.5508C204.364 12.7008 204.109 12.0208 203.99 11.7488C203.259 10.0828 201.61 9.07979 199.825 9.07979C198.822 9.07979 197.819 9.40279 197.037 10.0148C196.544 10.3888 195.405 11.4938 195.32 13.3128ZM208.155 7.56679H209.889V17.9368H213.544V19.5518H208.155V7.56679ZM213.757 13.3468C213.808 11.8508 214.42 10.3548 215.457 9.26679C216.63 8.02579 218.296 7.34579 219.996 7.34579C222.002 7.34579 223.413 8.29779 223.974 8.73979C225.402 9.87879 226.269 11.6808 226.269 13.5508C226.269 13.9588 226.218 14.8598 225.776 15.8798C224.773 18.2598 222.512 19.6878 219.996 19.6878C217.973 19.6878 216.528 18.7018 215.967 18.2428C214.522 17.0698 213.706 15.2508 213.757 13.3468ZM215.491 13.3128C215.44 14.3668 215.78 15.4718 216.443 16.3048C217.293 17.3758 218.636 18.0048 219.996 18.0048C220.506 18.0048 221.696 17.9198 222.801 17.0698C223.872 16.2368 224.535 14.9278 224.535 13.5508C224.535 12.7008 224.28 12.0208 224.161 11.7488C223.43 10.0828 221.781 9.07979 219.996 9.07979C218.993 9.07979 217.99 9.40279 217.208 10.0148C216.715 10.3888 215.576 11.4938 215.491 13.3128ZM238.968 9.64079L237.812 10.8818C237.591 10.6608 237.37 10.4398 237.149 10.2358C236.741 9.87879 235.653 8.96079 234.021 8.96079C233.494 8.96079 232.406 9.06279 231.318 9.96379C229.771 11.2218 229.618 12.9218 229.618 13.5848C229.618 16.0668 231.471 18.1238 233.987 18.1238C234.48 18.1238 235.653 18.0388 236.69 17.0698C237.081 16.6958 237.387 16.2538 237.574 15.7438C237.676 15.5058 237.71 15.3528 237.761 14.8768H234.769V13.1938L239.682 13.2108C239.682 13.4658 239.716 14.0948 239.597 14.8088C239.512 15.3868 239.223 16.7638 238.084 18.0218C237.455 18.7018 236.231 19.7388 233.936 19.7388C233.239 19.7388 231.403 19.6368 229.907 18.3108C228.598 17.1378 227.884 15.3868 227.884 13.6018C227.884 12.8538 228.003 11.1708 229.261 9.58979C230.91 7.54979 233.154 7.32879 234.072 7.32879C234.854 7.32879 236.401 7.46479 237.982 8.72279C238.339 8.99479 238.645 9.31779 238.968 9.64079ZM241.79 7.53279H243.558V19.5008H241.79V7.53279ZM246.839 7.56679H253.401V9.24979H248.573V12.1568H253.367V13.7718H248.556V17.8858H253.333V19.5348H246.839V7.56679ZM262.258 9.30079L260.745 10.1678C260.643 10.0148 260.524 9.86179 260.405 9.70879C259.793 8.97779 259.215 8.85879 258.739 8.85879C258.484 8.87579 258.263 8.90979 258.025 9.01179C257.26 9.35179 257.124 10.1168 257.124 10.3888C257.124 11.2218 257.923 11.5618 258.093 11.6468L260.286 12.7518C260.626 12.9388 260.898 13.0918 261.204 13.3298C262.36 14.2478 262.496 15.3528 262.496 15.9308C262.496 16.2028 262.479 16.6278 262.258 17.2398C261.663 18.7868 260.286 19.7388 258.62 19.7388C258.144 19.7388 256.988 19.6538 255.968 18.7698C255.152 18.0558 254.846 17.2568 254.523 16.2538L256.138 15.8968C256.359 16.4748 256.529 16.7978 256.682 17.0358C257.124 17.6818 257.855 18.1578 258.688 18.1578C259.079 18.1578 259.419 18.0388 259.538 17.9878C260.269 17.6648 260.745 16.9168 260.745 16.1178C260.745 15.1828 260.15 14.6048 259.368 14.1798C258.552 13.7378 257.651 13.5168 256.869 13.0238C255.577 12.2078 255.373 11.0858 255.373 10.4738C255.373 10.1168 255.458 9.21579 256.121 8.46779C256.478 8.05979 257.345 7.32879 258.79 7.32879C259.232 7.32879 260.252 7.41379 261.204 8.16179C261.646 8.50179 261.918 8.85879 262.258 9.30079Z" fill="#333333"/>
<path d="M52.658 26.7908H57.443V27.8798H55.595V34.5348H54.495V27.8798H52.658V26.7908ZM58.4221 26.7908H62.6681V27.8798H59.5441V29.7608H62.6461V30.8058H59.5331V33.4678H62.6241V34.5348H58.4221V26.7908ZM69.5761 27.1318L69.5651 28.4738C69.4331 28.3858 69.3121 28.2978 69.1691 28.2098C68.9271 28.0558 68.4101 27.7368 67.6181 27.7368C66.7271 27.7368 65.8141 28.1658 65.2861 28.8588C64.7691 29.5408 64.7251 30.3658 64.7251 30.6628C64.7251 30.8718 64.7581 31.4108 65.0001 31.9608C65.4511 32.9508 66.5401 33.5668 67.6291 33.5668C68.4101 33.5668 68.9051 33.2698 69.5431 32.8408V34.1498C69.1911 34.3148 68.5861 34.6448 67.6071 34.6448C67.1231 34.6448 65.9901 34.5568 64.9451 33.6878C64.4721 33.2808 63.6031 32.3238 63.6031 30.6518C63.6031 29.6508 63.9331 28.6828 64.5711 27.9788C65.3191 27.1538 66.5071 26.6368 67.6291 26.6368C68.3551 26.6368 68.8941 26.8568 69.5761 27.1318ZM71.193 26.7908H72.315V29.8928H75.791V26.7688H76.935V34.5458H75.802V30.9378H72.304V34.5348H71.193V26.7908ZM84.7118 30.7838V26.8018H85.8448V34.8428C84.9648 33.9408 84.0848 33.0498 83.1938 32.1588C82.6658 31.6308 82.1488 31.1028 81.6318 30.5638C81.0928 30.0028 80.5758 29.4308 80.0588 28.8478C80.0808 29.2218 80.1138 29.5958 80.1248 29.9588C80.1358 30.2888 80.1358 30.6188 80.1468 30.9488V34.5348H79.0028V26.2738C80.0918 27.3518 81.1808 28.4298 82.2478 29.5188C83.1058 30.3988 83.9528 31.2898 84.7888 32.1698C84.7668 31.9278 84.7338 31.6748 84.7338 31.4328C84.7228 31.2128 84.7228 31.0038 84.7118 30.7838ZM87.2252 30.5308C87.2582 29.5628 87.6542 28.5948 88.3252 27.8908C89.0842 27.0878 90.1622 26.6478 91.2622 26.6478C92.5602 26.6478 93.4732 27.2638 93.8362 27.5498C94.7602 28.2868 95.3212 29.4528 95.3212 30.6628C95.3212 30.9268 95.2882 31.5098 95.0022 32.1698C94.3532 33.7098 92.8902 34.6338 91.2622 34.6338C89.9532 34.6338 89.0182 33.9958 88.6552 33.6988C87.7202 32.9398 87.1922 31.7628 87.2252 30.5308ZM88.3472 30.5088C88.3142 31.1908 88.5342 31.9058 88.9632 32.4448C89.5132 33.1378 90.3822 33.5448 91.2622 33.5448C91.5922 33.5448 92.3622 33.4898 93.0772 32.9398C93.7702 32.4008 94.1992 31.5538 94.1992 30.6628C94.1992 30.1128 94.0342 29.6728 93.9572 29.4968C93.4842 28.4188 92.4172 27.7698 91.2622 27.7698C90.6132 27.7698 89.9642 27.9788 89.4582 28.3748C89.1392 28.6168 88.4022 29.3318 88.3472 30.5088ZM96.6522 26.7908H97.7742V33.5008H100.139V34.5458H96.6522V26.7908ZM100.277 30.5308C100.31 29.5628 100.706 28.5948 101.377 27.8908C102.136 27.0878 103.214 26.6478 104.314 26.6478C105.612 26.6478 106.525 27.2638 106.888 27.5498C107.812 28.2868 108.373 29.4528 108.373 30.6628C108.373 30.9268 108.34 31.5098 108.054 32.1698C107.405 33.7098 105.942 34.6338 104.314 34.6338C103.005 34.6338 102.07 33.9958 101.707 33.6988C100.772 32.9398 100.244 31.7628 100.277 30.5308ZM101.399 30.5088C101.366 31.1908 101.586 31.9058 102.015 32.4448C102.565 33.1378 103.434 33.5448 104.314 33.5448C104.644 33.5448 105.414 33.4898 106.129 32.9398C106.822 32.4008 107.251 31.5538 107.251 30.6628C107.251 30.1128 107.086 29.6728 107.009 29.4968C106.536 28.4188 105.469 27.7698 104.314 27.7698C103.665 27.7698 103.016 27.9788 102.51 28.3748C102.191 28.6168 101.454 29.3318 101.399 30.5088ZM116.59 28.1328L115.842 28.9358C115.699 28.7928 115.556 28.6498 115.413 28.5178C115.149 28.2868 114.445 27.6928 113.389 27.6928C113.048 27.6928 112.344 27.7588 111.64 28.3418C110.639 29.1558 110.54 30.2558 110.54 30.6848C110.54 32.2908 111.739 33.6218 113.367 33.6218C113.686 33.6218 114.445 33.5668 115.116 32.9398C115.369 32.6978 115.567 32.4118 115.688 32.0818C115.754 31.9278 115.776 31.8288 115.809 31.5208H113.873V30.4318L117.052 30.4428C117.052 30.6078 117.074 31.0148 116.997 31.4768C116.942 31.8508 116.755 32.7418 116.018 33.5558C115.611 33.9958 114.819 34.6668 113.334 34.6668C112.883 34.6668 111.695 34.6008 110.727 33.7428C109.88 32.9838 109.418 31.8508 109.418 30.6958C109.418 30.2118 109.495 29.1228 110.309 28.0998C111.376 26.7798 112.828 26.6368 113.422 26.6368C113.928 26.6368 114.929 26.7248 115.952 27.5388C116.183 27.7148 116.381 27.9238 116.59 28.1328ZM119.054 26.7908L120.792 29.9588C121.089 29.4418 121.386 28.9248 121.683 28.4298C121.859 28.1438 122.024 27.8578 122.189 27.5718C122.343 27.3188 122.475 27.0658 122.607 26.8018H123.971C123.542 27.5168 123.102 28.2318 122.684 28.9468L121.364 31.1908V34.5348H120.275V31.1908C120.066 30.8718 119.868 30.5418 119.67 30.2228C119.395 29.7388 119.12 29.2438 118.834 28.7598C118.46 28.0998 118.064 27.4508 117.679 26.7908H119.054ZM127.551 30.5308C127.584 29.5628 127.98 28.5948 128.651 27.8908C129.41 27.0878 130.488 26.6478 131.588 26.6478C132.886 26.6478 133.799 27.2638 134.162 27.5498C135.086 28.2868 135.647 29.4528 135.647 30.6628C135.647 30.9268 135.614 31.5098 135.328 32.1698C134.679 33.7098 133.216 34.6338 131.588 34.6338C130.279 34.6338 129.344 33.9958 128.981 33.6988C128.046 32.9398 127.518 31.7628 127.551 30.5308ZM128.673 30.5088C128.64 31.1908 128.86 31.9058 129.289 32.4448C129.839 33.1378 130.708 33.5448 131.588 33.5448C131.918 33.5448 132.688 33.4898 133.403 32.9398C134.096 32.4008 134.525 31.5538 134.525 30.6628C134.525 30.1128 134.36 29.6728 134.283 29.4968C133.81 28.4188 132.743 27.7698 131.588 27.7698C130.939 27.7698 130.29 27.9788 129.784 28.3748C129.465 28.6168 128.728 29.3318 128.673 30.5088ZM142.687 30.7838V26.8018H143.82V34.8428C142.94 33.9408 142.06 33.0498 141.169 32.1588C140.641 31.6308 140.124 31.1028 139.607 30.5638C139.068 30.0028 138.551 29.4308 138.034 28.8478C138.056 29.2218 138.089 29.5958 138.1 29.9588C138.111 30.2888 138.111 30.6188 138.122 30.9488V34.5348H136.978V26.2738C138.067 27.3518 139.156 28.4298 140.223 29.5188C141.081 30.3988 141.928 31.2898 142.764 32.1698C142.742 31.9278 142.709 31.6748 142.709 31.4328C142.698 31.2128 142.698 31.0038 142.687 30.7838ZM154.43 26.8238H155.574L152.296 35.0518C152.021 34.2818 151.746 33.5228 151.46 32.7638C151.229 32.1478 150.976 31.5428 150.756 30.9268C150.569 30.3878 150.404 29.8378 150.239 29.2878C149.898 30.3438 149.546 31.3998 149.172 32.4338C148.853 33.3248 148.523 34.2158 148.182 35.1068L144.728 26.7908L145.96 26.8018C146.345 27.7148 146.741 28.6388 147.115 29.5628C147.467 30.4428 147.808 31.3338 148.149 32.2138C148.336 31.6088 148.534 30.9928 148.754 30.3878C148.952 29.8268 149.161 29.2658 149.37 28.7048C149.656 27.9348 149.931 27.1538 150.206 26.3838C150.547 27.2968 150.899 28.2098 151.24 29.1118C151.471 29.7058 151.702 30.2888 151.9 30.8828C152.054 31.3448 152.197 31.8178 152.329 32.2908C152.483 31.8288 152.626 31.3558 152.802 30.9048C153.022 30.3108 153.275 29.7388 153.506 29.1558C153.814 28.3748 154.122 27.6048 154.43 26.8238ZM158.549 26.3288L162.113 34.5458H160.892L160.111 32.6648H156.767L155.876 34.5348H154.655L158.549 26.3288ZM158.505 28.9358L157.229 31.6638H159.693L158.505 28.9358ZM168.394 34.5348H167.052L164.687 31.2238H164.214V34.5458H163.125V26.7798H165.391C165.93 26.8128 166.447 26.8458 166.865 27.1648C167.426 27.5718 167.668 28.2758 167.668 28.9468C167.668 29.2768 167.602 30.3108 166.7 30.8718C166.524 30.9818 166.381 31.0368 165.996 31.1468C166.359 31.6638 166.711 32.1808 167.085 32.6868C167.36 33.0718 167.646 33.4458 167.921 33.8308C168.086 34.0618 168.24 34.3038 168.394 34.5348ZM165.314 27.8468H164.236V30.2778H165.105C165.633 30.2338 166.029 30.1788 166.304 29.7388C166.381 29.6178 166.524 29.3538 166.524 28.9468C166.524 28.8148 166.502 28.3308 166.15 28.0778C165.897 27.8908 165.6 27.8688 165.314 27.8468ZM171.419 34.5018H169.538V26.7798C171.122 26.7358 171.507 26.7688 172.409 26.8458C173.091 26.9778 173.322 27.0548 173.652 27.2198C174.895 27.8578 175.5 29.1668 175.5 30.5418C175.5 30.9928 175.423 32.2248 174.543 33.2478C174.103 33.7758 173.663 33.9958 173.432 34.0948C172.959 34.3148 172.497 34.4028 171.419 34.5018ZM170.627 27.8688V33.4788C170.891 33.4788 171.155 33.4898 171.419 33.4678C172.486 33.4238 173.388 33.1048 173.971 32.1808C174.136 31.9388 174.455 31.3558 174.455 30.5418C174.455 29.2328 173.619 28.5398 173.234 28.2868C172.453 27.7918 171.54 27.8248 170.627 27.8688ZM181.396 27.9128L180.417 28.4738C180.351 28.3748 180.274 28.2758 180.197 28.1768C179.801 27.7038 179.427 27.6268 179.119 27.6268C178.954 27.6378 178.811 27.6598 178.657 27.7258C178.162 27.9458 178.074 28.4408 178.074 28.6168C178.074 29.1558 178.591 29.3758 178.701 29.4308L180.12 30.1458C180.34 30.2668 180.516 30.3658 180.714 30.5198C181.462 31.1138 181.55 31.8288 181.55 32.2028C181.55 32.3788 181.539 32.6538 181.396 33.0498C181.011 34.0508 180.12 34.6668 179.042 34.6668C178.734 34.6668 177.986 34.6118 177.326 34.0398C176.798 33.5778 176.6 33.0608 176.391 32.4118L177.436 32.1808C177.579 32.5548 177.689 32.7638 177.788 32.9178C178.074 33.3358 178.547 33.6438 179.086 33.6438C179.339 33.6438 179.559 33.5668 179.636 33.5338C180.109 33.3248 180.417 32.8408 180.417 32.3238C180.417 31.7188 180.032 31.3448 179.526 31.0698C178.998 30.7838 178.415 30.6408 177.909 30.3218C177.073 29.7938 176.941 29.0678 176.941 28.6718C176.941 28.4408 176.996 27.8578 177.425 27.3738C177.656 27.1098 178.217 26.6368 179.152 26.6368C179.438 26.6368 180.098 26.6918 180.714 27.1758C181 27.3958 181.176 27.6268 181.396 27.9128ZM189.035 26.3288L192.599 34.5458H191.378L190.597 32.6648H187.253L186.362 34.5348H185.141L189.035 26.3288ZM188.991 28.9358L187.715 31.6638H190.179L188.991 28.9358ZM199.309 30.7838V26.8018H200.442V34.8428C199.562 33.9408 198.682 33.0498 197.791 32.1588C197.263 31.6308 196.746 31.1028 196.229 30.5638C195.69 30.0028 195.173 29.4308 194.656 28.8478C194.678 29.2218 194.711 29.5958 194.722 29.9588C194.733 30.2888 194.733 30.6188 194.744 30.9488V34.5348H193.6V26.2738C194.689 27.3518 195.778 28.4298 196.845 29.5188C197.703 30.3988 198.55 31.2898 199.386 32.1698C199.364 31.9278 199.331 31.6748 199.331 31.4328C199.32 31.2128 199.32 31.0038 199.309 30.7838ZM204.441 34.5018H202.56V26.7798C204.144 26.7358 204.529 26.7688 205.431 26.8458C206.113 26.9778 206.344 27.0548 206.674 27.2198C207.917 27.8578 208.522 29.1668 208.522 30.5418C208.522 30.9928 208.445 32.2248 207.565 33.2478C207.125 33.7758 206.685 33.9958 206.454 34.0948C205.981 34.3148 205.519 34.4028 204.441 34.5018ZM203.649 27.8688V33.4788C203.913 33.4788 204.177 33.4898 204.441 33.4678C205.508 33.4238 206.41 33.1048 206.993 32.1808C207.158 31.9388 207.477 31.3558 207.477 30.5418C207.477 29.2328 206.641 28.5398 206.256 28.2868C205.475 27.7918 204.562 27.8248 203.649 27.8688ZM212.751 26.8018H213.873V31.3778C213.884 31.5538 213.884 31.7188 213.906 31.8948C213.961 32.4778 214.115 32.9838 214.621 33.3138C214.786 33.4238 215.138 33.6108 215.644 33.6108C216.073 33.6108 216.381 33.4678 216.524 33.3798C217.239 32.9398 217.283 32.1698 217.305 31.4218V26.8018H218.471V31.5758C218.471 31.6968 218.46 31.8288 218.46 31.9498C218.449 32.1698 218.405 32.8958 217.998 33.4898C217.47 34.2598 216.48 34.6558 215.578 34.6558C214.434 34.6558 213.301 34.0178 212.905 32.8848C212.762 32.4888 212.762 32.0928 212.751 31.6638V26.8018ZM222.326 31.3778H221.556V34.5238H220.467V26.8018H221.853C222.194 26.8018 222.777 26.8128 223.14 26.8678C223.437 26.9008 224.042 26.9998 224.515 27.6488C224.801 28.0448 224.933 28.5618 224.933 29.0458C224.933 29.1778 224.933 29.4198 224.845 29.7278C224.746 30.0798 224.427 30.8938 223.481 31.2238C223.107 31.3448 222.733 31.3558 222.326 31.3778ZM221.567 27.9348V30.2998H222.249C222.832 30.2778 223.283 30.2448 223.613 29.7828C223.811 29.4968 223.844 29.2108 223.844 29.0788C223.844 28.9138 223.789 28.4628 223.382 28.1768C223.085 27.9678 222.733 27.9458 222.37 27.9348H221.567ZM235.147 26.8238H236.291L233.013 35.0518C232.738 34.2818 232.463 33.5228 232.177 32.7638C231.946 32.1478 231.693 31.5428 231.473 30.9268C231.286 30.3878 231.121 29.8378 230.956 29.2878C230.615 30.3438 230.263 31.3998 229.889 32.4338C229.57 33.3248 229.24 34.2158 228.899 35.1068L225.445 26.7908L226.677 26.8018C227.062 27.7148 227.458 28.6388 227.832 29.5628C228.184 30.4428 228.525 31.3338 228.866 32.2138C229.053 31.6088 229.251 30.9928 229.471 30.3878C229.669 29.8268 229.878 29.2658 230.087 28.7048C230.373 27.9348 230.648 27.1538 230.923 26.3838C231.264 27.2968 231.616 28.2098 231.957 29.1118C232.188 29.7058 232.419 30.2888 232.617 30.8828C232.771 31.3448 232.914 31.8178 233.046 32.2908C233.2 31.8288 233.343 31.3558 233.519 30.9048C233.739 30.3108 233.992 29.7388 234.223 29.1558C234.531 28.3748 234.839 27.6048 235.147 26.8238ZM239.266 26.3288L242.83 34.5458H241.609L240.828 32.6648H237.484L236.593 34.5348H235.372L239.266 26.3288ZM239.222 28.9358L237.946 31.6638H240.41L239.222 28.9358ZM249.111 34.5348H247.769L245.404 31.2238H244.931V34.5458H243.842V26.7798H246.108C246.647 26.8128 247.164 26.8458 247.582 27.1648C248.143 27.5718 248.385 28.2758 248.385 28.9468C248.385 29.2768 248.319 30.3108 247.417 30.8718C247.241 30.9818 247.098 31.0368 246.713 31.1468C247.076 31.6638 247.428 32.1808 247.802 32.6868C248.077 33.0718 248.363 33.4458 248.638 33.8308C248.803 34.0618 248.957 34.3038 249.111 34.5348ZM246.031 27.8468H244.953V30.2778H245.822C246.35 30.2338 246.746 30.1788 247.021 29.7388C247.098 29.6178 247.241 29.3538 247.241 28.9468C247.241 28.8148 247.219 28.3308 246.867 28.0778C246.614 27.8908 246.317 27.8688 246.031 27.8468ZM252.136 34.5018H250.255V26.7798C251.839 26.7358 252.224 26.7688 253.126 26.8458C253.808 26.9778 254.039 27.0548 254.369 27.2198C255.612 27.8578 256.217 29.1668 256.217 30.5418C256.217 30.9928 256.14 32.2248 255.26 33.2478C254.82 33.7758 254.38 33.9958 254.149 34.0948C253.676 34.3148 253.214 34.4028 252.136 34.5018ZM251.344 27.8688V33.4788C251.608 33.4788 251.872 33.4898 252.136 33.4678C253.203 33.4238 254.105 33.1048 254.688 32.1808C254.853 31.9388 255.172 31.3558 255.172 30.5418C255.172 29.2328 254.336 28.5398 253.951 28.2868C253.17 27.7918 252.257 27.8248 251.344 27.8688ZM262.113 27.9128L261.134 28.4738C261.068 28.3748 260.991 28.2758 260.914 28.1768C260.518 27.7038 260.144 27.6268 259.836 27.6268C259.671 27.6378 259.528 27.6598 259.374 27.7258C258.879 27.9458 258.791 28.4408 258.791 28.6168C258.791 29.1558 259.308 29.3758 259.418 29.4308L260.837 30.1458C261.057 30.2668 261.233 30.3658 261.431 30.5198C262.179 31.1138 262.267 31.8288 262.267 32.2028C262.267 32.3788 262.256 32.6538 262.113 33.0498C261.728 34.0508 260.837 34.6668 259.759 34.6668C259.451 34.6668 258.703 34.6118 258.043 34.0398C257.515 33.5778 257.317 33.0608 257.108 32.4118L258.153 32.1808C258.296 32.5548 258.406 32.7638 258.505 32.9178C258.791 33.3358 259.264 33.6438 259.803 33.6438C260.056 33.6438 260.276 33.5668 260.353 33.5338C260.826 33.3248 261.134 32.8408 261.134 32.3238C261.134 31.7188 260.749 31.3448 260.243 31.0698C259.715 30.7838 259.132 30.6408 258.626 30.3218C257.79 29.7938 257.658 29.0678 257.658 28.6718C257.658 28.4408 257.713 27.8578 258.142 27.3738C258.373 27.1098 258.934 26.6368 259.869 26.6368C260.155 26.6368 260.815 26.6918 261.431 27.1758C261.717 27.3958 261.893 27.6268 262.113 27.9128Z" fill="#333333"/>
</svg>
