<svg width="14" height="14" viewBox="0 0 14 14" fill="none" xmlns="http://www.w3.org/2000/svg">
<path d="M12.3846 2.15394C12.387 1.96508 12.437 1.77988 12.53 1.61548H11.3077V12.1155H12.3846V2.15394Z" fill="#023ED6"/>
<path d="M13.8411 1.77426C13.7658 1.69941 13.6701 1.64849 13.5659 1.6279C13.4618 1.60731 13.3539 1.61797 13.2558 1.65854C13.1577 1.69911 13.0737 1.76777 13.0145 1.85591C12.9553 1.94404 12.9235 2.04771 12.9231 2.15388V12.3846C12.9231 12.456 12.8947 12.5245 12.8442 12.575C12.7937 12.6255 12.7252 12.6539 12.6538 12.6539H11.3077C11.3077 13.0109 11.4495 13.3533 11.702 13.6058C11.9544 13.8582 12.2968 14 12.6538 14C13.0109 14 13.3533 13.8582 13.6057 13.6058C13.8582 13.3533 14 13.0109 14 12.6539C14 1.22503 14.0673 2.00042 13.8411 1.77426Z" fill="#023ED6"/>
<path d="M10.7692 0H0V12.6538C0 13.0109 0.141827 13.3533 0.394279 13.6057C0.646732 13.8582 0.989132 14 1.34615 14H11.3373C10.5538 13.2165 10.7692 13.6823 10.7692 0ZM4.57692 12.9231H1.34615C1.27475 12.9231 1.20627 12.8947 1.15578 12.8442C1.10529 12.7937 1.07692 12.7253 1.07692 12.6538C1.07692 12.5824 1.10529 12.514 1.15578 12.4635C1.20627 12.413 1.27475 12.3846 1.34615 12.3846H4.57692C4.64833 12.3846 4.71681 12.413 4.7673 12.4635C4.81779 12.514 4.84615 12.5824 4.84615 12.6538C4.84615 12.7253 4.81779 12.7937 4.7673 12.8442C4.71681 12.8947 4.64833 12.9231 4.57692 12.9231ZM4.57692 11.5769H1.34615C1.27475 11.5769 1.20627 11.5486 1.15578 11.4981C1.10529 11.4476 1.07692 11.3791 1.07692 11.3077C1.07692 11.2363 1.10529 11.1678 1.15578 11.1173C1.20627 11.0668 1.27475 11.0385 1.34615 11.0385H4.57692C4.64833 11.0385 4.71681 11.0668 4.7673 11.1173C4.81779 11.1678 4.84615 11.2363 4.84615 11.3077C4.84615 11.3791 4.81779 11.4476 4.7673 11.4981C4.71681 11.5486 4.64833 11.5769 4.57692 11.5769ZM4.57692 10.2308H1.34615C1.27475 10.2308 1.20627 10.2024 1.15578 10.1519C1.10529 10.1014 1.07692 10.0329 1.07692 9.96154C1.07692 9.89013 1.10529 9.82165 1.15578 9.77116C1.20627 9.72067 1.27475 9.69231 1.34615 9.69231H4.57692C4.64833 9.69231 4.71681 9.72067 4.7673 9.77116C4.81779 9.82165 4.84615 9.89013 4.84615 9.96154C4.84615 10.0329 4.81779 10.1014 4.7673 10.1519C4.71681 10.2024 4.64833 10.2308 4.57692 10.2308ZM4.57692 8.88462H1.34615C1.27475 8.88462 1.20627 8.85625 1.15578 8.80576C1.10529 8.75527 1.07692 8.68679 1.07692 8.61539C1.07692 8.54398 1.10529 8.4755 1.15578 8.42501C1.20627 8.37452 1.27475 8.34615 1.34615 8.34615H4.57692C4.64833 8.34615 4.71681 8.37452 4.7673 8.42501C4.81779 8.4755 4.84615 8.54398 4.84615 8.61539C4.84615 8.68679 4.81779 8.75527 4.7673 8.80576C4.71681 8.85625 4.64833 8.88462 4.57692 8.88462ZM9.15385 12.6538H6.19231V8.34615H9.15385V12.6538ZM9.15385 6.73077H1.61538V1.61538H9.15385V6.73077Z" fill="#023ED6"/>
<path d="M3.49999 4.8004V5.9231C3.49999 5.9945 3.52836 6.06298 3.57885 6.11347C3.62934 6.16396 3.69782 6.19233 3.76922 6.19233C3.84063 6.19233 3.90911 6.16396 3.9596 6.11347C4.01009 6.06298 4.03846 5.9945 4.03846 5.9231V4.84617H4.57692L6.1923 5.65387V2.4231L4.57692 3.23079H3.76922C3.57848 3.2305 3.39379 3.29774 3.24787 3.42057C3.10194 3.54341 3.0042 3.71393 2.97195 3.90193C2.93971 4.08993 2.97504 4.28328 3.07168 4.44772C3.16833 4.61217 3.32006 4.73711 3.49999 4.8004Z" fill="#023ED6"/>
<path d="M7.80769 3.76929H7.26923C7.19783 3.76929 7.12935 3.79765 7.07886 3.84814C7.02837 3.89863 7 3.96711 7 4.03852C7 4.10992 7.02837 4.1784 7.07886 4.22889C7.12935 4.27938 7.19783 4.30775 7.26923 4.30775H7.80769C7.8791 4.30775 7.94758 4.27938 7.99807 4.22889C8.04856 4.1784 8.07692 4.10992 8.07692 4.03852C8.07692 3.96711 8.04856 3.89863 7.99807 3.84814C7.94758 3.79765 7.8791 3.76929 7.80769 3.76929Z" fill="#023ED6"/>
<path d="M7.26922 3.23089C7.35538 3.23089 7.34192 3.23089 7.92884 2.93205C7.98709 2.897 8.02992 2.84121 8.04874 2.77589C8.06756 2.71057 8.06097 2.64054 8.03029 2.57988C7.99962 2.51921 7.94713 2.47239 7.88337 2.44883C7.8196 2.42526 7.74929 2.42668 7.68653 2.45282L7.14807 2.72205C7.09441 2.74953 7.05153 2.79424 7.0263 2.84899C7.00107 2.90374 6.99494 2.96538 7.00891 3.02403C7.02287 3.08268 7.05612 3.13494 7.10332 3.17245C7.15051 3.20996 7.20894 3.23054 7.26922 3.23089Z" fill="#023ED6"/>
<path d="M7.14806 5.3549L7.68652 5.62413C7.74928 5.65026 7.8196 5.65169 7.88336 5.62812C7.94712 5.60455 7.99961 5.55774 8.03029 5.49707C8.06096 5.4364 8.06755 5.36638 8.04873 5.30106C8.02991 5.23573 7.98708 5.17995 7.92883 5.1449L7.39037 4.87567C7.32761 4.84954 7.25729 4.84811 7.19353 4.87168C7.12977 4.89525 7.07728 4.94206 7.0466 5.00273C7.01593 5.06339 7.00934 5.13342 7.02816 5.19874C7.04698 5.26406 7.08981 5.31985 7.14806 5.3549Z" fill="#023ED6"/>
</svg>
