<svg width="34" height="34" viewBox="0 0 34 34" fill="none" xmlns="http://www.w3.org/2000/svg">
<rect width="34" height="34" rx="13" fill="#023ED6"/>
<path d="M25.3077 22.2724C25.3077 22.5724 25.241 22.8807 25.0993 23.1807C24.9577 23.4807 24.7744 23.7641 24.5327 24.0307C24.1244 24.4807 23.6743 24.8057 23.166 25.0141C22.666 25.2224 22.1244 25.3307 21.541 25.3307C20.691 25.3307 19.7827 25.1307 18.8243 24.7224C17.866 24.3141 16.9077 23.7641 15.9577 23.0724C14.9993 22.3724 14.091 21.5974 13.2243 20.7391C12.366 19.8724 11.591 18.9641 10.8993 18.0141C10.216 17.0641 9.66602 16.1141 9.26602 15.1724C8.86602 14.2224 8.66602 13.3141 8.66602 12.4474C8.66602 11.8807 8.76602 11.3391 8.96602 10.8391C9.16602 10.3307 9.48268 9.86406 9.92435 9.4474C10.4577 8.9224 11.041 8.66406 11.6577 8.66406C11.891 8.66406 12.1243 8.71406 12.3327 8.81406C12.5493 8.91406 12.741 9.06406 12.891 9.28073L14.8243 12.0057C14.9743 12.2141 15.0827 12.4057 15.1577 12.5891C15.2327 12.7641 15.2743 12.9391 15.2743 13.0974C15.2743 13.2974 15.216 13.4974 15.0993 13.6891C14.991 13.8807 14.8327 14.0807 14.6327 14.2807L13.9993 14.9391C13.9077 15.0307 13.866 15.1391 13.866 15.2724C13.866 15.3391 13.8743 15.3974 13.891 15.4641C13.916 15.5307 13.941 15.5807 13.9577 15.6307C14.1077 15.9057 14.366 16.2641 14.7327 16.6974C15.1077 17.1307 15.5077 17.5724 15.941 18.0141C16.391 18.4557 16.8243 18.8641 17.266 19.2391C17.6993 19.6057 18.0577 19.8557 18.341 20.0057C18.3827 20.0224 18.4327 20.0474 18.491 20.0724C18.5577 20.0974 18.6243 20.1057 18.6993 20.1057C18.841 20.1057 18.9493 20.0557 19.041 19.9641L19.6743 19.3391C19.8827 19.1307 20.0827 18.9724 20.2743 18.8724C20.466 18.7557 20.6577 18.6974 20.866 18.6974C21.0243 18.6974 21.191 18.7307 21.3743 18.8057C21.5577 18.8807 21.7494 18.9891 21.9577 19.1307L24.716 21.0891C24.9327 21.2391 25.0827 21.4141 25.1743 21.6224C25.2577 21.8307 25.3077 22.0391 25.3077 22.2724Z" stroke="white" stroke-width="1.5" stroke-miterlimit="10"/>
<path d="M22.4167 14.4987C22.4167 13.9987 22.025 13.232 21.4417 12.607C20.9083 12.032 20.2 11.582 19.5 11.582" stroke="white" stroke-width="1.5" stroke-linecap="round" stroke-linejoin="round"/>
<path d="M25.3333 14.4974C25.3333 11.2724 22.725 8.66406 19.5 8.66406" stroke="white" stroke-width="1.5" stroke-linecap="round" stroke-linejoin="round"/>
</svg>
