<svg width="25" height="24" viewBox="0 0 25 24" fill="none" xmlns="http://www.w3.org/2000/svg">
<path d="M21.9858 18.33C21.9858 18.69 21.9058 19.06 21.7356 19.42C21.5655 19.78 21.3454 20.12 21.0552 20.44C20.5648 20.98 20.0245 21.37 19.414 21.62C18.8136 21.87 18.1632 22 17.4627 22C16.442 22 15.3512 21.76 14.2004 21.27C13.0496 20.78 11.8988 20.12 10.758 19.29C9.60723 18.45 8.51647 17.52 7.47575 16.49C6.44504 15.45 5.51439 14.36 4.68381 13.22C3.86324 12.08 3.20279 10.94 2.72245 9.81C2.24212 8.67 2.00195 7.58 2.00195 6.54C2.00195 5.86 2.12204 5.21 2.3622 4.61C2.60237 4 2.98263 3.44 3.513 2.94C4.15345 2.31 4.85393 2 5.59445 2C5.87464 2 6.15484 2.06 6.40501 2.18C6.66519 2.3 6.89535 2.48 7.07547 2.74L9.39709 6.01C9.57721 6.26 9.7073 6.49 9.79736 6.71C9.88743 6.92 9.93746 7.13 9.93746 7.32C9.93746 7.56 9.86741 7.8 9.72732 8.03C9.59722 8.26 9.40709 8.5 9.16693 8.74L8.4064 9.53C8.29632 9.64 8.24629 9.77 8.24629 9.93C8.24629 10.01 8.25629 10.08 8.27631 10.16C8.30633 10.24 8.33635 10.3 8.35636 10.36C8.53649 10.69 8.8467 11.12 9.28701 11.64C9.73732 12.16 10.2177 12.69 10.738 13.22C11.2784 13.75 11.7988 14.24 12.3291 14.69C12.8495 15.13 13.2798 15.43 13.62 15.61C13.6701 15.63 13.7301 15.66 13.8001 15.69C13.8802 15.72 13.9603 15.73 14.0503 15.73C14.2204 15.73 14.3505 15.67 14.4606 15.56L15.2211 14.81C15.4713 14.56 15.7115 14.37 15.9416 14.25C16.1718 14.11 16.4019 14.04 16.6521 14.04C16.8423 14.04 17.0424 14.08 17.2625 14.17C17.4827 14.26 17.7129 14.39 17.963 14.56L21.2753 16.91C21.5355 17.09 21.7156 17.3 21.8257 17.55C21.9258 17.8 21.9858 18.05 21.9858 18.33Z" stroke="#D9E0F1" stroke-width="1.5" stroke-miterlimit="10"/>
</svg>
