<svg width="42" height="40" viewBox="0 0 42 40" fill="none" xmlns="http://www.w3.org/2000/svg">
<path d="M31.5916 20.6269C31.3417 20.3806 30.9399 20.384 30.6942 20.6344C30.4485 20.8849 30.4518 21.2876 30.7017 21.5339L31.8583 22.6779H27.013L25.7698 21.3346L26.2525 20.8509C26.548 20.5546 26.548 20.0699 26.2525 19.7737L25.2739 18.7928C24.682 18.1996 24.5143 17.3545 24.8347 16.5793C25.155 15.8042 25.8697 15.3255 26.7068 15.3255H28.0908C28.5088 15.3255 28.8507 14.9828 28.8507 14.5638V13.7315H33.708L32.5449 14.9128C32.2992 15.1632 32.3025 15.5659 32.5524 15.8122C32.8023 16.0585 33.204 16.0552 33.4497 15.8047L35.68 13.5396C35.9257 13.2892 35.9224 12.8865 35.6725 12.6402L33.4127 10.4048C33.1628 10.1585 32.761 10.1619 32.5153 10.4123C32.2696 10.6628 32.2729 11.0655 32.5228 11.3118L33.6794 12.4558H28.8507V11.6235C28.8507 11.2045 28.5088 10.8618 28.0908 10.8618H26.7068C25.8698 10.8618 25.155 10.3831 24.8347 9.60795C24.5143 8.83276 24.682 7.98774 25.2739 7.39446L26.2525 6.41363C26.548 6.11741 26.548 5.63273 26.2525 5.33652L25.7698 4.85269L27.013 3.50939H31.8869L30.7238 4.69068C30.4781 4.94114 30.4814 5.34383 30.7313 5.59013C30.9812 5.83642 31.3829 5.8331 31.6286 5.58264L33.8589 3.31753C34.1046 3.06707 34.1013 2.66437 33.8514 2.41808L31.5916 0.182563C31.3417 -0.0637306 30.9399 -0.0604137 30.6942 0.190047C30.4485 0.440507 30.4518 0.8432 30.7017 1.08949L31.8583 2.23353L26.7372 2.23498C26.5671 2.23506 26.3974 2.3031 26.2723 2.43781L24.8711 3.95189L24.1781 3.25723C23.8826 2.96101 23.3989 2.96101 23.1034 3.25723L22.1248 4.23807C21.5329 4.83135 20.6899 4.9994 19.9165 4.67835C19.1432 4.3573 18.6656 3.64087 18.6656 2.80189V1.41479C18.6656 0.995857 18.3236 0.653122 17.9057 0.653122H14.9721C14.5542 0.653122 14.2122 0.995857 14.2122 1.41479V2.80198C14.2122 3.64096 13.7346 4.35739 12.9613 4.67852C12.1879 4.99957 11.3448 4.83143 10.7529 4.23824L9.77439 3.2574C9.47886 2.96118 8.99531 2.96118 8.69978 3.2574L6.62541 5.33643C6.32988 5.63265 6.32988 6.11733 6.62541 6.41354L7.60397 7.39438C8.19587 7.98766 8.36353 8.83267 8.04323 9.60787C7.72292 10.383 7.00816 10.8617 6.17113 10.8617H4.78717C4.3692 10.8617 4.02726 11.2044 4.02726 11.6234V14.5638C4.02726 14.9827 4.3692 15.3254 4.78717 15.3254H6.17113C7.00816 15.3254 7.72292 15.8041 8.04331 16.5793C8.36361 17.3545 8.19587 18.1995 7.60405 18.7928L6.62541 19.7736C6.32988 20.0698 6.32988 20.5545 6.62541 20.8508L8.69978 22.93C8.99531 23.2262 9.47886 23.2262 9.77439 22.93L10.7529 21.9491C11.3448 21.3559 12.1879 21.1878 12.9613 21.5089C13.7346 21.83 14.2122 22.5463 14.2122 23.3854V24.7726C14.2122 25.1915 14.5542 25.5343 14.9721 25.5343H17.9057C18.3236 25.5343 18.6656 25.1915 18.6656 24.7726V23.3854C18.6656 22.5464 19.1432 21.83 19.9165 21.509C20.6899 21.1879 21.5329 21.356 22.1248 21.9492L23.1034 22.9301C23.3989 23.2263 23.8825 23.2263 24.1781 22.9301L24.8711 22.2354L26.2722 23.7494C26.3973 23.8841 26.5669 23.9522 26.7371 23.9522L31.8869 23.9537L30.7238 25.135C30.4781 25.3854 30.4814 25.7881 30.7313 26.0344C30.9812 26.2807 31.3829 26.2774 31.6286 26.0269L33.8589 23.7618C34.1046 23.5114 34.1013 23.1087 33.8514 22.8624L31.5916 20.6269ZM21.117 17.7826C18.5356 20.37 14.3423 20.3698 11.7609 17.7826C9.17909 15.1947 9.17909 10.9926 11.7609 8.40472C14.3428 5.81686 18.5352 5.81686 21.117 8.40472C23.6988 10.9925 23.6989 15.1946 21.117 17.7826ZM5.83776 38.9643C5.90072 39.1997 5.75996 39.444 5.52526 39.507L3.74565 39.9849C3.51079 40.048 3.26719 39.907 3.20432 39.6716L0.015036 27.7415C-0.0479215 27.5061 0.0926723 27.2619 0.327533 27.1988L2.10714 26.7208C2.34192 26.6577 2.5856 26.7987 2.64848 27.0341L5.83776 38.9643ZM35.6603 2.87146C35.6603 1.62069 36.6719 0.606857 37.9197 0.606857C39.1675 0.606857 40.1791 1.62078 40.1791 2.87146C40.1791 4.12215 39.1675 5.13607 37.9197 5.13607C36.6719 5.13607 35.6603 4.12215 35.6603 2.87146ZM42 13.0936C42 14.3443 40.9884 15.3582 39.7407 15.3582C38.4928 15.3582 37.4813 14.3443 37.4813 13.0936C37.4813 11.8429 38.4929 10.829 39.7407 10.829C40.9884 10.829 42 11.8429 42 13.0936ZM40.1791 23.3158C40.1791 24.5665 39.1675 25.5804 37.9197 25.5804C36.6719 25.5804 35.6603 24.5664 35.6603 23.3158C35.6603 22.0651 36.6719 21.0511 37.9197 21.0511C39.1675 21.0511 40.1791 22.0651 40.1791 23.3158ZM31.1979 28.4057C31.5996 29.0997 31.3584 30.0152 30.6616 30.4183C26.0506 33.1335 21.3772 35.79 16.7432 38.4716C15.4077 39.2478 14.3946 38.8143 13.0421 38.4276C10.9042 37.8165 9.20607 37.3311 6.80792 37.6647L4.17117 27.8016C4.9096 27.5891 5.57159 27.34 6.178 27.1119C7.24166 26.7117 8.33825 26.1827 9.43084 26.7281L12.7576 28.6546C13.8933 29.3118 15.1309 29.4763 16.3978 29.136L18.9198 28.4587C19.8935 28.1972 20.9057 28.7827 21.1665 29.7582C21.4284 30.7383 20.8436 31.7486 19.8702 32.01L16.1822 33.0005C15.5766 33.1631 14.9893 33.1818 14.3817 33.0174C14.0427 32.9265 13.6943 33.1285 13.6037 33.4684C13.5131 33.8082 13.7146 34.1574 14.0536 34.2482C14.8592 34.4661 15.7066 34.4472 16.5103 34.2312L20.1983 33.2408C20.8943 33.0539 21.473 32.6393 21.8762 32.0979L29.1901 27.8652C29.8871 27.4618 30.7956 27.7073 31.1979 28.4057ZM12.6608 9.30664C10.5731 11.3993 10.573 14.7879 12.6608 16.8806C12.6924 16.9123 12.7245 16.9436 12.7569 16.9745C13.0175 16.4082 13.4383 15.9298 13.9604 15.5986C14.5983 16.2228 15.4733 16.6082 16.439 16.6082C17.4046 16.6082 18.2797 16.2228 18.9176 15.5986C19.4396 15.9298 19.8605 16.4082 20.1211 16.9745C20.1535 16.9435 20.1855 16.9122 20.2172 16.8806C22.3038 14.7891 22.3051 11.3994 20.2172 9.30664C18.1293 7.21408 14.7485 7.21408 12.6608 9.30664ZM16.439 15.3326C15.1899 15.3326 14.1774 14.3301 14.1774 13.0936C14.1774 11.857 15.1899 10.8546 16.439 10.8546C17.688 10.8546 18.7004 11.8571 18.7004 13.0936C18.7004 14.3302 17.688 15.3326 16.439 15.3326Z" fill="#023ED6"/>
</svg>
