<svg width="53" height="53" viewBox="0 0 53 53" fill="none" xmlns="http://www.w3.org/2000/svg">
<rect x="0.5" y="0.5" width="52" height="52" rx="15.5" fill="#023ED6" stroke="#E9EFFF"/>
<path d="M21.8258 37.6406H20.6875C20.4647 37.6406 20.2709 37.7908 20.2177 38.0088L19.8253 39.5781H19.1656C18.949 38.7447 18.197 38.125 17.2969 38.125C16.2286 38.125 15.3594 38.9939 15.3594 40.0625C15.3594 41.1311 16.2286 42 17.2969 42C18.197 42 18.949 41.3803 19.1656 40.5469H20.2031C20.4259 40.5469 20.6197 40.3967 20.673 40.1787L21.0653 38.6094H22.8623C22.4942 38.3091 22.1503 37.9894 21.8258 37.6406Z" fill="white"/>
<path d="M16.8125 32.7969H19.123C18.8808 31.8814 18.75 30.9272 18.75 29.9536V27.2847C18.75 26.7325 19.0552 26.2336 19.554 25.9866L25.8509 22.8333C26.0495 22.7364 26.2772 22.6831 26.5 22.6831C26.7228 22.6831 26.9505 22.7364 27.1491 22.8333L33.4459 25.9817C33.9448 26.2336 34.25 26.7325 34.25 27.2847V29.9536C34.25 30.9272 34.1192 31.8814 33.877 32.7969H36.1875C39.3941 32.7969 42 30.1909 42 26.9844C42 24.2137 40.0044 21.8355 37.3452 21.293C37.5389 20.7892 37.6406 20.2564 37.6406 19.7188C37.6406 17.3162 35.6838 15.3594 33.2812 15.3594H33.1505C32.0073 12.7389 29.382 11 26.5 11C23.4145 11 20.6584 12.9811 19.6461 15.8631C19.5105 15.8486 19.3748 15.8438 19.2344 15.8438C16.8319 15.8438 14.875 17.8006 14.875 20.2031C14.875 20.6245 14.938 21.0411 15.0542 21.448C12.6759 22.1987 11 24.4463 11 26.9844C11 30.1909 13.6059 32.7969 16.8125 32.7969Z" fill="white"/>
<path d="M17.2969 36.6719C17.5197 36.6719 17.7134 36.5217 17.7667 36.3037L18.1591 34.7344H19.835C19.6848 34.4195 19.5492 34.095 19.4281 33.7656H17.7812C17.5584 33.7656 17.3647 33.9158 17.3114 34.1338L16.919 35.7031H15.775C15.5584 34.8697 14.8064 34.25 13.9062 34.25C12.8379 34.25 11.9688 35.1189 11.9688 36.1875C11.9688 37.2561 12.8379 38.125 13.9062 38.125C14.8064 38.125 15.5584 37.5053 15.775 36.6719H17.2969Z" fill="white"/>
<path d="M22.1406 28.4814V29.9554C22.1406 32.925 23.8445 35.6477 26.5 36.9533C29.1555 35.6477 30.8594 32.925 30.8594 29.9554V28.4814L26.5 26.3018L22.1406 28.4814ZM28.78 30.0325C28.9692 30.2217 28.9692 30.5282 28.78 30.7174L26.3581 33.1393C26.2635 33.2339 26.1396 33.2812 26.0156 33.2812C25.8917 33.2812 25.7678 33.2339 25.6732 33.1393L24.22 31.6862C24.0308 31.497 24.0308 31.1904 24.22 31.0012C24.4092 30.812 24.7158 30.812 24.905 31.0012L26.0156 32.1119L28.095 30.0325C28.2842 29.8433 28.5908 29.8433 28.78 30.0325Z" fill="white"/>
<path d="M33.2812 29.9553V27.2837C33.2812 27.1002 33.1777 26.9327 33.0135 26.8504L26.7166 23.702C26.5804 23.6339 26.4196 23.6339 26.2834 23.702L19.9865 26.8504C19.8223 26.9327 19.7188 27.1002 19.7188 27.2837V29.9553C19.7188 34.1818 22.3752 38.0232 26.329 39.5151C26.3841 39.5359 26.4421 39.5463 26.5 39.5463C26.5579 39.5463 26.6159 39.5359 26.671 39.5151C30.6248 38.0232 33.2812 34.1818 33.2812 29.9553ZM26.7013 37.93C26.6372 37.9589 26.5686 37.9735 26.5 37.9735C26.4314 37.9735 26.3628 37.9589 26.2987 37.93C23.1843 36.5076 21.1719 33.3776 21.1719 29.9553V28.182C21.1719 27.9984 21.2755 27.831 21.4396 27.7487L26.2834 25.3268C26.4196 25.2587 26.5804 25.2587 26.7166 25.3268L31.5604 27.7487C31.7245 27.831 31.8281 27.9984 31.8281 28.182V29.9553C31.8281 33.3776 29.8157 36.5076 26.7013 37.93Z" fill="white"/>
<path d="M39.0938 34.25C38.1937 34.25 37.4417 34.8697 37.225 35.7031H36.081L35.6886 34.1338C35.6353 33.9158 35.4416 33.7656 35.2188 33.7656H33.5719C33.4508 34.095 33.3152 34.4195 33.165 34.7344H34.841L35.2333 36.3037C35.2866 36.5217 35.4803 36.6719 35.7032 36.6719H37.225C37.4417 37.5053 38.1937 38.125 39.0938 38.125C40.1621 38.125 41.0313 37.2561 41.0313 36.1875C41.0313 35.1189 40.1621 34.25 39.0938 34.25Z" fill="white"/>
<path d="M35.7032 38.125C34.803 38.125 34.051 38.7447 33.8344 39.5781H33.1747L32.7824 38.0088C32.7291 37.7908 32.5354 37.6406 32.3125 37.6406H31.1743C30.8497 37.9894 30.5058 38.3091 30.1377 38.6094H31.9347L32.3271 40.1787C32.3804 40.3967 32.5741 40.5469 32.7969 40.5469H33.8344C34.051 41.3803 34.803 42 35.7032 42C36.7715 42 37.6407 41.1311 37.6407 40.0625C37.6407 38.9939 36.7715 38.125 35.7032 38.125Z" fill="white"/>
</svg>
