<svg width="64" height="64" viewBox="0 0 64 64" fill="none" xmlns="http://www.w3.org/2000/svg">
<rect width="64" height="64" rx="20" fill="#EDEFFC"/>
<path fill-rule="evenodd" clip-rule="evenodd" d="M35.7832 16.1486C37.4608 16.5479 39.063 17.2129 40.5314 18.1171L43.6168 16.7467L47.2534 20.3832L45.8834 23.4676C46.7879 24.9362 47.4529 26.539 47.8522 28.217L51 29.4287V34.5713L47.8514 35.7833C47.4521 37.4609 46.7871 39.0631 45.883 40.5315L47.2533 43.6168L43.6169 47.2534L40.5325 45.8834C39.0639 46.7879 37.4611 47.4529 35.7831 47.8523L34.5714 51H29.4287L28.2492 47.9358C29.1493 46.5648 29.6743 44.9258 29.6772 43.1639C30.4272 43.3191 31.204 43.4009 32 43.4009C38.2972 43.4009 43.4009 38.2971 43.4009 32.0001C43.4009 25.7029 38.2972 20.5991 32 20.5991C25.703 20.5991 20.5991 25.7028 20.5991 32.0001C20.5991 32.8291 20.6884 33.6372 20.8564 34.416C19.1242 34.433 17.5129 34.9547 16.1618 35.8405L16.1479 35.783L13 34.5714V29.4287L16.1483 28.2169C16.5475 26.5392 17.2126 24.9367 18.1169 23.4684L16.7466 20.3832L20.3831 16.7467L23.4685 18.1171C24.9369 17.213 26.5392 16.5479 28.2167 16.1486L29.4287 13H34.5713L35.7832 16.1486ZM20.9437 35.6822C16.8198 35.6822 13.4767 39.0253 13.4767 43.1492C13.4767 47.2731 16.8198 50.6162 20.9437 50.6162C25.0676 50.6162 28.4107 47.2731 28.4107 43.1492C28.4107 39.0253 25.0675 35.6822 20.9437 35.6822ZM25.8201 41.6518L23.3377 43.647C23.263 43.7069 23.2328 43.7999 23.2579 43.8923L24.0935 46.9656C24.1503 47.1746 23.9185 47.3431 23.7373 47.2244L21.0726 45.4801C20.9925 45.4277 20.8947 45.4277 20.8146 45.4801L18.15 47.2244C17.9687 47.3431 17.7369 47.1746 17.7937 46.9656L18.6292 43.8923C18.6543 43.7999 18.6242 43.7068 18.5495 43.6469L16.0671 41.6518C15.8983 41.5161 15.9868 41.2435 16.2032 41.233L19.3842 41.078C19.4799 41.0733 19.559 41.0158 19.5929 40.9263L20.7234 37.9488C20.7998 37.7475 21.0873 37.7475 21.1637 37.9488L22.2942 40.9263C22.3281 41.0158 22.4072 41.0733 22.5028 41.078L25.6839 41.233C25.9004 41.2435 25.989 41.516 25.8201 41.6518ZM32 23.5622C29.9896 23.5622 28.3599 25.1919 28.3599 27.2023C28.3599 29.2126 29.9896 30.8423 32 30.8423C34.0104 30.8423 35.6401 29.2126 35.6401 27.2023C35.6401 25.1919 34.0104 23.5622 32 23.5622ZM28.0407 38.0588H38.2148C38.733 38.0588 39.1088 37.5768 38.9827 37.0743C38.1976 33.9485 35.3693 31.634 32 31.634C29.1446 31.634 26.678 33.2964 25.514 35.706C26.5045 36.3155 27.364 37.1169 28.0407 38.0588Z" fill="#023ED6"/>
</svg>
