<svg width="14" height="21" viewBox="0 0 14 21" fill="none" xmlns="http://www.w3.org/2000/svg">
<path d="M1.98403 13.0707C2.52468 13.0707 3.06658 13.0707 3.60722 13.0707C3.8788 13.0707 3.93161 13.1233 3.94292 13.3903C4.01333 14.9822 5.25681 16.2432 6.84102 16.3297C8.39505 16.4149 9.78312 15.2893 10.027 13.745C10.0472 13.6172 10.0522 13.4868 10.0622 13.3577C10.0799 13.1233 10.1289 13.0719 10.364 13.0707C11.1385 13.0682 11.9117 13.0707 12.6863 13.0707C13.0282 13.0707 13.3715 13.0682 13.7135 13.0707C13.936 13.0732 13.9926 13.1321 13.9989 13.3515C14.0014 13.468 13.9989 13.5834 13.9989 13.6999C13.9976 14.1863 13.8027 14.4457 13.33 14.5698C13.0257 14.6488 12.7177 14.7165 12.4096 14.7791C12.2575 14.8105 12.1657 14.8694 12.1167 15.0336C12.0513 15.2542 11.9507 15.466 11.8476 15.6741C11.7898 15.7907 11.7822 15.8772 11.8602 15.99C12.0337 16.2432 12.1946 16.5051 12.3556 16.7684C12.6485 17.2497 12.6096 17.558 12.2135 17.9541C12.0199 18.1471 11.8263 18.3414 11.6326 18.5332C11.3196 18.8441 10.9989 18.898 10.6104 18.6811C10.3062 18.5106 10.012 18.3239 9.72152 18.1309C9.60836 18.0556 9.52286 18.0594 9.40468 18.1171C9.1771 18.2274 8.94324 18.3239 8.70435 18.4041C8.58868 18.443 8.54216 18.5056 8.51953 18.6147C8.45415 18.9218 8.38625 19.2276 8.31207 19.5322C8.18257 20.0624 7.92608 20.263 7.38418 20.263C7.1038 20.263 6.82216 20.263 6.54178 20.263C6.11807 20.2617 5.84146 20.0662 5.72579 19.6563C5.62772 19.3091 5.56485 18.9519 5.4693 18.6034C5.44918 18.5282 5.37123 18.4467 5.2983 18.4129C5.05816 18.2988 4.81172 18.1973 4.56026 18.1083C4.48482 18.082 4.37292 18.0882 4.30503 18.1271C4.01962 18.29 3.74804 18.4755 3.4664 18.6423C3.01503 18.908 2.69944 18.8641 2.32728 18.4944C2.13365 18.3013 1.93877 18.1083 1.74515 17.9153C1.40693 17.5768 1.35915 17.2647 1.60181 16.8461C1.77281 16.5503 1.95889 16.2632 2.14623 15.9774C2.20909 15.8809 2.21412 15.807 2.16257 15.7004C2.04941 15.4673 1.95009 15.2279 1.86333 14.9835C1.82436 14.8731 1.77029 14.818 1.65588 14.7942C1.33401 14.7277 1.01339 14.6576 0.695292 14.5773C0.194883 14.4507 0 14.1963 0 13.6874C0 13.5984 0 13.5094 0 13.4204C0 13.1121 0.0427485 13.0719 0.359591 13.0707C0.900234 13.0707 1.44213 13.0707 1.98278 13.0707H1.98403Z" fill="#1B1B1B"/>
<path d="M7.00464 0.176273C8.5109 0.17878 9.7154 1.38585 9.71288 2.88747C9.70911 4.37155 8.49455 5.58363 7.00715 5.58865C5.51724 5.59366 4.28508 4.36779 4.28508 2.8787C4.28257 1.38459 5.50216 0.173767 7.00464 0.176273ZM6.64002 3.09555C6.48789 2.88747 6.34832 2.69444 6.20499 2.50392C6.07926 2.33847 5.91958 2.30212 5.78002 2.39988C5.63543 2.50141 5.61909 2.67188 5.74607 2.84862C5.89318 3.05418 6.04406 3.25599 6.19368 3.45905C6.52812 3.91279 6.57087 3.91781 7.00213 3.54303C7.40949 3.1883 7.81812 2.83608 8.2192 2.47634C8.41911 2.2971 8.37008 2.01132 8.12993 1.96995C8.03438 1.95366 7.89984 2.0063 7.82063 2.07274C7.4271 2.39988 7.04487 2.74208 6.64002 3.09555Z" fill="#1B1B1B"/>
<path d="M9.53456 13.0696C9.40254 14.5424 8.26845 15.6893 6.97216 15.6742C5.69097 15.6605 4.5619 14.496 4.45629 13.0696H9.53456Z" fill="#1B1B1B"/>
<path d="M9.5362 12.1087H4.47553C4.42775 10.9843 5.60082 9.84118 6.8531 9.78352C8.23992 9.71959 9.46957 10.7762 9.5362 12.1087Z" fill="#1B1B1B"/>
<path d="M9.98078 12.1024C9.9242 11.5685 9.75824 11.0683 9.44643 10.6271C9.82362 10.0104 10.9778 9.63564 11.8554 9.8387C12.9593 10.0944 13.7515 10.9881 13.8495 12.1012H9.98078V12.1024Z" fill="#1B1B1B"/>
<path d="M0.156944 12.0988C0.208494 11.1199 0.915102 10.2362 1.90586 9.90406C2.83376 9.59321 3.94899 9.88526 4.56004 10.6097C4.25703 11.051 4.07095 11.5423 4.02317 12.0988H0.156944Z" fill="#1B1B1B"/>
<path d="M11.3148 9.52923C10.4849 9.53299 9.79342 8.8436 9.79719 8.01632C9.80096 7.19532 10.4799 6.5172 11.3034 6.51344C12.1345 6.50968 12.826 7.19908 12.8223 8.0251C12.8185 8.8461 12.1383 9.52422 11.3148 9.52798V9.52923Z" fill="#1B1B1B"/>
<path d="M1.18905 8.02445C1.18653 7.19216 1.84913 6.53035 2.68399 6.52784C3.51381 6.52533 4.19024 7.19342 4.1915 8.01693C4.19276 8.83668 3.51381 9.5173 2.69027 9.52106C1.86548 9.52357 1.1903 8.85047 1.18779 8.02445H1.18905Z" fill="#1B1B1B"/>
<path d="M5.50497 8.01568C5.50622 7.18464 6.17386 6.52533 7.00871 6.52784C7.82973 6.5316 8.49485 7.19217 8.50114 8.01192C8.50742 8.83167 7.82722 9.51229 7.00242 9.5148C6.17511 9.51605 5.50371 8.84421 5.50622 8.01568H5.50497Z" fill="#1B1B1B"/>
</svg>
