<svg width="14" height="21" viewBox="0 0 14 21" fill="none" xmlns="http://www.w3.org/2000/svg">
<path d="M1.98403 12.8944C2.52468 12.8944 3.06658 12.8944 3.60722 12.8944C3.8788 12.8944 3.93161 12.9471 3.94292 13.2141C4.01333 14.8059 5.25681 16.0669 6.84102 16.1534C8.39505 16.2386 9.78312 15.113 10.027 13.5688C10.0472 13.4409 10.0522 13.3106 10.0622 13.1815C10.0799 12.9471 10.1289 12.8957 10.364 12.8944C11.1385 12.8919 11.9117 12.8944 12.6863 12.8944C13.0282 12.8944 13.3715 12.8919 13.7135 12.8944C13.936 12.8969 13.9926 12.9558 13.9989 13.1752C14.0014 13.2918 13.9989 13.4071 13.9989 13.5237C13.9976 14.01 13.8027 14.2695 13.33 14.3935C13.0257 14.4725 12.7177 14.5402 12.4096 14.6029C12.2575 14.6342 12.1657 14.6931 12.1167 14.8573C12.0513 15.0779 11.9507 15.2898 11.8476 15.4978C11.7898 15.6144 11.7822 15.7009 11.8602 15.8137C12.0337 16.0669 12.1946 16.3289 12.3556 16.5921C12.6485 17.0734 12.6096 17.3818 12.2135 17.7778C12.0199 17.9709 11.8263 18.1652 11.6326 18.3569C11.3196 18.6678 10.9989 18.7217 10.6104 18.5048C10.3062 18.3344 10.012 18.1476 9.72152 17.9546C9.60836 17.8794 9.52286 17.8831 9.40468 17.9408C9.1771 18.0511 8.94324 18.1476 8.70435 18.2278C8.58868 18.2667 8.54216 18.3294 8.51953 18.4384C8.45415 18.7455 8.38625 19.0513 8.31207 19.3559C8.18257 19.8861 7.92608 20.0867 7.38418 20.0867C7.1038 20.0867 6.82216 20.0867 6.54178 20.0867C6.11807 20.0854 5.84146 19.8899 5.72579 19.48C5.62772 19.1328 5.56485 18.7756 5.4693 18.4271C5.44918 18.3519 5.37123 18.2705 5.2983 18.2366C5.05816 18.1225 4.81172 18.021 4.56026 17.932C4.48482 17.9057 4.37292 17.912 4.30503 17.9508C4.01962 18.1138 3.74804 18.2993 3.4664 18.466C3.01503 18.7317 2.69944 18.6878 2.32728 18.3181C2.13365 18.1251 1.93877 17.932 1.74515 17.739C1.40693 17.4006 1.35915 17.0885 1.60181 16.6698C1.77281 16.374 1.95889 16.0869 2.14623 15.8012C2.20909 15.7046 2.21412 15.6307 2.16257 15.5242C2.04941 15.291 1.95009 15.0516 1.86333 14.8072C1.82436 14.6969 1.77029 14.6417 1.65588 14.6179C1.33401 14.5515 1.01339 14.4813 0.695292 14.4011C0.194883 14.2745 0 14.02 0 13.5111C0 13.4221 0 13.3331 0 13.2441C0 12.9358 0.0427485 12.8957 0.359591 12.8944C0.900234 12.8944 1.44213 12.8944 1.98278 12.8944H1.98403Z" fill="#023ED6"/>
<path d="M7.00464 3.88567e-06C8.51089 0.00251078 9.7154 1.20958 9.71288 2.71121C9.70911 4.19528 8.49455 5.40736 7.00715 5.41238C5.51724 5.41739 4.28508 4.19152 4.28508 2.70243C4.28256 1.20832 5.50215 -0.002503 7.00464 3.88567e-06ZM6.64002 2.91928C6.48788 2.71121 6.34832 2.51817 6.20499 2.32765C6.07926 2.1622 5.91958 2.12585 5.78002 2.22361C5.63543 2.32514 5.61908 2.49561 5.74607 2.67235C5.89318 2.87791 6.04405 3.07972 6.19367 3.28278C6.52812 3.73652 6.57087 3.74154 7.00212 3.36676C7.40949 3.01203 7.81812 2.65981 8.2192 2.30008C8.41911 2.12083 8.37008 1.83505 8.12993 1.79368C8.03438 1.77739 7.89984 1.83003 7.82063 1.89647C7.42709 2.22362 7.04487 2.56581 6.64002 2.91928Z" fill="#023ED6"/>
<path d="M9.53456 12.8933C9.40254 14.3661 8.26845 15.513 6.97216 15.498C5.69097 15.4842 4.5619 14.3197 4.45629 12.8933H9.53456Z" fill="#023ED6"/>
<path d="M9.5362 11.9324H4.47553C4.42775 10.808 5.60082 9.66491 6.8531 9.60725C8.23992 9.54332 9.46957 10.6 9.5362 11.9324Z" fill="#023ED6"/>
<path d="M9.98078 11.9262C9.9242 11.3922 9.75824 10.8921 9.44643 10.4508C9.82362 9.83415 10.9778 9.45937 11.8554 9.66243C12.9593 9.91813 13.7515 10.8118 13.8495 11.9249H9.98078V11.9262Z" fill="#023ED6"/>
<path d="M0.156945 11.9226C0.208495 10.9436 0.915103 10.06 1.90586 9.72779C2.83376 9.41694 3.94899 9.70899 4.56004 10.4335C4.25703 10.8747 4.07095 11.366 4.02317 11.9226H0.156945Z" fill="#023ED6"/>
<path d="M11.3148 9.35296C10.4849 9.35672 9.79342 8.66733 9.79719 7.84005C9.80096 7.01905 10.4799 6.34093 11.3034 6.33717C12.1345 6.33341 12.826 7.02281 12.8223 7.84883C12.8185 8.66983 12.1383 9.34795 11.3148 9.35171V9.35296Z" fill="#023ED6"/>
<path d="M1.18905 7.84818C1.18653 7.0159 1.84913 6.35408 2.68399 6.35157C3.51381 6.34906 4.19024 7.01715 4.1915 7.84066C4.19276 8.66042 3.51381 9.34104 2.69027 9.3448C1.86548 9.3473 1.1903 8.6742 1.18779 7.84818H1.18905Z" fill="#023ED6"/>
<path d="M5.50496 7.83941C5.50622 7.00837 6.17385 6.34906 7.00871 6.35157C7.82973 6.35533 8.49485 7.0159 8.50113 7.83565C8.50742 8.6554 7.82722 9.33602 7.00242 9.33853C6.17511 9.33978 5.50371 8.66794 5.50622 7.83941H5.50496Z" fill="#023ED6"/>
</svg>
