<svg width="21" height="21" viewBox="0 0 21 21" fill="none" xmlns="http://www.w3.org/2000/svg">
<path d="M10.5 5.20744V4.51605H14.2221L15.3486 2.56336C15.1763 2.36934 15.0713 2.11417 15.0713 1.83485C15.0713 1.22851 15.564 0.735203 16.1696 0.735203C16.7752 0.735203 17.268 1.22851 17.268 1.83485C17.268 2.4412 16.7752 2.93325 16.1696 2.93325C16.0932 2.93325 16.0185 2.92534 15.9464 2.91039L14.7216 5.03455C14.6598 5.14171 14.5457 5.20739 14.4221 5.20739H10.5L10.5 5.20744ZM19.9016 9.4016C19.4168 9.4016 19.0046 9.71757 18.8593 10.1543H13.1915C13.1366 9.72383 12.9812 9.3243 12.7487 8.98085H16.3665C16.4899 8.98085 16.604 8.915 16.6658 8.80809L17.862 6.73743C17.9338 6.75225 18.0081 6.76008 18.0842 6.76008C18.6899 6.76008 19.1826 6.26733 19.1826 5.66168C19.1826 5.05602 18.6899 4.56328 18.0842 4.56328C17.4786 4.56328 16.9859 5.05602 16.9859 5.66168C16.9859 5.9413 17.0911 6.19672 17.2638 6.39083L16.167 8.28951H12.0733C11.6292 7.97238 11.0866 7.78501 10.5006 7.78501C9.00364 7.78501 7.78577 9.00293 7.78577 10.5C7.78577 11.9971 9.00364 13.2138 10.5006 13.2138C11.0859 13.2138 11.628 13.0269 12.0718 12.7105H16.167L17.2638 14.6092C17.0911 14.8033 16.9859 15.0587 16.9859 15.3384C16.9859 15.944 17.4786 16.4368 18.0842 16.4368C18.6899 16.4368 19.1826 15.944 19.1826 15.3384C19.1826 14.7327 18.6899 14.24 18.0842 14.24C18.0081 14.24 17.9338 14.2478 17.862 14.2626L16.6658 12.192C16.604 12.085 16.4899 12.0192 16.3665 12.0192H12.7481C12.981 11.6758 13.1365 11.2763 13.1915 10.8457H18.8593C19.0046 11.2825 19.4168 11.5984 19.9016 11.5984C20.5073 11.5984 21 11.1057 21 10.5C21 9.89439 20.5073 9.40165 19.9016 9.40165V9.4016ZM13.0069 2.90209C13.6125 2.90209 14.1053 2.40935 14.1053 1.8037C14.1053 1.19804 13.6125 0.705301 13.0069 0.705301C12.522 0.705301 12.1098 1.02126 11.9646 1.458H10.5006V2.14939H11.9646C12.1098 2.58613 12.522 2.90209 13.0069 2.90209ZM16.1697 18.0668C16.0932 18.0668 16.0186 18.0747 15.9465 18.0896L14.7216 15.9654C14.6598 15.8582 14.5457 15.7925 14.4222 15.7925H10.5V16.4839H14.2221L15.3486 18.4366C15.1763 18.6307 15.0713 18.8858 15.0713 19.1651C15.0713 19.7708 15.564 20.2635 16.1697 20.2635C16.7753 20.2635 17.268 19.7708 17.268 19.1651C17.268 18.5595 16.7753 18.0668 16.1697 18.0668ZM13.0069 18.0967C12.522 18.0967 12.1098 18.4126 11.9646 18.8494H10.5006V19.5407H11.9645C12.1096 19.9782 12.5219 20.2947 13.0069 20.2947C13.6125 20.2947 14.1053 19.8014 14.1053 19.195C14.1053 18.5887 13.6125 18.0967 13.0069 18.0967ZM4.51586 10.5C4.51586 7.20036 7.20006 4.51648 10.5 4.51605V0.172847C10.5 0.077781 10.4227 0 10.3272 0H9.17259C9.10519 0 9.04426 0.0393226 9.01574 0.100683L8.08759 2.10959L6.27278 2.86148L4.19611 2.0962C4.13302 2.07286 4.06216 2.08842 4.0142 2.13638L2.13716 4.01479C2.08963 4.06233 2.07407 4.13363 2.09698 4.19672L2.86222 6.27347L2.1108 8.08793L0.100679 9.01525C0.039321 9.04334 0 9.1047 0 9.17211V11.8279C0 11.8953 0.039321 11.9567 0.100679 11.9848L2.1108 12.9121L2.86222 14.7265L2.09698 16.8033C2.07407 16.8668 2.08963 16.9377 2.13716 16.9852L4.0142 18.864C4.06216 18.9116 4.13302 18.9271 4.19611 18.9038L6.27278 18.1385L8.08759 18.8904L9.01574 20.8993C9.04426 20.9607 9.10519 21 9.17259 21H10.3272C10.4227 21 10.5 20.9227 10.5 20.8272V16.484C7.20006 16.4835 4.51586 13.7996 4.51586 10.5ZM5.20722 10.5C5.20722 13.4181 7.5816 15.7921 10.5 15.7926V14.5978C10.5 14.5978 10.5004 14.5978 10.5006 14.5978H13.9325C14.1234 14.5978 14.2781 14.443 14.2781 14.2521C14.2781 14.0612 14.1234 13.9064 13.9325 13.9064H10.5006C10.5006 13.9064 10.5002 13.9064 10.5 13.9064V13.9051C8.6221 13.9047 7.09441 12.3773 7.09441 10.4999C7.09441 8.6225 8.6221 7.09389 10.5 7.09358C12.3779 7.09328 10.5004 7.09358 10.5006 7.09358H13.9325C14.1234 7.09358 14.2781 6.9388 14.2781 6.74789C14.2781 6.55698 14.1234 6.4022 13.9325 6.4022H10.5006C10.5006 6.4022 10.5002 6.4022 10.5 6.4022V5.20735C7.5816 5.20778 5.20722 7.58183 5.20722 10.4999V10.5Z" fill="#023ED6"/>
</svg>
