<svg width="72" height="72" viewBox="0 0 72 72" fill="none" xmlns="http://www.w3.org/2000/svg">
<rect width="72" height="72" rx="15" fill="#104DE5"/>
<path d="M25.6776 40.2419C26.8617 40.2419 28.0486 40.2419 29.2328 40.2419C29.8276 40.2419 29.9433 40.3572 29.968 40.942C30.1223 44.4286 32.8458 47.1905 36.3156 47.3799C39.7194 47.5666 42.7596 45.1012 43.2938 41.719C43.3379 41.4389 43.3489 41.1534 43.3709 40.8706C43.4095 40.3572 43.5169 40.2447 44.0319 40.2419C45.7282 40.2365 47.4218 40.2419 49.1182 40.2419C49.8672 40.2419 50.619 40.2365 51.3681 40.2419C51.8555 40.2474 51.9794 40.3765 51.9932 40.8569C51.9987 41.1122 51.9932 41.3648 51.9932 41.6201C51.9904 42.6853 51.5636 43.2536 50.5282 43.5254C49.8617 43.6984 49.187 43.8466 48.5123 43.9839C48.1791 44.0525 47.9781 44.1815 47.8707 44.5412C47.7275 45.0244 47.5072 45.4883 47.2814 45.9441C47.1547 46.1994 47.1382 46.3888 47.3089 46.6359C47.689 47.1905 48.0414 47.7642 48.3939 48.3408C49.0356 49.395 48.9502 50.0704 48.0828 50.9379C47.6587 51.3607 47.2346 51.7862 46.8105 52.2063C46.1248 52.8871 45.4225 53.0052 44.5716 52.5302C43.9052 52.1568 43.2608 51.7478 42.6247 51.325C42.3768 51.1603 42.1896 51.1685 41.9307 51.2948C41.4322 51.5364 40.92 51.7478 40.3968 51.9235C40.1435 52.0086 40.0416 52.1459 39.992 52.3847C39.8488 53.0573 39.7001 53.7272 39.5376 54.3943C39.254 55.5556 38.6922 55.9949 37.5053 55.9949C36.8912 55.9949 36.2743 55.9949 35.6602 55.9949C34.7322 55.9921 34.1263 55.5638 33.873 54.6661C33.6582 53.9056 33.5205 53.1232 33.3112 52.36C33.2671 52.1953 33.0964 52.0168 32.9367 51.9427C32.4107 51.6929 31.8709 51.4705 31.3202 51.2756C31.1549 51.2179 30.9099 51.2316 30.7612 51.3168C30.136 51.6737 29.5412 52.08 28.9243 52.4451C27.9357 53.0271 27.2445 52.931 26.4294 52.1211C26.0053 51.6984 25.5784 51.2756 25.1543 50.8528C24.4136 50.1115 24.3089 49.4279 24.8404 48.511C25.2149 47.8631 25.6225 47.2344 26.0328 46.6084C26.1705 46.3971 26.1815 46.2351 26.0686 46.0017C25.8208 45.4911 25.6032 44.9667 25.4132 44.4314C25.3278 44.1898 25.2094 44.069 24.9588 44.0168C24.2538 43.8713 23.5516 43.7176 22.8549 43.5419C21.7589 43.2646 21.332 42.7073 21.332 41.5927C21.332 41.3977 21.332 41.2028 21.332 41.0079C21.332 40.3325 21.4257 40.2447 22.1196 40.2419C23.3038 40.2419 24.4907 40.2419 25.6748 40.2419H25.6776Z" fill="white"/>
<path d="M36.6753 12C39.9744 12.0055 42.6126 14.6493 42.607 17.9382C42.5988 21.1888 39.9386 23.8435 36.6808 23.8545C33.4175 23.8655 30.7188 21.1805 30.7188 17.919C30.7133 14.6465 33.3845 11.9945 36.6753 12ZM35.8767 18.394C35.5435 17.9382 35.2378 17.5155 34.9239 17.0982C34.6485 16.7358 34.2987 16.6562 33.9931 16.8703C33.6764 17.0927 33.6406 17.466 33.9187 17.8531C34.2409 18.3034 34.5714 18.7454 34.8991 19.1901C35.6316 20.1839 35.7252 20.1949 36.6698 19.3741C37.562 18.5971 38.457 17.8257 39.3355 17.0378C39.7734 16.6452 39.666 16.0192 39.14 15.9286C38.9307 15.8929 38.636 16.0082 38.4625 16.1537C37.6006 16.8703 36.7634 17.6198 35.8767 18.394Z" fill="white"/>
<path d="M42.2165 40.2396C41.9273 43.4654 39.4434 45.9774 36.6042 45.9445C33.798 45.9143 31.3251 43.3639 31.0938 40.2396H42.2165Z" fill="white"/>
<path d="M42.2201 38.1352H31.1359C31.0313 35.6726 33.6006 33.1688 36.3434 33.0425C39.3809 32.9025 42.0741 35.2169 42.2201 38.1352Z" fill="white"/>
<path d="M43.1938 38.1213C43.0699 36.9518 42.7064 35.8564 42.0234 34.89C42.8496 33.5393 45.3776 32.7184 47.2998 33.1632C49.7176 33.7232 51.4526 35.6807 51.6674 38.1186H43.1938V38.1213Z" fill="white"/>
<path d="M21.6758 38.1136C21.7887 35.9694 23.3363 34.034 25.5064 33.3064C27.5387 32.6256 29.9813 33.2653 31.3197 34.8521C30.656 35.8184 30.2485 36.8946 30.1438 38.1136H21.6758Z" fill="white"/>
<path d="M46.1149 32.4855C44.2974 32.4938 42.7828 30.9838 42.791 29.1719C42.7993 27.3736 44.2864 25.8884 46.0901 25.8802C47.9104 25.8719 49.425 27.3819 49.4168 29.1911C49.4085 30.9893 47.9187 32.4745 46.1149 32.4828V32.4855Z" fill="white"/>
<path d="M23.9363 29.1894C23.9308 27.3664 25.3821 25.9169 27.2107 25.9114C29.0282 25.9059 30.5097 27.3692 30.5125 29.1729C30.5153 30.9684 29.0282 32.4591 27.2244 32.4673C25.4179 32.4728 23.9391 30.9986 23.9336 29.1894H23.9363Z" fill="white"/>
<path d="M33.3906 29.1703C33.3934 27.3501 34.8557 25.906 36.6842 25.9115C38.4825 25.9198 39.9392 27.3666 39.953 29.162C39.9668 30.9575 38.477 32.4482 36.6704 32.4537C34.8584 32.4565 33.3879 30.985 33.3934 29.1703H33.3906Z" fill="white"/>
</svg>
