<svg width="39" height="39" viewBox="0 0 39 39" fill="none" xmlns="http://www.w3.org/2000/svg">
<path d="M11.901 11.9014C11.8312 12.4584 11.7949 13.0257 11.7949 13.6014C11.7949 14.2137 11.8363 14.8163 11.9151 15.4074H22.8216C20.3958 13.1667 17.1557 11.7954 13.6009 11.7954C13.0253 11.7954 12.458 11.8317 11.901 11.9014Z" fill="#023ED6"/>
<path d="M24.8059 17.6934H12.4258C12.8365 18.9925 13.4376 20.2076 14.1957 21.3065H26.5755C26.1649 20.0074 25.5639 18.7923 24.8059 17.6934Z" fill="#023ED6"/>
<path d="M13.602 38.9993C19.6932 38.9993 24.8621 34.9746 26.5891 29.4448C26.1958 29.474 25.7986 29.4893 25.3979 29.4893C16.6372 29.4893 9.50996 22.362 9.50996 13.6013C9.50996 13.2007 9.5252 12.8034 9.55453 12.4102C4.02472 14.1371 0 19.3059 0 25.3973C0 32.8974 6.10185 38.9993 13.602 38.9993Z" fill="#023ED6"/>
<path d="M27.0851 23.5928H16.1797C18.6054 25.8327 21.8449 27.2036 25.3991 27.2036C25.9747 27.2036 26.542 27.1674 27.099 27.0976C27.1688 26.5406 27.2051 25.9733 27.2051 25.3976C27.2051 24.7858 27.1637 24.1835 27.0851 23.5928Z" fill="#023ED6"/>
<path d="M25.3973 0C19.306 0 14.1371 4.02472 12.4102 9.55453C12.8034 9.52527 13.2007 9.51003 13.6013 9.51003C22.362 9.51003 29.4893 16.6373 29.4893 25.398C29.4893 25.7986 29.474 26.1959 29.4447 26.5891C34.9745 24.8621 38.9992 19.6933 38.9992 13.602C38.9993 6.10185 32.8974 0 25.3973 0Z" fill="#023ED6"/>
</svg>
