<svg width="25" height="24" viewBox="0 0 25 24" fill="none" xmlns="http://www.w3.org/2000/svg">
<path d="M12.1676 10.87C12.0676 10.86 11.9475 10.86 11.8374 10.87C9.45577 10.79 7.56445 8.84 7.56445 6.44C7.56445 3.99 9.54583 2 12.0075 2C14.4592 2 16.4506 3.99 16.4506 6.44C16.4406 8.84 14.5493 10.79 12.1676 10.87Z" stroke="#D9E0F1" stroke-width="1.5" stroke-linecap="round" stroke-linejoin="round"/>
<path d="M7.16392 14.56C4.74224 16.18 4.74224 18.82 7.16392 20.43C9.91583 22.27 14.429 22.27 17.1809 20.43C19.6025 18.81 19.6025 16.17 17.1809 14.56C14.439 12.73 9.92583 12.73 7.16392 14.56Z" stroke="#D9E0F1" stroke-width="1.5" stroke-linecap="round" stroke-linejoin="round"/>
</svg>
