<svg width="15" height="17" viewBox="0 0 15 17" fill="none" xmlns="http://www.w3.org/2000/svg">
<path fill-rule="evenodd" clip-rule="evenodd" d="M0.412785 12.1363H1.65118C1.87821 12.1363 2.06397 12.3187 2.06397 12.5416V16.5947C2.06397 16.8176 1.87821 17 1.65118 17H0.412785C0.185757 17 0 16.8176 0 16.5947V12.5416C0 12.3187 0.185757 12.1363 0.412785 12.1363ZM2.94388 12.8163V15.8477C2.94388 15.8688 2.96146 15.8861 2.98303 15.8861C3.88002 15.8871 4.79526 15.915 5.67343 16.0394C6.47417 16.1527 7.33005 16.4492 8.09932 16.3876C9.09154 16.3083 10.1738 15.6598 10.991 15.1395C12.2523 14.3366 13.7736 13.0612 14.8713 12.0401C15.1531 11.7779 14.9258 11.3661 14.6339 11.3126C14.4615 11.281 14.353 11.3614 14.2063 11.4426C12.7944 12.2238 11.1544 13.1313 10.0961 13.4786C9.92484 13.5348 9.74868 13.58 9.56738 13.6136C8.95729 13.7268 9.21 13.8426 8.77166 14.0736C8.53711 14.1972 8.25264 14.2368 7.97343 14.1792C7.42015 14.065 6.61415 13.8436 6.13263 13.8573C5.77521 13.8674 5.36913 13.9775 5.02479 14.1037C4.8736 14.159 4.70529 14.0834 4.64899 13.9349C4.59269 13.7865 4.66962 13.6212 4.82086 13.5659C6.17428 13.0699 6.65844 13.3208 8.09257 13.6167C8.57189 13.7156 8.86129 13.2996 8.67311 12.9555C8.61537 12.8498 8.51733 12.7658 8.39288 12.729L5.87821 11.9846C5.25369 11.7998 4.7517 12.0469 4.22461 12.3065C3.68993 12.5698 3.53143 12.6378 2.97326 12.779C2.95573 12.7835 2.94388 12.7985 2.94388 12.8163ZM3.1355 3.02468H2.85531C2.84453 3.02468 2.83523 3.02847 2.82759 3.03598L2.60757 3.25201C2.59992 3.25952 2.59606 3.26865 2.59606 3.27923V10.4588C2.59606 10.5957 2.71227 10.7098 2.85171 10.7098H10.2876C10.427 10.7098 10.5432 10.5957 10.5432 10.4588V1.91912C10.5432 1.78222 10.427 1.66815 10.2876 1.66815H4.23697C4.22618 1.66815 4.21688 1.67195 4.20924 1.67941L3.98922 1.89544C3.98158 1.90295 3.97776 1.91208 3.97776 1.92267V2.19773C3.97776 2.65256 3.59877 3.02468 3.1355 3.02468ZM8.24665 6.1944C8.24665 6.03535 8.37798 5.90641 8.53996 5.90641C8.70194 5.90641 8.83326 6.03535 8.83326 6.1944V6.86509C8.83326 7.02414 8.70194 7.15308 8.53996 7.15308H7.85688C7.6949 7.15308 7.56357 7.02414 7.56357 6.86509C7.56357 6.70605 7.6949 6.5771 7.85688 6.5771H8.20742C8.22903 6.5771 8.24661 6.5598 8.24661 6.53858L8.24665 6.1944ZM4.72414 6.1944C4.72414 6.03535 4.85547 5.90641 5.01745 5.90641C5.17943 5.90641 5.31075 6.03535 5.31075 6.1944V6.53858C5.31075 6.5598 5.32837 6.5771 5.34994 6.5771H5.70048C5.86246 6.5771 5.99379 6.70605 5.99379 6.86509C5.99379 7.02414 5.86246 7.15308 5.70048 7.15308H5.01745C4.85547 7.15308 4.72414 7.02414 4.72414 6.86509V6.1944ZM8.83326 4.42706C8.83326 4.58611 8.70194 4.71505 8.53996 4.71505C8.37798 4.71505 8.24665 4.58611 8.24665 4.42706V4.08288C8.24665 4.06166 8.22903 4.0444 8.20746 4.0444H7.85692C7.69494 4.0444 7.56362 3.91545 7.56362 3.75641C7.56362 3.59737 7.69494 3.46842 7.85692 3.46842H8.54C8.70198 3.46842 8.83331 3.59737 8.83331 3.75641V4.42706H8.83326ZM5.31075 4.42706C5.31075 4.58611 5.17943 4.71505 5.01745 4.71505C4.85547 4.71505 4.72414 4.58611 4.72414 4.42706V3.75637C4.72414 3.59732 4.85547 3.46838 5.01745 3.46838H5.70052C5.8625 3.46838 5.99383 3.59732 5.99383 3.75637C5.99383 3.91541 5.8625 4.04436 5.70052 4.04436H5.34998C5.32837 4.04436 5.31079 4.06166 5.31079 4.08284L5.31075 4.42706ZM3.72491 8.71343C3.56293 8.71343 3.43161 8.58448 3.43161 8.42544C3.43161 8.2664 3.56293 8.13745 3.72491 8.13745H9.41453C9.57651 8.13745 9.70783 8.2664 9.70783 8.42544C9.70783 8.58448 9.57651 8.71343 9.41453 8.71343H3.72491ZM3.72491 10.0282C3.56293 10.0282 3.43161 9.89924 3.43161 9.74019C3.43161 9.58115 3.56293 9.4522 3.72491 9.4522H9.41453C9.57651 9.4522 9.70783 9.58115 9.70783 9.74019C9.70783 9.89924 9.57651 10.0282 9.41453 10.0282H3.72491ZM11.9153 0.000124999C12.3649 0.000124999 12.7327 0.361321 12.7327 0.802685V9.36757C12.7327 9.80894 12.3648 10.1701 11.9153 10.1701H11.1691C11.1475 10.1701 11.1299 10.1874 11.1299 10.2086V10.4587C11.1299 10.9135 10.7509 11.2857 10.2877 11.2857H2.85175C2.38852 11.2857 2.00949 10.9136 2.00949 10.4587V3.04056C2.00949 3.02997 2.01336 3.02084 2.021 3.01334L3.96625 1.10335C3.97389 1.09584 3.98319 1.09205 3.99398 1.09205H4.89924C4.92081 1.09205 4.93843 1.07479 4.93843 1.05357L4.93864 0.781923C4.94412 0.356818 5.31827 0 5.75581 0H11.9153V0.000124999Z" fill="#023ED6"/>
</svg>
